G04 #@! TF.GenerationSoftware,KiCad,Pcbnew,(5.0.2)-1*
G04 #@! TF.CreationDate,2020-06-10T19:57:50-05:00*
G04 #@! TF.ProjectId,BusinessCards,42757369-6e65-4737-9343-617264732e6b,rev?*
G04 #@! TF.SameCoordinates,Original*
G04 #@! TF.FileFunction,Copper,L2,Bot*
G04 #@! TF.FilePolarity,Positive*
%FSLAX46Y46*%
G04 Gerber Fmt 4.6, Leading zero omitted, Abs format (unit mm)*
G04 Created by KiCad (PCBNEW (5.0.2)-1) date 6/10/2020 7:57:50 PM*
%MOMM*%
%LPD*%
G01*
G04 APERTURE LIST*
G04 #@! TA.AperFunction,ComponentPad*
%ADD10C,5.080000*%
G04 #@! TD*
G04 #@! TA.AperFunction,ComponentPad*
%ADD11C,2.800000*%
G04 #@! TD*
G04 #@! TA.AperFunction,Conductor*
%ADD12C,0.100000*%
G04 #@! TD*
G04 #@! TA.AperFunction,SMDPad,CuDef*
%ADD13C,0.950000*%
G04 #@! TD*
G04 #@! TA.AperFunction,SMDPad,CuDef*
%ADD14C,0.850000*%
G04 #@! TD*
G04 #@! TA.AperFunction,ComponentPad*
%ADD15C,4.000000*%
G04 #@! TD*
G04 #@! TA.AperFunction,SMDPad,CuDef*
%ADD16R,4.000000X1.120000*%
G04 #@! TD*
G04 #@! TA.AperFunction,ComponentPad*
%ADD17O,2.200000X3.500000*%
G04 #@! TD*
G04 #@! TA.AperFunction,ComponentPad*
%ADD18O,1.500000X2.500000*%
G04 #@! TD*
G04 #@! TA.AperFunction,ComponentPad*
%ADD19R,1.500000X2.500000*%
G04 #@! TD*
G04 #@! TA.AperFunction,SMDPad,CuDef*
%ADD20R,5.800000X6.400000*%
G04 #@! TD*
G04 #@! TA.AperFunction,SMDPad,CuDef*
%ADD21R,1.200000X2.200000*%
G04 #@! TD*
G04 #@! TA.AperFunction,ViaPad*
%ADD22C,0.800000*%
G04 #@! TD*
G04 #@! TA.AperFunction,Conductor*
%ADD23C,0.762000*%
G04 #@! TD*
G04 #@! TA.AperFunction,Conductor*
%ADD24C,0.381000*%
G04 #@! TD*
G04 #@! TA.AperFunction,Conductor*
%ADD25C,0.254000*%
G04 #@! TD*
G04 APERTURE END LIST*
D10*
G04 #@! TO.P,BT1,2*
G04 #@! TO.N,GND*
X106680000Y-69850000D03*
G04 #@! TO.P,BT1,1*
G04 #@! TO.N,+9V*
X106680000Y-82550000D03*
G04 #@! TD*
D11*
G04 #@! TO.P,REF\002A\002A,1*
G04 #@! TO.N,GND*
X187960000Y-78740000D03*
G04 #@! TD*
D12*
G04 #@! TO.N,GND*
G04 #@! TO.C,C1*
G36*
X164598779Y-54114144D02*
X164621834Y-54117563D01*
X164644443Y-54123227D01*
X164666387Y-54131079D01*
X164687457Y-54141044D01*
X164707448Y-54153026D01*
X164726168Y-54166910D01*
X164743438Y-54182562D01*
X164759090Y-54199832D01*
X164772974Y-54218552D01*
X164784956Y-54238543D01*
X164794921Y-54259613D01*
X164802773Y-54281557D01*
X164808437Y-54304166D01*
X164811856Y-54327221D01*
X164813000Y-54350500D01*
X164813000Y-54925500D01*
X164811856Y-54948779D01*
X164808437Y-54971834D01*
X164802773Y-54994443D01*
X164794921Y-55016387D01*
X164784956Y-55037457D01*
X164772974Y-55057448D01*
X164759090Y-55076168D01*
X164743438Y-55093438D01*
X164726168Y-55109090D01*
X164707448Y-55122974D01*
X164687457Y-55134956D01*
X164666387Y-55144921D01*
X164644443Y-55152773D01*
X164621834Y-55158437D01*
X164598779Y-55161856D01*
X164575500Y-55163000D01*
X164100500Y-55163000D01*
X164077221Y-55161856D01*
X164054166Y-55158437D01*
X164031557Y-55152773D01*
X164009613Y-55144921D01*
X163988543Y-55134956D01*
X163968552Y-55122974D01*
X163949832Y-55109090D01*
X163932562Y-55093438D01*
X163916910Y-55076168D01*
X163903026Y-55057448D01*
X163891044Y-55037457D01*
X163881079Y-55016387D01*
X163873227Y-54994443D01*
X163867563Y-54971834D01*
X163864144Y-54948779D01*
X163863000Y-54925500D01*
X163863000Y-54350500D01*
X163864144Y-54327221D01*
X163867563Y-54304166D01*
X163873227Y-54281557D01*
X163881079Y-54259613D01*
X163891044Y-54238543D01*
X163903026Y-54218552D01*
X163916910Y-54199832D01*
X163932562Y-54182562D01*
X163949832Y-54166910D01*
X163968552Y-54153026D01*
X163988543Y-54141044D01*
X164009613Y-54131079D01*
X164031557Y-54123227D01*
X164054166Y-54117563D01*
X164077221Y-54114144D01*
X164100500Y-54113000D01*
X164575500Y-54113000D01*
X164598779Y-54114144D01*
X164598779Y-54114144D01*
G37*
D13*
G04 #@! TD*
G04 #@! TO.P,C1,2*
G04 #@! TO.N,GND*
X164338000Y-54638000D03*
D12*
G04 #@! TO.N,Net-(C1-Pad1)*
G04 #@! TO.C,C1*
G36*
X164598779Y-55864144D02*
X164621834Y-55867563D01*
X164644443Y-55873227D01*
X164666387Y-55881079D01*
X164687457Y-55891044D01*
X164707448Y-55903026D01*
X164726168Y-55916910D01*
X164743438Y-55932562D01*
X164759090Y-55949832D01*
X164772974Y-55968552D01*
X164784956Y-55988543D01*
X164794921Y-56009613D01*
X164802773Y-56031557D01*
X164808437Y-56054166D01*
X164811856Y-56077221D01*
X164813000Y-56100500D01*
X164813000Y-56675500D01*
X164811856Y-56698779D01*
X164808437Y-56721834D01*
X164802773Y-56744443D01*
X164794921Y-56766387D01*
X164784956Y-56787457D01*
X164772974Y-56807448D01*
X164759090Y-56826168D01*
X164743438Y-56843438D01*
X164726168Y-56859090D01*
X164707448Y-56872974D01*
X164687457Y-56884956D01*
X164666387Y-56894921D01*
X164644443Y-56902773D01*
X164621834Y-56908437D01*
X164598779Y-56911856D01*
X164575500Y-56913000D01*
X164100500Y-56913000D01*
X164077221Y-56911856D01*
X164054166Y-56908437D01*
X164031557Y-56902773D01*
X164009613Y-56894921D01*
X163988543Y-56884956D01*
X163968552Y-56872974D01*
X163949832Y-56859090D01*
X163932562Y-56843438D01*
X163916910Y-56826168D01*
X163903026Y-56807448D01*
X163891044Y-56787457D01*
X163881079Y-56766387D01*
X163873227Y-56744443D01*
X163867563Y-56721834D01*
X163864144Y-56698779D01*
X163863000Y-56675500D01*
X163863000Y-56100500D01*
X163864144Y-56077221D01*
X163867563Y-56054166D01*
X163873227Y-56031557D01*
X163881079Y-56009613D01*
X163891044Y-55988543D01*
X163903026Y-55968552D01*
X163916910Y-55949832D01*
X163932562Y-55932562D01*
X163949832Y-55916910D01*
X163968552Y-55903026D01*
X163988543Y-55891044D01*
X164009613Y-55881079D01*
X164031557Y-55873227D01*
X164054166Y-55867563D01*
X164077221Y-55864144D01*
X164100500Y-55863000D01*
X164575500Y-55863000D01*
X164598779Y-55864144D01*
X164598779Y-55864144D01*
G37*
D13*
G04 #@! TD*
G04 #@! TO.P,C1,1*
G04 #@! TO.N,Net-(C1-Pad1)*
X164338000Y-56388000D03*
D12*
G04 #@! TO.N,+5V*
G04 #@! TO.C,C2*
G36*
X169170779Y-55864144D02*
X169193834Y-55867563D01*
X169216443Y-55873227D01*
X169238387Y-55881079D01*
X169259457Y-55891044D01*
X169279448Y-55903026D01*
X169298168Y-55916910D01*
X169315438Y-55932562D01*
X169331090Y-55949832D01*
X169344974Y-55968552D01*
X169356956Y-55988543D01*
X169366921Y-56009613D01*
X169374773Y-56031557D01*
X169380437Y-56054166D01*
X169383856Y-56077221D01*
X169385000Y-56100500D01*
X169385000Y-56675500D01*
X169383856Y-56698779D01*
X169380437Y-56721834D01*
X169374773Y-56744443D01*
X169366921Y-56766387D01*
X169356956Y-56787457D01*
X169344974Y-56807448D01*
X169331090Y-56826168D01*
X169315438Y-56843438D01*
X169298168Y-56859090D01*
X169279448Y-56872974D01*
X169259457Y-56884956D01*
X169238387Y-56894921D01*
X169216443Y-56902773D01*
X169193834Y-56908437D01*
X169170779Y-56911856D01*
X169147500Y-56913000D01*
X168672500Y-56913000D01*
X168649221Y-56911856D01*
X168626166Y-56908437D01*
X168603557Y-56902773D01*
X168581613Y-56894921D01*
X168560543Y-56884956D01*
X168540552Y-56872974D01*
X168521832Y-56859090D01*
X168504562Y-56843438D01*
X168488910Y-56826168D01*
X168475026Y-56807448D01*
X168463044Y-56787457D01*
X168453079Y-56766387D01*
X168445227Y-56744443D01*
X168439563Y-56721834D01*
X168436144Y-56698779D01*
X168435000Y-56675500D01*
X168435000Y-56100500D01*
X168436144Y-56077221D01*
X168439563Y-56054166D01*
X168445227Y-56031557D01*
X168453079Y-56009613D01*
X168463044Y-55988543D01*
X168475026Y-55968552D01*
X168488910Y-55949832D01*
X168504562Y-55932562D01*
X168521832Y-55916910D01*
X168540552Y-55903026D01*
X168560543Y-55891044D01*
X168581613Y-55881079D01*
X168603557Y-55873227D01*
X168626166Y-55867563D01*
X168649221Y-55864144D01*
X168672500Y-55863000D01*
X169147500Y-55863000D01*
X169170779Y-55864144D01*
X169170779Y-55864144D01*
G37*
D13*
G04 #@! TD*
G04 #@! TO.P,C2,1*
G04 #@! TO.N,+5V*
X168910000Y-56388000D03*
D12*
G04 #@! TO.N,GND*
G04 #@! TO.C,C2*
G36*
X169170779Y-54114144D02*
X169193834Y-54117563D01*
X169216443Y-54123227D01*
X169238387Y-54131079D01*
X169259457Y-54141044D01*
X169279448Y-54153026D01*
X169298168Y-54166910D01*
X169315438Y-54182562D01*
X169331090Y-54199832D01*
X169344974Y-54218552D01*
X169356956Y-54238543D01*
X169366921Y-54259613D01*
X169374773Y-54281557D01*
X169380437Y-54304166D01*
X169383856Y-54327221D01*
X169385000Y-54350500D01*
X169385000Y-54925500D01*
X169383856Y-54948779D01*
X169380437Y-54971834D01*
X169374773Y-54994443D01*
X169366921Y-55016387D01*
X169356956Y-55037457D01*
X169344974Y-55057448D01*
X169331090Y-55076168D01*
X169315438Y-55093438D01*
X169298168Y-55109090D01*
X169279448Y-55122974D01*
X169259457Y-55134956D01*
X169238387Y-55144921D01*
X169216443Y-55152773D01*
X169193834Y-55158437D01*
X169170779Y-55161856D01*
X169147500Y-55163000D01*
X168672500Y-55163000D01*
X168649221Y-55161856D01*
X168626166Y-55158437D01*
X168603557Y-55152773D01*
X168581613Y-55144921D01*
X168560543Y-55134956D01*
X168540552Y-55122974D01*
X168521832Y-55109090D01*
X168504562Y-55093438D01*
X168488910Y-55076168D01*
X168475026Y-55057448D01*
X168463044Y-55037457D01*
X168453079Y-55016387D01*
X168445227Y-54994443D01*
X168439563Y-54971834D01*
X168436144Y-54948779D01*
X168435000Y-54925500D01*
X168435000Y-54350500D01*
X168436144Y-54327221D01*
X168439563Y-54304166D01*
X168445227Y-54281557D01*
X168453079Y-54259613D01*
X168463044Y-54238543D01*
X168475026Y-54218552D01*
X168488910Y-54199832D01*
X168504562Y-54182562D01*
X168521832Y-54166910D01*
X168540552Y-54153026D01*
X168560543Y-54141044D01*
X168581613Y-54131079D01*
X168603557Y-54123227D01*
X168626166Y-54117563D01*
X168649221Y-54114144D01*
X168672500Y-54113000D01*
X169147500Y-54113000D01*
X169170779Y-54114144D01*
X169170779Y-54114144D01*
G37*
D13*
G04 #@! TD*
G04 #@! TO.P,C2,2*
G04 #@! TO.N,GND*
X168910000Y-54638000D03*
D12*
G04 #@! TO.N,Net-(D1-Pad2)*
G04 #@! TO.C,D1*
G36*
X187568329Y-64600023D02*
X187588957Y-64603083D01*
X187609185Y-64608150D01*
X187628820Y-64615176D01*
X187647672Y-64624092D01*
X187665559Y-64634813D01*
X187682309Y-64647235D01*
X187697760Y-64661240D01*
X187711765Y-64676691D01*
X187724187Y-64693441D01*
X187734908Y-64711328D01*
X187743824Y-64730180D01*
X187750850Y-64749815D01*
X187755917Y-64770043D01*
X187758977Y-64790671D01*
X187760000Y-64811500D01*
X187760000Y-65236500D01*
X187758977Y-65257329D01*
X187755917Y-65277957D01*
X187750850Y-65298185D01*
X187743824Y-65317820D01*
X187734908Y-65336672D01*
X187724187Y-65354559D01*
X187711765Y-65371309D01*
X187697760Y-65386760D01*
X187682309Y-65400765D01*
X187665559Y-65413187D01*
X187647672Y-65423908D01*
X187628820Y-65432824D01*
X187609185Y-65439850D01*
X187588957Y-65444917D01*
X187568329Y-65447977D01*
X187547500Y-65449000D01*
X186747500Y-65449000D01*
X186726671Y-65447977D01*
X186706043Y-65444917D01*
X186685815Y-65439850D01*
X186666180Y-65432824D01*
X186647328Y-65423908D01*
X186629441Y-65413187D01*
X186612691Y-65400765D01*
X186597240Y-65386760D01*
X186583235Y-65371309D01*
X186570813Y-65354559D01*
X186560092Y-65336672D01*
X186551176Y-65317820D01*
X186544150Y-65298185D01*
X186539083Y-65277957D01*
X186536023Y-65257329D01*
X186535000Y-65236500D01*
X186535000Y-64811500D01*
X186536023Y-64790671D01*
X186539083Y-64770043D01*
X186544150Y-64749815D01*
X186551176Y-64730180D01*
X186560092Y-64711328D01*
X186570813Y-64693441D01*
X186583235Y-64676691D01*
X186597240Y-64661240D01*
X186612691Y-64647235D01*
X186629441Y-64634813D01*
X186647328Y-64624092D01*
X186666180Y-64615176D01*
X186685815Y-64608150D01*
X186706043Y-64603083D01*
X186726671Y-64600023D01*
X186747500Y-64599000D01*
X187547500Y-64599000D01*
X187568329Y-64600023D01*
X187568329Y-64600023D01*
G37*
D14*
G04 #@! TD*
G04 #@! TO.P,D1,2*
G04 #@! TO.N,Net-(D1-Pad2)*
X187147500Y-65024000D03*
D12*
G04 #@! TO.N,GND*
G04 #@! TO.C,D1*
G36*
X189193329Y-64600023D02*
X189213957Y-64603083D01*
X189234185Y-64608150D01*
X189253820Y-64615176D01*
X189272672Y-64624092D01*
X189290559Y-64634813D01*
X189307309Y-64647235D01*
X189322760Y-64661240D01*
X189336765Y-64676691D01*
X189349187Y-64693441D01*
X189359908Y-64711328D01*
X189368824Y-64730180D01*
X189375850Y-64749815D01*
X189380917Y-64770043D01*
X189383977Y-64790671D01*
X189385000Y-64811500D01*
X189385000Y-65236500D01*
X189383977Y-65257329D01*
X189380917Y-65277957D01*
X189375850Y-65298185D01*
X189368824Y-65317820D01*
X189359908Y-65336672D01*
X189349187Y-65354559D01*
X189336765Y-65371309D01*
X189322760Y-65386760D01*
X189307309Y-65400765D01*
X189290559Y-65413187D01*
X189272672Y-65423908D01*
X189253820Y-65432824D01*
X189234185Y-65439850D01*
X189213957Y-65444917D01*
X189193329Y-65447977D01*
X189172500Y-65449000D01*
X188372500Y-65449000D01*
X188351671Y-65447977D01*
X188331043Y-65444917D01*
X188310815Y-65439850D01*
X188291180Y-65432824D01*
X188272328Y-65423908D01*
X188254441Y-65413187D01*
X188237691Y-65400765D01*
X188222240Y-65386760D01*
X188208235Y-65371309D01*
X188195813Y-65354559D01*
X188185092Y-65336672D01*
X188176176Y-65317820D01*
X188169150Y-65298185D01*
X188164083Y-65277957D01*
X188161023Y-65257329D01*
X188160000Y-65236500D01*
X188160000Y-64811500D01*
X188161023Y-64790671D01*
X188164083Y-64770043D01*
X188169150Y-64749815D01*
X188176176Y-64730180D01*
X188185092Y-64711328D01*
X188195813Y-64693441D01*
X188208235Y-64676691D01*
X188222240Y-64661240D01*
X188237691Y-64647235D01*
X188254441Y-64634813D01*
X188272328Y-64624092D01*
X188291180Y-64615176D01*
X188310815Y-64608150D01*
X188331043Y-64603083D01*
X188351671Y-64600023D01*
X188372500Y-64599000D01*
X189172500Y-64599000D01*
X189193329Y-64600023D01*
X189193329Y-64600023D01*
G37*
D14*
G04 #@! TD*
G04 #@! TO.P,D1,1*
G04 #@! TO.N,GND*
X188772500Y-65024000D03*
D15*
G04 #@! TO.P,Conn1,5*
G04 #@! TO.N,GND*
X185420000Y-69630000D03*
X185420000Y-82770000D03*
D16*
G04 #@! TO.P,Conn1,3*
G04 #@! TO.N,Net-(Conn1-Pad3)*
X181332000Y-77200000D03*
G04 #@! TO.P,Conn1,2*
G04 #@! TO.N,Net-(Conn1-Pad2)*
X181332000Y-75184000D03*
G04 #@! TO.P,Conn1,1*
G04 #@! TO.N,+5V*
X181332000Y-72700000D03*
G04 #@! TO.P,Conn1,4*
G04 #@! TO.N,GND*
X181332000Y-79700000D03*
G04 #@! TD*
D12*
G04 #@! TO.N,Net-(D1-Pad2)*
G04 #@! TO.C,R1*
G36*
X185335779Y-64550144D02*
X185358834Y-64553563D01*
X185381443Y-64559227D01*
X185403387Y-64567079D01*
X185424457Y-64577044D01*
X185444448Y-64589026D01*
X185463168Y-64602910D01*
X185480438Y-64618562D01*
X185496090Y-64635832D01*
X185509974Y-64654552D01*
X185521956Y-64674543D01*
X185531921Y-64695613D01*
X185539773Y-64717557D01*
X185545437Y-64740166D01*
X185548856Y-64763221D01*
X185550000Y-64786500D01*
X185550000Y-65261500D01*
X185548856Y-65284779D01*
X185545437Y-65307834D01*
X185539773Y-65330443D01*
X185531921Y-65352387D01*
X185521956Y-65373457D01*
X185509974Y-65393448D01*
X185496090Y-65412168D01*
X185480438Y-65429438D01*
X185463168Y-65445090D01*
X185444448Y-65458974D01*
X185424457Y-65470956D01*
X185403387Y-65480921D01*
X185381443Y-65488773D01*
X185358834Y-65494437D01*
X185335779Y-65497856D01*
X185312500Y-65499000D01*
X184737500Y-65499000D01*
X184714221Y-65497856D01*
X184691166Y-65494437D01*
X184668557Y-65488773D01*
X184646613Y-65480921D01*
X184625543Y-65470956D01*
X184605552Y-65458974D01*
X184586832Y-65445090D01*
X184569562Y-65429438D01*
X184553910Y-65412168D01*
X184540026Y-65393448D01*
X184528044Y-65373457D01*
X184518079Y-65352387D01*
X184510227Y-65330443D01*
X184504563Y-65307834D01*
X184501144Y-65284779D01*
X184500000Y-65261500D01*
X184500000Y-64786500D01*
X184501144Y-64763221D01*
X184504563Y-64740166D01*
X184510227Y-64717557D01*
X184518079Y-64695613D01*
X184528044Y-64674543D01*
X184540026Y-64654552D01*
X184553910Y-64635832D01*
X184569562Y-64618562D01*
X184586832Y-64602910D01*
X184605552Y-64589026D01*
X184625543Y-64577044D01*
X184646613Y-64567079D01*
X184668557Y-64559227D01*
X184691166Y-64553563D01*
X184714221Y-64550144D01*
X184737500Y-64549000D01*
X185312500Y-64549000D01*
X185335779Y-64550144D01*
X185335779Y-64550144D01*
G37*
D13*
G04 #@! TD*
G04 #@! TO.P,R1,2*
G04 #@! TO.N,Net-(D1-Pad2)*
X185025000Y-65024000D03*
D12*
G04 #@! TO.N,+5V*
G04 #@! TO.C,R1*
G36*
X183585779Y-64550144D02*
X183608834Y-64553563D01*
X183631443Y-64559227D01*
X183653387Y-64567079D01*
X183674457Y-64577044D01*
X183694448Y-64589026D01*
X183713168Y-64602910D01*
X183730438Y-64618562D01*
X183746090Y-64635832D01*
X183759974Y-64654552D01*
X183771956Y-64674543D01*
X183781921Y-64695613D01*
X183789773Y-64717557D01*
X183795437Y-64740166D01*
X183798856Y-64763221D01*
X183800000Y-64786500D01*
X183800000Y-65261500D01*
X183798856Y-65284779D01*
X183795437Y-65307834D01*
X183789773Y-65330443D01*
X183781921Y-65352387D01*
X183771956Y-65373457D01*
X183759974Y-65393448D01*
X183746090Y-65412168D01*
X183730438Y-65429438D01*
X183713168Y-65445090D01*
X183694448Y-65458974D01*
X183674457Y-65470956D01*
X183653387Y-65480921D01*
X183631443Y-65488773D01*
X183608834Y-65494437D01*
X183585779Y-65497856D01*
X183562500Y-65499000D01*
X182987500Y-65499000D01*
X182964221Y-65497856D01*
X182941166Y-65494437D01*
X182918557Y-65488773D01*
X182896613Y-65480921D01*
X182875543Y-65470956D01*
X182855552Y-65458974D01*
X182836832Y-65445090D01*
X182819562Y-65429438D01*
X182803910Y-65412168D01*
X182790026Y-65393448D01*
X182778044Y-65373457D01*
X182768079Y-65352387D01*
X182760227Y-65330443D01*
X182754563Y-65307834D01*
X182751144Y-65284779D01*
X182750000Y-65261500D01*
X182750000Y-64786500D01*
X182751144Y-64763221D01*
X182754563Y-64740166D01*
X182760227Y-64717557D01*
X182768079Y-64695613D01*
X182778044Y-64674543D01*
X182790026Y-64654552D01*
X182803910Y-64635832D01*
X182819562Y-64618562D01*
X182836832Y-64602910D01*
X182855552Y-64589026D01*
X182875543Y-64577044D01*
X182896613Y-64567079D01*
X182918557Y-64559227D01*
X182941166Y-64553563D01*
X182964221Y-64550144D01*
X182987500Y-64549000D01*
X183562500Y-64549000D01*
X183585779Y-64550144D01*
X183585779Y-64550144D01*
G37*
D13*
G04 #@! TD*
G04 #@! TO.P,R1,1*
G04 #@! TO.N,+5V*
X183275000Y-65024000D03*
D12*
G04 #@! TO.N,+5V*
G04 #@! TO.C,R2*
G36*
X172980779Y-77200144D02*
X173003834Y-77203563D01*
X173026443Y-77209227D01*
X173048387Y-77217079D01*
X173069457Y-77227044D01*
X173089448Y-77239026D01*
X173108168Y-77252910D01*
X173125438Y-77268562D01*
X173141090Y-77285832D01*
X173154974Y-77304552D01*
X173166956Y-77324543D01*
X173176921Y-77345613D01*
X173184773Y-77367557D01*
X173190437Y-77390166D01*
X173193856Y-77413221D01*
X173195000Y-77436500D01*
X173195000Y-78011500D01*
X173193856Y-78034779D01*
X173190437Y-78057834D01*
X173184773Y-78080443D01*
X173176921Y-78102387D01*
X173166956Y-78123457D01*
X173154974Y-78143448D01*
X173141090Y-78162168D01*
X173125438Y-78179438D01*
X173108168Y-78195090D01*
X173089448Y-78208974D01*
X173069457Y-78220956D01*
X173048387Y-78230921D01*
X173026443Y-78238773D01*
X173003834Y-78244437D01*
X172980779Y-78247856D01*
X172957500Y-78249000D01*
X172482500Y-78249000D01*
X172459221Y-78247856D01*
X172436166Y-78244437D01*
X172413557Y-78238773D01*
X172391613Y-78230921D01*
X172370543Y-78220956D01*
X172350552Y-78208974D01*
X172331832Y-78195090D01*
X172314562Y-78179438D01*
X172298910Y-78162168D01*
X172285026Y-78143448D01*
X172273044Y-78123457D01*
X172263079Y-78102387D01*
X172255227Y-78080443D01*
X172249563Y-78057834D01*
X172246144Y-78034779D01*
X172245000Y-78011500D01*
X172245000Y-77436500D01*
X172246144Y-77413221D01*
X172249563Y-77390166D01*
X172255227Y-77367557D01*
X172263079Y-77345613D01*
X172273044Y-77324543D01*
X172285026Y-77304552D01*
X172298910Y-77285832D01*
X172314562Y-77268562D01*
X172331832Y-77252910D01*
X172350552Y-77239026D01*
X172370543Y-77227044D01*
X172391613Y-77217079D01*
X172413557Y-77209227D01*
X172436166Y-77203563D01*
X172459221Y-77200144D01*
X172482500Y-77199000D01*
X172957500Y-77199000D01*
X172980779Y-77200144D01*
X172980779Y-77200144D01*
G37*
D13*
G04 #@! TD*
G04 #@! TO.P,R2,1*
G04 #@! TO.N,+5V*
X172720000Y-77724000D03*
D12*
G04 #@! TO.N,Net-(Conn1-Pad3)*
G04 #@! TO.C,R2*
G36*
X172980779Y-78950144D02*
X173003834Y-78953563D01*
X173026443Y-78959227D01*
X173048387Y-78967079D01*
X173069457Y-78977044D01*
X173089448Y-78989026D01*
X173108168Y-79002910D01*
X173125438Y-79018562D01*
X173141090Y-79035832D01*
X173154974Y-79054552D01*
X173166956Y-79074543D01*
X173176921Y-79095613D01*
X173184773Y-79117557D01*
X173190437Y-79140166D01*
X173193856Y-79163221D01*
X173195000Y-79186500D01*
X173195000Y-79761500D01*
X173193856Y-79784779D01*
X173190437Y-79807834D01*
X173184773Y-79830443D01*
X173176921Y-79852387D01*
X173166956Y-79873457D01*
X173154974Y-79893448D01*
X173141090Y-79912168D01*
X173125438Y-79929438D01*
X173108168Y-79945090D01*
X173089448Y-79958974D01*
X173069457Y-79970956D01*
X173048387Y-79980921D01*
X173026443Y-79988773D01*
X173003834Y-79994437D01*
X172980779Y-79997856D01*
X172957500Y-79999000D01*
X172482500Y-79999000D01*
X172459221Y-79997856D01*
X172436166Y-79994437D01*
X172413557Y-79988773D01*
X172391613Y-79980921D01*
X172370543Y-79970956D01*
X172350552Y-79958974D01*
X172331832Y-79945090D01*
X172314562Y-79929438D01*
X172298910Y-79912168D01*
X172285026Y-79893448D01*
X172273044Y-79873457D01*
X172263079Y-79852387D01*
X172255227Y-79830443D01*
X172249563Y-79807834D01*
X172246144Y-79784779D01*
X172245000Y-79761500D01*
X172245000Y-79186500D01*
X172246144Y-79163221D01*
X172249563Y-79140166D01*
X172255227Y-79117557D01*
X172263079Y-79095613D01*
X172273044Y-79074543D01*
X172285026Y-79054552D01*
X172298910Y-79035832D01*
X172314562Y-79018562D01*
X172331832Y-79002910D01*
X172350552Y-78989026D01*
X172370543Y-78977044D01*
X172391613Y-78967079D01*
X172413557Y-78959227D01*
X172436166Y-78953563D01*
X172459221Y-78950144D01*
X172482500Y-78949000D01*
X172957500Y-78949000D01*
X172980779Y-78950144D01*
X172980779Y-78950144D01*
G37*
D13*
G04 #@! TD*
G04 #@! TO.P,R2,2*
G04 #@! TO.N,Net-(Conn1-Pad3)*
X172720000Y-79474000D03*
D12*
G04 #@! TO.N,GND*
G04 #@! TO.C,R3*
G36*
X175520779Y-77200144D02*
X175543834Y-77203563D01*
X175566443Y-77209227D01*
X175588387Y-77217079D01*
X175609457Y-77227044D01*
X175629448Y-77239026D01*
X175648168Y-77252910D01*
X175665438Y-77268562D01*
X175681090Y-77285832D01*
X175694974Y-77304552D01*
X175706956Y-77324543D01*
X175716921Y-77345613D01*
X175724773Y-77367557D01*
X175730437Y-77390166D01*
X175733856Y-77413221D01*
X175735000Y-77436500D01*
X175735000Y-78011500D01*
X175733856Y-78034779D01*
X175730437Y-78057834D01*
X175724773Y-78080443D01*
X175716921Y-78102387D01*
X175706956Y-78123457D01*
X175694974Y-78143448D01*
X175681090Y-78162168D01*
X175665438Y-78179438D01*
X175648168Y-78195090D01*
X175629448Y-78208974D01*
X175609457Y-78220956D01*
X175588387Y-78230921D01*
X175566443Y-78238773D01*
X175543834Y-78244437D01*
X175520779Y-78247856D01*
X175497500Y-78249000D01*
X175022500Y-78249000D01*
X174999221Y-78247856D01*
X174976166Y-78244437D01*
X174953557Y-78238773D01*
X174931613Y-78230921D01*
X174910543Y-78220956D01*
X174890552Y-78208974D01*
X174871832Y-78195090D01*
X174854562Y-78179438D01*
X174838910Y-78162168D01*
X174825026Y-78143448D01*
X174813044Y-78123457D01*
X174803079Y-78102387D01*
X174795227Y-78080443D01*
X174789563Y-78057834D01*
X174786144Y-78034779D01*
X174785000Y-78011500D01*
X174785000Y-77436500D01*
X174786144Y-77413221D01*
X174789563Y-77390166D01*
X174795227Y-77367557D01*
X174803079Y-77345613D01*
X174813044Y-77324543D01*
X174825026Y-77304552D01*
X174838910Y-77285832D01*
X174854562Y-77268562D01*
X174871832Y-77252910D01*
X174890552Y-77239026D01*
X174910543Y-77227044D01*
X174931613Y-77217079D01*
X174953557Y-77209227D01*
X174976166Y-77203563D01*
X174999221Y-77200144D01*
X175022500Y-77199000D01*
X175497500Y-77199000D01*
X175520779Y-77200144D01*
X175520779Y-77200144D01*
G37*
D13*
G04 #@! TD*
G04 #@! TO.P,R3,2*
G04 #@! TO.N,GND*
X175260000Y-77724000D03*
D12*
G04 #@! TO.N,Net-(Conn1-Pad3)*
G04 #@! TO.C,R3*
G36*
X175520779Y-78950144D02*
X175543834Y-78953563D01*
X175566443Y-78959227D01*
X175588387Y-78967079D01*
X175609457Y-78977044D01*
X175629448Y-78989026D01*
X175648168Y-79002910D01*
X175665438Y-79018562D01*
X175681090Y-79035832D01*
X175694974Y-79054552D01*
X175706956Y-79074543D01*
X175716921Y-79095613D01*
X175724773Y-79117557D01*
X175730437Y-79140166D01*
X175733856Y-79163221D01*
X175735000Y-79186500D01*
X175735000Y-79761500D01*
X175733856Y-79784779D01*
X175730437Y-79807834D01*
X175724773Y-79830443D01*
X175716921Y-79852387D01*
X175706956Y-79873457D01*
X175694974Y-79893448D01*
X175681090Y-79912168D01*
X175665438Y-79929438D01*
X175648168Y-79945090D01*
X175629448Y-79958974D01*
X175609457Y-79970956D01*
X175588387Y-79980921D01*
X175566443Y-79988773D01*
X175543834Y-79994437D01*
X175520779Y-79997856D01*
X175497500Y-79999000D01*
X175022500Y-79999000D01*
X174999221Y-79997856D01*
X174976166Y-79994437D01*
X174953557Y-79988773D01*
X174931613Y-79980921D01*
X174910543Y-79970956D01*
X174890552Y-79958974D01*
X174871832Y-79945090D01*
X174854562Y-79929438D01*
X174838910Y-79912168D01*
X174825026Y-79893448D01*
X174813044Y-79873457D01*
X174803079Y-79852387D01*
X174795227Y-79830443D01*
X174789563Y-79807834D01*
X174786144Y-79784779D01*
X174785000Y-79761500D01*
X174785000Y-79186500D01*
X174786144Y-79163221D01*
X174789563Y-79140166D01*
X174795227Y-79117557D01*
X174803079Y-79095613D01*
X174813044Y-79074543D01*
X174825026Y-79054552D01*
X174838910Y-79035832D01*
X174854562Y-79018562D01*
X174871832Y-79002910D01*
X174890552Y-78989026D01*
X174910543Y-78977044D01*
X174931613Y-78967079D01*
X174953557Y-78959227D01*
X174976166Y-78953563D01*
X174999221Y-78950144D01*
X175022500Y-78949000D01*
X175497500Y-78949000D01*
X175520779Y-78950144D01*
X175520779Y-78950144D01*
G37*
D13*
G04 #@! TD*
G04 #@! TO.P,R3,1*
G04 #@! TO.N,Net-(Conn1-Pad3)*
X175260000Y-79474000D03*
D12*
G04 #@! TO.N,+5V*
G04 #@! TO.C,R4*
G36*
X172980779Y-74152144D02*
X173003834Y-74155563D01*
X173026443Y-74161227D01*
X173048387Y-74169079D01*
X173069457Y-74179044D01*
X173089448Y-74191026D01*
X173108168Y-74204910D01*
X173125438Y-74220562D01*
X173141090Y-74237832D01*
X173154974Y-74256552D01*
X173166956Y-74276543D01*
X173176921Y-74297613D01*
X173184773Y-74319557D01*
X173190437Y-74342166D01*
X173193856Y-74365221D01*
X173195000Y-74388500D01*
X173195000Y-74963500D01*
X173193856Y-74986779D01*
X173190437Y-75009834D01*
X173184773Y-75032443D01*
X173176921Y-75054387D01*
X173166956Y-75075457D01*
X173154974Y-75095448D01*
X173141090Y-75114168D01*
X173125438Y-75131438D01*
X173108168Y-75147090D01*
X173089448Y-75160974D01*
X173069457Y-75172956D01*
X173048387Y-75182921D01*
X173026443Y-75190773D01*
X173003834Y-75196437D01*
X172980779Y-75199856D01*
X172957500Y-75201000D01*
X172482500Y-75201000D01*
X172459221Y-75199856D01*
X172436166Y-75196437D01*
X172413557Y-75190773D01*
X172391613Y-75182921D01*
X172370543Y-75172956D01*
X172350552Y-75160974D01*
X172331832Y-75147090D01*
X172314562Y-75131438D01*
X172298910Y-75114168D01*
X172285026Y-75095448D01*
X172273044Y-75075457D01*
X172263079Y-75054387D01*
X172255227Y-75032443D01*
X172249563Y-75009834D01*
X172246144Y-74986779D01*
X172245000Y-74963500D01*
X172245000Y-74388500D01*
X172246144Y-74365221D01*
X172249563Y-74342166D01*
X172255227Y-74319557D01*
X172263079Y-74297613D01*
X172273044Y-74276543D01*
X172285026Y-74256552D01*
X172298910Y-74237832D01*
X172314562Y-74220562D01*
X172331832Y-74204910D01*
X172350552Y-74191026D01*
X172370543Y-74179044D01*
X172391613Y-74169079D01*
X172413557Y-74161227D01*
X172436166Y-74155563D01*
X172459221Y-74152144D01*
X172482500Y-74151000D01*
X172957500Y-74151000D01*
X172980779Y-74152144D01*
X172980779Y-74152144D01*
G37*
D13*
G04 #@! TD*
G04 #@! TO.P,R4,1*
G04 #@! TO.N,+5V*
X172720000Y-74676000D03*
D12*
G04 #@! TO.N,Net-(Conn1-Pad2)*
G04 #@! TO.C,R4*
G36*
X172980779Y-72402144D02*
X173003834Y-72405563D01*
X173026443Y-72411227D01*
X173048387Y-72419079D01*
X173069457Y-72429044D01*
X173089448Y-72441026D01*
X173108168Y-72454910D01*
X173125438Y-72470562D01*
X173141090Y-72487832D01*
X173154974Y-72506552D01*
X173166956Y-72526543D01*
X173176921Y-72547613D01*
X173184773Y-72569557D01*
X173190437Y-72592166D01*
X173193856Y-72615221D01*
X173195000Y-72638500D01*
X173195000Y-73213500D01*
X173193856Y-73236779D01*
X173190437Y-73259834D01*
X173184773Y-73282443D01*
X173176921Y-73304387D01*
X173166956Y-73325457D01*
X173154974Y-73345448D01*
X173141090Y-73364168D01*
X173125438Y-73381438D01*
X173108168Y-73397090D01*
X173089448Y-73410974D01*
X173069457Y-73422956D01*
X173048387Y-73432921D01*
X173026443Y-73440773D01*
X173003834Y-73446437D01*
X172980779Y-73449856D01*
X172957500Y-73451000D01*
X172482500Y-73451000D01*
X172459221Y-73449856D01*
X172436166Y-73446437D01*
X172413557Y-73440773D01*
X172391613Y-73432921D01*
X172370543Y-73422956D01*
X172350552Y-73410974D01*
X172331832Y-73397090D01*
X172314562Y-73381438D01*
X172298910Y-73364168D01*
X172285026Y-73345448D01*
X172273044Y-73325457D01*
X172263079Y-73304387D01*
X172255227Y-73282443D01*
X172249563Y-73259834D01*
X172246144Y-73236779D01*
X172245000Y-73213500D01*
X172245000Y-72638500D01*
X172246144Y-72615221D01*
X172249563Y-72592166D01*
X172255227Y-72569557D01*
X172263079Y-72547613D01*
X172273044Y-72526543D01*
X172285026Y-72506552D01*
X172298910Y-72487832D01*
X172314562Y-72470562D01*
X172331832Y-72454910D01*
X172350552Y-72441026D01*
X172370543Y-72429044D01*
X172391613Y-72419079D01*
X172413557Y-72411227D01*
X172436166Y-72405563D01*
X172459221Y-72402144D01*
X172482500Y-72401000D01*
X172957500Y-72401000D01*
X172980779Y-72402144D01*
X172980779Y-72402144D01*
G37*
D13*
G04 #@! TD*
G04 #@! TO.P,R4,2*
G04 #@! TO.N,Net-(Conn1-Pad2)*
X172720000Y-72926000D03*
D12*
G04 #@! TO.N,GND*
G04 #@! TO.C,R5*
G36*
X175520779Y-74152144D02*
X175543834Y-74155563D01*
X175566443Y-74161227D01*
X175588387Y-74169079D01*
X175609457Y-74179044D01*
X175629448Y-74191026D01*
X175648168Y-74204910D01*
X175665438Y-74220562D01*
X175681090Y-74237832D01*
X175694974Y-74256552D01*
X175706956Y-74276543D01*
X175716921Y-74297613D01*
X175724773Y-74319557D01*
X175730437Y-74342166D01*
X175733856Y-74365221D01*
X175735000Y-74388500D01*
X175735000Y-74963500D01*
X175733856Y-74986779D01*
X175730437Y-75009834D01*
X175724773Y-75032443D01*
X175716921Y-75054387D01*
X175706956Y-75075457D01*
X175694974Y-75095448D01*
X175681090Y-75114168D01*
X175665438Y-75131438D01*
X175648168Y-75147090D01*
X175629448Y-75160974D01*
X175609457Y-75172956D01*
X175588387Y-75182921D01*
X175566443Y-75190773D01*
X175543834Y-75196437D01*
X175520779Y-75199856D01*
X175497500Y-75201000D01*
X175022500Y-75201000D01*
X174999221Y-75199856D01*
X174976166Y-75196437D01*
X174953557Y-75190773D01*
X174931613Y-75182921D01*
X174910543Y-75172956D01*
X174890552Y-75160974D01*
X174871832Y-75147090D01*
X174854562Y-75131438D01*
X174838910Y-75114168D01*
X174825026Y-75095448D01*
X174813044Y-75075457D01*
X174803079Y-75054387D01*
X174795227Y-75032443D01*
X174789563Y-75009834D01*
X174786144Y-74986779D01*
X174785000Y-74963500D01*
X174785000Y-74388500D01*
X174786144Y-74365221D01*
X174789563Y-74342166D01*
X174795227Y-74319557D01*
X174803079Y-74297613D01*
X174813044Y-74276543D01*
X174825026Y-74256552D01*
X174838910Y-74237832D01*
X174854562Y-74220562D01*
X174871832Y-74204910D01*
X174890552Y-74191026D01*
X174910543Y-74179044D01*
X174931613Y-74169079D01*
X174953557Y-74161227D01*
X174976166Y-74155563D01*
X174999221Y-74152144D01*
X175022500Y-74151000D01*
X175497500Y-74151000D01*
X175520779Y-74152144D01*
X175520779Y-74152144D01*
G37*
D13*
G04 #@! TD*
G04 #@! TO.P,R5,2*
G04 #@! TO.N,GND*
X175260000Y-74676000D03*
D12*
G04 #@! TO.N,Net-(Conn1-Pad2)*
G04 #@! TO.C,R5*
G36*
X175520779Y-72402144D02*
X175543834Y-72405563D01*
X175566443Y-72411227D01*
X175588387Y-72419079D01*
X175609457Y-72429044D01*
X175629448Y-72441026D01*
X175648168Y-72454910D01*
X175665438Y-72470562D01*
X175681090Y-72487832D01*
X175694974Y-72506552D01*
X175706956Y-72526543D01*
X175716921Y-72547613D01*
X175724773Y-72569557D01*
X175730437Y-72592166D01*
X175733856Y-72615221D01*
X175735000Y-72638500D01*
X175735000Y-73213500D01*
X175733856Y-73236779D01*
X175730437Y-73259834D01*
X175724773Y-73282443D01*
X175716921Y-73304387D01*
X175706956Y-73325457D01*
X175694974Y-73345448D01*
X175681090Y-73364168D01*
X175665438Y-73381438D01*
X175648168Y-73397090D01*
X175629448Y-73410974D01*
X175609457Y-73422956D01*
X175588387Y-73432921D01*
X175566443Y-73440773D01*
X175543834Y-73446437D01*
X175520779Y-73449856D01*
X175497500Y-73451000D01*
X175022500Y-73451000D01*
X174999221Y-73449856D01*
X174976166Y-73446437D01*
X174953557Y-73440773D01*
X174931613Y-73432921D01*
X174910543Y-73422956D01*
X174890552Y-73410974D01*
X174871832Y-73397090D01*
X174854562Y-73381438D01*
X174838910Y-73364168D01*
X174825026Y-73345448D01*
X174813044Y-73325457D01*
X174803079Y-73304387D01*
X174795227Y-73282443D01*
X174789563Y-73259834D01*
X174786144Y-73236779D01*
X174785000Y-73213500D01*
X174785000Y-72638500D01*
X174786144Y-72615221D01*
X174789563Y-72592166D01*
X174795227Y-72569557D01*
X174803079Y-72547613D01*
X174813044Y-72526543D01*
X174825026Y-72506552D01*
X174838910Y-72487832D01*
X174854562Y-72470562D01*
X174871832Y-72454910D01*
X174890552Y-72441026D01*
X174910543Y-72429044D01*
X174931613Y-72419079D01*
X174953557Y-72411227D01*
X174976166Y-72405563D01*
X174999221Y-72402144D01*
X175022500Y-72401000D01*
X175497500Y-72401000D01*
X175520779Y-72402144D01*
X175520779Y-72402144D01*
G37*
D13*
G04 #@! TD*
G04 #@! TO.P,R5,1*
G04 #@! TO.N,Net-(Conn1-Pad2)*
X175260000Y-72926000D03*
D17*
G04 #@! TO.P,SW1,*
G04 #@! TO.N,*
X150150000Y-53340000D03*
X141950000Y-53340000D03*
D18*
G04 #@! TO.P,SW1,3*
G04 #@! TO.N,Net-(C1-Pad1)*
X148050000Y-53340000D03*
G04 #@! TO.P,SW1,2*
G04 #@! TO.N,+9V*
X146050000Y-53340000D03*
D19*
G04 #@! TO.P,SW1,1*
G04 #@! TO.N,Net-(SW1-Pad1)*
X144050000Y-53340000D03*
G04 #@! TD*
D20*
G04 #@! TO.P,U1,2*
G04 #@! TO.N,GND*
X166624000Y-66870000D03*
D21*
G04 #@! TO.P,U1,3*
G04 #@! TO.N,+5V*
X168904000Y-60570000D03*
G04 #@! TO.P,U1,1*
G04 #@! TO.N,Net-(C1-Pad1)*
X164344000Y-60570000D03*
G04 #@! TD*
D11*
G04 #@! TO.P,REF\002A\002A,1*
G04 #@! TO.N,+5V*
X187960000Y-73660000D03*
G04 #@! TD*
D22*
G04 #@! TO.N,GND*
X176784000Y-76200000D03*
G04 #@! TD*
D23*
G04 #@! TO.N,+9V*
X146050000Y-55352000D02*
X146050000Y-53340000D01*
X106680000Y-82550000D02*
X109982000Y-82550000D01*
X109982000Y-82550000D02*
X110744000Y-81788000D01*
X110744000Y-81788000D02*
X110744000Y-57404000D01*
X110744000Y-57404000D02*
X111760000Y-56388000D01*
X111760000Y-56388000D02*
X145014000Y-56388000D01*
X145014000Y-56388000D02*
X146050000Y-55352000D01*
G04 #@! TO.N,Net-(C1-Pad1)*
X148050000Y-53340000D02*
X148050000Y-55352000D01*
X148050000Y-55352000D02*
X149086000Y-56388000D01*
X163830000Y-56388000D02*
X164338000Y-56388000D01*
X164338000Y-60564000D02*
X164344000Y-60570000D01*
X164338000Y-56388000D02*
X164338000Y-60564000D01*
X153162000Y-56388000D02*
X149086000Y-56388000D01*
X153162000Y-56388000D02*
X163830000Y-56388000D01*
X151880000Y-56388000D02*
X153162000Y-56388000D01*
G04 #@! TO.N,+5V*
X187000000Y-72700000D02*
X187960000Y-73660000D01*
X181332000Y-72700000D02*
X187000000Y-72700000D01*
D24*
X171196000Y-76200000D02*
X170688000Y-75692000D01*
X170688000Y-75692000D02*
X170688000Y-72644000D01*
X172720000Y-75692000D02*
X172212000Y-76200000D01*
X172212000Y-76200000D02*
X171196000Y-76200000D01*
X172720000Y-76200000D02*
X172212000Y-76200000D01*
X172720000Y-75692000D02*
X172720000Y-76200000D01*
X172720000Y-74676000D02*
X172720000Y-75692000D01*
X172720000Y-76708000D02*
X172212000Y-76200000D01*
X172720000Y-76708000D02*
X172720000Y-77724000D01*
X172720000Y-76200000D02*
X172720000Y-76708000D01*
D23*
X181332000Y-72700000D02*
X178364000Y-72700000D01*
X178364000Y-72700000D02*
X176784000Y-71120000D01*
X176784000Y-71120000D02*
X171704000Y-71120000D01*
X170688000Y-70104000D02*
X170688000Y-69596000D01*
D24*
X170688000Y-71120000D02*
X171196000Y-70612000D01*
D23*
X171196000Y-70612000D02*
X170688000Y-70104000D01*
X171704000Y-71120000D02*
X171196000Y-70612000D01*
D24*
X170688000Y-71120000D02*
X170688000Y-69596000D01*
X170688000Y-72644000D02*
X170688000Y-71120000D01*
X181332000Y-72700000D02*
X181332000Y-65556000D01*
X181864000Y-65024000D02*
X183275000Y-65024000D01*
X181332000Y-65556000D02*
X181864000Y-65024000D01*
D23*
X168904000Y-56394000D02*
X168910000Y-56388000D01*
X168904000Y-60570000D02*
X168904000Y-56394000D01*
X170688000Y-61468000D02*
X170688000Y-69596000D01*
X170688000Y-60960000D02*
X170688000Y-61468000D01*
X170298000Y-60570000D02*
X170688000Y-60960000D01*
X168904000Y-60570000D02*
X170298000Y-60570000D01*
D24*
G04 #@! TO.N,Net-(D1-Pad2)*
X187147500Y-65024000D02*
X185025000Y-65024000D01*
G04 #@! TO.N,Net-(Conn1-Pad2)*
X177518000Y-75184000D02*
X175260000Y-72926000D01*
X181332000Y-75184000D02*
X177518000Y-75184000D01*
X175260000Y-72926000D02*
X172720000Y-72926000D01*
G04 #@! TO.N,Net-(Conn1-Pad3)*
X177534000Y-77200000D02*
X175260000Y-79474000D01*
X181332000Y-77200000D02*
X177534000Y-77200000D01*
X175260000Y-79474000D02*
X172720000Y-79474000D01*
G04 #@! TD*
D25*
G04 #@! TO.N,GND*
G36*
X140315666Y-52013038D02*
X140215000Y-52519121D01*
X140215000Y-54160880D01*
X140315667Y-54666963D01*
X140699136Y-55240865D01*
X140895393Y-55372000D01*
X111860063Y-55372000D01*
X111760000Y-55352096D01*
X111659936Y-55372000D01*
X111659935Y-55372000D01*
X111363577Y-55430949D01*
X111027505Y-55655505D01*
X110970822Y-55740337D01*
X110096337Y-56614823D01*
X110011506Y-56671505D01*
X109954823Y-56756337D01*
X109786950Y-57007577D01*
X109708096Y-57404000D01*
X109728001Y-57504068D01*
X109728000Y-81367159D01*
X109656332Y-81438827D01*
X109371635Y-80751507D01*
X108478493Y-79858365D01*
X107311547Y-79375000D01*
X106048453Y-79375000D01*
X104881507Y-79858365D01*
X103988365Y-80751507D01*
X103505000Y-81918453D01*
X103505000Y-83181547D01*
X103988365Y-84348493D01*
X104881507Y-85241635D01*
X106048453Y-85725000D01*
X107311547Y-85725000D01*
X108478493Y-85241635D01*
X109371635Y-84348493D01*
X109695754Y-83566000D01*
X109881937Y-83566000D01*
X109982000Y-83585904D01*
X110082063Y-83566000D01*
X110082065Y-83566000D01*
X110378423Y-83507051D01*
X110714495Y-83282495D01*
X110771179Y-83197661D01*
X111391663Y-82577177D01*
X111476495Y-82520495D01*
X111701051Y-82184423D01*
X111760000Y-81888065D01*
X111760000Y-81888064D01*
X111779904Y-81788000D01*
X111760000Y-81687936D01*
X111760000Y-57824840D01*
X112180841Y-57404000D01*
X144913937Y-57404000D01*
X145014000Y-57423904D01*
X145114063Y-57404000D01*
X145114065Y-57404000D01*
X145410423Y-57345051D01*
X145746495Y-57120495D01*
X145803179Y-57035661D01*
X146697663Y-56141177D01*
X146782495Y-56084495D01*
X146961306Y-55816885D01*
X147007050Y-55748425D01*
X147007050Y-55748424D01*
X147007051Y-55748423D01*
X147050000Y-55532502D01*
X147080388Y-55685268D01*
X147092950Y-55748423D01*
X147317506Y-56084495D01*
X147402337Y-56141177D01*
X148296822Y-57035663D01*
X148353505Y-57120495D01*
X148595375Y-57282107D01*
X148689575Y-57345050D01*
X148689576Y-57345050D01*
X148689577Y-57345051D01*
X148985935Y-57404000D01*
X149085999Y-57423904D01*
X149186063Y-57404000D01*
X163322000Y-57404000D01*
X163322001Y-58988264D01*
X163286191Y-59012191D01*
X163145843Y-59222235D01*
X163096560Y-59470000D01*
X163096560Y-61670000D01*
X163145843Y-61917765D01*
X163286191Y-62127809D01*
X163496235Y-62268157D01*
X163744000Y-62317440D01*
X164944000Y-62317440D01*
X165191765Y-62268157D01*
X165401809Y-62127809D01*
X165542157Y-61917765D01*
X165591440Y-61670000D01*
X165591440Y-59470000D01*
X165542157Y-59222235D01*
X165401809Y-59012191D01*
X165354000Y-58980246D01*
X165354000Y-57072636D01*
X165393078Y-57014152D01*
X165460440Y-56675500D01*
X165460440Y-56100500D01*
X165393078Y-55761848D01*
X165201247Y-55474753D01*
X164914152Y-55282922D01*
X164575500Y-55215560D01*
X164100500Y-55215560D01*
X163761848Y-55282922D01*
X163628534Y-55372000D01*
X151204608Y-55372000D01*
X151400865Y-55240865D01*
X151784334Y-54666963D01*
X151885000Y-54160880D01*
X151885000Y-52519120D01*
X151784334Y-52013037D01*
X151448215Y-51510000D01*
X185388382Y-51510000D01*
X186193358Y-51581842D01*
X186942277Y-51786723D01*
X187643072Y-52120986D01*
X188273605Y-52574069D01*
X188813934Y-53131645D01*
X189246989Y-53776099D01*
X189559073Y-54487044D01*
X189741640Y-55247493D01*
X189790000Y-55906031D01*
X189790000Y-72760300D01*
X189685190Y-72507265D01*
X189112735Y-71934810D01*
X188364787Y-71625000D01*
X187555213Y-71625000D01*
X187311324Y-71726022D01*
X187100065Y-71684000D01*
X187100063Y-71684000D01*
X187000000Y-71664096D01*
X186899937Y-71684000D01*
X183791018Y-71684000D01*
X183789809Y-71682191D01*
X183579765Y-71541843D01*
X183332000Y-71492560D01*
X182157500Y-71492560D01*
X182157500Y-65897932D01*
X182205933Y-65849500D01*
X182336531Y-65849500D01*
X182361753Y-65887247D01*
X182648848Y-66079078D01*
X182987500Y-66146440D01*
X183562500Y-66146440D01*
X183901152Y-66079078D01*
X184150000Y-65912803D01*
X184398848Y-66079078D01*
X184737500Y-66146440D01*
X185312500Y-66146440D01*
X185651152Y-66079078D01*
X185938247Y-65887247D01*
X185963469Y-65849500D01*
X186146811Y-65849500D01*
X186418415Y-66030981D01*
X186747500Y-66096440D01*
X187547500Y-66096440D01*
X187876585Y-66030981D01*
X188155569Y-65844569D01*
X188341981Y-65565585D01*
X188407440Y-65236500D01*
X188407440Y-64811500D01*
X188341981Y-64482415D01*
X188155569Y-64203431D01*
X187876585Y-64017019D01*
X187547500Y-63951560D01*
X186747500Y-63951560D01*
X186418415Y-64017019D01*
X186146811Y-64198500D01*
X185963469Y-64198500D01*
X185938247Y-64160753D01*
X185651152Y-63968922D01*
X185312500Y-63901560D01*
X184737500Y-63901560D01*
X184398848Y-63968922D01*
X184150000Y-64135197D01*
X183901152Y-63968922D01*
X183562500Y-63901560D01*
X182987500Y-63901560D01*
X182648848Y-63968922D01*
X182361753Y-64160753D01*
X182336531Y-64198500D01*
X181945303Y-64198500D01*
X181864000Y-64182328D01*
X181782697Y-64198500D01*
X181541906Y-64246396D01*
X181268848Y-64428848D01*
X181222793Y-64497775D01*
X180805774Y-64914793D01*
X180736849Y-64960848D01*
X180690794Y-65029774D01*
X180554397Y-65233906D01*
X180490328Y-65556000D01*
X180506501Y-65637306D01*
X180506500Y-71492560D01*
X179332000Y-71492560D01*
X179084235Y-71541843D01*
X178874191Y-71682191D01*
X178872982Y-71684000D01*
X178784841Y-71684000D01*
X177573180Y-70472339D01*
X177516495Y-70387505D01*
X177180423Y-70162949D01*
X176884065Y-70104000D01*
X176884063Y-70104000D01*
X176784000Y-70084096D01*
X176683937Y-70104000D01*
X172124840Y-70104000D01*
X171704000Y-69683160D01*
X171704000Y-61060063D01*
X171723904Y-60959999D01*
X171679249Y-60735505D01*
X171645051Y-60563577D01*
X171420495Y-60227505D01*
X171335661Y-60170821D01*
X171087180Y-59922340D01*
X171030495Y-59837505D01*
X170694423Y-59612949D01*
X170398065Y-59554000D01*
X170398063Y-59554000D01*
X170298000Y-59534096D01*
X170197937Y-59554000D01*
X170151440Y-59554000D01*
X170151440Y-59470000D01*
X170102157Y-59222235D01*
X169961809Y-59012191D01*
X169920000Y-58984255D01*
X169920000Y-57081616D01*
X169965078Y-57014152D01*
X170032440Y-56675500D01*
X170032440Y-56100500D01*
X169965078Y-55761848D01*
X169773247Y-55474753D01*
X169486152Y-55282922D01*
X169147500Y-55215560D01*
X168672500Y-55215560D01*
X168333848Y-55282922D01*
X168046753Y-55474753D01*
X167854922Y-55761848D01*
X167787560Y-56100500D01*
X167787560Y-56675500D01*
X167854922Y-57014152D01*
X167888001Y-57063658D01*
X167888000Y-58984255D01*
X167846191Y-59012191D01*
X167705843Y-59222235D01*
X167656560Y-59470000D01*
X167656560Y-61670000D01*
X167705843Y-61917765D01*
X167846191Y-62127809D01*
X168056235Y-62268157D01*
X168304000Y-62317440D01*
X169504000Y-62317440D01*
X169672000Y-62284023D01*
X169672001Y-69495930D01*
X169672000Y-69495935D01*
X169672000Y-70003937D01*
X169652096Y-70104000D01*
X169672000Y-70204063D01*
X169672000Y-70204064D01*
X169730949Y-70500422D01*
X169862500Y-70697303D01*
X169862500Y-71038697D01*
X169846328Y-71120000D01*
X169862500Y-71201301D01*
X169862500Y-71201302D01*
X169862501Y-71201307D01*
X169862500Y-72725302D01*
X169862501Y-72725307D01*
X169862500Y-75610697D01*
X169846328Y-75692000D01*
X169862500Y-75773301D01*
X169862500Y-75773302D01*
X169910396Y-76014093D01*
X170092848Y-76287152D01*
X170161776Y-76333209D01*
X170554793Y-76726225D01*
X170600848Y-76795152D01*
X170873906Y-76977604D01*
X171114697Y-77025500D01*
X171114701Y-77025500D01*
X171195999Y-77041671D01*
X171277297Y-77025500D01*
X171713263Y-77025500D01*
X171664922Y-77097848D01*
X171597560Y-77436500D01*
X171597560Y-78011500D01*
X171664922Y-78350152D01*
X171831197Y-78599000D01*
X171664922Y-78847848D01*
X171597560Y-79186500D01*
X171597560Y-79761500D01*
X171664922Y-80100152D01*
X171856753Y-80387247D01*
X172143848Y-80579078D01*
X172482500Y-80646440D01*
X172957500Y-80646440D01*
X173296152Y-80579078D01*
X173583247Y-80387247D01*
X173641878Y-80299500D01*
X174338122Y-80299500D01*
X174396753Y-80387247D01*
X174683848Y-80579078D01*
X175022500Y-80646440D01*
X175497500Y-80646440D01*
X175836152Y-80579078D01*
X176123247Y-80387247D01*
X176315078Y-80100152D01*
X176382440Y-79761500D01*
X176382440Y-79518992D01*
X177875933Y-78025500D01*
X178745693Y-78025500D01*
X178874191Y-78217809D01*
X179084235Y-78358157D01*
X179332000Y-78407440D01*
X183332000Y-78407440D01*
X183579765Y-78358157D01*
X183789809Y-78217809D01*
X183930157Y-78007765D01*
X183979440Y-77760000D01*
X183979440Y-76640000D01*
X183930157Y-76392235D01*
X183796363Y-76192000D01*
X183930157Y-75991765D01*
X183979440Y-75744000D01*
X183979440Y-74624000D01*
X183930157Y-74376235D01*
X183789809Y-74166191D01*
X183579765Y-74025843D01*
X183332000Y-73976560D01*
X179332000Y-73976560D01*
X179084235Y-74025843D01*
X178874191Y-74166191D01*
X178745693Y-74358500D01*
X177859933Y-74358500D01*
X176382440Y-72881008D01*
X176382440Y-72638500D01*
X176315078Y-72299848D01*
X176205598Y-72136000D01*
X176363160Y-72136000D01*
X177574822Y-73347663D01*
X177631505Y-73432495D01*
X177838676Y-73570922D01*
X177967575Y-73657050D01*
X177967576Y-73657050D01*
X177967577Y-73657051D01*
X178263935Y-73716000D01*
X178363999Y-73735904D01*
X178464063Y-73716000D01*
X178872982Y-73716000D01*
X178874191Y-73717809D01*
X179084235Y-73858157D01*
X179332000Y-73907440D01*
X183332000Y-73907440D01*
X183579765Y-73858157D01*
X183789809Y-73717809D01*
X183791018Y-73716000D01*
X185925000Y-73716000D01*
X185925000Y-74064787D01*
X186234810Y-74812735D01*
X186807265Y-75385190D01*
X187555213Y-75695000D01*
X188364787Y-75695000D01*
X189112735Y-75385190D01*
X189685190Y-74812735D01*
X189790000Y-74559700D01*
X189790001Y-96488371D01*
X189718158Y-97293359D01*
X189513277Y-98042277D01*
X189179013Y-98743075D01*
X188725931Y-99373605D01*
X188168354Y-99913935D01*
X187523901Y-100346989D01*
X186812956Y-100659073D01*
X186052506Y-100841640D01*
X185393968Y-100890000D01*
X106711618Y-100890000D01*
X105906641Y-100818158D01*
X105157723Y-100613277D01*
X104456925Y-100279013D01*
X103826395Y-99825931D01*
X103286065Y-99268354D01*
X102853011Y-98623901D01*
X102540927Y-97912956D01*
X102358360Y-97152506D01*
X102310000Y-96493968D01*
X102310000Y-55911618D01*
X102381842Y-55106642D01*
X102586723Y-54357723D01*
X102920986Y-53656928D01*
X103374069Y-53026395D01*
X103931645Y-52486066D01*
X104576099Y-52053011D01*
X105287044Y-51740927D01*
X106047493Y-51558360D01*
X106706031Y-51510000D01*
X140651785Y-51510000D01*
X140315666Y-52013038D01*
X140315666Y-52013038D01*
G37*
X140315666Y-52013038D02*
X140215000Y-52519121D01*
X140215000Y-54160880D01*
X140315667Y-54666963D01*
X140699136Y-55240865D01*
X140895393Y-55372000D01*
X111860063Y-55372000D01*
X111760000Y-55352096D01*
X111659936Y-55372000D01*
X111659935Y-55372000D01*
X111363577Y-55430949D01*
X111027505Y-55655505D01*
X110970822Y-55740337D01*
X110096337Y-56614823D01*
X110011506Y-56671505D01*
X109954823Y-56756337D01*
X109786950Y-57007577D01*
X109708096Y-57404000D01*
X109728001Y-57504068D01*
X109728000Y-81367159D01*
X109656332Y-81438827D01*
X109371635Y-80751507D01*
X108478493Y-79858365D01*
X107311547Y-79375000D01*
X106048453Y-79375000D01*
X104881507Y-79858365D01*
X103988365Y-80751507D01*
X103505000Y-81918453D01*
X103505000Y-83181547D01*
X103988365Y-84348493D01*
X104881507Y-85241635D01*
X106048453Y-85725000D01*
X107311547Y-85725000D01*
X108478493Y-85241635D01*
X109371635Y-84348493D01*
X109695754Y-83566000D01*
X109881937Y-83566000D01*
X109982000Y-83585904D01*
X110082063Y-83566000D01*
X110082065Y-83566000D01*
X110378423Y-83507051D01*
X110714495Y-83282495D01*
X110771179Y-83197661D01*
X111391663Y-82577177D01*
X111476495Y-82520495D01*
X111701051Y-82184423D01*
X111760000Y-81888065D01*
X111760000Y-81888064D01*
X111779904Y-81788000D01*
X111760000Y-81687936D01*
X111760000Y-57824840D01*
X112180841Y-57404000D01*
X144913937Y-57404000D01*
X145014000Y-57423904D01*
X145114063Y-57404000D01*
X145114065Y-57404000D01*
X145410423Y-57345051D01*
X145746495Y-57120495D01*
X145803179Y-57035661D01*
X146697663Y-56141177D01*
X146782495Y-56084495D01*
X146961306Y-55816885D01*
X147007050Y-55748425D01*
X147007050Y-55748424D01*
X147007051Y-55748423D01*
X147050000Y-55532502D01*
X147080388Y-55685268D01*
X147092950Y-55748423D01*
X147317506Y-56084495D01*
X147402337Y-56141177D01*
X148296822Y-57035663D01*
X148353505Y-57120495D01*
X148595375Y-57282107D01*
X148689575Y-57345050D01*
X148689576Y-57345050D01*
X148689577Y-57345051D01*
X148985935Y-57404000D01*
X149085999Y-57423904D01*
X149186063Y-57404000D01*
X163322000Y-57404000D01*
X163322001Y-58988264D01*
X163286191Y-59012191D01*
X163145843Y-59222235D01*
X163096560Y-59470000D01*
X163096560Y-61670000D01*
X163145843Y-61917765D01*
X163286191Y-62127809D01*
X163496235Y-62268157D01*
X163744000Y-62317440D01*
X164944000Y-62317440D01*
X165191765Y-62268157D01*
X165401809Y-62127809D01*
X165542157Y-61917765D01*
X165591440Y-61670000D01*
X165591440Y-59470000D01*
X165542157Y-59222235D01*
X165401809Y-59012191D01*
X165354000Y-58980246D01*
X165354000Y-57072636D01*
X165393078Y-57014152D01*
X165460440Y-56675500D01*
X165460440Y-56100500D01*
X165393078Y-55761848D01*
X165201247Y-55474753D01*
X164914152Y-55282922D01*
X164575500Y-55215560D01*
X164100500Y-55215560D01*
X163761848Y-55282922D01*
X163628534Y-55372000D01*
X151204608Y-55372000D01*
X151400865Y-55240865D01*
X151784334Y-54666963D01*
X151885000Y-54160880D01*
X151885000Y-52519120D01*
X151784334Y-52013037D01*
X151448215Y-51510000D01*
X185388382Y-51510000D01*
X186193358Y-51581842D01*
X186942277Y-51786723D01*
X187643072Y-52120986D01*
X188273605Y-52574069D01*
X188813934Y-53131645D01*
X189246989Y-53776099D01*
X189559073Y-54487044D01*
X189741640Y-55247493D01*
X189790000Y-55906031D01*
X189790000Y-72760300D01*
X189685190Y-72507265D01*
X189112735Y-71934810D01*
X188364787Y-71625000D01*
X187555213Y-71625000D01*
X187311324Y-71726022D01*
X187100065Y-71684000D01*
X187100063Y-71684000D01*
X187000000Y-71664096D01*
X186899937Y-71684000D01*
X183791018Y-71684000D01*
X183789809Y-71682191D01*
X183579765Y-71541843D01*
X183332000Y-71492560D01*
X182157500Y-71492560D01*
X182157500Y-65897932D01*
X182205933Y-65849500D01*
X182336531Y-65849500D01*
X182361753Y-65887247D01*
X182648848Y-66079078D01*
X182987500Y-66146440D01*
X183562500Y-66146440D01*
X183901152Y-66079078D01*
X184150000Y-65912803D01*
X184398848Y-66079078D01*
X184737500Y-66146440D01*
X185312500Y-66146440D01*
X185651152Y-66079078D01*
X185938247Y-65887247D01*
X185963469Y-65849500D01*
X186146811Y-65849500D01*
X186418415Y-66030981D01*
X186747500Y-66096440D01*
X187547500Y-66096440D01*
X187876585Y-66030981D01*
X188155569Y-65844569D01*
X188341981Y-65565585D01*
X188407440Y-65236500D01*
X188407440Y-64811500D01*
X188341981Y-64482415D01*
X188155569Y-64203431D01*
X187876585Y-64017019D01*
X187547500Y-63951560D01*
X186747500Y-63951560D01*
X186418415Y-64017019D01*
X186146811Y-64198500D01*
X185963469Y-64198500D01*
X185938247Y-64160753D01*
X185651152Y-63968922D01*
X185312500Y-63901560D01*
X184737500Y-63901560D01*
X184398848Y-63968922D01*
X184150000Y-64135197D01*
X183901152Y-63968922D01*
X183562500Y-63901560D01*
X182987500Y-63901560D01*
X182648848Y-63968922D01*
X182361753Y-64160753D01*
X182336531Y-64198500D01*
X181945303Y-64198500D01*
X181864000Y-64182328D01*
X181782697Y-64198500D01*
X181541906Y-64246396D01*
X181268848Y-64428848D01*
X181222793Y-64497775D01*
X180805774Y-64914793D01*
X180736849Y-64960848D01*
X180690794Y-65029774D01*
X180554397Y-65233906D01*
X180490328Y-65556000D01*
X180506501Y-65637306D01*
X180506500Y-71492560D01*
X179332000Y-71492560D01*
X179084235Y-71541843D01*
X178874191Y-71682191D01*
X178872982Y-71684000D01*
X178784841Y-71684000D01*
X177573180Y-70472339D01*
X177516495Y-70387505D01*
X177180423Y-70162949D01*
X176884065Y-70104000D01*
X176884063Y-70104000D01*
X176784000Y-70084096D01*
X176683937Y-70104000D01*
X172124840Y-70104000D01*
X171704000Y-69683160D01*
X171704000Y-61060063D01*
X171723904Y-60959999D01*
X171679249Y-60735505D01*
X171645051Y-60563577D01*
X171420495Y-60227505D01*
X171335661Y-60170821D01*
X171087180Y-59922340D01*
X171030495Y-59837505D01*
X170694423Y-59612949D01*
X170398065Y-59554000D01*
X170398063Y-59554000D01*
X170298000Y-59534096D01*
X170197937Y-59554000D01*
X170151440Y-59554000D01*
X170151440Y-59470000D01*
X170102157Y-59222235D01*
X169961809Y-59012191D01*
X169920000Y-58984255D01*
X169920000Y-57081616D01*
X169965078Y-57014152D01*
X170032440Y-56675500D01*
X170032440Y-56100500D01*
X169965078Y-55761848D01*
X169773247Y-55474753D01*
X169486152Y-55282922D01*
X169147500Y-55215560D01*
X168672500Y-55215560D01*
X168333848Y-55282922D01*
X168046753Y-55474753D01*
X167854922Y-55761848D01*
X167787560Y-56100500D01*
X167787560Y-56675500D01*
X167854922Y-57014152D01*
X167888001Y-57063658D01*
X167888000Y-58984255D01*
X167846191Y-59012191D01*
X167705843Y-59222235D01*
X167656560Y-59470000D01*
X167656560Y-61670000D01*
X167705843Y-61917765D01*
X167846191Y-62127809D01*
X168056235Y-62268157D01*
X168304000Y-62317440D01*
X169504000Y-62317440D01*
X169672000Y-62284023D01*
X169672001Y-69495930D01*
X169672000Y-69495935D01*
X169672000Y-70003937D01*
X169652096Y-70104000D01*
X169672000Y-70204063D01*
X169672000Y-70204064D01*
X169730949Y-70500422D01*
X169862500Y-70697303D01*
X169862500Y-71038697D01*
X169846328Y-71120000D01*
X169862500Y-71201301D01*
X169862500Y-71201302D01*
X169862501Y-71201307D01*
X169862500Y-72725302D01*
X169862501Y-72725307D01*
X169862500Y-75610697D01*
X169846328Y-75692000D01*
X169862500Y-75773301D01*
X169862500Y-75773302D01*
X169910396Y-76014093D01*
X170092848Y-76287152D01*
X170161776Y-76333209D01*
X170554793Y-76726225D01*
X170600848Y-76795152D01*
X170873906Y-76977604D01*
X171114697Y-77025500D01*
X171114701Y-77025500D01*
X171195999Y-77041671D01*
X171277297Y-77025500D01*
X171713263Y-77025500D01*
X171664922Y-77097848D01*
X171597560Y-77436500D01*
X171597560Y-78011500D01*
X171664922Y-78350152D01*
X171831197Y-78599000D01*
X171664922Y-78847848D01*
X171597560Y-79186500D01*
X171597560Y-79761500D01*
X171664922Y-80100152D01*
X171856753Y-80387247D01*
X172143848Y-80579078D01*
X172482500Y-80646440D01*
X172957500Y-80646440D01*
X173296152Y-80579078D01*
X173583247Y-80387247D01*
X173641878Y-80299500D01*
X174338122Y-80299500D01*
X174396753Y-80387247D01*
X174683848Y-80579078D01*
X175022500Y-80646440D01*
X175497500Y-80646440D01*
X175836152Y-80579078D01*
X176123247Y-80387247D01*
X176315078Y-80100152D01*
X176382440Y-79761500D01*
X176382440Y-79518992D01*
X177875933Y-78025500D01*
X178745693Y-78025500D01*
X178874191Y-78217809D01*
X179084235Y-78358157D01*
X179332000Y-78407440D01*
X183332000Y-78407440D01*
X183579765Y-78358157D01*
X183789809Y-78217809D01*
X183930157Y-78007765D01*
X183979440Y-77760000D01*
X183979440Y-76640000D01*
X183930157Y-76392235D01*
X183796363Y-76192000D01*
X183930157Y-75991765D01*
X183979440Y-75744000D01*
X183979440Y-74624000D01*
X183930157Y-74376235D01*
X183789809Y-74166191D01*
X183579765Y-74025843D01*
X183332000Y-73976560D01*
X179332000Y-73976560D01*
X179084235Y-74025843D01*
X178874191Y-74166191D01*
X178745693Y-74358500D01*
X177859933Y-74358500D01*
X176382440Y-72881008D01*
X176382440Y-72638500D01*
X176315078Y-72299848D01*
X176205598Y-72136000D01*
X176363160Y-72136000D01*
X177574822Y-73347663D01*
X177631505Y-73432495D01*
X177838676Y-73570922D01*
X177967575Y-73657050D01*
X177967576Y-73657050D01*
X177967577Y-73657051D01*
X178263935Y-73716000D01*
X178363999Y-73735904D01*
X178464063Y-73716000D01*
X178872982Y-73716000D01*
X178874191Y-73717809D01*
X179084235Y-73858157D01*
X179332000Y-73907440D01*
X183332000Y-73907440D01*
X183579765Y-73858157D01*
X183789809Y-73717809D01*
X183791018Y-73716000D01*
X185925000Y-73716000D01*
X185925000Y-74064787D01*
X186234810Y-74812735D01*
X186807265Y-75385190D01*
X187555213Y-75695000D01*
X188364787Y-75695000D01*
X189112735Y-75385190D01*
X189685190Y-74812735D01*
X189790000Y-74559700D01*
X189790001Y-96488371D01*
X189718158Y-97293359D01*
X189513277Y-98042277D01*
X189179013Y-98743075D01*
X188725931Y-99373605D01*
X188168354Y-99913935D01*
X187523901Y-100346989D01*
X186812956Y-100659073D01*
X186052506Y-100841640D01*
X185393968Y-100890000D01*
X106711618Y-100890000D01*
X105906641Y-100818158D01*
X105157723Y-100613277D01*
X104456925Y-100279013D01*
X103826395Y-99825931D01*
X103286065Y-99268354D01*
X102853011Y-98623901D01*
X102540927Y-97912956D01*
X102358360Y-97152506D01*
X102310000Y-96493968D01*
X102310000Y-55911618D01*
X102381842Y-55106642D01*
X102586723Y-54357723D01*
X102920986Y-53656928D01*
X103374069Y-53026395D01*
X103931645Y-52486066D01*
X104576099Y-52053011D01*
X105287044Y-51740927D01*
X106047493Y-51558360D01*
X106706031Y-51510000D01*
X140651785Y-51510000D01*
X140315666Y-52013038D01*
G36*
X174396753Y-73839247D02*
X174683848Y-74031078D01*
X175022500Y-74098440D01*
X175265008Y-74098440D01*
X176876793Y-75710226D01*
X176922848Y-75779152D01*
X177195906Y-75961604D01*
X177436697Y-76009500D01*
X177436701Y-76009500D01*
X177517999Y-76025671D01*
X177599297Y-76009500D01*
X178745693Y-76009500D01*
X178867637Y-76192000D01*
X178745693Y-76374500D01*
X177615303Y-76374500D01*
X177534000Y-76358328D01*
X177452697Y-76374500D01*
X177211906Y-76422396D01*
X176938848Y-76604848D01*
X176892793Y-76673774D01*
X175265008Y-78301560D01*
X175022500Y-78301560D01*
X174683848Y-78368922D01*
X174396753Y-78560753D01*
X174338122Y-78648500D01*
X173641878Y-78648500D01*
X173608803Y-78599000D01*
X173775078Y-78350152D01*
X173842440Y-78011500D01*
X173842440Y-77436500D01*
X173775078Y-77097848D01*
X173583247Y-76810753D01*
X173546161Y-76785973D01*
X173561671Y-76707999D01*
X173545500Y-76626701D01*
X173545500Y-76281303D01*
X173561672Y-76200000D01*
X173545500Y-76118697D01*
X173545500Y-75773299D01*
X173561671Y-75692001D01*
X173546161Y-75614027D01*
X173583247Y-75589247D01*
X173775078Y-75302152D01*
X173842440Y-74963500D01*
X173842440Y-74388500D01*
X173775078Y-74049848D01*
X173608803Y-73801000D01*
X173641878Y-73751500D01*
X174338122Y-73751500D01*
X174396753Y-73839247D01*
X174396753Y-73839247D01*
G37*
X174396753Y-73839247D02*
X174683848Y-74031078D01*
X175022500Y-74098440D01*
X175265008Y-74098440D01*
X176876793Y-75710226D01*
X176922848Y-75779152D01*
X177195906Y-75961604D01*
X177436697Y-76009500D01*
X177436701Y-76009500D01*
X177517999Y-76025671D01*
X177599297Y-76009500D01*
X178745693Y-76009500D01*
X178867637Y-76192000D01*
X178745693Y-76374500D01*
X177615303Y-76374500D01*
X177534000Y-76358328D01*
X177452697Y-76374500D01*
X177211906Y-76422396D01*
X176938848Y-76604848D01*
X176892793Y-76673774D01*
X175265008Y-78301560D01*
X175022500Y-78301560D01*
X174683848Y-78368922D01*
X174396753Y-78560753D01*
X174338122Y-78648500D01*
X173641878Y-78648500D01*
X173608803Y-78599000D01*
X173775078Y-78350152D01*
X173842440Y-78011500D01*
X173842440Y-77436500D01*
X173775078Y-77097848D01*
X173583247Y-76810753D01*
X173546161Y-76785973D01*
X173561671Y-76707999D01*
X173545500Y-76626701D01*
X173545500Y-76281303D01*
X173561672Y-76200000D01*
X173545500Y-76118697D01*
X173545500Y-75773299D01*
X173561671Y-75692001D01*
X173546161Y-75614027D01*
X173583247Y-75589247D01*
X173775078Y-75302152D01*
X173842440Y-74963500D01*
X173842440Y-74388500D01*
X173775078Y-74049848D01*
X173608803Y-73801000D01*
X173641878Y-73751500D01*
X174338122Y-73751500D01*
X174396753Y-73839247D01*
G04 #@! TD*
M02*
