G04 #@! TF.GenerationSoftware,KiCad,Pcbnew,(5.0.2)-1*
G04 #@! TF.CreationDate,2020-06-10T19:57:50-05:00*
G04 #@! TF.ProjectId,BusinessCards,42757369-6e65-4737-9343-617264732e6b,rev?*
G04 #@! TF.SameCoordinates,Original*
G04 #@! TF.FileFunction,Soldermask,Top*
G04 #@! TF.FilePolarity,Negative*
%FSLAX46Y46*%
G04 Gerber Fmt 4.6, Leading zero omitted, Abs format (unit mm)*
G04 Created by KiCad (PCBNEW (5.0.2)-1) date 6/10/2020 7:57:50 PM*
%MOMM*%
%LPD*%
G01*
G04 APERTURE LIST*
%ADD10C,0.100000*%
G04 APERTURE END LIST*
D10*
G36*
X107268908Y-80025380D02*
X107435767Y-80058570D01*
X107907299Y-80253885D01*
X108328803Y-80535526D01*
X108331669Y-80537441D01*
X108692559Y-80898331D01*
X108692561Y-80898334D01*
X108976115Y-81322701D01*
X108976115Y-81322702D01*
X109171430Y-81794234D01*
X109271000Y-82294807D01*
X109271000Y-82805193D01*
X109204620Y-83138908D01*
X109171430Y-83305767D01*
X108976115Y-83777299D01*
X108775569Y-84077436D01*
X108692559Y-84201669D01*
X108331669Y-84562559D01*
X108331666Y-84562561D01*
X107907299Y-84846115D01*
X107435767Y-85041430D01*
X107268908Y-85074620D01*
X106935193Y-85141000D01*
X106424807Y-85141000D01*
X106091092Y-85074620D01*
X105924233Y-85041430D01*
X105452701Y-84846115D01*
X105028334Y-84562561D01*
X105028331Y-84562559D01*
X104667441Y-84201669D01*
X104584431Y-84077436D01*
X104383885Y-83777299D01*
X104188570Y-83305767D01*
X104155380Y-83138908D01*
X104089000Y-82805193D01*
X104089000Y-82294807D01*
X104188570Y-81794234D01*
X104383885Y-81322702D01*
X104383885Y-81322701D01*
X104667439Y-80898334D01*
X104667441Y-80898331D01*
X105028331Y-80537441D01*
X105031197Y-80535526D01*
X105452701Y-80253885D01*
X105924233Y-80058570D01*
X106091092Y-80025380D01*
X106424807Y-79959000D01*
X106935193Y-79959000D01*
X107268908Y-80025380D01*
X107268908Y-80025380D01*
G37*
G36*
X186018252Y-80797818D02*
X186018254Y-80797819D01*
X186018255Y-80797819D01*
X186391513Y-80952427D01*
X186391514Y-80952428D01*
X186727439Y-81176886D01*
X187013114Y-81462561D01*
X187013116Y-81462564D01*
X187237573Y-81798487D01*
X187392181Y-82171745D01*
X187471000Y-82567994D01*
X187471000Y-82972006D01*
X187392181Y-83368255D01*
X187237573Y-83741513D01*
X187016143Y-84072905D01*
X187013114Y-84077439D01*
X186727439Y-84363114D01*
X186727436Y-84363116D01*
X186391513Y-84587573D01*
X186018255Y-84742181D01*
X186018254Y-84742181D01*
X186018252Y-84742182D01*
X185622007Y-84821000D01*
X185217993Y-84821000D01*
X184821748Y-84742182D01*
X184821746Y-84742181D01*
X184821745Y-84742181D01*
X184448487Y-84587573D01*
X184112564Y-84363116D01*
X184112561Y-84363114D01*
X183826886Y-84077439D01*
X183823857Y-84072905D01*
X183602427Y-83741513D01*
X183447819Y-83368255D01*
X183369000Y-82972006D01*
X183369000Y-82567994D01*
X183447819Y-82171745D01*
X183602427Y-81798487D01*
X183826884Y-81462564D01*
X183826886Y-81462561D01*
X184112561Y-81176886D01*
X184448486Y-80952428D01*
X184448487Y-80952427D01*
X184821745Y-80797819D01*
X184821746Y-80797819D01*
X184821748Y-80797818D01*
X185217993Y-80719000D01*
X185622007Y-80719000D01*
X186018252Y-80797818D01*
X186018252Y-80797818D01*
G37*
G36*
X188383238Y-77344760D02*
X188383240Y-77344761D01*
X188383241Y-77344761D01*
X188647306Y-77454140D01*
X188647307Y-77454141D01*
X188884962Y-77612937D01*
X189087063Y-77815038D01*
X189087065Y-77815041D01*
X189245860Y-78052694D01*
X189355239Y-78316759D01*
X189411000Y-78597089D01*
X189411000Y-78882911D01*
X189355239Y-79163241D01*
X189245860Y-79427306D01*
X189245859Y-79427307D01*
X189087063Y-79664962D01*
X188884962Y-79867063D01*
X188884959Y-79867065D01*
X188647306Y-80025860D01*
X188383241Y-80135239D01*
X188383240Y-80135239D01*
X188383238Y-80135240D01*
X188102912Y-80191000D01*
X187817088Y-80191000D01*
X187536762Y-80135240D01*
X187536760Y-80135239D01*
X187536759Y-80135239D01*
X187272694Y-80025860D01*
X187035041Y-79867065D01*
X187035038Y-79867063D01*
X186832937Y-79664962D01*
X186674141Y-79427307D01*
X186674140Y-79427306D01*
X186564761Y-79163241D01*
X186509000Y-78882911D01*
X186509000Y-78597089D01*
X186564761Y-78316759D01*
X186674140Y-78052694D01*
X186832935Y-77815041D01*
X186832937Y-77815038D01*
X187035038Y-77612937D01*
X187272693Y-77454141D01*
X187272694Y-77454140D01*
X187536759Y-77344761D01*
X187536760Y-77344761D01*
X187536762Y-77344760D01*
X187817088Y-77289000D01*
X188102912Y-77289000D01*
X188383238Y-77344760D01*
X188383238Y-77344760D01*
G37*
G36*
X188383238Y-72264760D02*
X188383240Y-72264761D01*
X188383241Y-72264761D01*
X188647306Y-72374140D01*
X188647307Y-72374141D01*
X188884962Y-72532937D01*
X189087063Y-72735038D01*
X189087065Y-72735041D01*
X189245860Y-72972694D01*
X189355239Y-73236759D01*
X189411000Y-73517089D01*
X189411000Y-73802911D01*
X189355239Y-74083241D01*
X189245860Y-74347306D01*
X189245859Y-74347307D01*
X189087063Y-74584962D01*
X188884962Y-74787063D01*
X188884959Y-74787065D01*
X188647306Y-74945860D01*
X188383241Y-75055239D01*
X188383240Y-75055239D01*
X188383238Y-75055240D01*
X188102912Y-75111000D01*
X187817088Y-75111000D01*
X187536762Y-75055240D01*
X187536760Y-75055239D01*
X187536759Y-75055239D01*
X187272694Y-74945860D01*
X187035041Y-74787065D01*
X187035038Y-74787063D01*
X186832937Y-74584962D01*
X186674141Y-74347307D01*
X186674140Y-74347306D01*
X186564761Y-74083241D01*
X186509000Y-73802911D01*
X186509000Y-73517089D01*
X186564761Y-73236759D01*
X186674140Y-72972694D01*
X186832935Y-72735041D01*
X186832937Y-72735038D01*
X187035038Y-72532937D01*
X187272693Y-72374141D01*
X187272694Y-72374140D01*
X187536759Y-72264761D01*
X187536760Y-72264761D01*
X187536762Y-72264760D01*
X187817088Y-72209000D01*
X188102912Y-72209000D01*
X188383238Y-72264760D01*
X188383238Y-72264760D01*
G37*
G36*
X107268908Y-67325380D02*
X107435767Y-67358570D01*
X107907299Y-67553885D01*
X108328803Y-67835526D01*
X108331669Y-67837441D01*
X108692559Y-68198331D01*
X108692561Y-68198334D01*
X108976115Y-68622701D01*
X109171430Y-69094233D01*
X109171430Y-69094234D01*
X109237819Y-69427993D01*
X109271000Y-69594809D01*
X109271000Y-70105191D01*
X109171430Y-70605767D01*
X108976115Y-71077299D01*
X108728706Y-71447572D01*
X108692559Y-71501669D01*
X108331669Y-71862559D01*
X108331666Y-71862561D01*
X107907299Y-72146115D01*
X107435767Y-72341430D01*
X107271321Y-72374140D01*
X106935193Y-72441000D01*
X106424807Y-72441000D01*
X106088679Y-72374140D01*
X105924233Y-72341430D01*
X105452701Y-72146115D01*
X105028334Y-71862561D01*
X105028331Y-71862559D01*
X104667441Y-71501669D01*
X104631294Y-71447572D01*
X104383885Y-71077299D01*
X104188570Y-70605767D01*
X104089000Y-70105191D01*
X104089000Y-69594809D01*
X104122182Y-69427993D01*
X104188570Y-69094234D01*
X104188570Y-69094233D01*
X104383885Y-68622701D01*
X104667439Y-68198334D01*
X104667441Y-68198331D01*
X105028331Y-67837441D01*
X105031197Y-67835526D01*
X105452701Y-67553885D01*
X105924233Y-67358570D01*
X106091092Y-67325380D01*
X106424807Y-67259000D01*
X106935193Y-67259000D01*
X107268908Y-67325380D01*
X107268908Y-67325380D01*
G37*
G36*
X186018252Y-67657818D02*
X186018254Y-67657819D01*
X186018255Y-67657819D01*
X186391513Y-67812427D01*
X186391514Y-67812428D01*
X186727439Y-68036886D01*
X187013114Y-68322561D01*
X187013116Y-68322564D01*
X187237573Y-68658487D01*
X187392181Y-69031745D01*
X187471000Y-69427994D01*
X187471000Y-69832006D01*
X187392181Y-70228255D01*
X187237573Y-70601513D01*
X187016143Y-70932905D01*
X187013114Y-70937439D01*
X186727439Y-71223114D01*
X186727436Y-71223116D01*
X186391513Y-71447573D01*
X186018255Y-71602181D01*
X186018254Y-71602181D01*
X186018252Y-71602182D01*
X185622007Y-71681000D01*
X185217993Y-71681000D01*
X184821748Y-71602182D01*
X184821746Y-71602181D01*
X184821745Y-71602181D01*
X184448487Y-71447573D01*
X184112564Y-71223116D01*
X184112561Y-71223114D01*
X183826886Y-70937439D01*
X183823857Y-70932905D01*
X183602427Y-70601513D01*
X183447819Y-70228255D01*
X183369000Y-69832006D01*
X183369000Y-69427994D01*
X183447819Y-69031745D01*
X183602427Y-68658487D01*
X183826884Y-68322564D01*
X183826886Y-68322561D01*
X184112561Y-68036886D01*
X184448486Y-67812428D01*
X184448487Y-67812427D01*
X184821745Y-67657819D01*
X184821746Y-67657819D01*
X184821748Y-67657818D01*
X185217993Y-67579000D01*
X185622007Y-67579000D01*
X186018252Y-67657818D01*
X186018252Y-67657818D01*
G37*
G36*
X150375634Y-51555654D02*
X150592599Y-51621470D01*
X150592601Y-51621471D01*
X150592604Y-51621472D01*
X150792555Y-51728347D01*
X150967818Y-51872182D01*
X151111653Y-52047444D01*
X151218528Y-52247395D01*
X151218528Y-52247396D01*
X151218530Y-52247400D01*
X151284346Y-52464365D01*
X151301000Y-52633457D01*
X151301000Y-54046543D01*
X151284346Y-54215635D01*
X151224760Y-54412062D01*
X151218528Y-54432605D01*
X151111653Y-54632556D01*
X150967818Y-54807818D01*
X150792556Y-54951653D01*
X150592605Y-55058528D01*
X150592602Y-55058529D01*
X150592600Y-55058530D01*
X150375635Y-55124346D01*
X150150000Y-55146569D01*
X149924366Y-55124346D01*
X149707401Y-55058530D01*
X149707399Y-55058529D01*
X149707396Y-55058528D01*
X149507445Y-54951653D01*
X149332183Y-54807818D01*
X149188349Y-54632557D01*
X149081471Y-54432602D01*
X149074352Y-54409133D01*
X149015654Y-54215635D01*
X149015011Y-54213515D01*
X149011091Y-54193803D01*
X149001713Y-54171164D01*
X148988100Y-54150789D01*
X148970772Y-54133462D01*
X148950398Y-54119848D01*
X148927759Y-54110471D01*
X148903726Y-54105690D01*
X148879221Y-54105690D01*
X148855188Y-54110470D01*
X148832549Y-54119848D01*
X148812174Y-54133461D01*
X148794847Y-54150789D01*
X148781233Y-54171164D01*
X148719230Y-54287165D01*
X148619133Y-54409133D01*
X148497165Y-54509230D01*
X148358012Y-54583608D01*
X148207025Y-54629410D01*
X148050000Y-54644875D01*
X147892976Y-54629410D01*
X147741989Y-54583608D01*
X147602836Y-54509230D01*
X147480868Y-54409133D01*
X147380771Y-54287165D01*
X147306393Y-54148012D01*
X147260591Y-53997025D01*
X147249001Y-53879346D01*
X147249000Y-52800655D01*
X147260590Y-52682976D01*
X147306392Y-52531989D01*
X147380768Y-52392839D01*
X147430819Y-52331852D01*
X147480867Y-52270867D01*
X147480869Y-52270866D01*
X147480870Y-52270864D01*
X147602835Y-52170770D01*
X147741988Y-52096392D01*
X147892975Y-52050590D01*
X148050000Y-52035125D01*
X148207024Y-52050590D01*
X148358011Y-52096392D01*
X148497161Y-52170768D01*
X148522791Y-52191802D01*
X148619133Y-52270867D01*
X148619134Y-52270869D01*
X148619136Y-52270870D01*
X148719230Y-52392835D01*
X148781233Y-52508836D01*
X148794846Y-52529211D01*
X148812174Y-52546538D01*
X148832548Y-52560152D01*
X148855187Y-52569529D01*
X148879220Y-52574310D01*
X148903725Y-52574310D01*
X148927758Y-52569530D01*
X148950397Y-52560152D01*
X148970772Y-52546539D01*
X148988099Y-52529211D01*
X149001713Y-52508837D01*
X149011090Y-52486198D01*
X149015011Y-52466488D01*
X149015654Y-52464368D01*
X149015654Y-52464366D01*
X149081470Y-52247401D01*
X149081471Y-52247399D01*
X149081472Y-52247396D01*
X149188347Y-52047445D01*
X149332182Y-51872182D01*
X149507444Y-51728347D01*
X149707395Y-51621472D01*
X149707398Y-51621471D01*
X149707400Y-51621470D01*
X149924365Y-51555654D01*
X150150000Y-51533431D01*
X150375634Y-51555654D01*
X150375634Y-51555654D01*
G37*
G36*
X142175634Y-51555654D02*
X142392599Y-51621470D01*
X142392601Y-51621471D01*
X142392604Y-51621472D01*
X142592555Y-51728347D01*
X142767818Y-51872182D01*
X142911653Y-52047444D01*
X143013760Y-52238474D01*
X143027374Y-52258849D01*
X143044701Y-52276176D01*
X143065075Y-52289790D01*
X143087714Y-52299167D01*
X143111748Y-52303948D01*
X143136252Y-52303948D01*
X143160285Y-52299168D01*
X143182924Y-52289790D01*
X143203299Y-52276176D01*
X143220626Y-52258849D01*
X143234240Y-52238475D01*
X143243617Y-52215836D01*
X143248398Y-52191802D01*
X143249000Y-52179550D01*
X143249000Y-52039000D01*
X144851000Y-52039000D01*
X144851000Y-54641000D01*
X143249000Y-54641000D01*
X143249000Y-54500450D01*
X143246598Y-54476064D01*
X143239485Y-54452615D01*
X143227934Y-54431004D01*
X143212388Y-54412062D01*
X143193446Y-54396516D01*
X143171835Y-54384965D01*
X143148386Y-54377852D01*
X143124000Y-54375450D01*
X143099614Y-54377852D01*
X143076165Y-54384965D01*
X143054554Y-54396516D01*
X143035612Y-54412062D01*
X143020066Y-54431004D01*
X143013760Y-54441526D01*
X142911653Y-54632556D01*
X142767818Y-54807818D01*
X142592556Y-54951653D01*
X142392605Y-55058528D01*
X142392602Y-55058529D01*
X142392600Y-55058530D01*
X142175635Y-55124346D01*
X141950000Y-55146569D01*
X141724366Y-55124346D01*
X141507401Y-55058530D01*
X141507399Y-55058529D01*
X141507396Y-55058528D01*
X141307445Y-54951653D01*
X141132183Y-54807818D01*
X140988349Y-54632557D01*
X140881471Y-54432602D01*
X140875240Y-54412062D01*
X140815654Y-54215635D01*
X140799000Y-54046543D01*
X140799000Y-52633458D01*
X140815654Y-52464366D01*
X140881470Y-52247401D01*
X140881471Y-52247399D01*
X140881472Y-52247396D01*
X140988347Y-52047445D01*
X141132182Y-51872182D01*
X141307444Y-51728347D01*
X141507395Y-51621472D01*
X141507398Y-51621471D01*
X141507400Y-51621470D01*
X141724365Y-51555654D01*
X141950000Y-51533431D01*
X142175634Y-51555654D01*
X142175634Y-51555654D01*
G37*
G36*
X146207024Y-52050590D02*
X146358011Y-52096392D01*
X146497161Y-52170768D01*
X146522791Y-52191802D01*
X146619133Y-52270867D01*
X146619134Y-52270869D01*
X146619136Y-52270870D01*
X146719230Y-52392835D01*
X146793608Y-52531988D01*
X146839410Y-52682975D01*
X146851000Y-52800654D01*
X146851000Y-53879346D01*
X146839410Y-53997025D01*
X146793608Y-54148012D01*
X146719230Y-54287165D01*
X146619133Y-54409133D01*
X146497165Y-54509230D01*
X146358012Y-54583608D01*
X146207025Y-54629410D01*
X146050000Y-54644875D01*
X145892976Y-54629410D01*
X145741989Y-54583608D01*
X145602836Y-54509230D01*
X145480868Y-54409133D01*
X145380771Y-54287165D01*
X145306393Y-54148012D01*
X145260591Y-53997025D01*
X145249001Y-53879346D01*
X145249000Y-52800655D01*
X145260590Y-52682976D01*
X145306392Y-52531989D01*
X145380768Y-52392839D01*
X145430819Y-52331852D01*
X145480867Y-52270867D01*
X145480869Y-52270866D01*
X145480870Y-52270864D01*
X145602835Y-52170770D01*
X145741988Y-52096392D01*
X145892975Y-52050590D01*
X146050000Y-52035125D01*
X146207024Y-52050590D01*
X146207024Y-52050590D01*
G37*
M02*
