G04 #@! TF.GenerationSoftware,KiCad,Pcbnew,(5.0.2)-1*
G04 #@! TF.CreationDate,2019-07-27T15:32:46-05:00*
G04 #@! TF.ProjectId,BusinessCards,42757369-6e65-4737-9343-617264732e6b,rev?*
G04 #@! TF.SameCoordinates,Original*
G04 #@! TF.FileFunction,Soldermask,Bot*
G04 #@! TF.FilePolarity,Negative*
%FSLAX46Y46*%
G04 Gerber Fmt 4.6, Leading zero omitted, Abs format (unit mm)*
G04 Created by KiCad (PCBNEW (5.0.2)-1) date 7/27/2019 3:32:46 PM*
%MOMM*%
%LPD*%
G01*
G04 APERTURE LIST*
%ADD10C,0.100000*%
G04 APERTURE END LIST*
D10*
G36*
X107268908Y-80025380D02*
X107435767Y-80058570D01*
X107907299Y-80253885D01*
X107992777Y-80311000D01*
X108331669Y-80537441D01*
X108692559Y-80898331D01*
X108692561Y-80898334D01*
X108976115Y-81322701D01*
X108976115Y-81322702D01*
X109171430Y-81794234D01*
X109271000Y-82294807D01*
X109271000Y-82805193D01*
X109204620Y-83138908D01*
X109171430Y-83305767D01*
X108976115Y-83777299D01*
X108775569Y-84077436D01*
X108692559Y-84201669D01*
X108331669Y-84562559D01*
X108331666Y-84562561D01*
X107907299Y-84846115D01*
X107435767Y-85041430D01*
X107268908Y-85074620D01*
X106935193Y-85141000D01*
X106424807Y-85141000D01*
X106091092Y-85074620D01*
X105924233Y-85041430D01*
X105452701Y-84846115D01*
X105028334Y-84562561D01*
X105028331Y-84562559D01*
X104667441Y-84201669D01*
X104584431Y-84077436D01*
X104383885Y-83777299D01*
X104188570Y-83305767D01*
X104155380Y-83138908D01*
X104089000Y-82805193D01*
X104089000Y-82294807D01*
X104188570Y-81794234D01*
X104383885Y-81322702D01*
X104383885Y-81322701D01*
X104667439Y-80898334D01*
X104667441Y-80898331D01*
X105028331Y-80537441D01*
X105367223Y-80311000D01*
X105452701Y-80253885D01*
X105924233Y-80058570D01*
X106091092Y-80025380D01*
X106424807Y-79959000D01*
X106935193Y-79959000D01*
X107268908Y-80025380D01*
X107268908Y-80025380D01*
G37*
G36*
X186018252Y-80797818D02*
X186018254Y-80797819D01*
X186018255Y-80797819D01*
X186391513Y-80952427D01*
X186391514Y-80952428D01*
X186727439Y-81176886D01*
X187013114Y-81462561D01*
X187013116Y-81462564D01*
X187237573Y-81798487D01*
X187392181Y-82171745D01*
X187471000Y-82567994D01*
X187471000Y-82972006D01*
X187392181Y-83368255D01*
X187237573Y-83741513D01*
X187016143Y-84072905D01*
X187013114Y-84077439D01*
X186727439Y-84363114D01*
X186727436Y-84363116D01*
X186391513Y-84587573D01*
X186018255Y-84742181D01*
X186018254Y-84742181D01*
X186018252Y-84742182D01*
X185622007Y-84821000D01*
X185217993Y-84821000D01*
X184821748Y-84742182D01*
X184821746Y-84742181D01*
X184821745Y-84742181D01*
X184448487Y-84587573D01*
X184112564Y-84363116D01*
X184112561Y-84363114D01*
X183826886Y-84077439D01*
X183823857Y-84072905D01*
X183602427Y-83741513D01*
X183447819Y-83368255D01*
X183369000Y-82972006D01*
X183369000Y-82567994D01*
X183447819Y-82171745D01*
X183602427Y-81798487D01*
X183826884Y-81462564D01*
X183826886Y-81462561D01*
X184112561Y-81176886D01*
X184448486Y-80952428D01*
X184448487Y-80952427D01*
X184821745Y-80797819D01*
X184821746Y-80797819D01*
X184821748Y-80797818D01*
X185217993Y-80719000D01*
X185622007Y-80719000D01*
X186018252Y-80797818D01*
X186018252Y-80797818D01*
G37*
G36*
X183383000Y-80311000D02*
X179281000Y-80311000D01*
X179281000Y-79089000D01*
X183383000Y-79089000D01*
X183383000Y-80311000D01*
X183383000Y-80311000D01*
G37*
G36*
X188383238Y-77344760D02*
X188383240Y-77344761D01*
X188383241Y-77344761D01*
X188647306Y-77454140D01*
X188647307Y-77454141D01*
X188884962Y-77612937D01*
X189087063Y-77815038D01*
X189087065Y-77815041D01*
X189245860Y-78052694D01*
X189341745Y-78284181D01*
X189355240Y-78316762D01*
X189411000Y-78597088D01*
X189411000Y-78882912D01*
X189370007Y-79089000D01*
X189355239Y-79163241D01*
X189245860Y-79427306D01*
X189245859Y-79427307D01*
X189087063Y-79664962D01*
X188884962Y-79867063D01*
X188884959Y-79867065D01*
X188647306Y-80025860D01*
X188383241Y-80135239D01*
X188383240Y-80135239D01*
X188383238Y-80135240D01*
X188102912Y-80191000D01*
X187817088Y-80191000D01*
X187536762Y-80135240D01*
X187536760Y-80135239D01*
X187536759Y-80135239D01*
X187272694Y-80025860D01*
X187035041Y-79867065D01*
X187035038Y-79867063D01*
X186832937Y-79664962D01*
X186674141Y-79427307D01*
X186674140Y-79427306D01*
X186564761Y-79163241D01*
X186549994Y-79089000D01*
X186509000Y-78882912D01*
X186509000Y-78597088D01*
X186564760Y-78316762D01*
X186578255Y-78284181D01*
X186674140Y-78052694D01*
X186832935Y-77815041D01*
X186832937Y-77815038D01*
X187035038Y-77612937D01*
X187272693Y-77454141D01*
X187272694Y-77454140D01*
X187536759Y-77344761D01*
X187536760Y-77344761D01*
X187536762Y-77344760D01*
X187817088Y-77289000D01*
X188102912Y-77289000D01*
X188383238Y-77344760D01*
X188383238Y-77344760D01*
G37*
G36*
X173084499Y-78902445D02*
X173121993Y-78913819D01*
X173156557Y-78932294D01*
X173186847Y-78957153D01*
X173211706Y-78987443D01*
X173230181Y-79022007D01*
X173241555Y-79059501D01*
X173246000Y-79104638D01*
X173246000Y-79843362D01*
X173241555Y-79888499D01*
X173230181Y-79925993D01*
X173211706Y-79960557D01*
X173186847Y-79990847D01*
X173156557Y-80015706D01*
X173121993Y-80034181D01*
X173084499Y-80045555D01*
X173039362Y-80050000D01*
X172400638Y-80050000D01*
X172355501Y-80045555D01*
X172318007Y-80034181D01*
X172283443Y-80015706D01*
X172253153Y-79990847D01*
X172228294Y-79960557D01*
X172209819Y-79925993D01*
X172198445Y-79888499D01*
X172194000Y-79843362D01*
X172194000Y-79104638D01*
X172198445Y-79059501D01*
X172209819Y-79022007D01*
X172228294Y-78987443D01*
X172253153Y-78957153D01*
X172283443Y-78932294D01*
X172318007Y-78913819D01*
X172355501Y-78902445D01*
X172400638Y-78898000D01*
X173039362Y-78898000D01*
X173084499Y-78902445D01*
X173084499Y-78902445D01*
G37*
G36*
X175624499Y-78902445D02*
X175661993Y-78913819D01*
X175696557Y-78932294D01*
X175726847Y-78957153D01*
X175751706Y-78987443D01*
X175770181Y-79022007D01*
X175781555Y-79059501D01*
X175786000Y-79104638D01*
X175786000Y-79843362D01*
X175781555Y-79888499D01*
X175770181Y-79925993D01*
X175751706Y-79960557D01*
X175726847Y-79990847D01*
X175696557Y-80015706D01*
X175661993Y-80034181D01*
X175624499Y-80045555D01*
X175579362Y-80050000D01*
X174940638Y-80050000D01*
X174895501Y-80045555D01*
X174858007Y-80034181D01*
X174823443Y-80015706D01*
X174793153Y-79990847D01*
X174768294Y-79960557D01*
X174749819Y-79925993D01*
X174738445Y-79888499D01*
X174734000Y-79843362D01*
X174734000Y-79104638D01*
X174738445Y-79059501D01*
X174749819Y-79022007D01*
X174768294Y-78987443D01*
X174793153Y-78957153D01*
X174823443Y-78932294D01*
X174858007Y-78913819D01*
X174895501Y-78902445D01*
X174940638Y-78898000D01*
X175579362Y-78898000D01*
X175624499Y-78902445D01*
X175624499Y-78902445D01*
G37*
G36*
X175624499Y-77152445D02*
X175661993Y-77163819D01*
X175696557Y-77182294D01*
X175726847Y-77207153D01*
X175751706Y-77237443D01*
X175770181Y-77272007D01*
X175781555Y-77309501D01*
X175786000Y-77354638D01*
X175786000Y-78093362D01*
X175781555Y-78138499D01*
X175770181Y-78175993D01*
X175751706Y-78210557D01*
X175726847Y-78240847D01*
X175696557Y-78265706D01*
X175661993Y-78284181D01*
X175624499Y-78295555D01*
X175579362Y-78300000D01*
X174940638Y-78300000D01*
X174895501Y-78295555D01*
X174858007Y-78284181D01*
X174823443Y-78265706D01*
X174793153Y-78240847D01*
X174768294Y-78210557D01*
X174749819Y-78175993D01*
X174738445Y-78138499D01*
X174734000Y-78093362D01*
X174734000Y-77354638D01*
X174738445Y-77309501D01*
X174749819Y-77272007D01*
X174768294Y-77237443D01*
X174793153Y-77207153D01*
X174823443Y-77182294D01*
X174858007Y-77163819D01*
X174895501Y-77152445D01*
X174940638Y-77148000D01*
X175579362Y-77148000D01*
X175624499Y-77152445D01*
X175624499Y-77152445D01*
G37*
G36*
X173084499Y-77152445D02*
X173121993Y-77163819D01*
X173156557Y-77182294D01*
X173186847Y-77207153D01*
X173211706Y-77237443D01*
X173230181Y-77272007D01*
X173241555Y-77309501D01*
X173246000Y-77354638D01*
X173246000Y-78093362D01*
X173241555Y-78138499D01*
X173230181Y-78175993D01*
X173211706Y-78210557D01*
X173186847Y-78240847D01*
X173156557Y-78265706D01*
X173121993Y-78284181D01*
X173084499Y-78295555D01*
X173039362Y-78300000D01*
X172400638Y-78300000D01*
X172355501Y-78295555D01*
X172318007Y-78284181D01*
X172283443Y-78265706D01*
X172253153Y-78240847D01*
X172228294Y-78210557D01*
X172209819Y-78175993D01*
X172198445Y-78138499D01*
X172194000Y-78093362D01*
X172194000Y-77354638D01*
X172198445Y-77309501D01*
X172209819Y-77272007D01*
X172228294Y-77237443D01*
X172253153Y-77207153D01*
X172283443Y-77182294D01*
X172318007Y-77163819D01*
X172355501Y-77152445D01*
X172400638Y-77148000D01*
X173039362Y-77148000D01*
X173084499Y-77152445D01*
X173084499Y-77152445D01*
G37*
G36*
X183383000Y-77811000D02*
X179281000Y-77811000D01*
X179281000Y-76589000D01*
X183383000Y-76589000D01*
X183383000Y-77811000D01*
X183383000Y-77811000D01*
G37*
G36*
X183383000Y-75795000D02*
X179281000Y-75795000D01*
X179281000Y-74573000D01*
X183383000Y-74573000D01*
X183383000Y-75795000D01*
X183383000Y-75795000D01*
G37*
G36*
X173084499Y-74104445D02*
X173121993Y-74115819D01*
X173156557Y-74134294D01*
X173186847Y-74159153D01*
X173211706Y-74189443D01*
X173230181Y-74224007D01*
X173241555Y-74261501D01*
X173246000Y-74306638D01*
X173246000Y-75045362D01*
X173241555Y-75090499D01*
X173230181Y-75127993D01*
X173211706Y-75162557D01*
X173186847Y-75192847D01*
X173156557Y-75217706D01*
X173121993Y-75236181D01*
X173084499Y-75247555D01*
X173039362Y-75252000D01*
X172400638Y-75252000D01*
X172355501Y-75247555D01*
X172318007Y-75236181D01*
X172283443Y-75217706D01*
X172253153Y-75192847D01*
X172228294Y-75162557D01*
X172209819Y-75127993D01*
X172198445Y-75090499D01*
X172194000Y-75045362D01*
X172194000Y-74306638D01*
X172198445Y-74261501D01*
X172209819Y-74224007D01*
X172228294Y-74189443D01*
X172253153Y-74159153D01*
X172283443Y-74134294D01*
X172318007Y-74115819D01*
X172355501Y-74104445D01*
X172400638Y-74100000D01*
X173039362Y-74100000D01*
X173084499Y-74104445D01*
X173084499Y-74104445D01*
G37*
G36*
X175624499Y-74104445D02*
X175661993Y-74115819D01*
X175696557Y-74134294D01*
X175726847Y-74159153D01*
X175751706Y-74189443D01*
X175770181Y-74224007D01*
X175781555Y-74261501D01*
X175786000Y-74306638D01*
X175786000Y-75045362D01*
X175781555Y-75090499D01*
X175770181Y-75127993D01*
X175751706Y-75162557D01*
X175726847Y-75192847D01*
X175696557Y-75217706D01*
X175661993Y-75236181D01*
X175624499Y-75247555D01*
X175579362Y-75252000D01*
X174940638Y-75252000D01*
X174895501Y-75247555D01*
X174858007Y-75236181D01*
X174823443Y-75217706D01*
X174793153Y-75192847D01*
X174768294Y-75162557D01*
X174749819Y-75127993D01*
X174738445Y-75090499D01*
X174734000Y-75045362D01*
X174734000Y-74306638D01*
X174738445Y-74261501D01*
X174749819Y-74224007D01*
X174768294Y-74189443D01*
X174793153Y-74159153D01*
X174823443Y-74134294D01*
X174858007Y-74115819D01*
X174895501Y-74104445D01*
X174940638Y-74100000D01*
X175579362Y-74100000D01*
X175624499Y-74104445D01*
X175624499Y-74104445D01*
G37*
G36*
X188383238Y-72264760D02*
X188383240Y-72264761D01*
X188383241Y-72264761D01*
X188647306Y-72374140D01*
X188747369Y-72441000D01*
X188884962Y-72532937D01*
X189087063Y-72735038D01*
X189087065Y-72735041D01*
X189245860Y-72972694D01*
X189355239Y-73236759D01*
X189355240Y-73236762D01*
X189407999Y-73502000D01*
X189411000Y-73517089D01*
X189411000Y-73802911D01*
X189355239Y-74083241D01*
X189245860Y-74347306D01*
X189095056Y-74573000D01*
X189087063Y-74584962D01*
X188884962Y-74787063D01*
X188884959Y-74787065D01*
X188647306Y-74945860D01*
X188383241Y-75055239D01*
X188383240Y-75055239D01*
X188383238Y-75055240D01*
X188102912Y-75111000D01*
X187817088Y-75111000D01*
X187536762Y-75055240D01*
X187536760Y-75055239D01*
X187536759Y-75055239D01*
X187272694Y-74945860D01*
X187035041Y-74787065D01*
X187035038Y-74787063D01*
X186832937Y-74584962D01*
X186824944Y-74573000D01*
X186674140Y-74347306D01*
X186564761Y-74083241D01*
X186509000Y-73802911D01*
X186509000Y-73517089D01*
X186512001Y-73502000D01*
X186564760Y-73236762D01*
X186564761Y-73236759D01*
X186674140Y-72972694D01*
X186832935Y-72735041D01*
X186832937Y-72735038D01*
X187035038Y-72532937D01*
X187172631Y-72441000D01*
X187272694Y-72374140D01*
X187536759Y-72264761D01*
X187536760Y-72264761D01*
X187536762Y-72264760D01*
X187817088Y-72209000D01*
X188102912Y-72209000D01*
X188383238Y-72264760D01*
X188383238Y-72264760D01*
G37*
G36*
X175624499Y-72354445D02*
X175661993Y-72365819D01*
X175696557Y-72384294D01*
X175726847Y-72409153D01*
X175751706Y-72439443D01*
X175770181Y-72474007D01*
X175781555Y-72511501D01*
X175786000Y-72556638D01*
X175786000Y-73295362D01*
X175781555Y-73340499D01*
X175770181Y-73377993D01*
X175751706Y-73412557D01*
X175726847Y-73442847D01*
X175696557Y-73467706D01*
X175661993Y-73486181D01*
X175624499Y-73497555D01*
X175579362Y-73502000D01*
X174940638Y-73502000D01*
X174895501Y-73497555D01*
X174858007Y-73486181D01*
X174823443Y-73467706D01*
X174793153Y-73442847D01*
X174768294Y-73412557D01*
X174749819Y-73377993D01*
X174738445Y-73340499D01*
X174734000Y-73295362D01*
X174734000Y-72556638D01*
X174738445Y-72511501D01*
X174749819Y-72474007D01*
X174768294Y-72439443D01*
X174793153Y-72409153D01*
X174823443Y-72384294D01*
X174858007Y-72365819D01*
X174895501Y-72354445D01*
X174940638Y-72350000D01*
X175579362Y-72350000D01*
X175624499Y-72354445D01*
X175624499Y-72354445D01*
G37*
G36*
X173084499Y-72354445D02*
X173121993Y-72365819D01*
X173156557Y-72384294D01*
X173186847Y-72409153D01*
X173211706Y-72439443D01*
X173230181Y-72474007D01*
X173241555Y-72511501D01*
X173246000Y-72556638D01*
X173246000Y-73295362D01*
X173241555Y-73340499D01*
X173230181Y-73377993D01*
X173211706Y-73412557D01*
X173186847Y-73442847D01*
X173156557Y-73467706D01*
X173121993Y-73486181D01*
X173084499Y-73497555D01*
X173039362Y-73502000D01*
X172400638Y-73502000D01*
X172355501Y-73497555D01*
X172318007Y-73486181D01*
X172283443Y-73467706D01*
X172253153Y-73442847D01*
X172228294Y-73412557D01*
X172209819Y-73377993D01*
X172198445Y-73340499D01*
X172194000Y-73295362D01*
X172194000Y-72556638D01*
X172198445Y-72511501D01*
X172209819Y-72474007D01*
X172228294Y-72439443D01*
X172253153Y-72409153D01*
X172283443Y-72384294D01*
X172318007Y-72365819D01*
X172355501Y-72354445D01*
X172400638Y-72350000D01*
X173039362Y-72350000D01*
X173084499Y-72354445D01*
X173084499Y-72354445D01*
G37*
G36*
X183383000Y-73311000D02*
X179281000Y-73311000D01*
X179281000Y-72089000D01*
X183383000Y-72089000D01*
X183383000Y-73311000D01*
X183383000Y-73311000D01*
G37*
G36*
X107268908Y-67325380D02*
X107435767Y-67358570D01*
X107907299Y-67553885D01*
X108328803Y-67835526D01*
X108331669Y-67837441D01*
X108692559Y-68198331D01*
X108692561Y-68198334D01*
X108976115Y-68622701D01*
X109171430Y-69094233D01*
X109171430Y-69094234D01*
X109271000Y-69594807D01*
X109271000Y-70105193D01*
X109246522Y-70228252D01*
X109171430Y-70605767D01*
X108976115Y-71077299D01*
X108728706Y-71447572D01*
X108692559Y-71501669D01*
X108331669Y-71862559D01*
X108331666Y-71862561D01*
X107907299Y-72146115D01*
X107435767Y-72341430D01*
X107313154Y-72365819D01*
X106935193Y-72441000D01*
X106424807Y-72441000D01*
X106046846Y-72365819D01*
X105924233Y-72341430D01*
X105452701Y-72146115D01*
X105028334Y-71862561D01*
X105028331Y-71862559D01*
X104667441Y-71501669D01*
X104631294Y-71447572D01*
X104383885Y-71077299D01*
X104188570Y-70605767D01*
X104113478Y-70228252D01*
X104089000Y-70105193D01*
X104089000Y-69594807D01*
X104188570Y-69094234D01*
X104188570Y-69094233D01*
X104383885Y-68622701D01*
X104667439Y-68198334D01*
X104667441Y-68198331D01*
X105028331Y-67837441D01*
X105031197Y-67835526D01*
X105452701Y-67553885D01*
X105924233Y-67358570D01*
X106091092Y-67325380D01*
X106424807Y-67259000D01*
X106935193Y-67259000D01*
X107268908Y-67325380D01*
X107268908Y-67325380D01*
G37*
G36*
X186018252Y-67657818D02*
X186018254Y-67657819D01*
X186018255Y-67657819D01*
X186391513Y-67812427D01*
X186391514Y-67812428D01*
X186727439Y-68036886D01*
X187013114Y-68322561D01*
X187013116Y-68322564D01*
X187237573Y-68658487D01*
X187392181Y-69031745D01*
X187392182Y-69031748D01*
X187471000Y-69427993D01*
X187471000Y-69832007D01*
X187413516Y-70121000D01*
X187392181Y-70228255D01*
X187237573Y-70601513D01*
X187016143Y-70932905D01*
X187013114Y-70937439D01*
X186727439Y-71223114D01*
X186727436Y-71223116D01*
X186391513Y-71447573D01*
X186018255Y-71602181D01*
X186018254Y-71602181D01*
X186018252Y-71602182D01*
X185622007Y-71681000D01*
X185217993Y-71681000D01*
X184821748Y-71602182D01*
X184821746Y-71602181D01*
X184821745Y-71602181D01*
X184448487Y-71447573D01*
X184112564Y-71223116D01*
X184112561Y-71223114D01*
X183826886Y-70937439D01*
X183823857Y-70932905D01*
X183602427Y-70601513D01*
X183447819Y-70228255D01*
X183426485Y-70121000D01*
X183369000Y-69832007D01*
X183369000Y-69427993D01*
X183447818Y-69031748D01*
X183447819Y-69031745D01*
X183602427Y-68658487D01*
X183826884Y-68322564D01*
X183826886Y-68322561D01*
X184112561Y-68036886D01*
X184448486Y-67812428D01*
X184448487Y-67812427D01*
X184821745Y-67657819D01*
X184821746Y-67657819D01*
X184821748Y-67657818D01*
X185217993Y-67579000D01*
X185622007Y-67579000D01*
X186018252Y-67657818D01*
X186018252Y-67657818D01*
G37*
G36*
X166781000Y-70121000D02*
X160879000Y-70121000D01*
X160879000Y-63619000D01*
X166781000Y-63619000D01*
X166781000Y-70121000D01*
X166781000Y-70121000D01*
G37*
G36*
X185439499Y-64502445D02*
X185476993Y-64513819D01*
X185511557Y-64532294D01*
X185541847Y-64557153D01*
X185566706Y-64587443D01*
X185585181Y-64622007D01*
X185596555Y-64659501D01*
X185601000Y-64704638D01*
X185601000Y-65343362D01*
X185596555Y-65388499D01*
X185585181Y-65425993D01*
X185566706Y-65460557D01*
X185541847Y-65490847D01*
X185511557Y-65515706D01*
X185476993Y-65534181D01*
X185439499Y-65545555D01*
X185394362Y-65550000D01*
X184655638Y-65550000D01*
X184610501Y-65545555D01*
X184573007Y-65534181D01*
X184538443Y-65515706D01*
X184508153Y-65490847D01*
X184483294Y-65460557D01*
X184464819Y-65425993D01*
X184453445Y-65388499D01*
X184449000Y-65343362D01*
X184449000Y-64704638D01*
X184453445Y-64659501D01*
X184464819Y-64622007D01*
X184483294Y-64587443D01*
X184508153Y-64557153D01*
X184538443Y-64532294D01*
X184573007Y-64513819D01*
X184610501Y-64502445D01*
X184655638Y-64498000D01*
X185394362Y-64498000D01*
X185439499Y-64502445D01*
X185439499Y-64502445D01*
G37*
G36*
X183689499Y-64502445D02*
X183726993Y-64513819D01*
X183761557Y-64532294D01*
X183791847Y-64557153D01*
X183816706Y-64587443D01*
X183835181Y-64622007D01*
X183846555Y-64659501D01*
X183851000Y-64704638D01*
X183851000Y-65343362D01*
X183846555Y-65388499D01*
X183835181Y-65425993D01*
X183816706Y-65460557D01*
X183791847Y-65490847D01*
X183761557Y-65515706D01*
X183726993Y-65534181D01*
X183689499Y-65545555D01*
X183644362Y-65550000D01*
X182905638Y-65550000D01*
X182860501Y-65545555D01*
X182823007Y-65534181D01*
X182788443Y-65515706D01*
X182758153Y-65490847D01*
X182733294Y-65460557D01*
X182714819Y-65425993D01*
X182703445Y-65388499D01*
X182699000Y-65343362D01*
X182699000Y-64704638D01*
X182703445Y-64659501D01*
X182714819Y-64622007D01*
X182733294Y-64587443D01*
X182758153Y-64557153D01*
X182788443Y-64532294D01*
X182823007Y-64513819D01*
X182860501Y-64502445D01*
X182905638Y-64498000D01*
X183644362Y-64498000D01*
X183689499Y-64502445D01*
X183689499Y-64502445D01*
G37*
G36*
X187669617Y-64551965D02*
X187702430Y-64561918D01*
X187732667Y-64578080D01*
X187759170Y-64599830D01*
X187780920Y-64626333D01*
X187797082Y-64656570D01*
X187807035Y-64689383D01*
X187811000Y-64729640D01*
X187811000Y-65318360D01*
X187807035Y-65358617D01*
X187797082Y-65391430D01*
X187780920Y-65421667D01*
X187759170Y-65448170D01*
X187732667Y-65469920D01*
X187702430Y-65486082D01*
X187669617Y-65496035D01*
X187629360Y-65500000D01*
X186665640Y-65500000D01*
X186625383Y-65496035D01*
X186592570Y-65486082D01*
X186562333Y-65469920D01*
X186535830Y-65448170D01*
X186514080Y-65421667D01*
X186497918Y-65391430D01*
X186487965Y-65358617D01*
X186484000Y-65318360D01*
X186484000Y-64729640D01*
X186487965Y-64689383D01*
X186497918Y-64656570D01*
X186514080Y-64626333D01*
X186535830Y-64599830D01*
X186562333Y-64578080D01*
X186592570Y-64561918D01*
X186625383Y-64551965D01*
X186665640Y-64548000D01*
X187629360Y-64548000D01*
X187669617Y-64551965D01*
X187669617Y-64551965D01*
G37*
G36*
X189294617Y-64551965D02*
X189327430Y-64561918D01*
X189357667Y-64578080D01*
X189384170Y-64599830D01*
X189405920Y-64626333D01*
X189422082Y-64656570D01*
X189432035Y-64689383D01*
X189436000Y-64729640D01*
X189436000Y-65318360D01*
X189432035Y-65358617D01*
X189422082Y-65391430D01*
X189405920Y-65421667D01*
X189384170Y-65448170D01*
X189357667Y-65469920D01*
X189327430Y-65486082D01*
X189294617Y-65496035D01*
X189254360Y-65500000D01*
X188290640Y-65500000D01*
X188250383Y-65496035D01*
X188217570Y-65486082D01*
X188187333Y-65469920D01*
X188160830Y-65448170D01*
X188139080Y-65421667D01*
X188122918Y-65391430D01*
X188112965Y-65358617D01*
X188109000Y-65318360D01*
X188109000Y-64729640D01*
X188112965Y-64689383D01*
X188122918Y-64656570D01*
X188139080Y-64626333D01*
X188160830Y-64599830D01*
X188187333Y-64578080D01*
X188217570Y-64561918D01*
X188250383Y-64551965D01*
X188290640Y-64548000D01*
X189254360Y-64548000D01*
X189294617Y-64551965D01*
X189294617Y-64551965D01*
G37*
G36*
X169528499Y-62138445D02*
X169565993Y-62149819D01*
X169600557Y-62168294D01*
X169630847Y-62193153D01*
X169655706Y-62223443D01*
X169674181Y-62258007D01*
X169685555Y-62295501D01*
X169690000Y-62340638D01*
X169690000Y-63079362D01*
X169685555Y-63124499D01*
X169674181Y-63161993D01*
X169655706Y-63196557D01*
X169630847Y-63226847D01*
X169600557Y-63251706D01*
X169565993Y-63270181D01*
X169528499Y-63281555D01*
X169483362Y-63286000D01*
X168844638Y-63286000D01*
X168799501Y-63281555D01*
X168762007Y-63270181D01*
X168727443Y-63251706D01*
X168697153Y-63226847D01*
X168672294Y-63196557D01*
X168653819Y-63161993D01*
X168642445Y-63124499D01*
X168638000Y-63079362D01*
X168638000Y-62340638D01*
X168642445Y-62295501D01*
X168653819Y-62258007D01*
X168672294Y-62223443D01*
X168697153Y-62193153D01*
X168727443Y-62168294D01*
X168762007Y-62149819D01*
X168799501Y-62138445D01*
X168844638Y-62134000D01*
X169483362Y-62134000D01*
X169528499Y-62138445D01*
X169528499Y-62138445D01*
G37*
G36*
X158860499Y-62138445D02*
X158897993Y-62149819D01*
X158932557Y-62168294D01*
X158962847Y-62193153D01*
X158987706Y-62223443D01*
X159006181Y-62258007D01*
X159017555Y-62295501D01*
X159022000Y-62340638D01*
X159022000Y-63079362D01*
X159017555Y-63124499D01*
X159006181Y-63161993D01*
X158987706Y-63196557D01*
X158962847Y-63226847D01*
X158932557Y-63251706D01*
X158897993Y-63270181D01*
X158860499Y-63281555D01*
X158815362Y-63286000D01*
X158176638Y-63286000D01*
X158131501Y-63281555D01*
X158094007Y-63270181D01*
X158059443Y-63251706D01*
X158029153Y-63226847D01*
X158004294Y-63196557D01*
X157985819Y-63161993D01*
X157974445Y-63124499D01*
X157970000Y-63079362D01*
X157970000Y-62340638D01*
X157974445Y-62295501D01*
X157985819Y-62258007D01*
X158004294Y-62223443D01*
X158029153Y-62193153D01*
X158059443Y-62168294D01*
X158094007Y-62149819D01*
X158131501Y-62138445D01*
X158176638Y-62134000D01*
X158815362Y-62134000D01*
X158860499Y-62138445D01*
X158860499Y-62138445D01*
G37*
G36*
X162201000Y-61721000D02*
X160899000Y-61721000D01*
X160899000Y-59419000D01*
X162201000Y-59419000D01*
X162201000Y-61721000D01*
X162201000Y-61721000D01*
G37*
G36*
X166761000Y-61721000D02*
X165459000Y-61721000D01*
X165459000Y-59419000D01*
X166761000Y-59419000D01*
X166761000Y-61721000D01*
X166761000Y-61721000D01*
G37*
G36*
X169528499Y-60388445D02*
X169565993Y-60399819D01*
X169600557Y-60418294D01*
X169630847Y-60443153D01*
X169655706Y-60473443D01*
X169674181Y-60508007D01*
X169685555Y-60545501D01*
X169690000Y-60590638D01*
X169690000Y-61329362D01*
X169685555Y-61374499D01*
X169674181Y-61411993D01*
X169655706Y-61446557D01*
X169630847Y-61476847D01*
X169600557Y-61501706D01*
X169565993Y-61520181D01*
X169528499Y-61531555D01*
X169483362Y-61536000D01*
X168844638Y-61536000D01*
X168799501Y-61531555D01*
X168762007Y-61520181D01*
X168727443Y-61501706D01*
X168697153Y-61476847D01*
X168672294Y-61446557D01*
X168653819Y-61411993D01*
X168642445Y-61374499D01*
X168638000Y-61329362D01*
X168638000Y-60590638D01*
X168642445Y-60545501D01*
X168653819Y-60508007D01*
X168672294Y-60473443D01*
X168697153Y-60443153D01*
X168727443Y-60418294D01*
X168762007Y-60399819D01*
X168799501Y-60388445D01*
X168844638Y-60384000D01*
X169483362Y-60384000D01*
X169528499Y-60388445D01*
X169528499Y-60388445D01*
G37*
G36*
X158860499Y-60388445D02*
X158897993Y-60399819D01*
X158932557Y-60418294D01*
X158962847Y-60443153D01*
X158987706Y-60473443D01*
X159006181Y-60508007D01*
X159017555Y-60545501D01*
X159022000Y-60590638D01*
X159022000Y-61329362D01*
X159017555Y-61374499D01*
X159006181Y-61411993D01*
X158987706Y-61446557D01*
X158962847Y-61476847D01*
X158932557Y-61501706D01*
X158897993Y-61520181D01*
X158860499Y-61531555D01*
X158815362Y-61536000D01*
X158176638Y-61536000D01*
X158131501Y-61531555D01*
X158094007Y-61520181D01*
X158059443Y-61501706D01*
X158029153Y-61476847D01*
X158004294Y-61446557D01*
X157985819Y-61411993D01*
X157974445Y-61374499D01*
X157970000Y-61329362D01*
X157970000Y-60590638D01*
X157974445Y-60545501D01*
X157985819Y-60508007D01*
X158004294Y-60473443D01*
X158029153Y-60443153D01*
X158059443Y-60418294D01*
X158094007Y-60399819D01*
X158131501Y-60388445D01*
X158176638Y-60384000D01*
X158815362Y-60384000D01*
X158860499Y-60388445D01*
X158860499Y-60388445D01*
G37*
G36*
X150375634Y-51555654D02*
X150592599Y-51621470D01*
X150592601Y-51621471D01*
X150592604Y-51621472D01*
X150792555Y-51728347D01*
X150967818Y-51872182D01*
X151111653Y-52047444D01*
X151218528Y-52247395D01*
X151218528Y-52247396D01*
X151218530Y-52247400D01*
X151284346Y-52464365D01*
X151301000Y-52633457D01*
X151301000Y-54046543D01*
X151284346Y-54215635D01*
X151224760Y-54412062D01*
X151218528Y-54432605D01*
X151111653Y-54632556D01*
X150967818Y-54807818D01*
X150792556Y-54951653D01*
X150592605Y-55058528D01*
X150592602Y-55058529D01*
X150592600Y-55058530D01*
X150375635Y-55124346D01*
X150150000Y-55146569D01*
X149924366Y-55124346D01*
X149707401Y-55058530D01*
X149707399Y-55058529D01*
X149707396Y-55058528D01*
X149507445Y-54951653D01*
X149332183Y-54807818D01*
X149188349Y-54632557D01*
X149081471Y-54432602D01*
X149074352Y-54409133D01*
X149015654Y-54215635D01*
X149015011Y-54213515D01*
X149011091Y-54193803D01*
X149001713Y-54171164D01*
X148988100Y-54150789D01*
X148970772Y-54133462D01*
X148950398Y-54119848D01*
X148927759Y-54110471D01*
X148903726Y-54105690D01*
X148879221Y-54105690D01*
X148855188Y-54110470D01*
X148832549Y-54119848D01*
X148812174Y-54133461D01*
X148794847Y-54150789D01*
X148781233Y-54171164D01*
X148719230Y-54287165D01*
X148619133Y-54409133D01*
X148497165Y-54509230D01*
X148358012Y-54583608D01*
X148207025Y-54629410D01*
X148050000Y-54644875D01*
X147892976Y-54629410D01*
X147741989Y-54583608D01*
X147602836Y-54509230D01*
X147480868Y-54409133D01*
X147380771Y-54287165D01*
X147306393Y-54148012D01*
X147260591Y-53997025D01*
X147249001Y-53879346D01*
X147249000Y-52800655D01*
X147260590Y-52682976D01*
X147306392Y-52531989D01*
X147380768Y-52392839D01*
X147430819Y-52331852D01*
X147480867Y-52270867D01*
X147480869Y-52270866D01*
X147480870Y-52270864D01*
X147602835Y-52170770D01*
X147741988Y-52096392D01*
X147892975Y-52050590D01*
X148050000Y-52035125D01*
X148207024Y-52050590D01*
X148358011Y-52096392D01*
X148497161Y-52170768D01*
X148522791Y-52191802D01*
X148619133Y-52270867D01*
X148619134Y-52270869D01*
X148619136Y-52270870D01*
X148719230Y-52392835D01*
X148781233Y-52508836D01*
X148794846Y-52529211D01*
X148812174Y-52546538D01*
X148832548Y-52560152D01*
X148855187Y-52569529D01*
X148879220Y-52574310D01*
X148903725Y-52574310D01*
X148927758Y-52569530D01*
X148950397Y-52560152D01*
X148970772Y-52546539D01*
X148988099Y-52529211D01*
X149001713Y-52508837D01*
X149011090Y-52486198D01*
X149015011Y-52466488D01*
X149015654Y-52464368D01*
X149015654Y-52464366D01*
X149081470Y-52247401D01*
X149081471Y-52247399D01*
X149081472Y-52247396D01*
X149188347Y-52047445D01*
X149332182Y-51872182D01*
X149507444Y-51728347D01*
X149707395Y-51621472D01*
X149707398Y-51621471D01*
X149707400Y-51621470D01*
X149924365Y-51555654D01*
X150150000Y-51533431D01*
X150375634Y-51555654D01*
X150375634Y-51555654D01*
G37*
G36*
X142175634Y-51555654D02*
X142392599Y-51621470D01*
X142392601Y-51621471D01*
X142392604Y-51621472D01*
X142592555Y-51728347D01*
X142767818Y-51872182D01*
X142911653Y-52047444D01*
X143013760Y-52238474D01*
X143027374Y-52258849D01*
X143044701Y-52276176D01*
X143065075Y-52289790D01*
X143087714Y-52299167D01*
X143111748Y-52303948D01*
X143136252Y-52303948D01*
X143160285Y-52299168D01*
X143182924Y-52289790D01*
X143203299Y-52276176D01*
X143220626Y-52258849D01*
X143234240Y-52238475D01*
X143243617Y-52215836D01*
X143248398Y-52191802D01*
X143249000Y-52179550D01*
X143249000Y-52039000D01*
X144851000Y-52039000D01*
X144851000Y-54641000D01*
X143249000Y-54641000D01*
X143249000Y-54500450D01*
X143246598Y-54476064D01*
X143239485Y-54452615D01*
X143227934Y-54431004D01*
X143212388Y-54412062D01*
X143193446Y-54396516D01*
X143171835Y-54384965D01*
X143148386Y-54377852D01*
X143124000Y-54375450D01*
X143099614Y-54377852D01*
X143076165Y-54384965D01*
X143054554Y-54396516D01*
X143035612Y-54412062D01*
X143020066Y-54431004D01*
X143013760Y-54441526D01*
X142911653Y-54632556D01*
X142767818Y-54807818D01*
X142592556Y-54951653D01*
X142392605Y-55058528D01*
X142392602Y-55058529D01*
X142392600Y-55058530D01*
X142175635Y-55124346D01*
X141950000Y-55146569D01*
X141724366Y-55124346D01*
X141507401Y-55058530D01*
X141507399Y-55058529D01*
X141507396Y-55058528D01*
X141307445Y-54951653D01*
X141132183Y-54807818D01*
X140988349Y-54632557D01*
X140881471Y-54432602D01*
X140875240Y-54412062D01*
X140815654Y-54215635D01*
X140799000Y-54046543D01*
X140799000Y-52633458D01*
X140815654Y-52464366D01*
X140881470Y-52247401D01*
X140881471Y-52247399D01*
X140881472Y-52247396D01*
X140988347Y-52047445D01*
X141132182Y-51872182D01*
X141307444Y-51728347D01*
X141507395Y-51621472D01*
X141507398Y-51621471D01*
X141507400Y-51621470D01*
X141724365Y-51555654D01*
X141950000Y-51533431D01*
X142175634Y-51555654D01*
X142175634Y-51555654D01*
G37*
G36*
X146207024Y-52050590D02*
X146358011Y-52096392D01*
X146497161Y-52170768D01*
X146522791Y-52191802D01*
X146619133Y-52270867D01*
X146619134Y-52270869D01*
X146619136Y-52270870D01*
X146719230Y-52392835D01*
X146793608Y-52531988D01*
X146839410Y-52682975D01*
X146851000Y-52800654D01*
X146851000Y-53879346D01*
X146839410Y-53997025D01*
X146793608Y-54148012D01*
X146719230Y-54287165D01*
X146619133Y-54409133D01*
X146497165Y-54509230D01*
X146358012Y-54583608D01*
X146207025Y-54629410D01*
X146050000Y-54644875D01*
X145892976Y-54629410D01*
X145741989Y-54583608D01*
X145602836Y-54509230D01*
X145480868Y-54409133D01*
X145380771Y-54287165D01*
X145306393Y-54148012D01*
X145260591Y-53997025D01*
X145249001Y-53879346D01*
X145249000Y-52800655D01*
X145260590Y-52682976D01*
X145306392Y-52531989D01*
X145380768Y-52392839D01*
X145430819Y-52331852D01*
X145480867Y-52270867D01*
X145480869Y-52270866D01*
X145480870Y-52270864D01*
X145602835Y-52170770D01*
X145741988Y-52096392D01*
X145892975Y-52050590D01*
X146050000Y-52035125D01*
X146207024Y-52050590D01*
X146207024Y-52050590D01*
G37*
M02*
