G04 #@! TF.GenerationSoftware,KiCad,Pcbnew,(5.0.2)-1*
G04 #@! TF.CreationDate,2019-07-27T15:32:46-05:00*
G04 #@! TF.ProjectId,BusinessCards,42757369-6e65-4737-9343-617264732e6b,rev?*
G04 #@! TF.SameCoordinates,Original*
G04 #@! TF.FileFunction,Legend,Top*
G04 #@! TF.FilePolarity,Positive*
%FSLAX46Y46*%
G04 Gerber Fmt 4.6, Leading zero omitted, Abs format (unit mm)*
G04 Created by KiCad (PCBNEW (5.0.2)-1) date 7/27/2019 3:32:46 PM*
%MOMM*%
%LPD*%
G01*
G04 APERTURE LIST*
%ADD10C,0.254000*%
%ADD11C,0.952500*%
%ADD12C,0.010000*%
G04 APERTURE END LIST*
D10*
X118787333Y-73152000D02*
X119041333Y-73236666D01*
X119126000Y-73321333D01*
X119210666Y-73490666D01*
X119210666Y-73744666D01*
X119126000Y-73914000D01*
X119041333Y-73998666D01*
X118872000Y-74083333D01*
X118194666Y-74083333D01*
X118194666Y-72305333D01*
X118787333Y-72305333D01*
X118956666Y-72390000D01*
X119041333Y-72474666D01*
X119126000Y-72644000D01*
X119126000Y-72813333D01*
X119041333Y-72982666D01*
X118956666Y-73067333D01*
X118787333Y-73152000D01*
X118194666Y-73152000D01*
X119972666Y-73914000D02*
X120057333Y-73998666D01*
X119972666Y-74083333D01*
X119888000Y-73998666D01*
X119972666Y-73914000D01*
X119972666Y-74083333D01*
X120734666Y-73998666D02*
X120988666Y-74083333D01*
X121412000Y-74083333D01*
X121581333Y-73998666D01*
X121666000Y-73914000D01*
X121750666Y-73744666D01*
X121750666Y-73575333D01*
X121666000Y-73406000D01*
X121581333Y-73321333D01*
X121412000Y-73236666D01*
X121073333Y-73152000D01*
X120904000Y-73067333D01*
X120819333Y-72982666D01*
X120734666Y-72813333D01*
X120734666Y-72644000D01*
X120819333Y-72474666D01*
X120904000Y-72390000D01*
X121073333Y-72305333D01*
X121496666Y-72305333D01*
X121750666Y-72390000D01*
X122512666Y-73914000D02*
X122597333Y-73998666D01*
X122512666Y-74083333D01*
X122428000Y-73998666D01*
X122512666Y-73914000D01*
X122512666Y-74083333D01*
X124714000Y-73152000D02*
X125306666Y-73152000D01*
X125560666Y-74083333D02*
X124714000Y-74083333D01*
X124714000Y-72305333D01*
X125560666Y-72305333D01*
X126576666Y-74083333D02*
X126407333Y-73998666D01*
X126322666Y-73829333D01*
X126322666Y-72305333D01*
X127931333Y-73998666D02*
X127762000Y-74083333D01*
X127423333Y-74083333D01*
X127254000Y-73998666D01*
X127169333Y-73829333D01*
X127169333Y-73152000D01*
X127254000Y-72982666D01*
X127423333Y-72898000D01*
X127762000Y-72898000D01*
X127931333Y-72982666D01*
X128016000Y-73152000D01*
X128016000Y-73321333D01*
X127169333Y-73490666D01*
X129540000Y-73998666D02*
X129370666Y-74083333D01*
X129032000Y-74083333D01*
X128862666Y-73998666D01*
X128778000Y-73914000D01*
X128693333Y-73744666D01*
X128693333Y-73236666D01*
X128778000Y-73067333D01*
X128862666Y-72982666D01*
X129032000Y-72898000D01*
X129370666Y-72898000D01*
X129540000Y-72982666D01*
X130048000Y-72898000D02*
X130725333Y-72898000D01*
X130302000Y-72305333D02*
X130302000Y-73829333D01*
X130386666Y-73998666D01*
X130556000Y-74083333D01*
X130725333Y-74083333D01*
X131318000Y-74083333D02*
X131318000Y-72898000D01*
X131318000Y-73236666D02*
X131402666Y-73067333D01*
X131487333Y-72982666D01*
X131656666Y-72898000D01*
X131826000Y-72898000D01*
X132418666Y-74083333D02*
X132418666Y-72898000D01*
X132418666Y-72305333D02*
X132334000Y-72390000D01*
X132418666Y-72474666D01*
X132503333Y-72390000D01*
X132418666Y-72305333D01*
X132418666Y-72474666D01*
X134027333Y-73998666D02*
X133858000Y-74083333D01*
X133519333Y-74083333D01*
X133350000Y-73998666D01*
X133265333Y-73914000D01*
X133180666Y-73744666D01*
X133180666Y-73236666D01*
X133265333Y-73067333D01*
X133350000Y-72982666D01*
X133519333Y-72898000D01*
X133858000Y-72898000D01*
X134027333Y-72982666D01*
X135551333Y-74083333D02*
X135551333Y-73152000D01*
X135466666Y-72982666D01*
X135297333Y-72898000D01*
X134958666Y-72898000D01*
X134789333Y-72982666D01*
X135551333Y-73998666D02*
X135382000Y-74083333D01*
X134958666Y-74083333D01*
X134789333Y-73998666D01*
X134704666Y-73829333D01*
X134704666Y-73660000D01*
X134789333Y-73490666D01*
X134958666Y-73406000D01*
X135382000Y-73406000D01*
X135551333Y-73321333D01*
X136652000Y-74083333D02*
X136482666Y-73998666D01*
X136398000Y-73829333D01*
X136398000Y-72305333D01*
X140123333Y-74083333D02*
X140038666Y-74083333D01*
X139869333Y-73998666D01*
X139615333Y-73744666D01*
X139192000Y-73236666D01*
X139022666Y-72982666D01*
X138938000Y-72728666D01*
X138938000Y-72559333D01*
X139022666Y-72390000D01*
X139192000Y-72305333D01*
X139276666Y-72305333D01*
X139446000Y-72390000D01*
X139530666Y-72559333D01*
X139530666Y-72644000D01*
X139446000Y-72813333D01*
X139361333Y-72898000D01*
X138853333Y-73236666D01*
X138768666Y-73321333D01*
X138684000Y-73490666D01*
X138684000Y-73744666D01*
X138768666Y-73914000D01*
X138853333Y-73998666D01*
X139022666Y-74083333D01*
X139276666Y-74083333D01*
X139446000Y-73998666D01*
X139530666Y-73914000D01*
X139784666Y-73575333D01*
X139869333Y-73321333D01*
X139869333Y-73152000D01*
X143256000Y-73914000D02*
X143171333Y-73998666D01*
X142917333Y-74083333D01*
X142748000Y-74083333D01*
X142494000Y-73998666D01*
X142324666Y-73829333D01*
X142240000Y-73660000D01*
X142155333Y-73321333D01*
X142155333Y-73067333D01*
X142240000Y-72728666D01*
X142324666Y-72559333D01*
X142494000Y-72390000D01*
X142748000Y-72305333D01*
X142917333Y-72305333D01*
X143171333Y-72390000D01*
X143256000Y-72474666D01*
X144272000Y-74083333D02*
X144102666Y-73998666D01*
X144018000Y-73914000D01*
X143933333Y-73744666D01*
X143933333Y-73236666D01*
X144018000Y-73067333D01*
X144102666Y-72982666D01*
X144272000Y-72898000D01*
X144526000Y-72898000D01*
X144695333Y-72982666D01*
X144780000Y-73067333D01*
X144864666Y-73236666D01*
X144864666Y-73744666D01*
X144780000Y-73914000D01*
X144695333Y-73998666D01*
X144526000Y-74083333D01*
X144272000Y-74083333D01*
X145626666Y-74083333D02*
X145626666Y-72898000D01*
X145626666Y-73067333D02*
X145711333Y-72982666D01*
X145880666Y-72898000D01*
X146134666Y-72898000D01*
X146304000Y-72982666D01*
X146388666Y-73152000D01*
X146388666Y-74083333D01*
X146388666Y-73152000D02*
X146473333Y-72982666D01*
X146642666Y-72898000D01*
X146896666Y-72898000D01*
X147066000Y-72982666D01*
X147150666Y-73152000D01*
X147150666Y-74083333D01*
X147997333Y-72898000D02*
X147997333Y-74676000D01*
X147997333Y-72982666D02*
X148166666Y-72898000D01*
X148505333Y-72898000D01*
X148674666Y-72982666D01*
X148759333Y-73067333D01*
X148844000Y-73236666D01*
X148844000Y-73744666D01*
X148759333Y-73914000D01*
X148674666Y-73998666D01*
X148505333Y-74083333D01*
X148166666Y-74083333D01*
X147997333Y-73998666D01*
X150368000Y-72898000D02*
X150368000Y-74083333D01*
X149606000Y-72898000D02*
X149606000Y-73829333D01*
X149690666Y-73998666D01*
X149860000Y-74083333D01*
X150114000Y-74083333D01*
X150283333Y-73998666D01*
X150368000Y-73914000D01*
X150960666Y-72898000D02*
X151638000Y-72898000D01*
X151214666Y-72305333D02*
X151214666Y-73829333D01*
X151299333Y-73998666D01*
X151468666Y-74083333D01*
X151638000Y-74083333D01*
X152908000Y-73998666D02*
X152738666Y-74083333D01*
X152400000Y-74083333D01*
X152230666Y-73998666D01*
X152146000Y-73829333D01*
X152146000Y-73152000D01*
X152230666Y-72982666D01*
X152400000Y-72898000D01*
X152738666Y-72898000D01*
X152908000Y-72982666D01*
X152992666Y-73152000D01*
X152992666Y-73321333D01*
X152146000Y-73490666D01*
X153754666Y-74083333D02*
X153754666Y-72898000D01*
X153754666Y-73236666D02*
X153839333Y-73067333D01*
X153924000Y-72982666D01*
X154093333Y-72898000D01*
X154262666Y-72898000D01*
X156210000Y-73152000D02*
X156802666Y-73152000D01*
X157056666Y-74083333D02*
X156210000Y-74083333D01*
X156210000Y-72305333D01*
X157056666Y-72305333D01*
X157818666Y-72898000D02*
X157818666Y-74083333D01*
X157818666Y-73067333D02*
X157903333Y-72982666D01*
X158072666Y-72898000D01*
X158326666Y-72898000D01*
X158496000Y-72982666D01*
X158580666Y-73152000D01*
X158580666Y-74083333D01*
X160189333Y-72898000D02*
X160189333Y-74337333D01*
X160104666Y-74506666D01*
X160020000Y-74591333D01*
X159850666Y-74676000D01*
X159596666Y-74676000D01*
X159427333Y-74591333D01*
X160189333Y-73998666D02*
X160020000Y-74083333D01*
X159681333Y-74083333D01*
X159512000Y-73998666D01*
X159427333Y-73914000D01*
X159342666Y-73744666D01*
X159342666Y-73236666D01*
X159427333Y-73067333D01*
X159512000Y-72982666D01*
X159681333Y-72898000D01*
X160020000Y-72898000D01*
X160189333Y-72982666D01*
X161036000Y-74083333D02*
X161036000Y-72898000D01*
X161036000Y-72305333D02*
X160951333Y-72390000D01*
X161036000Y-72474666D01*
X161120666Y-72390000D01*
X161036000Y-72305333D01*
X161036000Y-72474666D01*
X161882666Y-72898000D02*
X161882666Y-74083333D01*
X161882666Y-73067333D02*
X161967333Y-72982666D01*
X162136666Y-72898000D01*
X162390666Y-72898000D01*
X162560000Y-72982666D01*
X162644666Y-73152000D01*
X162644666Y-74083333D01*
X164168666Y-73998666D02*
X163999333Y-74083333D01*
X163660666Y-74083333D01*
X163491333Y-73998666D01*
X163406666Y-73829333D01*
X163406666Y-73152000D01*
X163491333Y-72982666D01*
X163660666Y-72898000D01*
X163999333Y-72898000D01*
X164168666Y-72982666D01*
X164253333Y-73152000D01*
X164253333Y-73321333D01*
X163406666Y-73490666D01*
X165692666Y-73998666D02*
X165523333Y-74083333D01*
X165184666Y-74083333D01*
X165015333Y-73998666D01*
X164930666Y-73829333D01*
X164930666Y-73152000D01*
X165015333Y-72982666D01*
X165184666Y-72898000D01*
X165523333Y-72898000D01*
X165692666Y-72982666D01*
X165777333Y-73152000D01*
X165777333Y-73321333D01*
X164930666Y-73490666D01*
X166539333Y-74083333D02*
X166539333Y-72898000D01*
X166539333Y-73236666D02*
X166624000Y-73067333D01*
X166708666Y-72982666D01*
X166878000Y-72898000D01*
X167047333Y-72898000D01*
X167640000Y-74083333D02*
X167640000Y-72898000D01*
X167640000Y-72305333D02*
X167555333Y-72390000D01*
X167640000Y-72474666D01*
X167724666Y-72390000D01*
X167640000Y-72305333D01*
X167640000Y-72474666D01*
X168486666Y-72898000D02*
X168486666Y-74083333D01*
X168486666Y-73067333D02*
X168571333Y-72982666D01*
X168740666Y-72898000D01*
X168994666Y-72898000D01*
X169164000Y-72982666D01*
X169248666Y-73152000D01*
X169248666Y-74083333D01*
X170857333Y-72898000D02*
X170857333Y-74337333D01*
X170772666Y-74506666D01*
X170688000Y-74591333D01*
X170518666Y-74676000D01*
X170264666Y-74676000D01*
X170095333Y-74591333D01*
X170857333Y-73998666D02*
X170688000Y-74083333D01*
X170349333Y-74083333D01*
X170180000Y-73998666D01*
X170095333Y-73914000D01*
X170010666Y-73744666D01*
X170010666Y-73236666D01*
X170095333Y-73067333D01*
X170180000Y-72982666D01*
X170349333Y-72898000D01*
X170688000Y-72898000D01*
X170857333Y-72982666D01*
X173143333Y-72305333D02*
X172973999Y-72644000D01*
X173820666Y-72474666D02*
X173905333Y-72390000D01*
X174074666Y-72305333D01*
X174497999Y-72305333D01*
X174667333Y-72390000D01*
X174751999Y-72474666D01*
X174836666Y-72644000D01*
X174836666Y-72813333D01*
X174751999Y-73067333D01*
X173735999Y-74083333D01*
X174836666Y-74083333D01*
X176529999Y-74083333D02*
X175513999Y-74083333D01*
X176021999Y-74083333D02*
X176021999Y-72305333D01*
X175852666Y-72559333D01*
X175683333Y-72728666D01*
X175513999Y-72813333D01*
X114215333Y-76835000D02*
X114130666Y-76919666D01*
X113876666Y-77004333D01*
X113707333Y-77004333D01*
X113453333Y-76919666D01*
X113284000Y-76750333D01*
X113199333Y-76581000D01*
X113114666Y-76242333D01*
X113114666Y-75988333D01*
X113199333Y-75649666D01*
X113284000Y-75480333D01*
X113453333Y-75311000D01*
X113707333Y-75226333D01*
X113876666Y-75226333D01*
X114130666Y-75311000D01*
X114215333Y-75395666D01*
X114977333Y-77004333D02*
X114977333Y-75226333D01*
X115739333Y-77004333D02*
X115739333Y-76073000D01*
X115654666Y-75903666D01*
X115485333Y-75819000D01*
X115231333Y-75819000D01*
X115062000Y-75903666D01*
X114977333Y-75988333D01*
X116586000Y-77004333D02*
X116586000Y-75819000D01*
X116586000Y-75226333D02*
X116501333Y-75311000D01*
X116586000Y-75395666D01*
X116670666Y-75311000D01*
X116586000Y-75226333D01*
X116586000Y-75395666D01*
X118110000Y-76919666D02*
X117940666Y-77004333D01*
X117602000Y-77004333D01*
X117432666Y-76919666D01*
X117348000Y-76750333D01*
X117348000Y-76073000D01*
X117432666Y-75903666D01*
X117602000Y-75819000D01*
X117940666Y-75819000D01*
X118110000Y-75903666D01*
X118194666Y-76073000D01*
X118194666Y-76242333D01*
X117348000Y-76411666D01*
X118702666Y-75819000D02*
X119380000Y-75819000D01*
X118956666Y-77004333D02*
X118956666Y-75480333D01*
X119041333Y-75311000D01*
X119210666Y-75226333D01*
X119380000Y-75226333D01*
X121073333Y-75226333D02*
X122089333Y-75226333D01*
X121581333Y-77004333D02*
X121581333Y-75226333D01*
X123359333Y-76919666D02*
X123190000Y-77004333D01*
X122851333Y-77004333D01*
X122682000Y-76919666D01*
X122597333Y-76750333D01*
X122597333Y-76073000D01*
X122682000Y-75903666D01*
X122851333Y-75819000D01*
X123190000Y-75819000D01*
X123359333Y-75903666D01*
X123444000Y-76073000D01*
X123444000Y-76242333D01*
X122597333Y-76411666D01*
X124968000Y-76919666D02*
X124798666Y-77004333D01*
X124460000Y-77004333D01*
X124290666Y-76919666D01*
X124206000Y-76835000D01*
X124121333Y-76665666D01*
X124121333Y-76157666D01*
X124206000Y-75988333D01*
X124290666Y-75903666D01*
X124460000Y-75819000D01*
X124798666Y-75819000D01*
X124968000Y-75903666D01*
X125730000Y-77004333D02*
X125730000Y-75226333D01*
X126492000Y-77004333D02*
X126492000Y-76073000D01*
X126407333Y-75903666D01*
X126238000Y-75819000D01*
X125984000Y-75819000D01*
X125814666Y-75903666D01*
X125730000Y-75988333D01*
X127338666Y-75819000D02*
X127338666Y-77004333D01*
X127338666Y-75988333D02*
X127423333Y-75903666D01*
X127592666Y-75819000D01*
X127846666Y-75819000D01*
X128016000Y-75903666D01*
X128100666Y-76073000D01*
X128100666Y-77004333D01*
X128947333Y-77004333D02*
X128947333Y-75819000D01*
X128947333Y-75226333D02*
X128862666Y-75311000D01*
X128947333Y-75395666D01*
X129032000Y-75311000D01*
X128947333Y-75226333D01*
X128947333Y-75395666D01*
X130556000Y-76919666D02*
X130386666Y-77004333D01*
X130048000Y-77004333D01*
X129878666Y-76919666D01*
X129794000Y-76835000D01*
X129709333Y-76665666D01*
X129709333Y-76157666D01*
X129794000Y-75988333D01*
X129878666Y-75903666D01*
X130048000Y-75819000D01*
X130386666Y-75819000D01*
X130556000Y-75903666D01*
X132080000Y-77004333D02*
X132080000Y-76073000D01*
X131995333Y-75903666D01*
X131826000Y-75819000D01*
X131487333Y-75819000D01*
X131318000Y-75903666D01*
X132080000Y-76919666D02*
X131910666Y-77004333D01*
X131487333Y-77004333D01*
X131318000Y-76919666D01*
X131233333Y-76750333D01*
X131233333Y-76581000D01*
X131318000Y-76411666D01*
X131487333Y-76327000D01*
X131910666Y-76327000D01*
X132080000Y-76242333D01*
X133180666Y-77004333D02*
X133011333Y-76919666D01*
X132926666Y-76750333D01*
X132926666Y-75226333D01*
X135551333Y-75226333D02*
X135890000Y-75226333D01*
X136059333Y-75311000D01*
X136228666Y-75480333D01*
X136313333Y-75819000D01*
X136313333Y-76411666D01*
X136228666Y-76750333D01*
X136059333Y-76919666D01*
X135890000Y-77004333D01*
X135551333Y-77004333D01*
X135382000Y-76919666D01*
X135212666Y-76750333D01*
X135128000Y-76411666D01*
X135128000Y-75819000D01*
X135212666Y-75480333D01*
X135382000Y-75311000D01*
X135551333Y-75226333D01*
X136821333Y-75819000D02*
X137498666Y-75819000D01*
X137075333Y-77004333D02*
X137075333Y-75480333D01*
X137160000Y-75311000D01*
X137329333Y-75226333D01*
X137498666Y-75226333D01*
X137837333Y-75819000D02*
X138514666Y-75819000D01*
X138091333Y-77004333D02*
X138091333Y-75480333D01*
X138176000Y-75311000D01*
X138345333Y-75226333D01*
X138514666Y-75226333D01*
X139107333Y-77004333D02*
X139107333Y-75819000D01*
X139107333Y-75226333D02*
X139022666Y-75311000D01*
X139107333Y-75395666D01*
X139192000Y-75311000D01*
X139107333Y-75226333D01*
X139107333Y-75395666D01*
X140716000Y-76919666D02*
X140546666Y-77004333D01*
X140208000Y-77004333D01*
X140038666Y-76919666D01*
X139954000Y-76835000D01*
X139869333Y-76665666D01*
X139869333Y-76157666D01*
X139954000Y-75988333D01*
X140038666Y-75903666D01*
X140208000Y-75819000D01*
X140546666Y-75819000D01*
X140716000Y-75903666D01*
X142155333Y-76919666D02*
X141986000Y-77004333D01*
X141647333Y-77004333D01*
X141478000Y-76919666D01*
X141393333Y-76750333D01*
X141393333Y-76073000D01*
X141478000Y-75903666D01*
X141647333Y-75819000D01*
X141986000Y-75819000D01*
X142155333Y-75903666D01*
X142240000Y-76073000D01*
X142240000Y-76242333D01*
X141393333Y-76411666D01*
X143002000Y-77004333D02*
X143002000Y-75819000D01*
X143002000Y-76157666D02*
X143086666Y-75988333D01*
X143171333Y-75903666D01*
X143340666Y-75819000D01*
X143510000Y-75819000D01*
X145457333Y-76327000D02*
X146812000Y-76327000D01*
X149013333Y-77004333D02*
X149013333Y-75226333D01*
X149606000Y-76496333D01*
X150198666Y-75226333D01*
X150198666Y-77004333D01*
X151807333Y-77004333D02*
X151807333Y-76073000D01*
X151722666Y-75903666D01*
X151553333Y-75819000D01*
X151214666Y-75819000D01*
X151045333Y-75903666D01*
X151807333Y-76919666D02*
X151638000Y-77004333D01*
X151214666Y-77004333D01*
X151045333Y-76919666D01*
X150960666Y-76750333D01*
X150960666Y-76581000D01*
X151045333Y-76411666D01*
X151214666Y-76327000D01*
X151638000Y-76327000D01*
X151807333Y-76242333D01*
X152654000Y-77004333D02*
X152654000Y-75819000D01*
X152654000Y-76157666D02*
X152738666Y-75988333D01*
X152823333Y-75903666D01*
X152992666Y-75819000D01*
X153162000Y-75819000D01*
X153670000Y-76919666D02*
X153839333Y-77004333D01*
X154178000Y-77004333D01*
X154347333Y-76919666D01*
X154432000Y-76750333D01*
X154432000Y-76665666D01*
X154347333Y-76496333D01*
X154178000Y-76411666D01*
X153924000Y-76411666D01*
X153754666Y-76327000D01*
X153670000Y-76157666D01*
X153670000Y-76073000D01*
X153754666Y-75903666D01*
X153924000Y-75819000D01*
X154178000Y-75819000D01*
X154347333Y-75903666D01*
X157564666Y-77004333D02*
X156972000Y-76157666D01*
X156548666Y-77004333D02*
X156548666Y-75226333D01*
X157226000Y-75226333D01*
X157395333Y-75311000D01*
X157480000Y-75395666D01*
X157564666Y-75565000D01*
X157564666Y-75819000D01*
X157480000Y-75988333D01*
X157395333Y-76073000D01*
X157226000Y-76157666D01*
X156548666Y-76157666D01*
X158580666Y-77004333D02*
X158411333Y-76919666D01*
X158326666Y-76835000D01*
X158242000Y-76665666D01*
X158242000Y-76157666D01*
X158326666Y-75988333D01*
X158411333Y-75903666D01*
X158580666Y-75819000D01*
X158834666Y-75819000D01*
X159004000Y-75903666D01*
X159088666Y-75988333D01*
X159173333Y-76157666D01*
X159173333Y-76665666D01*
X159088666Y-76835000D01*
X159004000Y-76919666D01*
X158834666Y-77004333D01*
X158580666Y-77004333D01*
X159766000Y-75819000D02*
X160189333Y-77004333D01*
X160612666Y-75819000D01*
X161967333Y-76919666D02*
X161798000Y-77004333D01*
X161459333Y-77004333D01*
X161290000Y-76919666D01*
X161205333Y-76750333D01*
X161205333Y-76073000D01*
X161290000Y-75903666D01*
X161459333Y-75819000D01*
X161798000Y-75819000D01*
X161967333Y-75903666D01*
X162052000Y-76073000D01*
X162052000Y-76242333D01*
X161205333Y-76411666D01*
X162814000Y-77004333D02*
X162814000Y-75819000D01*
X162814000Y-76157666D02*
X162898666Y-75988333D01*
X162983333Y-75903666D01*
X163152666Y-75819000D01*
X163322000Y-75819000D01*
X165269333Y-77004333D02*
X165269333Y-75226333D01*
X165692666Y-75226333D01*
X165946666Y-75311000D01*
X166116000Y-75480333D01*
X166200666Y-75649666D01*
X166285333Y-75988333D01*
X166285333Y-76242333D01*
X166200666Y-76581000D01*
X166116000Y-76750333D01*
X165946666Y-76919666D01*
X165692666Y-77004333D01*
X165269333Y-77004333D01*
X167724666Y-76919666D02*
X167555333Y-77004333D01*
X167216666Y-77004333D01*
X167047333Y-76919666D01*
X166962666Y-76750333D01*
X166962666Y-76073000D01*
X167047333Y-75903666D01*
X167216666Y-75819000D01*
X167555333Y-75819000D01*
X167724666Y-75903666D01*
X167809333Y-76073000D01*
X167809333Y-76242333D01*
X166962666Y-76411666D01*
X168486666Y-76919666D02*
X168656000Y-77004333D01*
X168994666Y-77004333D01*
X169164000Y-76919666D01*
X169248666Y-76750333D01*
X169248666Y-76665666D01*
X169164000Y-76496333D01*
X168994666Y-76411666D01*
X168740666Y-76411666D01*
X168571333Y-76327000D01*
X168486666Y-76157666D01*
X168486666Y-76073000D01*
X168571333Y-75903666D01*
X168740666Y-75819000D01*
X168994666Y-75819000D01*
X169164000Y-75903666D01*
X170010666Y-77004333D02*
X170010666Y-75819000D01*
X170010666Y-75226333D02*
X169926000Y-75311000D01*
X170010666Y-75395666D01*
X170095333Y-75311000D01*
X170010666Y-75226333D01*
X170010666Y-75395666D01*
X171619333Y-75819000D02*
X171619333Y-77258333D01*
X171534666Y-77427666D01*
X171450000Y-77512333D01*
X171280666Y-77597000D01*
X171026666Y-77597000D01*
X170857333Y-77512333D01*
X171619333Y-76919666D02*
X171450000Y-77004333D01*
X171111333Y-77004333D01*
X170942000Y-76919666D01*
X170857333Y-76835000D01*
X170772666Y-76665666D01*
X170772666Y-76157666D01*
X170857333Y-75988333D01*
X170942000Y-75903666D01*
X171111333Y-75819000D01*
X171450000Y-75819000D01*
X171619333Y-75903666D01*
X172466000Y-75819000D02*
X172466000Y-77004333D01*
X172466000Y-75988333D02*
X172550666Y-75903666D01*
X172720000Y-75819000D01*
X172974000Y-75819000D01*
X173143333Y-75903666D01*
X173228000Y-76073000D01*
X173228000Y-77004333D01*
X175175333Y-75226333D02*
X176191333Y-75226333D01*
X175683333Y-77004333D02*
X175683333Y-75226333D01*
X177461333Y-76919666D02*
X177291999Y-77004333D01*
X176953333Y-77004333D01*
X176783999Y-76919666D01*
X176699333Y-76750333D01*
X176699333Y-76073000D01*
X176783999Y-75903666D01*
X176953333Y-75819000D01*
X177291999Y-75819000D01*
X177461333Y-75903666D01*
X177545999Y-76073000D01*
X177545999Y-76242333D01*
X176699333Y-76411666D01*
X179069999Y-77004333D02*
X179069999Y-76073000D01*
X178985333Y-75903666D01*
X178815999Y-75819000D01*
X178477333Y-75819000D01*
X178307999Y-75903666D01*
X179069999Y-76919666D02*
X178900666Y-77004333D01*
X178477333Y-77004333D01*
X178307999Y-76919666D01*
X178223333Y-76750333D01*
X178223333Y-76581000D01*
X178307999Y-76411666D01*
X178477333Y-76327000D01*
X178900666Y-76327000D01*
X179069999Y-76242333D01*
X179916666Y-77004333D02*
X179916666Y-75819000D01*
X179916666Y-75988333D02*
X180001333Y-75903666D01*
X180170666Y-75819000D01*
X180424666Y-75819000D01*
X180593999Y-75903666D01*
X180678666Y-76073000D01*
X180678666Y-77004333D01*
X180678666Y-76073000D02*
X180763333Y-75903666D01*
X180932666Y-75819000D01*
X181186666Y-75819000D01*
X181355999Y-75903666D01*
X181440666Y-76073000D01*
X181440666Y-77004333D01*
X138980333Y-79925333D02*
X138980333Y-78147333D01*
X139573000Y-79417333D01*
X140165666Y-78147333D01*
X140165666Y-79925333D01*
X141012333Y-79925333D02*
X141012333Y-78740000D01*
X141012333Y-78147333D02*
X140927666Y-78232000D01*
X141012333Y-78316666D01*
X141097000Y-78232000D01*
X141012333Y-78147333D01*
X141012333Y-78316666D01*
X141774333Y-79840666D02*
X141943666Y-79925333D01*
X142282333Y-79925333D01*
X142451666Y-79840666D01*
X142536333Y-79671333D01*
X142536333Y-79586666D01*
X142451666Y-79417333D01*
X142282333Y-79332666D01*
X142028333Y-79332666D01*
X141859000Y-79248000D01*
X141774333Y-79078666D01*
X141774333Y-78994000D01*
X141859000Y-78824666D01*
X142028333Y-78740000D01*
X142282333Y-78740000D01*
X142451666Y-78824666D01*
X143213666Y-79840666D02*
X143383000Y-79925333D01*
X143721666Y-79925333D01*
X143891000Y-79840666D01*
X143975666Y-79671333D01*
X143975666Y-79586666D01*
X143891000Y-79417333D01*
X143721666Y-79332666D01*
X143467666Y-79332666D01*
X143298333Y-79248000D01*
X143213666Y-79078666D01*
X143213666Y-78994000D01*
X143298333Y-78824666D01*
X143467666Y-78740000D01*
X143721666Y-78740000D01*
X143891000Y-78824666D01*
X144991666Y-79925333D02*
X144822333Y-79840666D01*
X144737666Y-79756000D01*
X144653000Y-79586666D01*
X144653000Y-79078666D01*
X144737666Y-78909333D01*
X144822333Y-78824666D01*
X144991666Y-78740000D01*
X145245666Y-78740000D01*
X145415000Y-78824666D01*
X145499666Y-78909333D01*
X145584333Y-79078666D01*
X145584333Y-79586666D01*
X145499666Y-79756000D01*
X145415000Y-79840666D01*
X145245666Y-79925333D01*
X144991666Y-79925333D01*
X147108333Y-78740000D02*
X147108333Y-79925333D01*
X146346333Y-78740000D02*
X146346333Y-79671333D01*
X146431000Y-79840666D01*
X146600333Y-79925333D01*
X146854333Y-79925333D01*
X147023666Y-79840666D01*
X147108333Y-79756000D01*
X147955000Y-79925333D02*
X147955000Y-78740000D01*
X147955000Y-79078666D02*
X148039666Y-78909333D01*
X148124333Y-78824666D01*
X148293666Y-78740000D01*
X148463000Y-78740000D01*
X149055666Y-79925333D02*
X149055666Y-78740000D01*
X149055666Y-78147333D02*
X148971000Y-78232000D01*
X149055666Y-78316666D01*
X149140333Y-78232000D01*
X149055666Y-78147333D01*
X149055666Y-78316666D01*
X151172333Y-79840666D02*
X151426333Y-79925333D01*
X151849666Y-79925333D01*
X152019000Y-79840666D01*
X152103666Y-79756000D01*
X152188333Y-79586666D01*
X152188333Y-79417333D01*
X152103666Y-79248000D01*
X152019000Y-79163333D01*
X151849666Y-79078666D01*
X151511000Y-78994000D01*
X151341666Y-78909333D01*
X151257000Y-78824666D01*
X151172333Y-78655333D01*
X151172333Y-78486000D01*
X151257000Y-78316666D01*
X151341666Y-78232000D01*
X151511000Y-78147333D01*
X151934333Y-78147333D01*
X152188333Y-78232000D01*
X154389666Y-79925333D02*
X154305000Y-79925333D01*
X154135666Y-79840666D01*
X153881666Y-79586666D01*
X153458333Y-79078666D01*
X153289000Y-78824666D01*
X153204333Y-78570666D01*
X153204333Y-78401333D01*
X153289000Y-78232000D01*
X153458333Y-78147333D01*
X153543000Y-78147333D01*
X153712333Y-78232000D01*
X153797000Y-78401333D01*
X153797000Y-78486000D01*
X153712333Y-78655333D01*
X153627666Y-78740000D01*
X153119666Y-79078666D01*
X153035000Y-79163333D01*
X152950333Y-79332666D01*
X152950333Y-79586666D01*
X153035000Y-79756000D01*
X153119666Y-79840666D01*
X153289000Y-79925333D01*
X153543000Y-79925333D01*
X153712333Y-79840666D01*
X153797000Y-79756000D01*
X154051000Y-79417333D01*
X154135666Y-79163333D01*
X154135666Y-78994000D01*
X154897666Y-78147333D02*
X155913666Y-78147333D01*
X155405666Y-79925333D02*
X155405666Y-78147333D01*
D11*
X115630476Y-69426666D02*
X118049523Y-69426666D01*
X115146666Y-70878095D02*
X116840000Y-65798095D01*
X118533333Y-70878095D01*
X120226666Y-67491428D02*
X120226666Y-70878095D01*
X120226666Y-67975238D02*
X120468571Y-67733333D01*
X120952380Y-67491428D01*
X121678095Y-67491428D01*
X122161904Y-67733333D01*
X122403809Y-68217142D01*
X122403809Y-70878095D01*
X127000000Y-70878095D02*
X127000000Y-65798095D01*
X127000000Y-70636190D02*
X126516190Y-70878095D01*
X125548571Y-70878095D01*
X125064761Y-70636190D01*
X124822857Y-70394285D01*
X124580952Y-69910476D01*
X124580952Y-68459047D01*
X124822857Y-67975238D01*
X125064761Y-67733333D01*
X125548571Y-67491428D01*
X126516190Y-67491428D01*
X127000000Y-67733333D01*
X129419047Y-70878095D02*
X129419047Y-67491428D01*
X129419047Y-68459047D02*
X129660952Y-67975238D01*
X129902857Y-67733333D01*
X130386666Y-67491428D01*
X130870476Y-67491428D01*
X134499047Y-70636190D02*
X134015238Y-70878095D01*
X133047619Y-70878095D01*
X132563809Y-70636190D01*
X132321904Y-70152380D01*
X132321904Y-68217142D01*
X132563809Y-67733333D01*
X133047619Y-67491428D01*
X134015238Y-67491428D01*
X134499047Y-67733333D01*
X134740952Y-68217142D01*
X134740952Y-68700952D01*
X132321904Y-69184761D01*
X136434285Y-67491428D02*
X137401904Y-70878095D01*
X138369523Y-68459047D01*
X139337142Y-70878095D01*
X140304761Y-67491428D01*
X145384761Y-65798095D02*
X147078095Y-70878095D01*
X148771428Y-65798095D01*
X152641904Y-70878095D02*
X152641904Y-68217142D01*
X152400000Y-67733333D01*
X151916190Y-67491428D01*
X150948571Y-67491428D01*
X150464761Y-67733333D01*
X152641904Y-70636190D02*
X152158095Y-70878095D01*
X150948571Y-70878095D01*
X150464761Y-70636190D01*
X150222857Y-70152380D01*
X150222857Y-69668571D01*
X150464761Y-69184761D01*
X150948571Y-68942857D01*
X152158095Y-68942857D01*
X152641904Y-68700952D01*
X155060952Y-67491428D02*
X155060952Y-70878095D01*
X155060952Y-67975238D02*
X155302857Y-67733333D01*
X155786666Y-67491428D01*
X156512380Y-67491428D01*
X156996190Y-67733333D01*
X157238095Y-68217142D01*
X157238095Y-70878095D01*
X163527619Y-70878095D02*
X163527619Y-65798095D01*
X163527619Y-68217142D02*
X166430476Y-68217142D01*
X166430476Y-70878095D02*
X166430476Y-65798095D01*
X169575238Y-70878095D02*
X169091428Y-70636190D01*
X168849523Y-70394285D01*
X168607619Y-69910476D01*
X168607619Y-68459047D01*
X168849523Y-67975238D01*
X169091428Y-67733333D01*
X169575238Y-67491428D01*
X170300952Y-67491428D01*
X170784761Y-67733333D01*
X171026666Y-67975238D01*
X171268571Y-68459047D01*
X171268571Y-69910476D01*
X171026666Y-70394285D01*
X170784761Y-70636190D01*
X170300952Y-70878095D01*
X169575238Y-70878095D01*
X173445714Y-70878095D02*
X173445714Y-67491428D01*
X173445714Y-68459047D02*
X173687619Y-67975238D01*
X173929523Y-67733333D01*
X174413333Y-67491428D01*
X174897142Y-67491428D01*
X176590476Y-67491428D02*
X176590476Y-70878095D01*
X176590476Y-67975238D02*
X176832380Y-67733333D01*
X177316190Y-67491428D01*
X178041904Y-67491428D01*
X178525714Y-67733333D01*
X178767619Y-68217142D01*
X178767619Y-70878095D01*
D10*
X132321904Y-96604666D02*
X132200952Y-96483714D01*
X131959047Y-96120857D01*
X131838095Y-95878952D01*
X131717142Y-95516095D01*
X131596190Y-94911333D01*
X131596190Y-94427523D01*
X131717142Y-93822761D01*
X131838095Y-93459904D01*
X131959047Y-93218000D01*
X132200952Y-92855142D01*
X132321904Y-92734190D01*
X133047619Y-93097047D02*
X134620000Y-93097047D01*
X133773333Y-94064666D01*
X134136190Y-94064666D01*
X134378095Y-94185619D01*
X134499047Y-94306571D01*
X134620000Y-94548476D01*
X134620000Y-95153238D01*
X134499047Y-95395142D01*
X134378095Y-95516095D01*
X134136190Y-95637047D01*
X133410476Y-95637047D01*
X133168571Y-95516095D01*
X133047619Y-95395142D01*
X137039047Y-95637047D02*
X135587619Y-95637047D01*
X136313333Y-95637047D02*
X136313333Y-93097047D01*
X136071428Y-93459904D01*
X135829523Y-93701809D01*
X135587619Y-93822761D01*
X139216190Y-93943714D02*
X139216190Y-95637047D01*
X138611428Y-92976095D02*
X138006666Y-94790380D01*
X139579047Y-94790380D01*
X140304761Y-96604666D02*
X140425714Y-96483714D01*
X140667619Y-96120857D01*
X140788571Y-95878952D01*
X140909523Y-95516095D01*
X141030476Y-94911333D01*
X141030476Y-94427523D01*
X140909523Y-93822761D01*
X140788571Y-93459904D01*
X140667619Y-93218000D01*
X140425714Y-92855142D01*
X140304761Y-92734190D01*
X145384761Y-93097047D02*
X144175238Y-93097047D01*
X144054285Y-94306571D01*
X144175238Y-94185619D01*
X144417142Y-94064666D01*
X145021904Y-94064666D01*
X145263809Y-94185619D01*
X145384761Y-94306571D01*
X145505714Y-94548476D01*
X145505714Y-95153238D01*
X145384761Y-95395142D01*
X145263809Y-95516095D01*
X145021904Y-95637047D01*
X144417142Y-95637047D01*
X144175238Y-95516095D01*
X144054285Y-95395142D01*
X147682857Y-93943714D02*
X147682857Y-95637047D01*
X147078095Y-92976095D02*
X146473333Y-94790380D01*
X148045714Y-94790380D01*
X150101904Y-93097047D02*
X149618095Y-93097047D01*
X149376190Y-93218000D01*
X149255238Y-93338952D01*
X149013333Y-93701809D01*
X148892380Y-94185619D01*
X148892380Y-95153238D01*
X149013333Y-95395142D01*
X149134285Y-95516095D01*
X149376190Y-95637047D01*
X149860000Y-95637047D01*
X150101904Y-95516095D01*
X150222857Y-95395142D01*
X150343809Y-95153238D01*
X150343809Y-94548476D01*
X150222857Y-94306571D01*
X150101904Y-94185619D01*
X149860000Y-94064666D01*
X149376190Y-94064666D01*
X149134285Y-94185619D01*
X149013333Y-94306571D01*
X148892380Y-94548476D01*
X151432380Y-94669428D02*
X153367619Y-94669428D01*
X155665714Y-93097047D02*
X155181904Y-93097047D01*
X154940000Y-93218000D01*
X154819047Y-93338952D01*
X154577142Y-93701809D01*
X154456190Y-94185619D01*
X154456190Y-95153238D01*
X154577142Y-95395142D01*
X154698095Y-95516095D01*
X154940000Y-95637047D01*
X155423809Y-95637047D01*
X155665714Y-95516095D01*
X155786666Y-95395142D01*
X155907619Y-95153238D01*
X155907619Y-94548476D01*
X155786666Y-94306571D01*
X155665714Y-94185619D01*
X155423809Y-94064666D01*
X154940000Y-94064666D01*
X154698095Y-94185619D01*
X154577142Y-94306571D01*
X154456190Y-94548476D01*
X156875238Y-93338952D02*
X156996190Y-93218000D01*
X157238095Y-93097047D01*
X157842857Y-93097047D01*
X158084761Y-93218000D01*
X158205714Y-93338952D01*
X158326666Y-93580857D01*
X158326666Y-93822761D01*
X158205714Y-94185619D01*
X156754285Y-95637047D01*
X158326666Y-95637047D01*
X159294285Y-93338952D02*
X159415238Y-93218000D01*
X159657142Y-93097047D01*
X160261904Y-93097047D01*
X160503809Y-93218000D01*
X160624761Y-93338952D01*
X160745714Y-93580857D01*
X160745714Y-93822761D01*
X160624761Y-94185619D01*
X159173333Y-95637047D01*
X160745714Y-95637047D01*
X162197142Y-94185619D02*
X161955238Y-94064666D01*
X161834285Y-93943714D01*
X161713333Y-93701809D01*
X161713333Y-93580857D01*
X161834285Y-93338952D01*
X161955238Y-93218000D01*
X162197142Y-93097047D01*
X162680952Y-93097047D01*
X162922857Y-93218000D01*
X163043809Y-93338952D01*
X163164761Y-93580857D01*
X163164761Y-93701809D01*
X163043809Y-93943714D01*
X162922857Y-94064666D01*
X162680952Y-94185619D01*
X162197142Y-94185619D01*
X161955238Y-94306571D01*
X161834285Y-94427523D01*
X161713333Y-94669428D01*
X161713333Y-95153238D01*
X161834285Y-95395142D01*
X161955238Y-95516095D01*
X162197142Y-95637047D01*
X162680952Y-95637047D01*
X162922857Y-95516095D01*
X163043809Y-95395142D01*
X163164761Y-95153238D01*
X163164761Y-94669428D01*
X163043809Y-94427523D01*
X162922857Y-94306571D01*
X162680952Y-94185619D01*
X124762380Y-99701047D02*
X124762380Y-98370571D01*
X124641428Y-98128666D01*
X124399523Y-98007714D01*
X123915714Y-98007714D01*
X123673809Y-98128666D01*
X124762380Y-99580095D02*
X124520476Y-99701047D01*
X123915714Y-99701047D01*
X123673809Y-99580095D01*
X123552857Y-99338190D01*
X123552857Y-99096285D01*
X123673809Y-98854380D01*
X123915714Y-98733428D01*
X124520476Y-98733428D01*
X124762380Y-98612476D01*
X125971904Y-99459142D02*
X126092857Y-99580095D01*
X125971904Y-99701047D01*
X125850952Y-99580095D01*
X125971904Y-99459142D01*
X125971904Y-99701047D01*
X126939523Y-98007714D02*
X127544285Y-99701047D01*
X128149047Y-98007714D01*
X130205238Y-99701047D02*
X130205238Y-98370571D01*
X130084285Y-98128666D01*
X129842380Y-98007714D01*
X129358571Y-98007714D01*
X129116666Y-98128666D01*
X130205238Y-99580095D02*
X129963333Y-99701047D01*
X129358571Y-99701047D01*
X129116666Y-99580095D01*
X128995714Y-99338190D01*
X128995714Y-99096285D01*
X129116666Y-98854380D01*
X129358571Y-98733428D01*
X129963333Y-98733428D01*
X130205238Y-98612476D01*
X131414761Y-98007714D02*
X131414761Y-99701047D01*
X131414761Y-98249619D02*
X131535714Y-98128666D01*
X131777619Y-98007714D01*
X132140476Y-98007714D01*
X132382380Y-98128666D01*
X132503333Y-98370571D01*
X132503333Y-99701047D01*
X133712857Y-99701047D02*
X133712857Y-97161047D01*
X134801428Y-99701047D02*
X134801428Y-98370571D01*
X134680476Y-98128666D01*
X134438571Y-98007714D01*
X134075714Y-98007714D01*
X133833809Y-98128666D01*
X133712857Y-98249619D01*
X136373809Y-99701047D02*
X136131904Y-99580095D01*
X136010952Y-99459142D01*
X135890000Y-99217238D01*
X135890000Y-98491523D01*
X136010952Y-98249619D01*
X136131904Y-98128666D01*
X136373809Y-98007714D01*
X136736666Y-98007714D01*
X136978571Y-98128666D01*
X137099523Y-98249619D01*
X137220476Y-98491523D01*
X137220476Y-99217238D01*
X137099523Y-99459142D01*
X136978571Y-99580095D01*
X136736666Y-99701047D01*
X136373809Y-99701047D01*
X138309047Y-99701047D02*
X138309047Y-98007714D01*
X138309047Y-98491523D02*
X138430000Y-98249619D01*
X138550952Y-98128666D01*
X138792857Y-98007714D01*
X139034761Y-98007714D01*
X139881428Y-98007714D02*
X139881428Y-99701047D01*
X139881428Y-98249619D02*
X140002380Y-98128666D01*
X140244285Y-98007714D01*
X140607142Y-98007714D01*
X140849047Y-98128666D01*
X140970000Y-98370571D01*
X140970000Y-99701047D01*
X143751904Y-98491523D02*
X143630952Y-98370571D01*
X143389047Y-98249619D01*
X143147142Y-98249619D01*
X142905238Y-98370571D01*
X142784285Y-98491523D01*
X142663333Y-98733428D01*
X142663333Y-98975333D01*
X142784285Y-99217238D01*
X142905238Y-99338190D01*
X143147142Y-99459142D01*
X143389047Y-99459142D01*
X143630952Y-99338190D01*
X143751904Y-99217238D01*
X143751904Y-98249619D02*
X143751904Y-99217238D01*
X143872857Y-99338190D01*
X143993809Y-99338190D01*
X144235714Y-99217238D01*
X144356666Y-98975333D01*
X144356666Y-98370571D01*
X144114761Y-98007714D01*
X143751904Y-97765809D01*
X143268095Y-97644857D01*
X142784285Y-97765809D01*
X142421428Y-98007714D01*
X142179523Y-98370571D01*
X142058571Y-98854380D01*
X142179523Y-99338190D01*
X142421428Y-99701047D01*
X142784285Y-99942952D01*
X143268095Y-100063904D01*
X143751904Y-99942952D01*
X144114761Y-99701047D01*
X146533809Y-98007714D02*
X146533809Y-99701047D01*
X145445238Y-98007714D02*
X145445238Y-99338190D01*
X145566190Y-99580095D01*
X145808095Y-99701047D01*
X146170952Y-99701047D01*
X146412857Y-99580095D01*
X146533809Y-99459142D01*
X147743333Y-99701047D02*
X147743333Y-98007714D01*
X147743333Y-98249619D02*
X147864285Y-98128666D01*
X148106190Y-98007714D01*
X148469047Y-98007714D01*
X148710952Y-98128666D01*
X148831904Y-98370571D01*
X148831904Y-99701047D01*
X148831904Y-98370571D02*
X148952857Y-98128666D01*
X149194761Y-98007714D01*
X149557619Y-98007714D01*
X149799523Y-98128666D01*
X149920476Y-98370571D01*
X149920476Y-99701047D01*
X151009047Y-99580095D02*
X151250952Y-99701047D01*
X151734761Y-99701047D01*
X151976666Y-99580095D01*
X152097619Y-99338190D01*
X152097619Y-99217238D01*
X151976666Y-98975333D01*
X151734761Y-98854380D01*
X151371904Y-98854380D01*
X151130000Y-98733428D01*
X151009047Y-98491523D01*
X151009047Y-98370571D01*
X151130000Y-98128666D01*
X151371904Y-98007714D01*
X151734761Y-98007714D01*
X151976666Y-98128666D01*
X152944285Y-98007714D02*
X153549047Y-99701047D01*
X154153809Y-98007714D02*
X153549047Y-99701047D01*
X153307142Y-100305809D01*
X153186190Y-100426761D01*
X152944285Y-100547714D01*
X155000476Y-99580095D02*
X155242380Y-99701047D01*
X155726190Y-99701047D01*
X155968095Y-99580095D01*
X156089047Y-99338190D01*
X156089047Y-99217238D01*
X155968095Y-98975333D01*
X155726190Y-98854380D01*
X155363333Y-98854380D01*
X155121428Y-98733428D01*
X155000476Y-98491523D01*
X155000476Y-98370571D01*
X155121428Y-98128666D01*
X155363333Y-98007714D01*
X155726190Y-98007714D01*
X155968095Y-98128666D01*
X156814761Y-98007714D02*
X157782380Y-98007714D01*
X157177619Y-97161047D02*
X157177619Y-99338190D01*
X157298571Y-99580095D01*
X157540476Y-99701047D01*
X157782380Y-99701047D01*
X159596666Y-99580095D02*
X159354761Y-99701047D01*
X158870952Y-99701047D01*
X158629047Y-99580095D01*
X158508095Y-99338190D01*
X158508095Y-98370571D01*
X158629047Y-98128666D01*
X158870952Y-98007714D01*
X159354761Y-98007714D01*
X159596666Y-98128666D01*
X159717619Y-98370571D01*
X159717619Y-98612476D01*
X158508095Y-98854380D01*
X160806190Y-99701047D02*
X160806190Y-98007714D01*
X160806190Y-98249619D02*
X160927142Y-98128666D01*
X161169047Y-98007714D01*
X161531904Y-98007714D01*
X161773809Y-98128666D01*
X161894761Y-98370571D01*
X161894761Y-99701047D01*
X161894761Y-98370571D02*
X162015714Y-98128666D01*
X162257619Y-98007714D01*
X162620476Y-98007714D01*
X162862380Y-98128666D01*
X162983333Y-98370571D01*
X162983333Y-99701047D01*
X164192857Y-99459142D02*
X164313809Y-99580095D01*
X164192857Y-99701047D01*
X164071904Y-99580095D01*
X164192857Y-99459142D01*
X164192857Y-99701047D01*
X166370000Y-99580095D02*
X166128095Y-99701047D01*
X165644285Y-99701047D01*
X165402380Y-99580095D01*
X165281428Y-99338190D01*
X165281428Y-98370571D01*
X165402380Y-98128666D01*
X165644285Y-98007714D01*
X166128095Y-98007714D01*
X166370000Y-98128666D01*
X166490952Y-98370571D01*
X166490952Y-98612476D01*
X165281428Y-98854380D01*
X168668095Y-99701047D02*
X168668095Y-97161047D01*
X168668095Y-99580095D02*
X168426190Y-99701047D01*
X167942380Y-99701047D01*
X167700476Y-99580095D01*
X167579523Y-99459142D01*
X167458571Y-99217238D01*
X167458571Y-98491523D01*
X167579523Y-98249619D01*
X167700476Y-98128666D01*
X167942380Y-98007714D01*
X168426190Y-98007714D01*
X168668095Y-98128666D01*
X170966190Y-98007714D02*
X170966190Y-99701047D01*
X169877619Y-98007714D02*
X169877619Y-99338190D01*
X169998571Y-99580095D01*
X170240476Y-99701047D01*
X170603333Y-99701047D01*
X170845238Y-99580095D01*
X170966190Y-99459142D01*
D12*
G04 #@! TO.C,G\002A\002A\002A*
G36*
X184444354Y-88665025D02*
X184439097Y-88677126D01*
X184422000Y-88702867D01*
X184412190Y-88716756D01*
X184393840Y-88743842D01*
X184375861Y-88773573D01*
X184357125Y-88808325D01*
X184336503Y-88850477D01*
X184312868Y-88902406D01*
X184285091Y-88966489D01*
X184252043Y-89045105D01*
X184222622Y-89116244D01*
X184197600Y-89177670D01*
X184166740Y-89254444D01*
X184131379Y-89343161D01*
X184092855Y-89440415D01*
X184052506Y-89542801D01*
X184011670Y-89646915D01*
X183971686Y-89749352D01*
X183933891Y-89846706D01*
X183899623Y-89935572D01*
X183870220Y-90012545D01*
X183864369Y-90027988D01*
X183853532Y-90056648D01*
X183797220Y-89979539D01*
X183772322Y-89947301D01*
X183751298Y-89923500D01*
X183737057Y-89911255D01*
X183733006Y-89910721D01*
X183727388Y-89920970D01*
X183713808Y-89947788D01*
X183693013Y-89989649D01*
X183665749Y-90045028D01*
X183632761Y-90112401D01*
X183594796Y-90190243D01*
X183552599Y-90277029D01*
X183506917Y-90371233D01*
X183458495Y-90471332D01*
X183439172Y-90511344D01*
X183327921Y-90741675D01*
X183224687Y-90955119D01*
X183128860Y-91152925D01*
X183039831Y-91336337D01*
X182956990Y-91506603D01*
X182879727Y-91664968D01*
X182807434Y-91812678D01*
X182739500Y-91950980D01*
X182675316Y-92081120D01*
X182614273Y-92204344D01*
X182555761Y-92321899D01*
X182499170Y-92435030D01*
X182466958Y-92499170D01*
X182423299Y-92586492D01*
X182386018Y-92661559D01*
X182353790Y-92726093D01*
X182325287Y-92781820D01*
X182299185Y-92830462D01*
X182274158Y-92873744D01*
X182248879Y-92913388D01*
X182222022Y-92951118D01*
X182192263Y-92988659D01*
X182158274Y-93027733D01*
X182118730Y-93070065D01*
X182072305Y-93117378D01*
X182017674Y-93171396D01*
X181953510Y-93233842D01*
X181878487Y-93306440D01*
X181791280Y-93390913D01*
X181750554Y-93430491D01*
X181677095Y-93502369D01*
X181605228Y-93573443D01*
X181536826Y-93641806D01*
X181473766Y-93705553D01*
X181417923Y-93762777D01*
X181371171Y-93811572D01*
X181335386Y-93850031D01*
X181314557Y-93873693D01*
X181257906Y-93940302D01*
X181189212Y-94019063D01*
X181110482Y-94107789D01*
X181023725Y-94204292D01*
X180930952Y-94306383D01*
X180834170Y-94411873D01*
X180735390Y-94518576D01*
X180636620Y-94624303D01*
X180539869Y-94726865D01*
X180447146Y-94824074D01*
X180360461Y-94913743D01*
X180346277Y-94928276D01*
X180298303Y-94977495D01*
X180255468Y-95021708D01*
X180219624Y-95058984D01*
X180192621Y-95087390D01*
X180176311Y-95104992D01*
X180172216Y-95110010D01*
X180184556Y-95114406D01*
X180212514Y-95122450D01*
X180252177Y-95133143D01*
X180299627Y-95145487D01*
X180350951Y-95158484D01*
X180402232Y-95171137D01*
X180449556Y-95182446D01*
X180489007Y-95191415D01*
X180504248Y-95194646D01*
X180568725Y-95206804D01*
X180615584Y-95213207D01*
X180646406Y-95213973D01*
X180662773Y-95209219D01*
X180665197Y-95206583D01*
X180674789Y-95197119D01*
X180696492Y-95178312D01*
X180726665Y-95153264D01*
X180748616Y-95135490D01*
X180826917Y-95072677D01*
X180668457Y-95222133D01*
X180702509Y-95228227D01*
X180762866Y-95236957D01*
X180835208Y-95244029D01*
X180916794Y-95249462D01*
X181004882Y-95253277D01*
X181096733Y-95255494D01*
X181189604Y-95256133D01*
X181280756Y-95255214D01*
X181367446Y-95252757D01*
X181446934Y-95248782D01*
X181516479Y-95243310D01*
X181573339Y-95236359D01*
X181614774Y-95227951D01*
X181632727Y-95221418D01*
X181644207Y-95209573D01*
X181664525Y-95182044D01*
X181692600Y-95140607D01*
X181727347Y-95087034D01*
X181767685Y-95023098D01*
X181812531Y-94950575D01*
X181860802Y-94871236D01*
X181911416Y-94786857D01*
X181963290Y-94699210D01*
X182015340Y-94610069D01*
X182066486Y-94521208D01*
X182115643Y-94434401D01*
X182142313Y-94386601D01*
X182184634Y-94311587D01*
X182230086Y-94233270D01*
X182276021Y-94156062D01*
X182319788Y-94084374D01*
X182358738Y-94022618D01*
X182383502Y-93985020D01*
X182420553Y-93928446D01*
X182463582Y-93859712D01*
X182509202Y-93784417D01*
X182554025Y-93708161D01*
X182594663Y-93636546D01*
X182598729Y-93629199D01*
X182648622Y-93541052D01*
X182697686Y-93459585D01*
X182749448Y-93379318D01*
X182807438Y-93294778D01*
X182873701Y-93202519D01*
X183015597Y-93004263D01*
X183149685Y-92808387D01*
X183279082Y-92610061D01*
X183406904Y-92404452D01*
X183536269Y-92186732D01*
X183596383Y-92082530D01*
X183632454Y-92020546D01*
X183665279Y-91967042D01*
X183697815Y-91917826D01*
X183733021Y-91868706D01*
X183773857Y-91815488D01*
X183823280Y-91753981D01*
X183858523Y-91711068D01*
X183907164Y-91652066D01*
X183955546Y-91593214D01*
X184000927Y-91537860D01*
X184040562Y-91489355D01*
X184071709Y-91451046D01*
X184084674Y-91434981D01*
X184115876Y-91396543D01*
X184155381Y-91348481D01*
X184198496Y-91296473D01*
X184240528Y-91246201D01*
X184247477Y-91237940D01*
X184281700Y-91196501D01*
X184310739Y-91159815D01*
X184332326Y-91130870D01*
X184344192Y-91112651D01*
X184345771Y-91108508D01*
X184343093Y-91093432D01*
X184336201Y-91066033D01*
X184326810Y-91032213D01*
X184316635Y-90997871D01*
X184307392Y-90968911D01*
X184300794Y-90951231D01*
X184299329Y-90948690D01*
X184290563Y-90952755D01*
X184271725Y-90967674D01*
X184248364Y-90988848D01*
X184225194Y-91009726D01*
X184214348Y-91016645D01*
X184216451Y-91009214D01*
X184217004Y-91008301D01*
X184231041Y-90983895D01*
X184248309Y-90951840D01*
X184255121Y-90938666D01*
X184268822Y-90912914D01*
X184277224Y-90902914D01*
X184283840Y-90906376D01*
X184289604Y-90916170D01*
X184295007Y-90924384D01*
X184301831Y-90927199D01*
X184312657Y-90923001D01*
X184330065Y-90910177D01*
X184356635Y-90887111D01*
X184394950Y-90852192D01*
X184401391Y-90846271D01*
X184515022Y-90742673D01*
X184616253Y-90652322D01*
X184706579Y-90573970D01*
X184787496Y-90506370D01*
X184860500Y-90448275D01*
X184927087Y-90398437D01*
X184988751Y-90355609D01*
X184993321Y-90352577D01*
X185075052Y-90301970D01*
X185144989Y-90265945D01*
X185202784Y-90244626D01*
X185248090Y-90238137D01*
X185280559Y-90246601D01*
X185284467Y-90249296D01*
X185295184Y-90258683D01*
X185293189Y-90263267D01*
X185275573Y-90264836D01*
X185258824Y-90265057D01*
X185214065Y-90271695D01*
X185169657Y-90292938D01*
X185167679Y-90294182D01*
X185132515Y-90319027D01*
X185086972Y-90354953D01*
X185034749Y-90398724D01*
X184979548Y-90447107D01*
X184925067Y-90496865D01*
X184875009Y-90544764D01*
X184837708Y-90582646D01*
X184806729Y-90615668D01*
X184767486Y-90658004D01*
X184722037Y-90707385D01*
X184672444Y-90761541D01*
X184620765Y-90818203D01*
X184569062Y-90875101D01*
X184519394Y-90929966D01*
X184473821Y-90980528D01*
X184434403Y-91024518D01*
X184403200Y-91059666D01*
X184382272Y-91083702D01*
X184375407Y-91091970D01*
X184353279Y-91120101D01*
X184380433Y-91242403D01*
X184402739Y-91348631D01*
X184420083Y-91445850D01*
X184433121Y-91539735D01*
X184442510Y-91635962D01*
X184448907Y-91740207D01*
X184452967Y-91858146D01*
X184453309Y-91872675D01*
X184454568Y-92035888D01*
X184450193Y-92184876D01*
X184439664Y-92324830D01*
X184422461Y-92460942D01*
X184398064Y-92598404D01*
X184366284Y-92741041D01*
X184296789Y-92985762D01*
X184208933Y-93223227D01*
X184103423Y-93452470D01*
X183980968Y-93672526D01*
X183842273Y-93882433D01*
X183688045Y-94081224D01*
X183518992Y-94267935D01*
X183335821Y-94441601D01*
X183139239Y-94601259D01*
X182929953Y-94745943D01*
X182868905Y-94783801D01*
X182660556Y-94899464D01*
X182442609Y-95000640D01*
X182218404Y-95086073D01*
X181991279Y-95154505D01*
X181764575Y-95204676D01*
X181740514Y-95208905D01*
X181687739Y-95219648D01*
X181653687Y-95230727D01*
X181637262Y-95242210D01*
X181628155Y-95255197D01*
X181609393Y-95282248D01*
X181582693Y-95320878D01*
X181549771Y-95368602D01*
X181512344Y-95422934D01*
X181482813Y-95465850D01*
X181372638Y-95622266D01*
X181268994Y-95761379D01*
X181170751Y-95884447D01*
X181076779Y-95992726D01*
X180985947Y-96087474D01*
X180897125Y-96169947D01*
X180809182Y-96241404D01*
X180742812Y-96288730D01*
X180684318Y-96324445D01*
X180616978Y-96359842D01*
X180547181Y-96391965D01*
X180481315Y-96417856D01*
X180429843Y-96433591D01*
X180347512Y-96448208D01*
X180258421Y-96454709D01*
X180171323Y-96452792D01*
X180107152Y-96444657D01*
X179988179Y-96411910D01*
X179874155Y-96359740D01*
X179765234Y-96288223D01*
X179727530Y-96257949D01*
X179698427Y-96235286D01*
X179674738Y-96223522D01*
X179647805Y-96219231D01*
X179628662Y-96218815D01*
X179494121Y-96210929D01*
X179357604Y-96188158D01*
X179325137Y-96179346D01*
X180067084Y-96179346D01*
X180080983Y-96188064D01*
X180094032Y-96192139D01*
X180113074Y-96194330D01*
X180146010Y-96195403D01*
X180186677Y-96195200D01*
X180199447Y-96194867D01*
X180258011Y-96190639D01*
X180306335Y-96180911D01*
X180347819Y-96166401D01*
X180415682Y-96135416D01*
X180476414Y-96099932D01*
X180535431Y-96056231D01*
X180598146Y-96000593D01*
X180620380Y-95979172D01*
X180653191Y-95946486D01*
X180677578Y-95921051D01*
X180691736Y-95904852D01*
X180693856Y-95899874D01*
X180691384Y-95901173D01*
X180587616Y-95965621D01*
X180497955Y-96017015D01*
X180421637Y-96055793D01*
X180417984Y-96057489D01*
X180364107Y-96080581D01*
X180302402Y-96104180D01*
X180238451Y-96126408D01*
X180177835Y-96145389D01*
X180126136Y-96159245D01*
X180098927Y-96164782D01*
X180073102Y-96171379D01*
X180067084Y-96179346D01*
X179325137Y-96179346D01*
X179223737Y-96151825D01*
X179097144Y-96103258D01*
X178982453Y-96043782D01*
X178952563Y-96025001D01*
X178917991Y-96004886D01*
X178884010Y-95989252D01*
X178864190Y-95982995D01*
X178838049Y-95975229D01*
X178801308Y-95961201D01*
X178761274Y-95943733D01*
X178755435Y-95940989D01*
X178675123Y-95891914D01*
X178674993Y-95891792D01*
X179652669Y-95891792D01*
X179655999Y-95899751D01*
X179665384Y-95910513D01*
X179667598Y-95912871D01*
X179680158Y-95925256D01*
X179692640Y-95932914D01*
X179708927Y-95935960D01*
X179732900Y-95934512D01*
X179768443Y-95928688D01*
X179819438Y-95918604D01*
X179824370Y-95917603D01*
X179865396Y-95908455D01*
X179912398Y-95896687D01*
X179961741Y-95883374D01*
X180009793Y-95869590D01*
X180052919Y-95856410D01*
X180087485Y-95844909D01*
X180109859Y-95836161D01*
X180116406Y-95831241D01*
X180116398Y-95831234D01*
X180105540Y-95831192D01*
X180079731Y-95834240D01*
X180043757Y-95839770D01*
X180028435Y-95842392D01*
X179984636Y-95849056D01*
X179928173Y-95856162D01*
X179866417Y-95862848D01*
X179808253Y-95868133D01*
X179746417Y-95873179D01*
X179702267Y-95877329D01*
X179673477Y-95881320D01*
X179657719Y-95885895D01*
X179652669Y-95891792D01*
X178674993Y-95891792D01*
X178605487Y-95826567D01*
X178547197Y-95746088D01*
X178500928Y-95651614D01*
X178467349Y-95544284D01*
X178447134Y-95425236D01*
X178446317Y-95417307D01*
X178439253Y-95374136D01*
X178426847Y-95322945D01*
X178411660Y-95274170D01*
X178410179Y-95270079D01*
X178370882Y-95149128D01*
X178365826Y-95129526D01*
X178561464Y-95129526D01*
X178565844Y-95201336D01*
X178570281Y-95245065D01*
X178579317Y-95280917D01*
X178595842Y-95318429D01*
X178608426Y-95341889D01*
X178693855Y-95480070D01*
X178786609Y-95600106D01*
X178887325Y-95702786D01*
X178929447Y-95738741D01*
X178989684Y-95787540D01*
X179054941Y-95781318D01*
X179088933Y-95777561D01*
X179114013Y-95773824D01*
X179124381Y-95771065D01*
X179126532Y-95768362D01*
X179124616Y-95764798D01*
X179115476Y-95758137D01*
X179095958Y-95746146D01*
X179062903Y-95726588D01*
X179054941Y-95721897D01*
X178945216Y-95647962D01*
X178846691Y-95561508D01*
X178757763Y-95460746D01*
X178676828Y-95343886D01*
X178611366Y-95227142D01*
X178561464Y-95129526D01*
X178365826Y-95129526D01*
X178335168Y-95010671D01*
X178303519Y-94857038D01*
X178276418Y-94690562D01*
X178255271Y-94522135D01*
X178250658Y-94469569D01*
X178246788Y-94405612D01*
X178243681Y-94333310D01*
X178241360Y-94255708D01*
X178239845Y-94175852D01*
X178239158Y-94096788D01*
X178239320Y-94021562D01*
X178240352Y-93953219D01*
X178242276Y-93894806D01*
X178245113Y-93849367D01*
X178248885Y-93819949D01*
X178250314Y-93814348D01*
X178255848Y-93799161D01*
X178258923Y-93798391D01*
X178260402Y-93814069D01*
X178261013Y-93839447D01*
X178264272Y-93919211D01*
X178271297Y-94013932D01*
X178281494Y-94118968D01*
X178294270Y-94229675D01*
X178309030Y-94341411D01*
X178325181Y-94449534D01*
X178342129Y-94549399D01*
X178359281Y-94636365D01*
X178367585Y-94672886D01*
X178382925Y-94734030D01*
X178399183Y-94794333D01*
X178415431Y-94850813D01*
X178430742Y-94900483D01*
X178444185Y-94940360D01*
X178454833Y-94967459D01*
X178461756Y-94978795D01*
X178462778Y-94978829D01*
X178471999Y-94962577D01*
X178476609Y-94930652D01*
X178476614Y-94886920D01*
X178472021Y-94835250D01*
X178462838Y-94779507D01*
X178462392Y-94777326D01*
X178447849Y-94702500D01*
X178436032Y-94630880D01*
X178426660Y-94559058D01*
X178419455Y-94483627D01*
X178414137Y-94401177D01*
X178410426Y-94308301D01*
X178408042Y-94201588D01*
X178406875Y-94100475D01*
X178405310Y-93904956D01*
X178463100Y-93904956D01*
X178464065Y-93943967D01*
X178466056Y-93992540D01*
X178468900Y-94047191D01*
X178472423Y-94104434D01*
X178476448Y-94160784D01*
X178480802Y-94212755D01*
X178483567Y-94241028D01*
X178489144Y-94288152D01*
X178496554Y-94342187D01*
X178505138Y-94399193D01*
X178514237Y-94455228D01*
X178523191Y-94506349D01*
X178531341Y-94548616D01*
X178538029Y-94578086D01*
X178541894Y-94589820D01*
X178547315Y-94585742D01*
X178557257Y-94565633D01*
X178570364Y-94532660D01*
X178585276Y-94489990D01*
X178587110Y-94484405D01*
X178609697Y-94417050D01*
X178629895Y-94360489D01*
X178646941Y-94316646D01*
X178660070Y-94287443D01*
X178668519Y-94274805D01*
X178670386Y-94274786D01*
X178670048Y-94285656D01*
X178666049Y-94312247D01*
X178659051Y-94350672D01*
X178649717Y-94397042D01*
X178648777Y-94401514D01*
X178635958Y-94464810D01*
X178622305Y-94536433D01*
X178609804Y-94605785D01*
X178603372Y-94643791D01*
X178583827Y-94763591D01*
X178614335Y-94851183D01*
X178639863Y-94918352D01*
X178671430Y-94992006D01*
X178706376Y-95066616D01*
X178742045Y-95136649D01*
X178775777Y-95196572D01*
X178794609Y-95226304D01*
X178842483Y-95289710D01*
X178900581Y-95355028D01*
X178962813Y-95415937D01*
X179023094Y-95466117D01*
X179031446Y-95472224D01*
X179061831Y-95492204D01*
X179099249Y-95514218D01*
X179139690Y-95536237D01*
X179179144Y-95556235D01*
X179213603Y-95572183D01*
X179239055Y-95582054D01*
X179251493Y-95583821D01*
X179251737Y-95583626D01*
X179249889Y-95573188D01*
X179241208Y-95549359D01*
X179227460Y-95516890D01*
X179224405Y-95510103D01*
X179194765Y-95441892D01*
X179161422Y-95360243D01*
X179126559Y-95270917D01*
X179092359Y-95179672D01*
X179061006Y-95092268D01*
X179034680Y-95014465D01*
X179025005Y-94983953D01*
X179008274Y-94928029D01*
X178990222Y-94864822D01*
X178971662Y-94797489D01*
X178953406Y-94729185D01*
X178936266Y-94663066D01*
X178921055Y-94602286D01*
X178908585Y-94550002D01*
X178899669Y-94509370D01*
X178895118Y-94483544D01*
X178894705Y-94477821D01*
X178898366Y-94481668D01*
X178908576Y-94502189D01*
X178924474Y-94537399D01*
X178945196Y-94585311D01*
X178969879Y-94643941D01*
X178997659Y-94711301D01*
X179018688Y-94763083D01*
X179062776Y-94871436D01*
X179101540Y-94964463D01*
X179136616Y-95045671D01*
X179169643Y-95118567D01*
X179202257Y-95186659D01*
X179236096Y-95253454D01*
X179272797Y-95322459D01*
X179313999Y-95397181D01*
X179318450Y-95405140D01*
X179358493Y-95476135D01*
X179390433Y-95531301D01*
X179415597Y-95572534D01*
X179435313Y-95601731D01*
X179450908Y-95620788D01*
X179463710Y-95631604D01*
X179475047Y-95636074D01*
X179480397Y-95636522D01*
X179498593Y-95631174D01*
X179528575Y-95616741D01*
X179565669Y-95595636D01*
X179593551Y-95578063D01*
X179634474Y-95549906D01*
X179685156Y-95513100D01*
X179739935Y-95471858D01*
X179793148Y-95430393D01*
X179807989Y-95418516D01*
X179817612Y-95410633D01*
X180400238Y-95410633D01*
X180405257Y-95415653D01*
X180410277Y-95410633D01*
X180405257Y-95405613D01*
X180400238Y-95410633D01*
X179817612Y-95410633D01*
X179827974Y-95402145D01*
X180420317Y-95402145D01*
X180427991Y-95400243D01*
X180450931Y-95385534D01*
X180489011Y-95358106D01*
X180542107Y-95318046D01*
X180569033Y-95297337D01*
X180602843Y-95270481D01*
X180629148Y-95248167D01*
X180644858Y-95233107D01*
X180647794Y-95228163D01*
X180638951Y-95232416D01*
X180617924Y-95246606D01*
X180588177Y-95268082D01*
X180553171Y-95294196D01*
X180516370Y-95322300D01*
X180481236Y-95349746D01*
X180451232Y-95373885D01*
X180429822Y-95392068D01*
X180420467Y-95401647D01*
X180420317Y-95402145D01*
X179827974Y-95402145D01*
X179851201Y-95383119D01*
X179898645Y-95343302D01*
X179948022Y-95301099D01*
X179997033Y-95258547D01*
X180043379Y-95217681D01*
X180084763Y-95180537D01*
X180118884Y-95149151D01*
X180143444Y-95125558D01*
X180156145Y-95111794D01*
X180157293Y-95109191D01*
X180147251Y-95104791D01*
X180122082Y-95094955D01*
X180085530Y-95081119D01*
X180041337Y-95064716D01*
X180039079Y-95063885D01*
X179805246Y-94967659D01*
X179579522Y-94854228D01*
X179363262Y-94724596D01*
X179157822Y-94579764D01*
X178964558Y-94420735D01*
X178784825Y-94248509D01*
X178619979Y-94064090D01*
X178528310Y-93947372D01*
X178502959Y-93914100D01*
X178482050Y-93887929D01*
X178468436Y-93872361D01*
X178464952Y-93869566D01*
X178463338Y-93878994D01*
X178463100Y-93904956D01*
X178405310Y-93904956D01*
X178404263Y-93774190D01*
X178337137Y-93663755D01*
X178214614Y-93443020D01*
X178110006Y-93213400D01*
X178023274Y-92974785D01*
X177954383Y-92727064D01*
X177903295Y-92470124D01*
X177879074Y-92293360D01*
X177874394Y-92237450D01*
X177870923Y-92166085D01*
X177868662Y-92083853D01*
X177867611Y-91995343D01*
X177867770Y-91905142D01*
X177869139Y-91817838D01*
X177871718Y-91738019D01*
X177875507Y-91670274D01*
X177879074Y-91630751D01*
X177918469Y-91367095D01*
X177975930Y-91112193D01*
X178051476Y-90866003D01*
X178145126Y-90628476D01*
X178256897Y-90399568D01*
X178386810Y-90179234D01*
X178534882Y-89967427D01*
X178592111Y-89893913D01*
X178643221Y-89833023D01*
X178705479Y-89763573D01*
X178774662Y-89689922D01*
X178846548Y-89616432D01*
X178916915Y-89547463D01*
X178981540Y-89487376D01*
X179009763Y-89462556D01*
X179211679Y-89302277D01*
X179423979Y-89159032D01*
X179645903Y-89033151D01*
X179876689Y-88924966D01*
X180115575Y-88834810D01*
X180361800Y-88763014D01*
X180614602Y-88709910D01*
X180796799Y-88683835D01*
X180871512Y-88677075D01*
X180960570Y-88672082D01*
X181058761Y-88668896D01*
X181160874Y-88667557D01*
X181261697Y-88668107D01*
X181356019Y-88670584D01*
X181438628Y-88675030D01*
X181479487Y-88678564D01*
X181739481Y-88714969D01*
X181991394Y-88769731D01*
X182235439Y-88842937D01*
X182471830Y-88934676D01*
X182700782Y-89045037D01*
X182922508Y-89174107D01*
X183137222Y-89321976D01*
X183251463Y-89410589D01*
X183295285Y-89447702D01*
X183347555Y-89494734D01*
X183405226Y-89548680D01*
X183465251Y-89606536D01*
X183524584Y-89665294D01*
X183580179Y-89721951D01*
X183628989Y-89773500D01*
X183667968Y-89816936D01*
X183688182Y-89841431D01*
X183709422Y-89867891D01*
X183725755Y-89886627D01*
X183733360Y-89893399D01*
X183738913Y-89884841D01*
X183752348Y-89860423D01*
X183772570Y-89822244D01*
X183798484Y-89772406D01*
X183828997Y-89713006D01*
X183863011Y-89646147D01*
X183886248Y-89600146D01*
X183958294Y-89458593D01*
X184027583Y-89325358D01*
X184093514Y-89201480D01*
X184155487Y-89087997D01*
X184212901Y-88985948D01*
X184265157Y-88896372D01*
X184311654Y-88820308D01*
X184351791Y-88758795D01*
X184384969Y-88712872D01*
X184410586Y-88683578D01*
X184420668Y-88675296D01*
X184438102Y-88664953D01*
X184444354Y-88665025D01*
X184444354Y-88665025D01*
G37*
X184444354Y-88665025D02*
X184439097Y-88677126D01*
X184422000Y-88702867D01*
X184412190Y-88716756D01*
X184393840Y-88743842D01*
X184375861Y-88773573D01*
X184357125Y-88808325D01*
X184336503Y-88850477D01*
X184312868Y-88902406D01*
X184285091Y-88966489D01*
X184252043Y-89045105D01*
X184222622Y-89116244D01*
X184197600Y-89177670D01*
X184166740Y-89254444D01*
X184131379Y-89343161D01*
X184092855Y-89440415D01*
X184052506Y-89542801D01*
X184011670Y-89646915D01*
X183971686Y-89749352D01*
X183933891Y-89846706D01*
X183899623Y-89935572D01*
X183870220Y-90012545D01*
X183864369Y-90027988D01*
X183853532Y-90056648D01*
X183797220Y-89979539D01*
X183772322Y-89947301D01*
X183751298Y-89923500D01*
X183737057Y-89911255D01*
X183733006Y-89910721D01*
X183727388Y-89920970D01*
X183713808Y-89947788D01*
X183693013Y-89989649D01*
X183665749Y-90045028D01*
X183632761Y-90112401D01*
X183594796Y-90190243D01*
X183552599Y-90277029D01*
X183506917Y-90371233D01*
X183458495Y-90471332D01*
X183439172Y-90511344D01*
X183327921Y-90741675D01*
X183224687Y-90955119D01*
X183128860Y-91152925D01*
X183039831Y-91336337D01*
X182956990Y-91506603D01*
X182879727Y-91664968D01*
X182807434Y-91812678D01*
X182739500Y-91950980D01*
X182675316Y-92081120D01*
X182614273Y-92204344D01*
X182555761Y-92321899D01*
X182499170Y-92435030D01*
X182466958Y-92499170D01*
X182423299Y-92586492D01*
X182386018Y-92661559D01*
X182353790Y-92726093D01*
X182325287Y-92781820D01*
X182299185Y-92830462D01*
X182274158Y-92873744D01*
X182248879Y-92913388D01*
X182222022Y-92951118D01*
X182192263Y-92988659D01*
X182158274Y-93027733D01*
X182118730Y-93070065D01*
X182072305Y-93117378D01*
X182017674Y-93171396D01*
X181953510Y-93233842D01*
X181878487Y-93306440D01*
X181791280Y-93390913D01*
X181750554Y-93430491D01*
X181677095Y-93502369D01*
X181605228Y-93573443D01*
X181536826Y-93641806D01*
X181473766Y-93705553D01*
X181417923Y-93762777D01*
X181371171Y-93811572D01*
X181335386Y-93850031D01*
X181314557Y-93873693D01*
X181257906Y-93940302D01*
X181189212Y-94019063D01*
X181110482Y-94107789D01*
X181023725Y-94204292D01*
X180930952Y-94306383D01*
X180834170Y-94411873D01*
X180735390Y-94518576D01*
X180636620Y-94624303D01*
X180539869Y-94726865D01*
X180447146Y-94824074D01*
X180360461Y-94913743D01*
X180346277Y-94928276D01*
X180298303Y-94977495D01*
X180255468Y-95021708D01*
X180219624Y-95058984D01*
X180192621Y-95087390D01*
X180176311Y-95104992D01*
X180172216Y-95110010D01*
X180184556Y-95114406D01*
X180212514Y-95122450D01*
X180252177Y-95133143D01*
X180299627Y-95145487D01*
X180350951Y-95158484D01*
X180402232Y-95171137D01*
X180449556Y-95182446D01*
X180489007Y-95191415D01*
X180504248Y-95194646D01*
X180568725Y-95206804D01*
X180615584Y-95213207D01*
X180646406Y-95213973D01*
X180662773Y-95209219D01*
X180665197Y-95206583D01*
X180674789Y-95197119D01*
X180696492Y-95178312D01*
X180726665Y-95153264D01*
X180748616Y-95135490D01*
X180826917Y-95072677D01*
X180668457Y-95222133D01*
X180702509Y-95228227D01*
X180762866Y-95236957D01*
X180835208Y-95244029D01*
X180916794Y-95249462D01*
X181004882Y-95253277D01*
X181096733Y-95255494D01*
X181189604Y-95256133D01*
X181280756Y-95255214D01*
X181367446Y-95252757D01*
X181446934Y-95248782D01*
X181516479Y-95243310D01*
X181573339Y-95236359D01*
X181614774Y-95227951D01*
X181632727Y-95221418D01*
X181644207Y-95209573D01*
X181664525Y-95182044D01*
X181692600Y-95140607D01*
X181727347Y-95087034D01*
X181767685Y-95023098D01*
X181812531Y-94950575D01*
X181860802Y-94871236D01*
X181911416Y-94786857D01*
X181963290Y-94699210D01*
X182015340Y-94610069D01*
X182066486Y-94521208D01*
X182115643Y-94434401D01*
X182142313Y-94386601D01*
X182184634Y-94311587D01*
X182230086Y-94233270D01*
X182276021Y-94156062D01*
X182319788Y-94084374D01*
X182358738Y-94022618D01*
X182383502Y-93985020D01*
X182420553Y-93928446D01*
X182463582Y-93859712D01*
X182509202Y-93784417D01*
X182554025Y-93708161D01*
X182594663Y-93636546D01*
X182598729Y-93629199D01*
X182648622Y-93541052D01*
X182697686Y-93459585D01*
X182749448Y-93379318D01*
X182807438Y-93294778D01*
X182873701Y-93202519D01*
X183015597Y-93004263D01*
X183149685Y-92808387D01*
X183279082Y-92610061D01*
X183406904Y-92404452D01*
X183536269Y-92186732D01*
X183596383Y-92082530D01*
X183632454Y-92020546D01*
X183665279Y-91967042D01*
X183697815Y-91917826D01*
X183733021Y-91868706D01*
X183773857Y-91815488D01*
X183823280Y-91753981D01*
X183858523Y-91711068D01*
X183907164Y-91652066D01*
X183955546Y-91593214D01*
X184000927Y-91537860D01*
X184040562Y-91489355D01*
X184071709Y-91451046D01*
X184084674Y-91434981D01*
X184115876Y-91396543D01*
X184155381Y-91348481D01*
X184198496Y-91296473D01*
X184240528Y-91246201D01*
X184247477Y-91237940D01*
X184281700Y-91196501D01*
X184310739Y-91159815D01*
X184332326Y-91130870D01*
X184344192Y-91112651D01*
X184345771Y-91108508D01*
X184343093Y-91093432D01*
X184336201Y-91066033D01*
X184326810Y-91032213D01*
X184316635Y-90997871D01*
X184307392Y-90968911D01*
X184300794Y-90951231D01*
X184299329Y-90948690D01*
X184290563Y-90952755D01*
X184271725Y-90967674D01*
X184248364Y-90988848D01*
X184225194Y-91009726D01*
X184214348Y-91016645D01*
X184216451Y-91009214D01*
X184217004Y-91008301D01*
X184231041Y-90983895D01*
X184248309Y-90951840D01*
X184255121Y-90938666D01*
X184268822Y-90912914D01*
X184277224Y-90902914D01*
X184283840Y-90906376D01*
X184289604Y-90916170D01*
X184295007Y-90924384D01*
X184301831Y-90927199D01*
X184312657Y-90923001D01*
X184330065Y-90910177D01*
X184356635Y-90887111D01*
X184394950Y-90852192D01*
X184401391Y-90846271D01*
X184515022Y-90742673D01*
X184616253Y-90652322D01*
X184706579Y-90573970D01*
X184787496Y-90506370D01*
X184860500Y-90448275D01*
X184927087Y-90398437D01*
X184988751Y-90355609D01*
X184993321Y-90352577D01*
X185075052Y-90301970D01*
X185144989Y-90265945D01*
X185202784Y-90244626D01*
X185248090Y-90238137D01*
X185280559Y-90246601D01*
X185284467Y-90249296D01*
X185295184Y-90258683D01*
X185293189Y-90263267D01*
X185275573Y-90264836D01*
X185258824Y-90265057D01*
X185214065Y-90271695D01*
X185169657Y-90292938D01*
X185167679Y-90294182D01*
X185132515Y-90319027D01*
X185086972Y-90354953D01*
X185034749Y-90398724D01*
X184979548Y-90447107D01*
X184925067Y-90496865D01*
X184875009Y-90544764D01*
X184837708Y-90582646D01*
X184806729Y-90615668D01*
X184767486Y-90658004D01*
X184722037Y-90707385D01*
X184672444Y-90761541D01*
X184620765Y-90818203D01*
X184569062Y-90875101D01*
X184519394Y-90929966D01*
X184473821Y-90980528D01*
X184434403Y-91024518D01*
X184403200Y-91059666D01*
X184382272Y-91083702D01*
X184375407Y-91091970D01*
X184353279Y-91120101D01*
X184380433Y-91242403D01*
X184402739Y-91348631D01*
X184420083Y-91445850D01*
X184433121Y-91539735D01*
X184442510Y-91635962D01*
X184448907Y-91740207D01*
X184452967Y-91858146D01*
X184453309Y-91872675D01*
X184454568Y-92035888D01*
X184450193Y-92184876D01*
X184439664Y-92324830D01*
X184422461Y-92460942D01*
X184398064Y-92598404D01*
X184366284Y-92741041D01*
X184296789Y-92985762D01*
X184208933Y-93223227D01*
X184103423Y-93452470D01*
X183980968Y-93672526D01*
X183842273Y-93882433D01*
X183688045Y-94081224D01*
X183518992Y-94267935D01*
X183335821Y-94441601D01*
X183139239Y-94601259D01*
X182929953Y-94745943D01*
X182868905Y-94783801D01*
X182660556Y-94899464D01*
X182442609Y-95000640D01*
X182218404Y-95086073D01*
X181991279Y-95154505D01*
X181764575Y-95204676D01*
X181740514Y-95208905D01*
X181687739Y-95219648D01*
X181653687Y-95230727D01*
X181637262Y-95242210D01*
X181628155Y-95255197D01*
X181609393Y-95282248D01*
X181582693Y-95320878D01*
X181549771Y-95368602D01*
X181512344Y-95422934D01*
X181482813Y-95465850D01*
X181372638Y-95622266D01*
X181268994Y-95761379D01*
X181170751Y-95884447D01*
X181076779Y-95992726D01*
X180985947Y-96087474D01*
X180897125Y-96169947D01*
X180809182Y-96241404D01*
X180742812Y-96288730D01*
X180684318Y-96324445D01*
X180616978Y-96359842D01*
X180547181Y-96391965D01*
X180481315Y-96417856D01*
X180429843Y-96433591D01*
X180347512Y-96448208D01*
X180258421Y-96454709D01*
X180171323Y-96452792D01*
X180107152Y-96444657D01*
X179988179Y-96411910D01*
X179874155Y-96359740D01*
X179765234Y-96288223D01*
X179727530Y-96257949D01*
X179698427Y-96235286D01*
X179674738Y-96223522D01*
X179647805Y-96219231D01*
X179628662Y-96218815D01*
X179494121Y-96210929D01*
X179357604Y-96188158D01*
X179325137Y-96179346D01*
X180067084Y-96179346D01*
X180080983Y-96188064D01*
X180094032Y-96192139D01*
X180113074Y-96194330D01*
X180146010Y-96195403D01*
X180186677Y-96195200D01*
X180199447Y-96194867D01*
X180258011Y-96190639D01*
X180306335Y-96180911D01*
X180347819Y-96166401D01*
X180415682Y-96135416D01*
X180476414Y-96099932D01*
X180535431Y-96056231D01*
X180598146Y-96000593D01*
X180620380Y-95979172D01*
X180653191Y-95946486D01*
X180677578Y-95921051D01*
X180691736Y-95904852D01*
X180693856Y-95899874D01*
X180691384Y-95901173D01*
X180587616Y-95965621D01*
X180497955Y-96017015D01*
X180421637Y-96055793D01*
X180417984Y-96057489D01*
X180364107Y-96080581D01*
X180302402Y-96104180D01*
X180238451Y-96126408D01*
X180177835Y-96145389D01*
X180126136Y-96159245D01*
X180098927Y-96164782D01*
X180073102Y-96171379D01*
X180067084Y-96179346D01*
X179325137Y-96179346D01*
X179223737Y-96151825D01*
X179097144Y-96103258D01*
X178982453Y-96043782D01*
X178952563Y-96025001D01*
X178917991Y-96004886D01*
X178884010Y-95989252D01*
X178864190Y-95982995D01*
X178838049Y-95975229D01*
X178801308Y-95961201D01*
X178761274Y-95943733D01*
X178755435Y-95940989D01*
X178675123Y-95891914D01*
X178674993Y-95891792D01*
X179652669Y-95891792D01*
X179655999Y-95899751D01*
X179665384Y-95910513D01*
X179667598Y-95912871D01*
X179680158Y-95925256D01*
X179692640Y-95932914D01*
X179708927Y-95935960D01*
X179732900Y-95934512D01*
X179768443Y-95928688D01*
X179819438Y-95918604D01*
X179824370Y-95917603D01*
X179865396Y-95908455D01*
X179912398Y-95896687D01*
X179961741Y-95883374D01*
X180009793Y-95869590D01*
X180052919Y-95856410D01*
X180087485Y-95844909D01*
X180109859Y-95836161D01*
X180116406Y-95831241D01*
X180116398Y-95831234D01*
X180105540Y-95831192D01*
X180079731Y-95834240D01*
X180043757Y-95839770D01*
X180028435Y-95842392D01*
X179984636Y-95849056D01*
X179928173Y-95856162D01*
X179866417Y-95862848D01*
X179808253Y-95868133D01*
X179746417Y-95873179D01*
X179702267Y-95877329D01*
X179673477Y-95881320D01*
X179657719Y-95885895D01*
X179652669Y-95891792D01*
X178674993Y-95891792D01*
X178605487Y-95826567D01*
X178547197Y-95746088D01*
X178500928Y-95651614D01*
X178467349Y-95544284D01*
X178447134Y-95425236D01*
X178446317Y-95417307D01*
X178439253Y-95374136D01*
X178426847Y-95322945D01*
X178411660Y-95274170D01*
X178410179Y-95270079D01*
X178370882Y-95149128D01*
X178365826Y-95129526D01*
X178561464Y-95129526D01*
X178565844Y-95201336D01*
X178570281Y-95245065D01*
X178579317Y-95280917D01*
X178595842Y-95318429D01*
X178608426Y-95341889D01*
X178693855Y-95480070D01*
X178786609Y-95600106D01*
X178887325Y-95702786D01*
X178929447Y-95738741D01*
X178989684Y-95787540D01*
X179054941Y-95781318D01*
X179088933Y-95777561D01*
X179114013Y-95773824D01*
X179124381Y-95771065D01*
X179126532Y-95768362D01*
X179124616Y-95764798D01*
X179115476Y-95758137D01*
X179095958Y-95746146D01*
X179062903Y-95726588D01*
X179054941Y-95721897D01*
X178945216Y-95647962D01*
X178846691Y-95561508D01*
X178757763Y-95460746D01*
X178676828Y-95343886D01*
X178611366Y-95227142D01*
X178561464Y-95129526D01*
X178365826Y-95129526D01*
X178335168Y-95010671D01*
X178303519Y-94857038D01*
X178276418Y-94690562D01*
X178255271Y-94522135D01*
X178250658Y-94469569D01*
X178246788Y-94405612D01*
X178243681Y-94333310D01*
X178241360Y-94255708D01*
X178239845Y-94175852D01*
X178239158Y-94096788D01*
X178239320Y-94021562D01*
X178240352Y-93953219D01*
X178242276Y-93894806D01*
X178245113Y-93849367D01*
X178248885Y-93819949D01*
X178250314Y-93814348D01*
X178255848Y-93799161D01*
X178258923Y-93798391D01*
X178260402Y-93814069D01*
X178261013Y-93839447D01*
X178264272Y-93919211D01*
X178271297Y-94013932D01*
X178281494Y-94118968D01*
X178294270Y-94229675D01*
X178309030Y-94341411D01*
X178325181Y-94449534D01*
X178342129Y-94549399D01*
X178359281Y-94636365D01*
X178367585Y-94672886D01*
X178382925Y-94734030D01*
X178399183Y-94794333D01*
X178415431Y-94850813D01*
X178430742Y-94900483D01*
X178444185Y-94940360D01*
X178454833Y-94967459D01*
X178461756Y-94978795D01*
X178462778Y-94978829D01*
X178471999Y-94962577D01*
X178476609Y-94930652D01*
X178476614Y-94886920D01*
X178472021Y-94835250D01*
X178462838Y-94779507D01*
X178462392Y-94777326D01*
X178447849Y-94702500D01*
X178436032Y-94630880D01*
X178426660Y-94559058D01*
X178419455Y-94483627D01*
X178414137Y-94401177D01*
X178410426Y-94308301D01*
X178408042Y-94201588D01*
X178406875Y-94100475D01*
X178405310Y-93904956D01*
X178463100Y-93904956D01*
X178464065Y-93943967D01*
X178466056Y-93992540D01*
X178468900Y-94047191D01*
X178472423Y-94104434D01*
X178476448Y-94160784D01*
X178480802Y-94212755D01*
X178483567Y-94241028D01*
X178489144Y-94288152D01*
X178496554Y-94342187D01*
X178505138Y-94399193D01*
X178514237Y-94455228D01*
X178523191Y-94506349D01*
X178531341Y-94548616D01*
X178538029Y-94578086D01*
X178541894Y-94589820D01*
X178547315Y-94585742D01*
X178557257Y-94565633D01*
X178570364Y-94532660D01*
X178585276Y-94489990D01*
X178587110Y-94484405D01*
X178609697Y-94417050D01*
X178629895Y-94360489D01*
X178646941Y-94316646D01*
X178660070Y-94287443D01*
X178668519Y-94274805D01*
X178670386Y-94274786D01*
X178670048Y-94285656D01*
X178666049Y-94312247D01*
X178659051Y-94350672D01*
X178649717Y-94397042D01*
X178648777Y-94401514D01*
X178635958Y-94464810D01*
X178622305Y-94536433D01*
X178609804Y-94605785D01*
X178603372Y-94643791D01*
X178583827Y-94763591D01*
X178614335Y-94851183D01*
X178639863Y-94918352D01*
X178671430Y-94992006D01*
X178706376Y-95066616D01*
X178742045Y-95136649D01*
X178775777Y-95196572D01*
X178794609Y-95226304D01*
X178842483Y-95289710D01*
X178900581Y-95355028D01*
X178962813Y-95415937D01*
X179023094Y-95466117D01*
X179031446Y-95472224D01*
X179061831Y-95492204D01*
X179099249Y-95514218D01*
X179139690Y-95536237D01*
X179179144Y-95556235D01*
X179213603Y-95572183D01*
X179239055Y-95582054D01*
X179251493Y-95583821D01*
X179251737Y-95583626D01*
X179249889Y-95573188D01*
X179241208Y-95549359D01*
X179227460Y-95516890D01*
X179224405Y-95510103D01*
X179194765Y-95441892D01*
X179161422Y-95360243D01*
X179126559Y-95270917D01*
X179092359Y-95179672D01*
X179061006Y-95092268D01*
X179034680Y-95014465D01*
X179025005Y-94983953D01*
X179008274Y-94928029D01*
X178990222Y-94864822D01*
X178971662Y-94797489D01*
X178953406Y-94729185D01*
X178936266Y-94663066D01*
X178921055Y-94602286D01*
X178908585Y-94550002D01*
X178899669Y-94509370D01*
X178895118Y-94483544D01*
X178894705Y-94477821D01*
X178898366Y-94481668D01*
X178908576Y-94502189D01*
X178924474Y-94537399D01*
X178945196Y-94585311D01*
X178969879Y-94643941D01*
X178997659Y-94711301D01*
X179018688Y-94763083D01*
X179062776Y-94871436D01*
X179101540Y-94964463D01*
X179136616Y-95045671D01*
X179169643Y-95118567D01*
X179202257Y-95186659D01*
X179236096Y-95253454D01*
X179272797Y-95322459D01*
X179313999Y-95397181D01*
X179318450Y-95405140D01*
X179358493Y-95476135D01*
X179390433Y-95531301D01*
X179415597Y-95572534D01*
X179435313Y-95601731D01*
X179450908Y-95620788D01*
X179463710Y-95631604D01*
X179475047Y-95636074D01*
X179480397Y-95636522D01*
X179498593Y-95631174D01*
X179528575Y-95616741D01*
X179565669Y-95595636D01*
X179593551Y-95578063D01*
X179634474Y-95549906D01*
X179685156Y-95513100D01*
X179739935Y-95471858D01*
X179793148Y-95430393D01*
X179807989Y-95418516D01*
X179817612Y-95410633D01*
X180400238Y-95410633D01*
X180405257Y-95415653D01*
X180410277Y-95410633D01*
X180405257Y-95405613D01*
X180400238Y-95410633D01*
X179817612Y-95410633D01*
X179827974Y-95402145D01*
X180420317Y-95402145D01*
X180427991Y-95400243D01*
X180450931Y-95385534D01*
X180489011Y-95358106D01*
X180542107Y-95318046D01*
X180569033Y-95297337D01*
X180602843Y-95270481D01*
X180629148Y-95248167D01*
X180644858Y-95233107D01*
X180647794Y-95228163D01*
X180638951Y-95232416D01*
X180617924Y-95246606D01*
X180588177Y-95268082D01*
X180553171Y-95294196D01*
X180516370Y-95322300D01*
X180481236Y-95349746D01*
X180451232Y-95373885D01*
X180429822Y-95392068D01*
X180420467Y-95401647D01*
X180420317Y-95402145D01*
X179827974Y-95402145D01*
X179851201Y-95383119D01*
X179898645Y-95343302D01*
X179948022Y-95301099D01*
X179997033Y-95258547D01*
X180043379Y-95217681D01*
X180084763Y-95180537D01*
X180118884Y-95149151D01*
X180143444Y-95125558D01*
X180156145Y-95111794D01*
X180157293Y-95109191D01*
X180147251Y-95104791D01*
X180122082Y-95094955D01*
X180085530Y-95081119D01*
X180041337Y-95064716D01*
X180039079Y-95063885D01*
X179805246Y-94967659D01*
X179579522Y-94854228D01*
X179363262Y-94724596D01*
X179157822Y-94579764D01*
X178964558Y-94420735D01*
X178784825Y-94248509D01*
X178619979Y-94064090D01*
X178528310Y-93947372D01*
X178502959Y-93914100D01*
X178482050Y-93887929D01*
X178468436Y-93872361D01*
X178464952Y-93869566D01*
X178463338Y-93878994D01*
X178463100Y-93904956D01*
X178405310Y-93904956D01*
X178404263Y-93774190D01*
X178337137Y-93663755D01*
X178214614Y-93443020D01*
X178110006Y-93213400D01*
X178023274Y-92974785D01*
X177954383Y-92727064D01*
X177903295Y-92470124D01*
X177879074Y-92293360D01*
X177874394Y-92237450D01*
X177870923Y-92166085D01*
X177868662Y-92083853D01*
X177867611Y-91995343D01*
X177867770Y-91905142D01*
X177869139Y-91817838D01*
X177871718Y-91738019D01*
X177875507Y-91670274D01*
X177879074Y-91630751D01*
X177918469Y-91367095D01*
X177975930Y-91112193D01*
X178051476Y-90866003D01*
X178145126Y-90628476D01*
X178256897Y-90399568D01*
X178386810Y-90179234D01*
X178534882Y-89967427D01*
X178592111Y-89893913D01*
X178643221Y-89833023D01*
X178705479Y-89763573D01*
X178774662Y-89689922D01*
X178846548Y-89616432D01*
X178916915Y-89547463D01*
X178981540Y-89487376D01*
X179009763Y-89462556D01*
X179211679Y-89302277D01*
X179423979Y-89159032D01*
X179645903Y-89033151D01*
X179876689Y-88924966D01*
X180115575Y-88834810D01*
X180361800Y-88763014D01*
X180614602Y-88709910D01*
X180796799Y-88683835D01*
X180871512Y-88677075D01*
X180960570Y-88672082D01*
X181058761Y-88668896D01*
X181160874Y-88667557D01*
X181261697Y-88668107D01*
X181356019Y-88670584D01*
X181438628Y-88675030D01*
X181479487Y-88678564D01*
X181739481Y-88714969D01*
X181991394Y-88769731D01*
X182235439Y-88842937D01*
X182471830Y-88934676D01*
X182700782Y-89045037D01*
X182922508Y-89174107D01*
X183137222Y-89321976D01*
X183251463Y-89410589D01*
X183295285Y-89447702D01*
X183347555Y-89494734D01*
X183405226Y-89548680D01*
X183465251Y-89606536D01*
X183524584Y-89665294D01*
X183580179Y-89721951D01*
X183628989Y-89773500D01*
X183667968Y-89816936D01*
X183688182Y-89841431D01*
X183709422Y-89867891D01*
X183725755Y-89886627D01*
X183733360Y-89893399D01*
X183738913Y-89884841D01*
X183752348Y-89860423D01*
X183772570Y-89822244D01*
X183798484Y-89772406D01*
X183828997Y-89713006D01*
X183863011Y-89646147D01*
X183886248Y-89600146D01*
X183958294Y-89458593D01*
X184027583Y-89325358D01*
X184093514Y-89201480D01*
X184155487Y-89087997D01*
X184212901Y-88985948D01*
X184265157Y-88896372D01*
X184311654Y-88820308D01*
X184351791Y-88758795D01*
X184384969Y-88712872D01*
X184410586Y-88683578D01*
X184420668Y-88675296D01*
X184438102Y-88664953D01*
X184444354Y-88665025D01*
G36*
X183502451Y-91023360D02*
X183497431Y-91028380D01*
X183492411Y-91023360D01*
X183497431Y-91018340D01*
X183502451Y-91023360D01*
X183502451Y-91023360D01*
G37*
X183502451Y-91023360D02*
X183497431Y-91028380D01*
X183492411Y-91023360D01*
X183497431Y-91018340D01*
X183502451Y-91023360D01*
G36*
X187734611Y-86426769D02*
X187800325Y-86436247D01*
X187853830Y-86451802D01*
X187861991Y-86455335D01*
X187894743Y-86470513D01*
X187864625Y-86465418D01*
X187759801Y-86453662D01*
X187661617Y-86454445D01*
X187574532Y-86467718D01*
X187570937Y-86468611D01*
X187469457Y-86501983D01*
X187363707Y-86551990D01*
X187253329Y-86618926D01*
X187137959Y-86703084D01*
X187017239Y-86804758D01*
X186890807Y-86924241D01*
X186758302Y-87061827D01*
X186619364Y-87217810D01*
X186550131Y-87299484D01*
X186485990Y-87376949D01*
X186424712Y-87452490D01*
X186365339Y-87527494D01*
X186306908Y-87603349D01*
X186248460Y-87681443D01*
X186189035Y-87763164D01*
X186127672Y-87849901D01*
X186063412Y-87943042D01*
X185995293Y-88043974D01*
X185922356Y-88154086D01*
X185843640Y-88274766D01*
X185758185Y-88407402D01*
X185665032Y-88553382D01*
X185563218Y-88714094D01*
X185477657Y-88849803D01*
X185282545Y-89164436D01*
X185094882Y-89476350D01*
X184917685Y-89780508D01*
X184873089Y-89858775D01*
X184832787Y-89929489D01*
X184786095Y-90010819D01*
X184736858Y-90096107D01*
X184688919Y-90178695D01*
X184646857Y-90250674D01*
X184604962Y-90322491D01*
X184559005Y-90402024D01*
X184512534Y-90483086D01*
X184469095Y-90559487D01*
X184432235Y-90625041D01*
X184431056Y-90627156D01*
X184399267Y-90684093D01*
X184369110Y-90737926D01*
X184342591Y-90785088D01*
X184321717Y-90822012D01*
X184308493Y-90845129D01*
X184308077Y-90845844D01*
X184282822Y-90889198D01*
X184243847Y-90785607D01*
X184223404Y-90734375D01*
X184197989Y-90675534D01*
X184168877Y-90611588D01*
X184137341Y-90545037D01*
X184104658Y-90478382D01*
X184072103Y-90414126D01*
X184040949Y-90354768D01*
X184012473Y-90302811D01*
X183987950Y-90260756D01*
X183968654Y-90231104D01*
X183955860Y-90216357D01*
X183953081Y-90215178D01*
X183946335Y-90223572D01*
X183931854Y-90246847D01*
X183911309Y-90282146D01*
X183886370Y-90326609D01*
X183863609Y-90368281D01*
X183826856Y-90436074D01*
X183787446Y-90508307D01*
X183746579Y-90582820D01*
X183705455Y-90657458D01*
X183665274Y-90730062D01*
X183627236Y-90798475D01*
X183592542Y-90860539D01*
X183562392Y-90914098D01*
X183537986Y-90956993D01*
X183520524Y-90987067D01*
X183511207Y-91002163D01*
X183510350Y-91003281D01*
X183509653Y-90998874D01*
X183514990Y-90979080D01*
X183525345Y-90947314D01*
X183535701Y-90917945D01*
X183560852Y-90848839D01*
X183588809Y-90772605D01*
X183618773Y-90691372D01*
X183649946Y-90607267D01*
X183681528Y-90522420D01*
X183712720Y-90438958D01*
X183742723Y-90359010D01*
X183770739Y-90284705D01*
X183795966Y-90218170D01*
X183817608Y-90161535D01*
X183834864Y-90116927D01*
X183846936Y-90086475D01*
X183853024Y-90072307D01*
X183853455Y-90071613D01*
X183861923Y-90075539D01*
X183877805Y-90093113D01*
X183898061Y-90120842D01*
X183903705Y-90129340D01*
X183924646Y-90160290D01*
X183941714Y-90183329D01*
X183951855Y-90194390D01*
X183952899Y-90194812D01*
X183959255Y-90186266D01*
X183973546Y-90162483D01*
X183994341Y-90125993D01*
X184020212Y-90079322D01*
X184049730Y-90024996D01*
X184064664Y-89997148D01*
X184099835Y-89931663D01*
X184141945Y-89853853D01*
X184188151Y-89768931D01*
X184235615Y-89682110D01*
X184281494Y-89598602D01*
X184309343Y-89548166D01*
X184349768Y-89475007D01*
X184397255Y-89388862D01*
X184449250Y-89294376D01*
X184503202Y-89196191D01*
X184556558Y-89098949D01*
X184606766Y-89007295D01*
X184624269Y-88975297D01*
X184705620Y-88827700D01*
X184785524Y-88685022D01*
X184863118Y-88548716D01*
X184937536Y-88420233D01*
X185007911Y-88301026D01*
X185073379Y-88192547D01*
X185133074Y-88096248D01*
X185186131Y-88013581D01*
X185231683Y-87945998D01*
X185266089Y-87898561D01*
X185314284Y-87840448D01*
X185357268Y-87798666D01*
X185394327Y-87773611D01*
X185424750Y-87765683D01*
X185447825Y-87775278D01*
X185458547Y-87791105D01*
X185468486Y-87817923D01*
X185470196Y-87833690D01*
X185464540Y-87835795D01*
X185452379Y-87821630D01*
X185449813Y-87817557D01*
X185430440Y-87794026D01*
X185412440Y-87787450D01*
X185412202Y-87787492D01*
X185393334Y-87799535D01*
X185367203Y-87829608D01*
X185334126Y-87877147D01*
X185294420Y-87941588D01*
X185248404Y-88022369D01*
X185196393Y-88118925D01*
X185138707Y-88230694D01*
X185075662Y-88357113D01*
X185007576Y-88497616D01*
X184983278Y-88548617D01*
X184959348Y-88599608D01*
X184930141Y-88662769D01*
X184896391Y-88736448D01*
X184858833Y-88818993D01*
X184818202Y-88908752D01*
X184775233Y-89004073D01*
X184730660Y-89103302D01*
X184685220Y-89204789D01*
X184639646Y-89306880D01*
X184594674Y-89407923D01*
X184551038Y-89506266D01*
X184509474Y-89600257D01*
X184470715Y-89688244D01*
X184435499Y-89768573D01*
X184404558Y-89839594D01*
X184378628Y-89899653D01*
X184358444Y-89947099D01*
X184344741Y-89980279D01*
X184338254Y-89997541D01*
X184337874Y-89999666D01*
X184344020Y-89992482D01*
X184359760Y-89970835D01*
X184383536Y-89936958D01*
X184413791Y-89893087D01*
X184448968Y-89841456D01*
X184476285Y-89801006D01*
X184521822Y-89733757D01*
X184575733Y-89654848D01*
X184636643Y-89566245D01*
X184703175Y-89469915D01*
X184773953Y-89367824D01*
X184847602Y-89261937D01*
X184922745Y-89154222D01*
X184998006Y-89046642D01*
X185072009Y-88941166D01*
X185143378Y-88839758D01*
X185210736Y-88744385D01*
X185272709Y-88657013D01*
X185327919Y-88579608D01*
X185374991Y-88514135D01*
X185412548Y-88462562D01*
X185423143Y-88448222D01*
X185606410Y-88204530D01*
X185781183Y-87978455D01*
X185947843Y-87769603D01*
X186106766Y-87577578D01*
X186258334Y-87401985D01*
X186402924Y-87242429D01*
X186540915Y-87098515D01*
X186672686Y-86969847D01*
X186798617Y-86856031D01*
X186919087Y-86756671D01*
X187034473Y-86671373D01*
X187145156Y-86599741D01*
X187251514Y-86541379D01*
X187252214Y-86541032D01*
X187331495Y-86503195D01*
X187398971Y-86474791D01*
X187459587Y-86454175D01*
X187518283Y-86439703D01*
X187580003Y-86429731D01*
X187590606Y-86428429D01*
X187662700Y-86423964D01*
X187734611Y-86426769D01*
X187734611Y-86426769D01*
G37*
X187734611Y-86426769D02*
X187800325Y-86436247D01*
X187853830Y-86451802D01*
X187861991Y-86455335D01*
X187894743Y-86470513D01*
X187864625Y-86465418D01*
X187759801Y-86453662D01*
X187661617Y-86454445D01*
X187574532Y-86467718D01*
X187570937Y-86468611D01*
X187469457Y-86501983D01*
X187363707Y-86551990D01*
X187253329Y-86618926D01*
X187137959Y-86703084D01*
X187017239Y-86804758D01*
X186890807Y-86924241D01*
X186758302Y-87061827D01*
X186619364Y-87217810D01*
X186550131Y-87299484D01*
X186485990Y-87376949D01*
X186424712Y-87452490D01*
X186365339Y-87527494D01*
X186306908Y-87603349D01*
X186248460Y-87681443D01*
X186189035Y-87763164D01*
X186127672Y-87849901D01*
X186063412Y-87943042D01*
X185995293Y-88043974D01*
X185922356Y-88154086D01*
X185843640Y-88274766D01*
X185758185Y-88407402D01*
X185665032Y-88553382D01*
X185563218Y-88714094D01*
X185477657Y-88849803D01*
X185282545Y-89164436D01*
X185094882Y-89476350D01*
X184917685Y-89780508D01*
X184873089Y-89858775D01*
X184832787Y-89929489D01*
X184786095Y-90010819D01*
X184736858Y-90096107D01*
X184688919Y-90178695D01*
X184646857Y-90250674D01*
X184604962Y-90322491D01*
X184559005Y-90402024D01*
X184512534Y-90483086D01*
X184469095Y-90559487D01*
X184432235Y-90625041D01*
X184431056Y-90627156D01*
X184399267Y-90684093D01*
X184369110Y-90737926D01*
X184342591Y-90785088D01*
X184321717Y-90822012D01*
X184308493Y-90845129D01*
X184308077Y-90845844D01*
X184282822Y-90889198D01*
X184243847Y-90785607D01*
X184223404Y-90734375D01*
X184197989Y-90675534D01*
X184168877Y-90611588D01*
X184137341Y-90545037D01*
X184104658Y-90478382D01*
X184072103Y-90414126D01*
X184040949Y-90354768D01*
X184012473Y-90302811D01*
X183987950Y-90260756D01*
X183968654Y-90231104D01*
X183955860Y-90216357D01*
X183953081Y-90215178D01*
X183946335Y-90223572D01*
X183931854Y-90246847D01*
X183911309Y-90282146D01*
X183886370Y-90326609D01*
X183863609Y-90368281D01*
X183826856Y-90436074D01*
X183787446Y-90508307D01*
X183746579Y-90582820D01*
X183705455Y-90657458D01*
X183665274Y-90730062D01*
X183627236Y-90798475D01*
X183592542Y-90860539D01*
X183562392Y-90914098D01*
X183537986Y-90956993D01*
X183520524Y-90987067D01*
X183511207Y-91002163D01*
X183510350Y-91003281D01*
X183509653Y-90998874D01*
X183514990Y-90979080D01*
X183525345Y-90947314D01*
X183535701Y-90917945D01*
X183560852Y-90848839D01*
X183588809Y-90772605D01*
X183618773Y-90691372D01*
X183649946Y-90607267D01*
X183681528Y-90522420D01*
X183712720Y-90438958D01*
X183742723Y-90359010D01*
X183770739Y-90284705D01*
X183795966Y-90218170D01*
X183817608Y-90161535D01*
X183834864Y-90116927D01*
X183846936Y-90086475D01*
X183853024Y-90072307D01*
X183853455Y-90071613D01*
X183861923Y-90075539D01*
X183877805Y-90093113D01*
X183898061Y-90120842D01*
X183903705Y-90129340D01*
X183924646Y-90160290D01*
X183941714Y-90183329D01*
X183951855Y-90194390D01*
X183952899Y-90194812D01*
X183959255Y-90186266D01*
X183973546Y-90162483D01*
X183994341Y-90125993D01*
X184020212Y-90079322D01*
X184049730Y-90024996D01*
X184064664Y-89997148D01*
X184099835Y-89931663D01*
X184141945Y-89853853D01*
X184188151Y-89768931D01*
X184235615Y-89682110D01*
X184281494Y-89598602D01*
X184309343Y-89548166D01*
X184349768Y-89475007D01*
X184397255Y-89388862D01*
X184449250Y-89294376D01*
X184503202Y-89196191D01*
X184556558Y-89098949D01*
X184606766Y-89007295D01*
X184624269Y-88975297D01*
X184705620Y-88827700D01*
X184785524Y-88685022D01*
X184863118Y-88548716D01*
X184937536Y-88420233D01*
X185007911Y-88301026D01*
X185073379Y-88192547D01*
X185133074Y-88096248D01*
X185186131Y-88013581D01*
X185231683Y-87945998D01*
X185266089Y-87898561D01*
X185314284Y-87840448D01*
X185357268Y-87798666D01*
X185394327Y-87773611D01*
X185424750Y-87765683D01*
X185447825Y-87775278D01*
X185458547Y-87791105D01*
X185468486Y-87817923D01*
X185470196Y-87833690D01*
X185464540Y-87835795D01*
X185452379Y-87821630D01*
X185449813Y-87817557D01*
X185430440Y-87794026D01*
X185412440Y-87787450D01*
X185412202Y-87787492D01*
X185393334Y-87799535D01*
X185367203Y-87829608D01*
X185334126Y-87877147D01*
X185294420Y-87941588D01*
X185248404Y-88022369D01*
X185196393Y-88118925D01*
X185138707Y-88230694D01*
X185075662Y-88357113D01*
X185007576Y-88497616D01*
X184983278Y-88548617D01*
X184959348Y-88599608D01*
X184930141Y-88662769D01*
X184896391Y-88736448D01*
X184858833Y-88818993D01*
X184818202Y-88908752D01*
X184775233Y-89004073D01*
X184730660Y-89103302D01*
X184685220Y-89204789D01*
X184639646Y-89306880D01*
X184594674Y-89407923D01*
X184551038Y-89506266D01*
X184509474Y-89600257D01*
X184470715Y-89688244D01*
X184435499Y-89768573D01*
X184404558Y-89839594D01*
X184378628Y-89899653D01*
X184358444Y-89947099D01*
X184344741Y-89980279D01*
X184338254Y-89997541D01*
X184337874Y-89999666D01*
X184344020Y-89992482D01*
X184359760Y-89970835D01*
X184383536Y-89936958D01*
X184413791Y-89893087D01*
X184448968Y-89841456D01*
X184476285Y-89801006D01*
X184521822Y-89733757D01*
X184575733Y-89654848D01*
X184636643Y-89566245D01*
X184703175Y-89469915D01*
X184773953Y-89367824D01*
X184847602Y-89261937D01*
X184922745Y-89154222D01*
X184998006Y-89046642D01*
X185072009Y-88941166D01*
X185143378Y-88839758D01*
X185210736Y-88744385D01*
X185272709Y-88657013D01*
X185327919Y-88579608D01*
X185374991Y-88514135D01*
X185412548Y-88462562D01*
X185423143Y-88448222D01*
X185606410Y-88204530D01*
X185781183Y-87978455D01*
X185947843Y-87769603D01*
X186106766Y-87577578D01*
X186258334Y-87401985D01*
X186402924Y-87242429D01*
X186540915Y-87098515D01*
X186672686Y-86969847D01*
X186798617Y-86856031D01*
X186919087Y-86756671D01*
X187034473Y-86671373D01*
X187145156Y-86599741D01*
X187251514Y-86541379D01*
X187252214Y-86541032D01*
X187331495Y-86503195D01*
X187398971Y-86474791D01*
X187459587Y-86454175D01*
X187518283Y-86439703D01*
X187580003Y-86429731D01*
X187590606Y-86428429D01*
X187662700Y-86423964D01*
X187734611Y-86426769D01*
G36*
X108126503Y-87102748D02*
X108496357Y-87118804D01*
X108847788Y-87144379D01*
X109165021Y-87178730D01*
X109432281Y-87221112D01*
X109633794Y-87270783D01*
X109753785Y-87327000D01*
X109769825Y-87342778D01*
X109793145Y-87416969D01*
X109819016Y-87570301D01*
X109845493Y-87780416D01*
X109870631Y-88024955D01*
X109892484Y-88281559D01*
X109909107Y-88527869D01*
X109918556Y-88741527D01*
X109918884Y-88900173D01*
X109911524Y-88971479D01*
X109848577Y-89080421D01*
X109746192Y-89106062D01*
X109620164Y-89050375D01*
X109488865Y-88918697D01*
X109270419Y-88645971D01*
X109081958Y-88442834D01*
X108901030Y-88291855D01*
X108705182Y-88175601D01*
X108471960Y-88076640D01*
X108347698Y-88032720D01*
X108038429Y-87954985D01*
X107687729Y-87922996D01*
X107594400Y-87921433D01*
X107154355Y-87950364D01*
X106782896Y-88040022D01*
X106484416Y-88187366D01*
X106263312Y-88389352D01*
X106123978Y-88642939D01*
X106070809Y-88945086D01*
X106070400Y-88976199D01*
X106083824Y-89159825D01*
X106129733Y-89324211D01*
X106216583Y-89476291D01*
X106352828Y-89622997D01*
X106546924Y-89771263D01*
X106807326Y-89928021D01*
X107142490Y-90100206D01*
X107560870Y-90294749D01*
X107816867Y-90408252D01*
X108214837Y-90584175D01*
X108532937Y-90729354D01*
X108785275Y-90851659D01*
X108985958Y-90958957D01*
X109149094Y-91059116D01*
X109288790Y-91160004D01*
X109419153Y-91269490D01*
X109508394Y-91351662D01*
X109771389Y-91600129D01*
X109570711Y-91862964D01*
X109355289Y-92225597D01*
X109224604Y-92626323D01*
X109178117Y-93048002D01*
X109215291Y-93473492D01*
X109335590Y-93885651D01*
X109538476Y-94267336D01*
X109650773Y-94417578D01*
X109781145Y-94575756D01*
X109440818Y-94894115D01*
X109071155Y-95184440D01*
X108633472Y-95435618D01*
X108158866Y-95630828D01*
X107975400Y-95686807D01*
X107764633Y-95727487D01*
X107477669Y-95758794D01*
X107139520Y-95780231D01*
X106775200Y-95791298D01*
X106409723Y-95791497D01*
X106068103Y-95780329D01*
X105775353Y-95757296D01*
X105613200Y-95733901D01*
X105359006Y-95680830D01*
X105073850Y-95613195D01*
X104845089Y-95552681D01*
X104457978Y-95442835D01*
X104317150Y-94585645D01*
X104262303Y-94238386D01*
X104228552Y-93978920D01*
X104217339Y-93795358D01*
X104230105Y-93675813D01*
X104268290Y-93608396D01*
X104333337Y-93581220D01*
X104426687Y-93582396D01*
X104438624Y-93583731D01*
X104527130Y-93617133D01*
X104615424Y-93707067D01*
X104720291Y-93871442D01*
X104738585Y-93903800D01*
X104909570Y-94178590D01*
X105086894Y-94388371D01*
X105301392Y-94566734D01*
X105421596Y-94647841D01*
X105818769Y-94846595D01*
X106263851Y-94961851D01*
X106724652Y-94996000D01*
X107207730Y-94965661D01*
X107613591Y-94873458D01*
X107946947Y-94717611D01*
X108212512Y-94496340D01*
X108288789Y-94405113D01*
X108362742Y-94296183D01*
X108408372Y-94186488D01*
X108434162Y-94044083D01*
X108448598Y-93837024D01*
X108450379Y-93796768D01*
X108455685Y-93574185D01*
X108445428Y-93419331D01*
X108414332Y-93298860D01*
X108357121Y-93179421D01*
X108350986Y-93168429D01*
X108249650Y-93025581D01*
X108104861Y-92889070D01*
X107905311Y-92751885D01*
X107639693Y-92607017D01*
X107296700Y-92447456D01*
X106954404Y-92302633D01*
X106536262Y-92129562D01*
X106199093Y-91985302D01*
X105929060Y-91862143D01*
X105712325Y-91752379D01*
X105535052Y-91648300D01*
X105383403Y-91542198D01*
X105243542Y-91426365D01*
X105101630Y-91293093D01*
X105049426Y-91241410D01*
X104786165Y-90949147D01*
X104601083Y-90666430D01*
X104478917Y-90362916D01*
X104404403Y-90008262D01*
X104395464Y-89941400D01*
X104380555Y-89448592D01*
X104459844Y-88987081D01*
X104629380Y-88561901D01*
X104885214Y-88178086D01*
X105223395Y-87840673D01*
X105639974Y-87554695D01*
X106131001Y-87325187D01*
X106553000Y-87191247D01*
X106778349Y-87148566D01*
X107064149Y-87119118D01*
X107394624Y-87102162D01*
X107754001Y-87096953D01*
X108126503Y-87102748D01*
X108126503Y-87102748D01*
G37*
X108126503Y-87102748D02*
X108496357Y-87118804D01*
X108847788Y-87144379D01*
X109165021Y-87178730D01*
X109432281Y-87221112D01*
X109633794Y-87270783D01*
X109753785Y-87327000D01*
X109769825Y-87342778D01*
X109793145Y-87416969D01*
X109819016Y-87570301D01*
X109845493Y-87780416D01*
X109870631Y-88024955D01*
X109892484Y-88281559D01*
X109909107Y-88527869D01*
X109918556Y-88741527D01*
X109918884Y-88900173D01*
X109911524Y-88971479D01*
X109848577Y-89080421D01*
X109746192Y-89106062D01*
X109620164Y-89050375D01*
X109488865Y-88918697D01*
X109270419Y-88645971D01*
X109081958Y-88442834D01*
X108901030Y-88291855D01*
X108705182Y-88175601D01*
X108471960Y-88076640D01*
X108347698Y-88032720D01*
X108038429Y-87954985D01*
X107687729Y-87922996D01*
X107594400Y-87921433D01*
X107154355Y-87950364D01*
X106782896Y-88040022D01*
X106484416Y-88187366D01*
X106263312Y-88389352D01*
X106123978Y-88642939D01*
X106070809Y-88945086D01*
X106070400Y-88976199D01*
X106083824Y-89159825D01*
X106129733Y-89324211D01*
X106216583Y-89476291D01*
X106352828Y-89622997D01*
X106546924Y-89771263D01*
X106807326Y-89928021D01*
X107142490Y-90100206D01*
X107560870Y-90294749D01*
X107816867Y-90408252D01*
X108214837Y-90584175D01*
X108532937Y-90729354D01*
X108785275Y-90851659D01*
X108985958Y-90958957D01*
X109149094Y-91059116D01*
X109288790Y-91160004D01*
X109419153Y-91269490D01*
X109508394Y-91351662D01*
X109771389Y-91600129D01*
X109570711Y-91862964D01*
X109355289Y-92225597D01*
X109224604Y-92626323D01*
X109178117Y-93048002D01*
X109215291Y-93473492D01*
X109335590Y-93885651D01*
X109538476Y-94267336D01*
X109650773Y-94417578D01*
X109781145Y-94575756D01*
X109440818Y-94894115D01*
X109071155Y-95184440D01*
X108633472Y-95435618D01*
X108158866Y-95630828D01*
X107975400Y-95686807D01*
X107764633Y-95727487D01*
X107477669Y-95758794D01*
X107139520Y-95780231D01*
X106775200Y-95791298D01*
X106409723Y-95791497D01*
X106068103Y-95780329D01*
X105775353Y-95757296D01*
X105613200Y-95733901D01*
X105359006Y-95680830D01*
X105073850Y-95613195D01*
X104845089Y-95552681D01*
X104457978Y-95442835D01*
X104317150Y-94585645D01*
X104262303Y-94238386D01*
X104228552Y-93978920D01*
X104217339Y-93795358D01*
X104230105Y-93675813D01*
X104268290Y-93608396D01*
X104333337Y-93581220D01*
X104426687Y-93582396D01*
X104438624Y-93583731D01*
X104527130Y-93617133D01*
X104615424Y-93707067D01*
X104720291Y-93871442D01*
X104738585Y-93903800D01*
X104909570Y-94178590D01*
X105086894Y-94388371D01*
X105301392Y-94566734D01*
X105421596Y-94647841D01*
X105818769Y-94846595D01*
X106263851Y-94961851D01*
X106724652Y-94996000D01*
X107207730Y-94965661D01*
X107613591Y-94873458D01*
X107946947Y-94717611D01*
X108212512Y-94496340D01*
X108288789Y-94405113D01*
X108362742Y-94296183D01*
X108408372Y-94186488D01*
X108434162Y-94044083D01*
X108448598Y-93837024D01*
X108450379Y-93796768D01*
X108455685Y-93574185D01*
X108445428Y-93419331D01*
X108414332Y-93298860D01*
X108357121Y-93179421D01*
X108350986Y-93168429D01*
X108249650Y-93025581D01*
X108104861Y-92889070D01*
X107905311Y-92751885D01*
X107639693Y-92607017D01*
X107296700Y-92447456D01*
X106954404Y-92302633D01*
X106536262Y-92129562D01*
X106199093Y-91985302D01*
X105929060Y-91862143D01*
X105712325Y-91752379D01*
X105535052Y-91648300D01*
X105383403Y-91542198D01*
X105243542Y-91426365D01*
X105101630Y-91293093D01*
X105049426Y-91241410D01*
X104786165Y-90949147D01*
X104601083Y-90666430D01*
X104478917Y-90362916D01*
X104404403Y-90008262D01*
X104395464Y-89941400D01*
X104380555Y-89448592D01*
X104459844Y-88987081D01*
X104629380Y-88561901D01*
X104885214Y-88178086D01*
X105223395Y-87840673D01*
X105639974Y-87554695D01*
X106131001Y-87325187D01*
X106553000Y-87191247D01*
X106778349Y-87148566D01*
X107064149Y-87119118D01*
X107394624Y-87102162D01*
X107754001Y-87096953D01*
X108126503Y-87102748D01*
G36*
X115693387Y-87235945D02*
X119099377Y-87249000D01*
X119235246Y-88087200D01*
X119287619Y-88421194D01*
X119320204Y-88668252D01*
X119331847Y-88841314D01*
X119321397Y-88953320D01*
X119287703Y-89017208D01*
X119229611Y-89045920D01*
X119149323Y-89052400D01*
X119025891Y-89002364D01*
X118930142Y-88887300D01*
X118724062Y-88626236D01*
X118461297Y-88396215D01*
X118186200Y-88233953D01*
X118046744Y-88181581D01*
X117889795Y-88144780D01*
X117690418Y-88119695D01*
X117423680Y-88102472D01*
X117302258Y-88097294D01*
X116672317Y-88072894D01*
X116708468Y-91318547D01*
X116715894Y-91974513D01*
X116722666Y-92536706D01*
X116729090Y-93012948D01*
X116735478Y-93411061D01*
X116742137Y-93738866D01*
X116749377Y-94004187D01*
X116757507Y-94214845D01*
X116766836Y-94378662D01*
X116777673Y-94503460D01*
X116790328Y-94597061D01*
X116805109Y-94667289D01*
X116822325Y-94721963D01*
X116842286Y-94768907D01*
X116845046Y-94774739D01*
X116937448Y-94923536D01*
X117061414Y-95022410D01*
X117243749Y-95088173D01*
X117393958Y-95119016D01*
X117581326Y-95175438D01*
X117680836Y-95268616D01*
X117703600Y-95373060D01*
X117701628Y-95430957D01*
X117689547Y-95478347D01*
X117658111Y-95516281D01*
X117598073Y-95545811D01*
X117500185Y-95567990D01*
X117355200Y-95583869D01*
X117153872Y-95594501D01*
X116886953Y-95600938D01*
X116545195Y-95604232D01*
X116119353Y-95605435D01*
X115659845Y-95605600D01*
X115156605Y-95605087D01*
X114745969Y-95603329D01*
X114418945Y-95599993D01*
X114166542Y-95594747D01*
X113979767Y-95587261D01*
X113849628Y-95577202D01*
X113767134Y-95564238D01*
X113723293Y-95548039D01*
X113710417Y-95533691D01*
X113695366Y-95431598D01*
X113699311Y-95317791D01*
X113717292Y-95236118D01*
X113764345Y-95184556D01*
X113865159Y-95147407D01*
X114020287Y-95113711D01*
X114206080Y-95066633D01*
X114352327Y-94999439D01*
X114463598Y-94900587D01*
X114544465Y-94758533D01*
X114599498Y-94561735D01*
X114633269Y-94298651D01*
X114650348Y-93957737D01*
X114655306Y-93527452D01*
X114655316Y-93510100D01*
X114657560Y-93158945D01*
X114664394Y-92901271D01*
X114676350Y-92729039D01*
X114693959Y-92634210D01*
X114714924Y-92608400D01*
X114783174Y-92631338D01*
X114917138Y-92692883D01*
X115093815Y-92782126D01*
X115197041Y-92837000D01*
X115391890Y-92937169D01*
X115561584Y-93015028D01*
X115680913Y-93059429D01*
X115714043Y-93065600D01*
X115847392Y-93018365D01*
X115946258Y-92882134D01*
X116005719Y-92665116D01*
X116017176Y-92560188D01*
X115992305Y-92226421D01*
X115876503Y-91900503D01*
X115680110Y-91598486D01*
X115413465Y-91336419D01*
X115100440Y-91137043D01*
X114932518Y-91058462D01*
X114793424Y-91002903D01*
X114715812Y-90982800D01*
X114693737Y-90972420D01*
X114676977Y-90934265D01*
X114665196Y-90857806D01*
X114658058Y-90732517D01*
X114655225Y-90547873D01*
X114656361Y-90293345D01*
X114661128Y-89958407D01*
X114669191Y-89532534D01*
X114669276Y-89528289D01*
X114698700Y-88073779D01*
X114077262Y-88097719D01*
X113793903Y-88111584D01*
X113585662Y-88130763D01*
X113426061Y-88159735D01*
X113288622Y-88202983D01*
X113179412Y-88249674D01*
X112907631Y-88400221D01*
X112694675Y-88583152D01*
X112502221Y-88831631D01*
X112495864Y-88841199D01*
X112370243Y-88993905D01*
X112256557Y-89051614D01*
X112242069Y-89052400D01*
X112159707Y-89045328D01*
X112102496Y-89015542D01*
X112069274Y-88950189D01*
X112058883Y-88836412D01*
X112070161Y-88661356D01*
X112101950Y-88412168D01*
X112153088Y-88075991D01*
X112153640Y-88072484D01*
X112287397Y-87222891D01*
X115693387Y-87235945D01*
X115693387Y-87235945D01*
G37*
X115693387Y-87235945D02*
X119099377Y-87249000D01*
X119235246Y-88087200D01*
X119287619Y-88421194D01*
X119320204Y-88668252D01*
X119331847Y-88841314D01*
X119321397Y-88953320D01*
X119287703Y-89017208D01*
X119229611Y-89045920D01*
X119149323Y-89052400D01*
X119025891Y-89002364D01*
X118930142Y-88887300D01*
X118724062Y-88626236D01*
X118461297Y-88396215D01*
X118186200Y-88233953D01*
X118046744Y-88181581D01*
X117889795Y-88144780D01*
X117690418Y-88119695D01*
X117423680Y-88102472D01*
X117302258Y-88097294D01*
X116672317Y-88072894D01*
X116708468Y-91318547D01*
X116715894Y-91974513D01*
X116722666Y-92536706D01*
X116729090Y-93012948D01*
X116735478Y-93411061D01*
X116742137Y-93738866D01*
X116749377Y-94004187D01*
X116757507Y-94214845D01*
X116766836Y-94378662D01*
X116777673Y-94503460D01*
X116790328Y-94597061D01*
X116805109Y-94667289D01*
X116822325Y-94721963D01*
X116842286Y-94768907D01*
X116845046Y-94774739D01*
X116937448Y-94923536D01*
X117061414Y-95022410D01*
X117243749Y-95088173D01*
X117393958Y-95119016D01*
X117581326Y-95175438D01*
X117680836Y-95268616D01*
X117703600Y-95373060D01*
X117701628Y-95430957D01*
X117689547Y-95478347D01*
X117658111Y-95516281D01*
X117598073Y-95545811D01*
X117500185Y-95567990D01*
X117355200Y-95583869D01*
X117153872Y-95594501D01*
X116886953Y-95600938D01*
X116545195Y-95604232D01*
X116119353Y-95605435D01*
X115659845Y-95605600D01*
X115156605Y-95605087D01*
X114745969Y-95603329D01*
X114418945Y-95599993D01*
X114166542Y-95594747D01*
X113979767Y-95587261D01*
X113849628Y-95577202D01*
X113767134Y-95564238D01*
X113723293Y-95548039D01*
X113710417Y-95533691D01*
X113695366Y-95431598D01*
X113699311Y-95317791D01*
X113717292Y-95236118D01*
X113764345Y-95184556D01*
X113865159Y-95147407D01*
X114020287Y-95113711D01*
X114206080Y-95066633D01*
X114352327Y-94999439D01*
X114463598Y-94900587D01*
X114544465Y-94758533D01*
X114599498Y-94561735D01*
X114633269Y-94298651D01*
X114650348Y-93957737D01*
X114655306Y-93527452D01*
X114655316Y-93510100D01*
X114657560Y-93158945D01*
X114664394Y-92901271D01*
X114676350Y-92729039D01*
X114693959Y-92634210D01*
X114714924Y-92608400D01*
X114783174Y-92631338D01*
X114917138Y-92692883D01*
X115093815Y-92782126D01*
X115197041Y-92837000D01*
X115391890Y-92937169D01*
X115561584Y-93015028D01*
X115680913Y-93059429D01*
X115714043Y-93065600D01*
X115847392Y-93018365D01*
X115946258Y-92882134D01*
X116005719Y-92665116D01*
X116017176Y-92560188D01*
X115992305Y-92226421D01*
X115876503Y-91900503D01*
X115680110Y-91598486D01*
X115413465Y-91336419D01*
X115100440Y-91137043D01*
X114932518Y-91058462D01*
X114793424Y-91002903D01*
X114715812Y-90982800D01*
X114693737Y-90972420D01*
X114676977Y-90934265D01*
X114665196Y-90857806D01*
X114658058Y-90732517D01*
X114655225Y-90547873D01*
X114656361Y-90293345D01*
X114661128Y-89958407D01*
X114669191Y-89532534D01*
X114669276Y-89528289D01*
X114698700Y-88073779D01*
X114077262Y-88097719D01*
X113793903Y-88111584D01*
X113585662Y-88130763D01*
X113426061Y-88159735D01*
X113288622Y-88202983D01*
X113179412Y-88249674D01*
X112907631Y-88400221D01*
X112694675Y-88583152D01*
X112502221Y-88831631D01*
X112495864Y-88841199D01*
X112370243Y-88993905D01*
X112256557Y-89051614D01*
X112242069Y-89052400D01*
X112159707Y-89045328D01*
X112102496Y-89015542D01*
X112069274Y-88950189D01*
X112058883Y-88836412D01*
X112070161Y-88661356D01*
X112101950Y-88412168D01*
X112153088Y-88075991D01*
X112153640Y-88072484D01*
X112287397Y-87222891D01*
X115693387Y-87235945D01*
G36*
X111833230Y-89569400D02*
X112106689Y-89613195D01*
X112362303Y-89701523D01*
X112573343Y-89822038D01*
X112713077Y-89962394D01*
X112724357Y-89980999D01*
X112771646Y-90083732D01*
X112758659Y-90151661D01*
X112712530Y-90204441D01*
X112653790Y-90253344D01*
X112592143Y-90262010D01*
X112494862Y-90227966D01*
X112394154Y-90180372D01*
X112231984Y-90113846D01*
X112085496Y-90073732D01*
X112035518Y-90068399D01*
X111819794Y-90112471D01*
X111645746Y-90230686D01*
X111530010Y-90402043D01*
X111489223Y-90605544D01*
X111507725Y-90734616D01*
X111558164Y-90841915D01*
X111659061Y-91004266D01*
X111795422Y-91199012D01*
X111940816Y-91389200D01*
X112132363Y-91630043D01*
X112271212Y-91800883D01*
X112370000Y-91909525D01*
X112441363Y-91963773D01*
X112497937Y-91971431D01*
X112552361Y-91940303D01*
X112617268Y-91878195D01*
X112661408Y-91834249D01*
X112815482Y-91709499D01*
X113013417Y-91581956D01*
X113157000Y-91506154D01*
X113325888Y-91434133D01*
X113477099Y-91391154D01*
X113648447Y-91370165D01*
X113877743Y-91364117D01*
X113919000Y-91364062D01*
X114296659Y-91383506D01*
X114605456Y-91447417D01*
X114871767Y-91564883D01*
X115121972Y-91744993D01*
X115184105Y-91799965D01*
X115326639Y-91949346D01*
X115452469Y-92114994D01*
X115548722Y-92275110D01*
X115602523Y-92407891D01*
X115601001Y-92491536D01*
X115596082Y-92497651D01*
X115540992Y-92489050D01*
X115421244Y-92440101D01*
X115260463Y-92360735D01*
X115223440Y-92340995D01*
X115017618Y-92240865D01*
X114798390Y-92152128D01*
X114588200Y-92081735D01*
X114409489Y-92036638D01*
X114284699Y-92023790D01*
X114242108Y-92037006D01*
X114230987Y-92096474D01*
X114219845Y-92243023D01*
X114209301Y-92462134D01*
X114199973Y-92739289D01*
X114192481Y-93059969D01*
X114188874Y-93285981D01*
X114173000Y-94496963D01*
X114024122Y-94624939D01*
X113898208Y-94711123D01*
X113768546Y-94734150D01*
X113673424Y-94725845D01*
X113500089Y-94679927D01*
X113343524Y-94603510D01*
X113328750Y-94593160D01*
X113185897Y-94487544D01*
X112802761Y-94616158D01*
X112554246Y-94681692D01*
X112256350Y-94733378D01*
X111943298Y-94767756D01*
X111649316Y-94781367D01*
X111408630Y-94770751D01*
X111353600Y-94762630D01*
X110870708Y-94645601D01*
X110475567Y-94485839D01*
X110162687Y-94280976D01*
X110091763Y-94217778D01*
X109871581Y-93947123D01*
X109724160Y-93636255D01*
X109647344Y-93301636D01*
X109638976Y-92959728D01*
X109672925Y-92764708D01*
X110780011Y-92764708D01*
X110834158Y-93168505D01*
X110985004Y-93543867D01*
X111101051Y-93728038D01*
X111237139Y-93867403D01*
X111433679Y-94007704D01*
X111652649Y-94124864D01*
X111827664Y-94188181D01*
X112020151Y-94212173D01*
X112257636Y-94207909D01*
X112488477Y-94178502D01*
X112631589Y-94139768D01*
X112680572Y-94118309D01*
X112704092Y-94091899D01*
X112694122Y-94049165D01*
X112642633Y-93978734D01*
X112541599Y-93869234D01*
X112382992Y-93709291D01*
X112199789Y-93528025D01*
X111968129Y-93291868D01*
X111730500Y-93036930D01*
X111511574Y-92790468D01*
X111336023Y-92579737D01*
X111302800Y-92537131D01*
X111165009Y-92360608D01*
X111106326Y-92288660D01*
X112659854Y-92288660D01*
X112951749Y-92613630D01*
X113109358Y-92785789D01*
X113263202Y-92948302D01*
X113384651Y-93071039D01*
X113403522Y-93089093D01*
X113563400Y-93239587D01*
X113577914Y-92685958D01*
X113581721Y-92454437D01*
X113580748Y-92258035D01*
X113575367Y-92120571D01*
X113568264Y-92069358D01*
X113532663Y-92038534D01*
X113446969Y-92037164D01*
X113290637Y-92065839D01*
X113232697Y-92079032D01*
X113043470Y-92129247D01*
X112876370Y-92183933D01*
X112790574Y-92220169D01*
X112659854Y-92288660D01*
X111106326Y-92288660D01*
X111049093Y-92218491D01*
X110969105Y-92127623D01*
X110940663Y-92103154D01*
X110889642Y-92145438D01*
X110842356Y-92264608D01*
X110804799Y-92435976D01*
X110782968Y-92634854D01*
X110780011Y-92764708D01*
X109672925Y-92764708D01*
X109696899Y-92626993D01*
X109818957Y-92319893D01*
X110002992Y-92054889D01*
X110246849Y-91848444D01*
X110413433Y-91762604D01*
X110546041Y-91702180D01*
X110628622Y-91653215D01*
X110642209Y-91636957D01*
X110623132Y-91576383D01*
X110573957Y-91454924D01*
X110531461Y-91357557D01*
X110445733Y-91073148D01*
X110419756Y-90761671D01*
X110453568Y-90461309D01*
X110530369Y-90241246D01*
X110726340Y-89964094D01*
X110990652Y-89755006D01*
X111310900Y-89620379D01*
X111674681Y-89566608D01*
X111833230Y-89569400D01*
X111833230Y-89569400D01*
G37*
X111833230Y-89569400D02*
X112106689Y-89613195D01*
X112362303Y-89701523D01*
X112573343Y-89822038D01*
X112713077Y-89962394D01*
X112724357Y-89980999D01*
X112771646Y-90083732D01*
X112758659Y-90151661D01*
X112712530Y-90204441D01*
X112653790Y-90253344D01*
X112592143Y-90262010D01*
X112494862Y-90227966D01*
X112394154Y-90180372D01*
X112231984Y-90113846D01*
X112085496Y-90073732D01*
X112035518Y-90068399D01*
X111819794Y-90112471D01*
X111645746Y-90230686D01*
X111530010Y-90402043D01*
X111489223Y-90605544D01*
X111507725Y-90734616D01*
X111558164Y-90841915D01*
X111659061Y-91004266D01*
X111795422Y-91199012D01*
X111940816Y-91389200D01*
X112132363Y-91630043D01*
X112271212Y-91800883D01*
X112370000Y-91909525D01*
X112441363Y-91963773D01*
X112497937Y-91971431D01*
X112552361Y-91940303D01*
X112617268Y-91878195D01*
X112661408Y-91834249D01*
X112815482Y-91709499D01*
X113013417Y-91581956D01*
X113157000Y-91506154D01*
X113325888Y-91434133D01*
X113477099Y-91391154D01*
X113648447Y-91370165D01*
X113877743Y-91364117D01*
X113919000Y-91364062D01*
X114296659Y-91383506D01*
X114605456Y-91447417D01*
X114871767Y-91564883D01*
X115121972Y-91744993D01*
X115184105Y-91799965D01*
X115326639Y-91949346D01*
X115452469Y-92114994D01*
X115548722Y-92275110D01*
X115602523Y-92407891D01*
X115601001Y-92491536D01*
X115596082Y-92497651D01*
X115540992Y-92489050D01*
X115421244Y-92440101D01*
X115260463Y-92360735D01*
X115223440Y-92340995D01*
X115017618Y-92240865D01*
X114798390Y-92152128D01*
X114588200Y-92081735D01*
X114409489Y-92036638D01*
X114284699Y-92023790D01*
X114242108Y-92037006D01*
X114230987Y-92096474D01*
X114219845Y-92243023D01*
X114209301Y-92462134D01*
X114199973Y-92739289D01*
X114192481Y-93059969D01*
X114188874Y-93285981D01*
X114173000Y-94496963D01*
X114024122Y-94624939D01*
X113898208Y-94711123D01*
X113768546Y-94734150D01*
X113673424Y-94725845D01*
X113500089Y-94679927D01*
X113343524Y-94603510D01*
X113328750Y-94593160D01*
X113185897Y-94487544D01*
X112802761Y-94616158D01*
X112554246Y-94681692D01*
X112256350Y-94733378D01*
X111943298Y-94767756D01*
X111649316Y-94781367D01*
X111408630Y-94770751D01*
X111353600Y-94762630D01*
X110870708Y-94645601D01*
X110475567Y-94485839D01*
X110162687Y-94280976D01*
X110091763Y-94217778D01*
X109871581Y-93947123D01*
X109724160Y-93636255D01*
X109647344Y-93301636D01*
X109638976Y-92959728D01*
X109672925Y-92764708D01*
X110780011Y-92764708D01*
X110834158Y-93168505D01*
X110985004Y-93543867D01*
X111101051Y-93728038D01*
X111237139Y-93867403D01*
X111433679Y-94007704D01*
X111652649Y-94124864D01*
X111827664Y-94188181D01*
X112020151Y-94212173D01*
X112257636Y-94207909D01*
X112488477Y-94178502D01*
X112631589Y-94139768D01*
X112680572Y-94118309D01*
X112704092Y-94091899D01*
X112694122Y-94049165D01*
X112642633Y-93978734D01*
X112541599Y-93869234D01*
X112382992Y-93709291D01*
X112199789Y-93528025D01*
X111968129Y-93291868D01*
X111730500Y-93036930D01*
X111511574Y-92790468D01*
X111336023Y-92579737D01*
X111302800Y-92537131D01*
X111165009Y-92360608D01*
X111106326Y-92288660D01*
X112659854Y-92288660D01*
X112951749Y-92613630D01*
X113109358Y-92785789D01*
X113263202Y-92948302D01*
X113384651Y-93071039D01*
X113403522Y-93089093D01*
X113563400Y-93239587D01*
X113577914Y-92685958D01*
X113581721Y-92454437D01*
X113580748Y-92258035D01*
X113575367Y-92120571D01*
X113568264Y-92069358D01*
X113532663Y-92038534D01*
X113446969Y-92037164D01*
X113290637Y-92065839D01*
X113232697Y-92079032D01*
X113043470Y-92129247D01*
X112876370Y-92183933D01*
X112790574Y-92220169D01*
X112659854Y-92288660D01*
X111106326Y-92288660D01*
X111049093Y-92218491D01*
X110969105Y-92127623D01*
X110940663Y-92103154D01*
X110889642Y-92145438D01*
X110842356Y-92264608D01*
X110804799Y-92435976D01*
X110782968Y-92634854D01*
X110780011Y-92764708D01*
X109672925Y-92764708D01*
X109696899Y-92626993D01*
X109818957Y-92319893D01*
X110002992Y-92054889D01*
X110246849Y-91848444D01*
X110413433Y-91762604D01*
X110546041Y-91702180D01*
X110628622Y-91653215D01*
X110642209Y-91636957D01*
X110623132Y-91576383D01*
X110573957Y-91454924D01*
X110531461Y-91357557D01*
X110445733Y-91073148D01*
X110419756Y-90761671D01*
X110453568Y-90461309D01*
X110530369Y-90241246D01*
X110726340Y-89964094D01*
X110990652Y-89755006D01*
X111310900Y-89620379D01*
X111674681Y-89566608D01*
X111833230Y-89569400D01*
G04 #@! TD*
M02*
