G04 #@! TF.GenerationSoftware,KiCad,Pcbnew,(5.0.2)-1*
G04 #@! TF.CreationDate,2019-07-27T15:32:46-05:00*
G04 #@! TF.ProjectId,BusinessCards,42757369-6e65-4737-9343-617264732e6b,rev?*
G04 #@! TF.SameCoordinates,Original*
G04 #@! TF.FileFunction,Legend,Bot*
G04 #@! TF.FilePolarity,Positive*
%FSLAX46Y46*%
G04 Gerber Fmt 4.6, Leading zero omitted, Abs format (unit mm)*
G04 Created by KiCad (PCBNEW (5.0.2)-1) date 7/27/2019 3:32:46 PM*
%MOMM*%
%LPD*%
G01*
G04 APERTURE LIST*
%ADD10C,0.300000*%
%ADD11C,0.120000*%
%ADD12C,0.150000*%
G04 APERTURE END LIST*
D10*
X143240000Y-57598571D02*
X142954285Y-57598571D01*
X142811428Y-57670000D01*
X142668571Y-57812857D01*
X142597142Y-58098571D01*
X142597142Y-58598571D01*
X142668571Y-58884285D01*
X142811428Y-59027142D01*
X142954285Y-59098571D01*
X143240000Y-59098571D01*
X143382857Y-59027142D01*
X143525714Y-58884285D01*
X143597142Y-58598571D01*
X143597142Y-58098571D01*
X143525714Y-57812857D01*
X143382857Y-57670000D01*
X143240000Y-57598571D01*
X142168571Y-58098571D02*
X141597142Y-58098571D01*
X141954285Y-59098571D02*
X141954285Y-57812857D01*
X141882857Y-57670000D01*
X141740000Y-57598571D01*
X141597142Y-57598571D01*
X141311428Y-58098571D02*
X140740000Y-58098571D01*
X141097142Y-59098571D02*
X141097142Y-57812857D01*
X141025714Y-57670000D01*
X140882857Y-57598571D01*
X140740000Y-57598571D01*
X150681428Y-57598571D02*
X150395714Y-57598571D01*
X150252857Y-57670000D01*
X150110000Y-57812857D01*
X150038571Y-58098571D01*
X150038571Y-58598571D01*
X150110000Y-58884285D01*
X150252857Y-59027142D01*
X150395714Y-59098571D01*
X150681428Y-59098571D01*
X150824285Y-59027142D01*
X150967142Y-58884285D01*
X151038571Y-58598571D01*
X151038571Y-58098571D01*
X150967142Y-57812857D01*
X150824285Y-57670000D01*
X150681428Y-57598571D01*
X149395714Y-58098571D02*
X149395714Y-59098571D01*
X149395714Y-58241428D02*
X149324285Y-58170000D01*
X149181428Y-58098571D01*
X148967142Y-58098571D01*
X148824285Y-58170000D01*
X148752857Y-58312857D01*
X148752857Y-59098571D01*
X154459285Y-65332142D02*
X154245000Y-65403571D01*
X153887857Y-65403571D01*
X153745000Y-65332142D01*
X153673571Y-65260714D01*
X153602142Y-65117857D01*
X153602142Y-64975000D01*
X153673571Y-64832142D01*
X153745000Y-64760714D01*
X153887857Y-64689285D01*
X154173571Y-64617857D01*
X154316428Y-64546428D01*
X154387857Y-64475000D01*
X154459285Y-64332142D01*
X154459285Y-64189285D01*
X154387857Y-64046428D01*
X154316428Y-63975000D01*
X154173571Y-63903571D01*
X153816428Y-63903571D01*
X153602142Y-63975000D01*
X153102142Y-63903571D02*
X152745000Y-65403571D01*
X152459285Y-64332142D01*
X152173571Y-65403571D01*
X151816428Y-63903571D01*
X150459285Y-65403571D02*
X151316428Y-65403571D01*
X150887857Y-65403571D02*
X150887857Y-63903571D01*
X151030714Y-64117857D01*
X151173571Y-64260714D01*
X151316428Y-64332142D01*
X148673571Y-64832142D02*
X147530714Y-64832142D01*
X145387857Y-63903571D02*
X145102142Y-63903571D01*
X144959285Y-63975000D01*
X144816428Y-64117857D01*
X144745000Y-64403571D01*
X144745000Y-64903571D01*
X144816428Y-65189285D01*
X144959285Y-65332142D01*
X145102142Y-65403571D01*
X145387857Y-65403571D01*
X145530714Y-65332142D01*
X145673571Y-65189285D01*
X145745000Y-64903571D01*
X145745000Y-64403571D01*
X145673571Y-64117857D01*
X145530714Y-63975000D01*
X145387857Y-63903571D01*
X144173571Y-65332142D02*
X143959285Y-65403571D01*
X143602142Y-65403571D01*
X143459285Y-65332142D01*
X143387857Y-65260714D01*
X143316428Y-65117857D01*
X143316428Y-64975000D01*
X143387857Y-64832142D01*
X143459285Y-64760714D01*
X143602142Y-64689285D01*
X143887857Y-64617857D01*
X144030714Y-64546428D01*
X144102142Y-64475000D01*
X144173571Y-64332142D01*
X144173571Y-64189285D01*
X144102142Y-64046428D01*
X144030714Y-63975000D01*
X143887857Y-63903571D01*
X143530714Y-63903571D01*
X143316428Y-63975000D01*
X141887857Y-65403571D02*
X142745000Y-65403571D01*
X142316428Y-65403571D02*
X142316428Y-63903571D01*
X142459285Y-64117857D01*
X142602142Y-64260714D01*
X142745000Y-64332142D01*
X140959285Y-63903571D02*
X140816428Y-63903571D01*
X140673571Y-63975000D01*
X140602142Y-64046428D01*
X140530714Y-64189285D01*
X140459285Y-64475000D01*
X140459285Y-64832142D01*
X140530714Y-65117857D01*
X140602142Y-65260714D01*
X140673571Y-65332142D01*
X140816428Y-65403571D01*
X140959285Y-65403571D01*
X141102142Y-65332142D01*
X141173571Y-65260714D01*
X141245000Y-65117857D01*
X141316428Y-64832142D01*
X141316428Y-64475000D01*
X141245000Y-64189285D01*
X141173571Y-64046428D01*
X141102142Y-63975000D01*
X140959285Y-63903571D01*
X139887857Y-64046428D02*
X139816428Y-63975000D01*
X139673571Y-63903571D01*
X139316428Y-63903571D01*
X139173571Y-63975000D01*
X139102142Y-64046428D01*
X139030714Y-64189285D01*
X139030714Y-64332142D01*
X139102142Y-64546428D01*
X139959285Y-65403571D01*
X139030714Y-65403571D01*
X138102142Y-63903571D02*
X137959285Y-63903571D01*
X137816428Y-63975000D01*
X137745000Y-64046428D01*
X137673571Y-64189285D01*
X137602142Y-64475000D01*
X137602142Y-64832142D01*
X137673571Y-65117857D01*
X137745000Y-65260714D01*
X137816428Y-65332142D01*
X137959285Y-65403571D01*
X138102142Y-65403571D01*
X138245000Y-65332142D01*
X138316428Y-65260714D01*
X138387857Y-65117857D01*
X138459285Y-64832142D01*
X138459285Y-64475000D01*
X138387857Y-64189285D01*
X138316428Y-64046428D01*
X138245000Y-63975000D01*
X138102142Y-63903571D01*
X136173571Y-65403571D02*
X137030714Y-65403571D01*
X136602142Y-65403571D02*
X136602142Y-63903571D01*
X136745000Y-64117857D01*
X136887857Y-64260714D01*
X137030714Y-64332142D01*
X134745000Y-65403571D02*
X135602142Y-65403571D01*
X135173571Y-65403571D02*
X135173571Y-63903571D01*
X135316428Y-64117857D01*
X135459285Y-64260714D01*
X135602142Y-64332142D01*
X134102142Y-65403571D02*
X134102142Y-63903571D01*
X133602142Y-64975000D01*
X133102142Y-63903571D01*
X133102142Y-65403571D01*
X132459285Y-64975000D02*
X131745000Y-64975000D01*
X132602142Y-65403571D02*
X132102142Y-63903571D01*
X131602142Y-65403571D01*
X130316428Y-65403571D02*
X131173571Y-65403571D01*
X130745000Y-65403571D02*
X130745000Y-63903571D01*
X130887857Y-64117857D01*
X131030714Y-64260714D01*
X131173571Y-64332142D01*
X128673571Y-65546428D02*
X128816428Y-65475000D01*
X128959285Y-65332142D01*
X129173571Y-65117857D01*
X129316428Y-65046428D01*
X129459285Y-65046428D01*
X129387857Y-65403571D02*
X129530714Y-65332142D01*
X129673571Y-65189285D01*
X129745000Y-64903571D01*
X129745000Y-64403571D01*
X129673571Y-64117857D01*
X129530714Y-63975000D01*
X129387857Y-63903571D01*
X129102142Y-63903571D01*
X128959285Y-63975000D01*
X128816428Y-64117857D01*
X128745000Y-64403571D01*
X128745000Y-64903571D01*
X128816428Y-65189285D01*
X128959285Y-65332142D01*
X129102142Y-65403571D01*
X129387857Y-65403571D01*
X128102142Y-65403571D02*
X128102142Y-63903571D01*
X127245000Y-65403571D01*
X127245000Y-63903571D01*
X125745000Y-65403571D02*
X126602142Y-65403571D01*
X126173571Y-65403571D02*
X126173571Y-63903571D01*
X126316428Y-64117857D01*
X126459285Y-64260714D01*
X126602142Y-64332142D01*
X153887857Y-67167857D02*
X153673571Y-67239285D01*
X153602142Y-67310714D01*
X153530714Y-67453571D01*
X153530714Y-67667857D01*
X153602142Y-67810714D01*
X153673571Y-67882142D01*
X153816428Y-67953571D01*
X154387857Y-67953571D01*
X154387857Y-66453571D01*
X153887857Y-66453571D01*
X153745000Y-66525000D01*
X153673571Y-66596428D01*
X153602142Y-66739285D01*
X153602142Y-66882142D01*
X153673571Y-67025000D01*
X153745000Y-67096428D01*
X153887857Y-67167857D01*
X154387857Y-67167857D01*
X153102142Y-66453571D02*
X152245000Y-66453571D01*
X152673571Y-67953571D02*
X152673571Y-66453571D01*
X150959285Y-67953571D02*
X151816428Y-67953571D01*
X151387857Y-67953571D02*
X151387857Y-66453571D01*
X151530714Y-66667857D01*
X151673571Y-66810714D01*
X151816428Y-66882142D01*
X149173571Y-67382142D02*
X148030714Y-67382142D01*
X146173571Y-67953571D02*
X146173571Y-66453571D01*
X145316428Y-67953571D02*
X145959285Y-67096428D01*
X145316428Y-66453571D02*
X146173571Y-67310714D01*
X144102142Y-67882142D02*
X144245000Y-67953571D01*
X144530714Y-67953571D01*
X144673571Y-67882142D01*
X144745000Y-67739285D01*
X144745000Y-67167857D01*
X144673571Y-67025000D01*
X144530714Y-66953571D01*
X144245000Y-66953571D01*
X144102142Y-67025000D01*
X144030714Y-67167857D01*
X144030714Y-67310714D01*
X144745000Y-67453571D01*
X143530714Y-66953571D02*
X143173571Y-67953571D01*
X142816428Y-66953571D02*
X143173571Y-67953571D01*
X143316428Y-68310714D01*
X143387857Y-68382142D01*
X143530714Y-68453571D01*
X142316428Y-67882142D02*
X142173571Y-67953571D01*
X141887857Y-67953571D01*
X141745000Y-67882142D01*
X141673571Y-67739285D01*
X141673571Y-67667857D01*
X141745000Y-67525000D01*
X141887857Y-67453571D01*
X142102142Y-67453571D01*
X142245000Y-67382142D01*
X142316428Y-67239285D01*
X142316428Y-67167857D01*
X142245000Y-67025000D01*
X142102142Y-66953571D01*
X141887857Y-66953571D01*
X141745000Y-67025000D01*
X141245000Y-66953571D02*
X140673571Y-66953571D01*
X141030714Y-66453571D02*
X141030714Y-67739285D01*
X140959285Y-67882142D01*
X140816428Y-67953571D01*
X140673571Y-67953571D01*
X139959285Y-67953571D02*
X140102142Y-67882142D01*
X140173571Y-67810714D01*
X140245000Y-67667857D01*
X140245000Y-67239285D01*
X140173571Y-67096428D01*
X140102142Y-67025000D01*
X139959285Y-66953571D01*
X139745000Y-66953571D01*
X139602142Y-67025000D01*
X139530714Y-67096428D01*
X139459285Y-67239285D01*
X139459285Y-67667857D01*
X139530714Y-67810714D01*
X139602142Y-67882142D01*
X139745000Y-67953571D01*
X139959285Y-67953571D01*
X138816428Y-66953571D02*
X138816428Y-67953571D01*
X138816428Y-67096428D02*
X138745000Y-67025000D01*
X138602142Y-66953571D01*
X138387857Y-66953571D01*
X138245000Y-67025000D01*
X138173571Y-67167857D01*
X138173571Y-67953571D01*
X136887857Y-67882142D02*
X137030714Y-67953571D01*
X137316428Y-67953571D01*
X137459285Y-67882142D01*
X137530714Y-67739285D01*
X137530714Y-67167857D01*
X137459285Y-67025000D01*
X137316428Y-66953571D01*
X137030714Y-66953571D01*
X136887857Y-67025000D01*
X136816428Y-67167857D01*
X136816428Y-67310714D01*
X137530714Y-67453571D01*
X134245000Y-67953571D02*
X135102142Y-67953571D01*
X134673571Y-67953571D02*
X134673571Y-66453571D01*
X134816428Y-66667857D01*
X134959285Y-66810714D01*
X135102142Y-66882142D01*
X133673571Y-66596428D02*
X133602142Y-66525000D01*
X133459285Y-66453571D01*
X133102142Y-66453571D01*
X132959285Y-66525000D01*
X132887857Y-66596428D01*
X132816428Y-66739285D01*
X132816428Y-66882142D01*
X132887857Y-67096428D01*
X133745000Y-67953571D01*
X132816428Y-67953571D01*
X132102142Y-67953571D02*
X131816428Y-67953571D01*
X131673571Y-67882142D01*
X131602142Y-67810714D01*
X131459285Y-67596428D01*
X131387857Y-67310714D01*
X131387857Y-66739285D01*
X131459285Y-66596428D01*
X131530714Y-66525000D01*
X131673571Y-66453571D01*
X131959285Y-66453571D01*
X132102142Y-66525000D01*
X132173571Y-66596428D01*
X132245000Y-66739285D01*
X132245000Y-67096428D01*
X132173571Y-67239285D01*
X132102142Y-67310714D01*
X131959285Y-67382142D01*
X131673571Y-67382142D01*
X131530714Y-67310714D01*
X131459285Y-67239285D01*
X131387857Y-67096428D01*
X130102142Y-66953571D02*
X130102142Y-67953571D01*
X130459285Y-66382142D02*
X130816428Y-67453571D01*
X129887857Y-67453571D01*
X153530714Y-70360714D02*
X153602142Y-70432142D01*
X153816428Y-70503571D01*
X153959285Y-70503571D01*
X154173571Y-70432142D01*
X154316428Y-70289285D01*
X154387857Y-70146428D01*
X154459285Y-69860714D01*
X154459285Y-69646428D01*
X154387857Y-69360714D01*
X154316428Y-69217857D01*
X154173571Y-69075000D01*
X153959285Y-69003571D01*
X153816428Y-69003571D01*
X153602142Y-69075000D01*
X153530714Y-69146428D01*
X152673571Y-70503571D02*
X152816428Y-70432142D01*
X152887857Y-70360714D01*
X152959285Y-70217857D01*
X152959285Y-69789285D01*
X152887857Y-69646428D01*
X152816428Y-69575000D01*
X152673571Y-69503571D01*
X152459285Y-69503571D01*
X152316428Y-69575000D01*
X152245000Y-69646428D01*
X152173571Y-69789285D01*
X152173571Y-70217857D01*
X152245000Y-70360714D01*
X152316428Y-70432142D01*
X152459285Y-70503571D01*
X152673571Y-70503571D01*
X151530714Y-69503571D02*
X151530714Y-70503571D01*
X151530714Y-69646428D02*
X151459285Y-69575000D01*
X151316428Y-69503571D01*
X151102142Y-69503571D01*
X150959285Y-69575000D01*
X150887857Y-69717857D01*
X150887857Y-70503571D01*
X150173571Y-69503571D02*
X150173571Y-70503571D01*
X150173571Y-69646428D02*
X150102142Y-69575000D01*
X149959285Y-69503571D01*
X149745000Y-69503571D01*
X149602142Y-69575000D01*
X149530714Y-69717857D01*
X149530714Y-70503571D01*
X148030714Y-70503571D02*
X148887857Y-70503571D01*
X148459285Y-70503571D02*
X148459285Y-69003571D01*
X148602142Y-69217857D01*
X148745000Y-69360714D01*
X148887857Y-69432142D01*
X146245000Y-69932142D02*
X145102142Y-69932142D01*
X143030714Y-69646428D02*
X143173571Y-69575000D01*
X143245000Y-69503571D01*
X143316428Y-69360714D01*
X143316428Y-69289285D01*
X143245000Y-69146428D01*
X143173571Y-69075000D01*
X143030714Y-69003571D01*
X142745000Y-69003571D01*
X142602142Y-69075000D01*
X142530714Y-69146428D01*
X142459285Y-69289285D01*
X142459285Y-69360714D01*
X142530714Y-69503571D01*
X142602142Y-69575000D01*
X142745000Y-69646428D01*
X143030714Y-69646428D01*
X143173571Y-69717857D01*
X143245000Y-69789285D01*
X143316428Y-69932142D01*
X143316428Y-70217857D01*
X143245000Y-70360714D01*
X143173571Y-70432142D01*
X143030714Y-70503571D01*
X142745000Y-70503571D01*
X142602142Y-70432142D01*
X142530714Y-70360714D01*
X142459285Y-70217857D01*
X142459285Y-69932142D01*
X142530714Y-69789285D01*
X142602142Y-69717857D01*
X142745000Y-69646428D01*
X141959285Y-69003571D02*
X140959285Y-69003571D01*
X141602142Y-70503571D01*
X139673571Y-69003571D02*
X140387857Y-69003571D01*
X140459285Y-69717857D01*
X140387857Y-69646428D01*
X140245000Y-69575000D01*
X139887857Y-69575000D01*
X139745000Y-69646428D01*
X139673571Y-69717857D01*
X139602142Y-69860714D01*
X139602142Y-70217857D01*
X139673571Y-70360714D01*
X139745000Y-70432142D01*
X139887857Y-70503571D01*
X140245000Y-70503571D01*
X140387857Y-70432142D01*
X140459285Y-70360714D01*
X138745000Y-69646428D02*
X138887857Y-69575000D01*
X138959285Y-69503571D01*
X139030714Y-69360714D01*
X139030714Y-69289285D01*
X138959285Y-69146428D01*
X138887857Y-69075000D01*
X138745000Y-69003571D01*
X138459285Y-69003571D01*
X138316428Y-69075000D01*
X138245000Y-69146428D01*
X138173571Y-69289285D01*
X138173571Y-69360714D01*
X138245000Y-69503571D01*
X138316428Y-69575000D01*
X138459285Y-69646428D01*
X138745000Y-69646428D01*
X138887857Y-69717857D01*
X138959285Y-69789285D01*
X139030714Y-69932142D01*
X139030714Y-70217857D01*
X138959285Y-70360714D01*
X138887857Y-70432142D01*
X138745000Y-70503571D01*
X138459285Y-70503571D01*
X138316428Y-70432142D01*
X138245000Y-70360714D01*
X138173571Y-70217857D01*
X138173571Y-69932142D01*
X138245000Y-69789285D01*
X138316428Y-69717857D01*
X138459285Y-69646428D01*
X137673571Y-69003571D02*
X136745000Y-69003571D01*
X137245000Y-69575000D01*
X137030714Y-69575000D01*
X136887857Y-69646428D01*
X136816428Y-69717857D01*
X136745000Y-69860714D01*
X136745000Y-70217857D01*
X136816428Y-70360714D01*
X136887857Y-70432142D01*
X137030714Y-70503571D01*
X137459285Y-70503571D01*
X137602142Y-70432142D01*
X137673571Y-70360714D01*
X136102142Y-69932142D02*
X134959285Y-69932142D01*
X134387857Y-69003571D02*
X133459285Y-69003571D01*
X133959285Y-69575000D01*
X133744999Y-69575000D01*
X133602142Y-69646428D01*
X133530714Y-69717857D01*
X133459285Y-69860714D01*
X133459285Y-70217857D01*
X133530714Y-70360714D01*
X133602142Y-70432142D01*
X133744999Y-70503571D01*
X134173571Y-70503571D01*
X134316428Y-70432142D01*
X134387857Y-70360714D01*
X132530714Y-69003571D02*
X132387857Y-69003571D01*
X132244999Y-69075000D01*
X132173571Y-69146428D01*
X132102142Y-69289285D01*
X132030714Y-69575000D01*
X132030714Y-69932142D01*
X132102142Y-70217857D01*
X132173571Y-70360714D01*
X132244999Y-70432142D01*
X132387857Y-70503571D01*
X132530714Y-70503571D01*
X132673571Y-70432142D01*
X132744999Y-70360714D01*
X132816428Y-70217857D01*
X132887857Y-69932142D01*
X132887857Y-69575000D01*
X132816428Y-69289285D01*
X132744999Y-69146428D01*
X132673571Y-69075000D01*
X132530714Y-69003571D01*
X130602142Y-70503571D02*
X131459285Y-70503571D01*
X131030714Y-70503571D02*
X131030714Y-69003571D01*
X131173571Y-69217857D01*
X131316428Y-69360714D01*
X131459285Y-69432142D01*
X129673571Y-69003571D02*
X129530714Y-69003571D01*
X129387857Y-69075000D01*
X129316428Y-69146428D01*
X129244999Y-69289285D01*
X129173571Y-69575000D01*
X129173571Y-69932142D01*
X129244999Y-70217857D01*
X129316428Y-70360714D01*
X129387857Y-70432142D01*
X129530714Y-70503571D01*
X129673571Y-70503571D01*
X129816428Y-70432142D01*
X129887857Y-70360714D01*
X129959285Y-70217857D01*
X130030714Y-69932142D01*
X130030714Y-69575000D01*
X129959285Y-69289285D01*
X129887857Y-69146428D01*
X129816428Y-69075000D01*
X129673571Y-69003571D01*
X127673571Y-70503571D02*
X128173571Y-69789285D01*
X128530714Y-70503571D02*
X128530714Y-69003571D01*
X127959285Y-69003571D01*
X127816428Y-69075000D01*
X127744999Y-69146428D01*
X127673571Y-69289285D01*
X127673571Y-69503571D01*
X127744999Y-69646428D01*
X127816428Y-69717857D01*
X127959285Y-69789285D01*
X128530714Y-69789285D01*
X127030714Y-70503571D02*
X127030714Y-69003571D01*
X126459285Y-69003571D01*
X126316428Y-69075000D01*
X126244999Y-69146428D01*
X126173571Y-69289285D01*
X126173571Y-69503571D01*
X126244999Y-69646428D01*
X126316428Y-69717857D01*
X126459285Y-69789285D01*
X127030714Y-69789285D01*
X125602142Y-70075000D02*
X124887857Y-70075000D01*
X125744999Y-70503571D02*
X125244999Y-69003571D01*
X124744999Y-70503571D01*
X123530714Y-70503571D02*
X124244999Y-70503571D01*
X124244999Y-69003571D01*
X122530714Y-69717857D02*
X123030714Y-69717857D01*
X123030714Y-70503571D02*
X123030714Y-69003571D01*
X122316428Y-69003571D01*
X154387857Y-71553571D02*
X154387857Y-72767857D01*
X154316428Y-72910714D01*
X154245000Y-72982142D01*
X154102142Y-73053571D01*
X153816428Y-73053571D01*
X153673571Y-72982142D01*
X153602142Y-72910714D01*
X153530714Y-72767857D01*
X153530714Y-71553571D01*
X152030714Y-73053571D02*
X152887857Y-73053571D01*
X152459285Y-73053571D02*
X152459285Y-71553571D01*
X152602142Y-71767857D01*
X152745000Y-71910714D01*
X152887857Y-71982142D01*
X150245000Y-72482142D02*
X149102142Y-72482142D01*
X146530714Y-73053571D02*
X147245000Y-73053571D01*
X147245000Y-71553571D01*
X146173571Y-71553571D02*
X145173571Y-71553571D01*
X145816428Y-73053571D01*
X144387857Y-72196428D02*
X144530714Y-72125000D01*
X144602142Y-72053571D01*
X144673571Y-71910714D01*
X144673571Y-71839285D01*
X144602142Y-71696428D01*
X144530714Y-71625000D01*
X144387857Y-71553571D01*
X144102142Y-71553571D01*
X143959285Y-71625000D01*
X143887857Y-71696428D01*
X143816428Y-71839285D01*
X143816428Y-71910714D01*
X143887857Y-72053571D01*
X143959285Y-72125000D01*
X144102142Y-72196428D01*
X144387857Y-72196428D01*
X144530714Y-72267857D01*
X144602142Y-72339285D01*
X144673571Y-72482142D01*
X144673571Y-72767857D01*
X144602142Y-72910714D01*
X144530714Y-72982142D01*
X144387857Y-73053571D01*
X144102142Y-73053571D01*
X143959285Y-72982142D01*
X143887857Y-72910714D01*
X143816428Y-72767857D01*
X143816428Y-72482142D01*
X143887857Y-72339285D01*
X143959285Y-72267857D01*
X144102142Y-72196428D01*
X142887857Y-71553571D02*
X142745000Y-71553571D01*
X142602142Y-71625000D01*
X142530714Y-71696428D01*
X142459285Y-71839285D01*
X142387857Y-72125000D01*
X142387857Y-72482142D01*
X142459285Y-72767857D01*
X142530714Y-72910714D01*
X142602142Y-72982142D01*
X142745000Y-73053571D01*
X142887857Y-73053571D01*
X143030714Y-72982142D01*
X143102142Y-72910714D01*
X143173571Y-72767857D01*
X143245000Y-72482142D01*
X143245000Y-72125000D01*
X143173571Y-71839285D01*
X143102142Y-71696428D01*
X143030714Y-71625000D01*
X142887857Y-71553571D01*
X141030714Y-71553571D02*
X141745000Y-71553571D01*
X141816428Y-72267857D01*
X141745000Y-72196428D01*
X141602142Y-72125000D01*
X141245000Y-72125000D01*
X141102142Y-72196428D01*
X141030714Y-72267857D01*
X140959285Y-72410714D01*
X140959285Y-72767857D01*
X141030714Y-72910714D01*
X141102142Y-72982142D01*
X141245000Y-73053571D01*
X141602142Y-73053571D01*
X141745000Y-72982142D01*
X141816428Y-72910714D01*
X139459285Y-72910714D02*
X139530714Y-72982142D01*
X139745000Y-73053571D01*
X139887857Y-73053571D01*
X140102142Y-72982142D01*
X140245000Y-72839285D01*
X140316428Y-72696428D01*
X140387857Y-72410714D01*
X140387857Y-72196428D01*
X140316428Y-71910714D01*
X140245000Y-71767857D01*
X140102142Y-71625000D01*
X139887857Y-71553571D01*
X139745000Y-71553571D01*
X139530714Y-71625000D01*
X139459285Y-71696428D01*
X139030714Y-71553571D02*
X138530714Y-73053571D01*
X138030714Y-71553571D01*
X153530714Y-78010714D02*
X153602142Y-78082142D01*
X153816428Y-78153571D01*
X153959285Y-78153571D01*
X154173571Y-78082142D01*
X154316428Y-77939285D01*
X154387857Y-77796428D01*
X154459285Y-77510714D01*
X154459285Y-77296428D01*
X154387857Y-77010714D01*
X154316428Y-76867857D01*
X154173571Y-76725000D01*
X153959285Y-76653571D01*
X153816428Y-76653571D01*
X153602142Y-76725000D01*
X153530714Y-76796428D01*
X152102142Y-78153571D02*
X152959285Y-78153571D01*
X152530714Y-78153571D02*
X152530714Y-76653571D01*
X152673571Y-76867857D01*
X152816428Y-77010714D01*
X152959285Y-77082142D01*
X151387857Y-78082142D02*
X151387857Y-78153571D01*
X151459285Y-78296428D01*
X151530714Y-78367857D01*
X148745000Y-78010714D02*
X148816428Y-78082142D01*
X149030714Y-78153571D01*
X149173571Y-78153571D01*
X149387857Y-78082142D01*
X149530714Y-77939285D01*
X149602142Y-77796428D01*
X149673571Y-77510714D01*
X149673571Y-77296428D01*
X149602142Y-77010714D01*
X149530714Y-76867857D01*
X149387857Y-76725000D01*
X149173571Y-76653571D01*
X149030714Y-76653571D01*
X148816428Y-76725000D01*
X148745000Y-76796428D01*
X148173571Y-76796428D02*
X148102142Y-76725000D01*
X147959285Y-76653571D01*
X147602142Y-76653571D01*
X147459285Y-76725000D01*
X147387857Y-76796428D01*
X147316428Y-76939285D01*
X147316428Y-77082142D01*
X147387857Y-77296428D01*
X148245000Y-78153571D01*
X147316428Y-78153571D01*
X145530714Y-77582142D02*
X144387857Y-77582142D01*
X141745000Y-78153571D02*
X142602142Y-78153571D01*
X142173571Y-78153571D02*
X142173571Y-76653571D01*
X142316428Y-76867857D01*
X142459285Y-77010714D01*
X142602142Y-77082142D01*
X140816428Y-76653571D02*
X140673571Y-76653571D01*
X140530714Y-76725000D01*
X140459285Y-76796428D01*
X140387857Y-76939285D01*
X140316428Y-77225000D01*
X140316428Y-77582142D01*
X140387857Y-77867857D01*
X140459285Y-78010714D01*
X140530714Y-78082142D01*
X140673571Y-78153571D01*
X140816428Y-78153571D01*
X140959285Y-78082142D01*
X141030714Y-78010714D01*
X141102142Y-77867857D01*
X141173571Y-77582142D01*
X141173571Y-77225000D01*
X141102142Y-76939285D01*
X141030714Y-76796428D01*
X140959285Y-76725000D01*
X140816428Y-76653571D01*
X139030714Y-77153571D02*
X139030714Y-78153571D01*
X139673571Y-77153571D02*
X139673571Y-77939285D01*
X139602142Y-78082142D01*
X139459285Y-78153571D01*
X139245000Y-78153571D01*
X139102142Y-78082142D01*
X139030714Y-78010714D01*
X137816428Y-77367857D02*
X138316428Y-77367857D01*
X138316428Y-78153571D02*
X138316428Y-76653571D01*
X137602142Y-76653571D01*
X136959285Y-78082142D02*
X136959285Y-78153571D01*
X137030714Y-78296428D01*
X137102142Y-78367857D01*
X134887857Y-76653571D02*
X134745000Y-76653571D01*
X134602142Y-76725000D01*
X134530714Y-76796428D01*
X134459285Y-76939285D01*
X134387857Y-77225000D01*
X134387857Y-77582142D01*
X134459285Y-77867857D01*
X134530714Y-78010714D01*
X134602142Y-78082142D01*
X134745000Y-78153571D01*
X134887857Y-78153571D01*
X135030714Y-78082142D01*
X135102142Y-78010714D01*
X135173571Y-77867857D01*
X135245000Y-77582142D01*
X135245000Y-77225000D01*
X135173571Y-76939285D01*
X135102142Y-76796428D01*
X135030714Y-76725000D01*
X134887857Y-76653571D01*
X133102142Y-76653571D02*
X133387857Y-76653571D01*
X133530714Y-76725000D01*
X133602142Y-76796428D01*
X133745000Y-77010714D01*
X133816428Y-77296428D01*
X133816428Y-77867857D01*
X133745000Y-78010714D01*
X133673571Y-78082142D01*
X133530714Y-78153571D01*
X133245000Y-78153571D01*
X133102142Y-78082142D01*
X133030714Y-78010714D01*
X132959285Y-77867857D01*
X132959285Y-77510714D01*
X133030714Y-77367857D01*
X133102142Y-77296428D01*
X133245000Y-77225000D01*
X133530714Y-77225000D01*
X133673571Y-77296428D01*
X133745000Y-77367857D01*
X133816428Y-77510714D01*
X132030714Y-76653571D02*
X131887857Y-76653571D01*
X131745000Y-76725000D01*
X131673571Y-76796428D01*
X131602142Y-76939285D01*
X131530714Y-77225000D01*
X131530714Y-77582142D01*
X131602142Y-77867857D01*
X131673571Y-78010714D01*
X131745000Y-78082142D01*
X131887857Y-78153571D01*
X132030714Y-78153571D01*
X132173571Y-78082142D01*
X132245000Y-78010714D01*
X132316428Y-77867857D01*
X132387857Y-77582142D01*
X132387857Y-77225000D01*
X132316428Y-76939285D01*
X132245000Y-76796428D01*
X132173571Y-76725000D01*
X132030714Y-76653571D01*
X131030714Y-76653571D02*
X130102142Y-76653571D01*
X130602142Y-77225000D01*
X130387857Y-77225000D01*
X130245000Y-77296428D01*
X130173571Y-77367857D01*
X130102142Y-77510714D01*
X130102142Y-77867857D01*
X130173571Y-78010714D01*
X130245000Y-78082142D01*
X130387857Y-78153571D01*
X130816428Y-78153571D01*
X130959285Y-78082142D01*
X131030714Y-78010714D01*
X129387857Y-78082142D02*
X129387857Y-78153571D01*
X129459285Y-78296428D01*
X129530714Y-78367857D01*
X126816428Y-78153571D02*
X127673571Y-78153571D01*
X127245000Y-78153571D02*
X127245000Y-76653571D01*
X127387857Y-76867857D01*
X127530714Y-77010714D01*
X127673571Y-77082142D01*
X125530714Y-76653571D02*
X125816428Y-76653571D01*
X125959285Y-76725000D01*
X126030714Y-76796428D01*
X126173571Y-77010714D01*
X126245000Y-77296428D01*
X126245000Y-77867857D01*
X126173571Y-78010714D01*
X126102142Y-78082142D01*
X125959285Y-78153571D01*
X125673571Y-78153571D01*
X125530714Y-78082142D01*
X125459285Y-78010714D01*
X125387857Y-77867857D01*
X125387857Y-77510714D01*
X125459285Y-77367857D01*
X125530714Y-77296428D01*
X125673571Y-77225000D01*
X125959285Y-77225000D01*
X126102142Y-77296428D01*
X126173571Y-77367857D01*
X126245000Y-77510714D01*
X124959285Y-76653571D02*
X124459285Y-78153571D01*
X123959285Y-76653571D01*
X153530714Y-80703571D02*
X154030714Y-79989285D01*
X154387857Y-80703571D02*
X154387857Y-79203571D01*
X153816428Y-79203571D01*
X153673571Y-79275000D01*
X153602142Y-79346428D01*
X153530714Y-79489285D01*
X153530714Y-79703571D01*
X153602142Y-79846428D01*
X153673571Y-79917857D01*
X153816428Y-79989285D01*
X154387857Y-79989285D01*
X152102142Y-80703571D02*
X152959285Y-80703571D01*
X152530714Y-80703571D02*
X152530714Y-79203571D01*
X152673571Y-79417857D01*
X152816428Y-79560714D01*
X152959285Y-79632142D01*
X150316428Y-80132142D02*
X149173571Y-80132142D01*
X146673571Y-79703571D02*
X146673571Y-80703571D01*
X147030714Y-79132142D02*
X147387857Y-80203571D01*
X146459285Y-80203571D01*
X145816428Y-80703571D02*
X145530714Y-80703571D01*
X145387857Y-80632142D01*
X145316428Y-80560714D01*
X145173571Y-80346428D01*
X145102142Y-80060714D01*
X145102142Y-79489285D01*
X145173571Y-79346428D01*
X145245000Y-79275000D01*
X145387857Y-79203571D01*
X145673571Y-79203571D01*
X145816428Y-79275000D01*
X145887857Y-79346428D01*
X145959285Y-79489285D01*
X145959285Y-79846428D01*
X145887857Y-79989285D01*
X145816428Y-80060714D01*
X145673571Y-80132142D01*
X145387857Y-80132142D01*
X145245000Y-80060714D01*
X145173571Y-79989285D01*
X145102142Y-79846428D01*
X144387857Y-80703571D02*
X144102142Y-80703571D01*
X143959285Y-80632142D01*
X143887857Y-80560714D01*
X143745000Y-80346428D01*
X143673571Y-80060714D01*
X143673571Y-79489285D01*
X143745000Y-79346428D01*
X143816428Y-79275000D01*
X143959285Y-79203571D01*
X144245000Y-79203571D01*
X144387857Y-79275000D01*
X144459285Y-79346428D01*
X144530714Y-79489285D01*
X144530714Y-79846428D01*
X144459285Y-79989285D01*
X144387857Y-80060714D01*
X144245000Y-80132142D01*
X143959285Y-80132142D01*
X143816428Y-80060714D01*
X143745000Y-79989285D01*
X143673571Y-79846428D01*
X142959285Y-80632142D02*
X142959285Y-80703571D01*
X143030714Y-80846428D01*
X143102142Y-80917857D01*
X140887857Y-79203571D02*
X140745000Y-79203571D01*
X140602142Y-79275000D01*
X140530714Y-79346428D01*
X140459285Y-79489285D01*
X140387857Y-79775000D01*
X140387857Y-80132142D01*
X140459285Y-80417857D01*
X140530714Y-80560714D01*
X140602142Y-80632142D01*
X140745000Y-80703571D01*
X140887857Y-80703571D01*
X141030714Y-80632142D01*
X141102142Y-80560714D01*
X141173571Y-80417857D01*
X141245000Y-80132142D01*
X141245000Y-79775000D01*
X141173571Y-79489285D01*
X141102142Y-79346428D01*
X141030714Y-79275000D01*
X140887857Y-79203571D01*
X139102142Y-79203571D02*
X139387857Y-79203571D01*
X139530714Y-79275000D01*
X139602142Y-79346428D01*
X139745000Y-79560714D01*
X139816428Y-79846428D01*
X139816428Y-80417857D01*
X139745000Y-80560714D01*
X139673571Y-80632142D01*
X139530714Y-80703571D01*
X139245000Y-80703571D01*
X139102142Y-80632142D01*
X139030714Y-80560714D01*
X138959285Y-80417857D01*
X138959285Y-80060714D01*
X139030714Y-79917857D01*
X139102142Y-79846428D01*
X139245000Y-79775000D01*
X139530714Y-79775000D01*
X139673571Y-79846428D01*
X139745000Y-79917857D01*
X139816428Y-80060714D01*
X138030714Y-79203571D02*
X137887857Y-79203571D01*
X137745000Y-79275000D01*
X137673571Y-79346428D01*
X137602142Y-79489285D01*
X137530714Y-79775000D01*
X137530714Y-80132142D01*
X137602142Y-80417857D01*
X137673571Y-80560714D01*
X137745000Y-80632142D01*
X137887857Y-80703571D01*
X138030714Y-80703571D01*
X138173571Y-80632142D01*
X138245000Y-80560714D01*
X138316428Y-80417857D01*
X138387857Y-80132142D01*
X138387857Y-79775000D01*
X138316428Y-79489285D01*
X138245000Y-79346428D01*
X138173571Y-79275000D01*
X138030714Y-79203571D01*
X137030714Y-79203571D02*
X136102142Y-79203571D01*
X136602142Y-79775000D01*
X136387857Y-79775000D01*
X136245000Y-79846428D01*
X136173571Y-79917857D01*
X136102142Y-80060714D01*
X136102142Y-80417857D01*
X136173571Y-80560714D01*
X136245000Y-80632142D01*
X136387857Y-80703571D01*
X136816428Y-80703571D01*
X136959285Y-80632142D01*
X137030714Y-80560714D01*
X153530714Y-83253571D02*
X154030714Y-82539285D01*
X154387857Y-83253571D02*
X154387857Y-81753571D01*
X153816428Y-81753571D01*
X153673571Y-81825000D01*
X153602142Y-81896428D01*
X153530714Y-82039285D01*
X153530714Y-82253571D01*
X153602142Y-82396428D01*
X153673571Y-82467857D01*
X153816428Y-82539285D01*
X154387857Y-82539285D01*
X153030714Y-81753571D02*
X152102142Y-81753571D01*
X152602142Y-82325000D01*
X152387857Y-82325000D01*
X152245000Y-82396428D01*
X152173571Y-82467857D01*
X152102142Y-82610714D01*
X152102142Y-82967857D01*
X152173571Y-83110714D01*
X152245000Y-83182142D01*
X152387857Y-83253571D01*
X152816428Y-83253571D01*
X152959285Y-83182142D01*
X153030714Y-83110714D01*
X151387857Y-83182142D02*
X151387857Y-83253571D01*
X151459285Y-83396428D01*
X151530714Y-83467857D01*
X148745000Y-83253571D02*
X149245000Y-82539285D01*
X149602142Y-83253571D02*
X149602142Y-81753571D01*
X149030714Y-81753571D01*
X148887857Y-81825000D01*
X148816428Y-81896428D01*
X148745000Y-82039285D01*
X148745000Y-82253571D01*
X148816428Y-82396428D01*
X148887857Y-82467857D01*
X149030714Y-82539285D01*
X149602142Y-82539285D01*
X147387857Y-81753571D02*
X148102142Y-81753571D01*
X148173571Y-82467857D01*
X148102142Y-82396428D01*
X147959285Y-82325000D01*
X147602142Y-82325000D01*
X147459285Y-82396428D01*
X147387857Y-82467857D01*
X147316428Y-82610714D01*
X147316428Y-82967857D01*
X147387857Y-83110714D01*
X147459285Y-83182142D01*
X147602142Y-83253571D01*
X147959285Y-83253571D01*
X148102142Y-83182142D01*
X148173571Y-83110714D01*
X145530714Y-82682142D02*
X144387857Y-82682142D01*
X141887857Y-82253571D02*
X141887857Y-83253571D01*
X142245000Y-81682142D02*
X142602142Y-82753571D01*
X141673571Y-82753571D01*
X141102142Y-83110714D02*
X141030714Y-83182142D01*
X141102142Y-83253571D01*
X141173571Y-83182142D01*
X141102142Y-83110714D01*
X141102142Y-83253571D01*
X140316428Y-83253571D02*
X140030714Y-83253571D01*
X139887857Y-83182142D01*
X139816428Y-83110714D01*
X139673571Y-82896428D01*
X139602142Y-82610714D01*
X139602142Y-82039285D01*
X139673571Y-81896428D01*
X139745000Y-81825000D01*
X139887857Y-81753571D01*
X140173571Y-81753571D01*
X140316428Y-81825000D01*
X140387857Y-81896428D01*
X140459285Y-82039285D01*
X140459285Y-82396428D01*
X140387857Y-82539285D01*
X140316428Y-82610714D01*
X140173571Y-82682142D01*
X139887857Y-82682142D01*
X139745000Y-82610714D01*
X139673571Y-82539285D01*
X139602142Y-82396428D01*
X138887857Y-83253571D02*
X138602142Y-83253571D01*
X138459285Y-83182142D01*
X138387857Y-83110714D01*
X138245000Y-82896428D01*
X138173571Y-82610714D01*
X138173571Y-82039285D01*
X138245000Y-81896428D01*
X138316428Y-81825000D01*
X138459285Y-81753571D01*
X138745000Y-81753571D01*
X138887857Y-81825000D01*
X138959285Y-81896428D01*
X139030714Y-82039285D01*
X139030714Y-82396428D01*
X138959285Y-82539285D01*
X138887857Y-82610714D01*
X138745000Y-82682142D01*
X138459285Y-82682142D01*
X138316428Y-82610714D01*
X138245000Y-82539285D01*
X138173571Y-82396428D01*
X137530714Y-83253571D02*
X137530714Y-81753571D01*
X136673571Y-83253571D02*
X137316428Y-82396428D01*
X136673571Y-81753571D02*
X137530714Y-82610714D01*
X135959285Y-83182142D02*
X135959285Y-83253571D01*
X136030714Y-83396428D01*
X136102142Y-83467857D01*
X133887857Y-81753571D02*
X133745000Y-81753571D01*
X133602142Y-81825000D01*
X133530714Y-81896428D01*
X133459285Y-82039285D01*
X133387857Y-82325000D01*
X133387857Y-82682142D01*
X133459285Y-82967857D01*
X133530714Y-83110714D01*
X133602142Y-83182142D01*
X133745000Y-83253571D01*
X133887857Y-83253571D01*
X134030714Y-83182142D01*
X134102142Y-83110714D01*
X134173571Y-82967857D01*
X134245000Y-82682142D01*
X134245000Y-82325000D01*
X134173571Y-82039285D01*
X134102142Y-81896428D01*
X134030714Y-81825000D01*
X133887857Y-81753571D01*
X132102142Y-81753571D02*
X132387857Y-81753571D01*
X132530714Y-81825000D01*
X132602142Y-81896428D01*
X132745000Y-82110714D01*
X132816428Y-82396428D01*
X132816428Y-82967857D01*
X132745000Y-83110714D01*
X132673571Y-83182142D01*
X132530714Y-83253571D01*
X132245000Y-83253571D01*
X132102142Y-83182142D01*
X132030714Y-83110714D01*
X131959285Y-82967857D01*
X131959285Y-82610714D01*
X132030714Y-82467857D01*
X132102142Y-82396428D01*
X132245000Y-82325000D01*
X132530714Y-82325000D01*
X132673571Y-82396428D01*
X132745000Y-82467857D01*
X132816428Y-82610714D01*
X131030714Y-81753571D02*
X130887857Y-81753571D01*
X130745000Y-81825000D01*
X130673571Y-81896428D01*
X130602142Y-82039285D01*
X130530714Y-82325000D01*
X130530714Y-82682142D01*
X130602142Y-82967857D01*
X130673571Y-83110714D01*
X130745000Y-83182142D01*
X130887857Y-83253571D01*
X131030714Y-83253571D01*
X131173571Y-83182142D01*
X131245000Y-83110714D01*
X131316428Y-82967857D01*
X131387857Y-82682142D01*
X131387857Y-82325000D01*
X131316428Y-82039285D01*
X131245000Y-81896428D01*
X131173571Y-81825000D01*
X131030714Y-81753571D01*
X130030714Y-81753571D02*
X129102142Y-81753571D01*
X129602142Y-82325000D01*
X129387857Y-82325000D01*
X129245000Y-82396428D01*
X129173571Y-82467857D01*
X129102142Y-82610714D01*
X129102142Y-82967857D01*
X129173571Y-83110714D01*
X129245000Y-83182142D01*
X129387857Y-83253571D01*
X129816428Y-83253571D01*
X129959285Y-83182142D01*
X130030714Y-83110714D01*
X153530714Y-85803571D02*
X154030714Y-85089285D01*
X154387857Y-85803571D02*
X154387857Y-84303571D01*
X153816428Y-84303571D01*
X153673571Y-84375000D01*
X153602142Y-84446428D01*
X153530714Y-84589285D01*
X153530714Y-84803571D01*
X153602142Y-84946428D01*
X153673571Y-85017857D01*
X153816428Y-85089285D01*
X154387857Y-85089285D01*
X152959285Y-84446428D02*
X152887857Y-84375000D01*
X152745000Y-84303571D01*
X152387857Y-84303571D01*
X152245000Y-84375000D01*
X152173571Y-84446428D01*
X152102142Y-84589285D01*
X152102142Y-84732142D01*
X152173571Y-84946428D01*
X153030714Y-85803571D01*
X152102142Y-85803571D01*
X151387857Y-85732142D02*
X151387857Y-85803571D01*
X151459285Y-85946428D01*
X151530714Y-86017857D01*
X148745000Y-85803571D02*
X149245000Y-85089285D01*
X149602142Y-85803571D02*
X149602142Y-84303571D01*
X149030714Y-84303571D01*
X148887857Y-84375000D01*
X148816428Y-84446428D01*
X148745000Y-84589285D01*
X148745000Y-84803571D01*
X148816428Y-84946428D01*
X148887857Y-85017857D01*
X149030714Y-85089285D01*
X149602142Y-85089285D01*
X147459285Y-84803571D02*
X147459285Y-85803571D01*
X147816428Y-84232142D02*
X148173571Y-85303571D01*
X147245000Y-85303571D01*
X145530714Y-85232142D02*
X144387857Y-85232142D01*
X142673571Y-84303571D02*
X141673571Y-84303571D01*
X142316428Y-85803571D01*
X140387857Y-84303571D02*
X141102142Y-84303571D01*
X141173571Y-85017857D01*
X141102142Y-84946428D01*
X140959285Y-84875000D01*
X140602142Y-84875000D01*
X140459285Y-84946428D01*
X140387857Y-85017857D01*
X140316428Y-85160714D01*
X140316428Y-85517857D01*
X140387857Y-85660714D01*
X140459285Y-85732142D01*
X140602142Y-85803571D01*
X140959285Y-85803571D01*
X141102142Y-85732142D01*
X141173571Y-85660714D01*
X139673571Y-85803571D02*
X139673571Y-84303571D01*
X138816428Y-85803571D02*
X139459285Y-84946428D01*
X138816428Y-84303571D02*
X139673571Y-85160714D01*
X138102142Y-85732142D02*
X138102142Y-85803571D01*
X138173571Y-85946428D01*
X138245000Y-86017857D01*
X136030714Y-84303571D02*
X135887857Y-84303571D01*
X135745000Y-84375000D01*
X135673571Y-84446428D01*
X135602142Y-84589285D01*
X135530714Y-84875000D01*
X135530714Y-85232142D01*
X135602142Y-85517857D01*
X135673571Y-85660714D01*
X135745000Y-85732142D01*
X135887857Y-85803571D01*
X136030714Y-85803571D01*
X136173571Y-85732142D01*
X136245000Y-85660714D01*
X136316428Y-85517857D01*
X136387857Y-85232142D01*
X136387857Y-84875000D01*
X136316428Y-84589285D01*
X136245000Y-84446428D01*
X136173571Y-84375000D01*
X136030714Y-84303571D01*
X134245000Y-84303571D02*
X134530714Y-84303571D01*
X134673571Y-84375000D01*
X134745000Y-84446428D01*
X134887857Y-84660714D01*
X134959285Y-84946428D01*
X134959285Y-85517857D01*
X134887857Y-85660714D01*
X134816428Y-85732142D01*
X134673571Y-85803571D01*
X134387857Y-85803571D01*
X134245000Y-85732142D01*
X134173571Y-85660714D01*
X134102142Y-85517857D01*
X134102142Y-85160714D01*
X134173571Y-85017857D01*
X134245000Y-84946428D01*
X134387857Y-84875000D01*
X134673571Y-84875000D01*
X134816428Y-84946428D01*
X134887857Y-85017857D01*
X134959285Y-85160714D01*
X133173571Y-84303571D02*
X133030714Y-84303571D01*
X132887857Y-84375000D01*
X132816428Y-84446428D01*
X132745000Y-84589285D01*
X132673571Y-84875000D01*
X132673571Y-85232142D01*
X132745000Y-85517857D01*
X132816428Y-85660714D01*
X132887857Y-85732142D01*
X133030714Y-85803571D01*
X133173571Y-85803571D01*
X133316428Y-85732142D01*
X133387857Y-85660714D01*
X133459285Y-85517857D01*
X133530714Y-85232142D01*
X133530714Y-84875000D01*
X133459285Y-84589285D01*
X133387857Y-84446428D01*
X133316428Y-84375000D01*
X133173571Y-84303571D01*
X132173571Y-84303571D02*
X131245000Y-84303571D01*
X131745000Y-84875000D01*
X131530714Y-84875000D01*
X131387857Y-84946428D01*
X131316428Y-85017857D01*
X131245000Y-85160714D01*
X131245000Y-85517857D01*
X131316428Y-85660714D01*
X131387857Y-85732142D01*
X131530714Y-85803571D01*
X131959285Y-85803571D01*
X132102142Y-85732142D01*
X132173571Y-85660714D01*
X154387857Y-88353571D02*
X154387857Y-86853571D01*
X154030714Y-86853571D01*
X153816428Y-86925000D01*
X153673571Y-87067857D01*
X153602142Y-87210714D01*
X153530714Y-87496428D01*
X153530714Y-87710714D01*
X153602142Y-87996428D01*
X153673571Y-88139285D01*
X153816428Y-88282142D01*
X154030714Y-88353571D01*
X154387857Y-88353571D01*
X152102142Y-88353571D02*
X152959285Y-88353571D01*
X152530714Y-88353571D02*
X152530714Y-86853571D01*
X152673571Y-87067857D01*
X152816428Y-87210714D01*
X152959285Y-87282142D01*
X150316428Y-87782142D02*
X149173571Y-87782142D01*
X146602142Y-88353571D02*
X147316428Y-88353571D01*
X147316428Y-86853571D01*
X146102142Y-87567857D02*
X145602142Y-87567857D01*
X145387857Y-88353571D02*
X146102142Y-88353571D01*
X146102142Y-86853571D01*
X145387857Y-86853571D01*
X144745000Y-88353571D02*
X144745000Y-86853571D01*
X144387857Y-86853571D01*
X144173571Y-86925000D01*
X144030714Y-87067857D01*
X143959285Y-87210714D01*
X143887857Y-87496428D01*
X143887857Y-87710714D01*
X143959285Y-87996428D01*
X144030714Y-88139285D01*
X144173571Y-88282142D01*
X144387857Y-88353571D01*
X144745000Y-88353571D01*
X141816428Y-86853571D02*
X141673571Y-86853571D01*
X141530714Y-86925000D01*
X141459285Y-86996428D01*
X141387857Y-87139285D01*
X141316428Y-87425000D01*
X141316428Y-87782142D01*
X141387857Y-88067857D01*
X141459285Y-88210714D01*
X141530714Y-88282142D01*
X141673571Y-88353571D01*
X141816428Y-88353571D01*
X141959285Y-88282142D01*
X142030714Y-88210714D01*
X142102142Y-88067857D01*
X142173571Y-87782142D01*
X142173571Y-87425000D01*
X142102142Y-87139285D01*
X142030714Y-86996428D01*
X141959285Y-86925000D01*
X141816428Y-86853571D01*
X140030714Y-86853571D02*
X140316428Y-86853571D01*
X140459285Y-86925000D01*
X140530714Y-86996428D01*
X140673571Y-87210714D01*
X140745000Y-87496428D01*
X140745000Y-88067857D01*
X140673571Y-88210714D01*
X140602142Y-88282142D01*
X140459285Y-88353571D01*
X140173571Y-88353571D01*
X140030714Y-88282142D01*
X139959285Y-88210714D01*
X139887857Y-88067857D01*
X139887857Y-87710714D01*
X139959285Y-87567857D01*
X140030714Y-87496428D01*
X140173571Y-87425000D01*
X140459285Y-87425000D01*
X140602142Y-87496428D01*
X140673571Y-87567857D01*
X140745000Y-87710714D01*
X138959285Y-86853571D02*
X138816428Y-86853571D01*
X138673571Y-86925000D01*
X138602142Y-86996428D01*
X138530714Y-87139285D01*
X138459285Y-87425000D01*
X138459285Y-87782142D01*
X138530714Y-88067857D01*
X138602142Y-88210714D01*
X138673571Y-88282142D01*
X138816428Y-88353571D01*
X138959285Y-88353571D01*
X139102142Y-88282142D01*
X139173571Y-88210714D01*
X139245000Y-88067857D01*
X139316428Y-87782142D01*
X139316428Y-87425000D01*
X139245000Y-87139285D01*
X139173571Y-86996428D01*
X139102142Y-86925000D01*
X138959285Y-86853571D01*
X137959285Y-86853571D02*
X137030714Y-86853571D01*
X137530714Y-87425000D01*
X137316428Y-87425000D01*
X137173571Y-87496428D01*
X137102142Y-87567857D01*
X137030714Y-87710714D01*
X137030714Y-88067857D01*
X137102142Y-88210714D01*
X137173571Y-88282142D01*
X137316428Y-88353571D01*
X137745000Y-88353571D01*
X137887857Y-88282142D01*
X137959285Y-88210714D01*
X116950714Y-83228571D02*
X116665000Y-83228571D01*
X116522142Y-83157142D01*
X116450714Y-83085714D01*
X116307857Y-82871428D01*
X116236428Y-82585714D01*
X116236428Y-82014285D01*
X116307857Y-81871428D01*
X116379285Y-81800000D01*
X116522142Y-81728571D01*
X116807857Y-81728571D01*
X116950714Y-81800000D01*
X117022142Y-81871428D01*
X117093571Y-82014285D01*
X117093571Y-82371428D01*
X117022142Y-82514285D01*
X116950714Y-82585714D01*
X116807857Y-82657142D01*
X116522142Y-82657142D01*
X116379285Y-82585714D01*
X116307857Y-82514285D01*
X116236428Y-82371428D01*
X115593571Y-82657142D02*
X114450714Y-82657142D01*
X113879285Y-81728571D02*
X112950714Y-81728571D01*
X113450714Y-82300000D01*
X113236428Y-82300000D01*
X113093571Y-82371428D01*
X113022142Y-82442857D01*
X112950714Y-82585714D01*
X112950714Y-82942857D01*
X113022142Y-83085714D01*
X113093571Y-83157142D01*
X113236428Y-83228571D01*
X113665000Y-83228571D01*
X113807857Y-83157142D01*
X113879285Y-83085714D01*
X111665000Y-81728571D02*
X111950714Y-81728571D01*
X112093571Y-81800000D01*
X112165000Y-81871428D01*
X112307857Y-82085714D01*
X112379285Y-82371428D01*
X112379285Y-82942857D01*
X112307857Y-83085714D01*
X112236428Y-83157142D01*
X112093571Y-83228571D01*
X111807857Y-83228571D01*
X111665000Y-83157142D01*
X111593571Y-83085714D01*
X111522142Y-82942857D01*
X111522142Y-82585714D01*
X111593571Y-82442857D01*
X111665000Y-82371428D01*
X111807857Y-82300000D01*
X112093571Y-82300000D01*
X112236428Y-82371428D01*
X112307857Y-82442857D01*
X112379285Y-82585714D01*
X111093571Y-81728571D02*
X110593571Y-83228571D01*
X110093571Y-81728571D01*
X113537857Y-69100000D02*
X113680714Y-69028571D01*
X113895000Y-69028571D01*
X114109285Y-69100000D01*
X114252142Y-69242857D01*
X114323571Y-69385714D01*
X114395000Y-69671428D01*
X114395000Y-69885714D01*
X114323571Y-70171428D01*
X114252142Y-70314285D01*
X114109285Y-70457142D01*
X113895000Y-70528571D01*
X113752142Y-70528571D01*
X113537857Y-70457142D01*
X113466428Y-70385714D01*
X113466428Y-69885714D01*
X113752142Y-69885714D01*
X112823571Y-70528571D02*
X112823571Y-69028571D01*
X111966428Y-70528571D01*
X111966428Y-69028571D01*
X111252142Y-70528571D02*
X111252142Y-69028571D01*
X110895000Y-69028571D01*
X110680714Y-69100000D01*
X110537857Y-69242857D01*
X110466428Y-69385714D01*
X110395000Y-69671428D01*
X110395000Y-69885714D01*
X110466428Y-70171428D01*
X110537857Y-70314285D01*
X110680714Y-70457142D01*
X110895000Y-70528571D01*
X111252142Y-70528571D01*
X185356428Y-73767142D02*
X184213571Y-73767142D01*
X184785000Y-74338571D02*
X184785000Y-73195714D01*
X185356428Y-78847142D02*
X184213571Y-78847142D01*
X188170000Y-62170571D02*
X188884285Y-62170571D01*
X188955714Y-62884857D01*
X188884285Y-62813428D01*
X188741428Y-62742000D01*
X188384285Y-62742000D01*
X188241428Y-62813428D01*
X188170000Y-62884857D01*
X188098571Y-63027714D01*
X188098571Y-63384857D01*
X188170000Y-63527714D01*
X188241428Y-63599142D01*
X188384285Y-63670571D01*
X188741428Y-63670571D01*
X188884285Y-63599142D01*
X188955714Y-63527714D01*
X187670000Y-62170571D02*
X187170000Y-63670571D01*
X186670000Y-62170571D01*
X184741428Y-62170571D02*
X184455714Y-62170571D01*
X184312857Y-62242000D01*
X184170000Y-62384857D01*
X184098571Y-62670571D01*
X184098571Y-63170571D01*
X184170000Y-63456285D01*
X184312857Y-63599142D01*
X184455714Y-63670571D01*
X184741428Y-63670571D01*
X184884285Y-63599142D01*
X185027142Y-63456285D01*
X185098571Y-63170571D01*
X185098571Y-62670571D01*
X185027142Y-62384857D01*
X184884285Y-62242000D01*
X184741428Y-62170571D01*
X182812857Y-62670571D02*
X182812857Y-63670571D01*
X183455714Y-62670571D02*
X183455714Y-63456285D01*
X183384285Y-63599142D01*
X183241428Y-63670571D01*
X183027142Y-63670571D01*
X182884285Y-63599142D01*
X182812857Y-63527714D01*
X182312857Y-62670571D02*
X181741428Y-62670571D01*
X182098571Y-62170571D02*
X182098571Y-63456285D01*
X182027142Y-63599142D01*
X181884285Y-63670571D01*
X181741428Y-63670571D01*
X155800714Y-92383571D02*
X155515000Y-93383571D01*
X155229285Y-92669285D01*
X154943571Y-93383571D01*
X154657857Y-92383571D01*
X154229285Y-92383571D02*
X153943571Y-93383571D01*
X153657857Y-92669285D01*
X153372142Y-93383571D01*
X153086428Y-92383571D01*
X152657857Y-92383571D02*
X152372142Y-93383571D01*
X152086428Y-92669285D01*
X151800714Y-93383571D01*
X151515000Y-92383571D01*
X150943571Y-93240714D02*
X150872142Y-93312142D01*
X150943571Y-93383571D01*
X151015000Y-93312142D01*
X150943571Y-93240714D01*
X150943571Y-93383571D01*
X149586428Y-92383571D02*
X149586428Y-93597857D01*
X149657857Y-93740714D01*
X149729285Y-93812142D01*
X149872142Y-93883571D01*
X150086428Y-93883571D01*
X150229285Y-93812142D01*
X149586428Y-93312142D02*
X149729285Y-93383571D01*
X150015000Y-93383571D01*
X150157857Y-93312142D01*
X150229285Y-93240714D01*
X150300714Y-93097857D01*
X150300714Y-92669285D01*
X150229285Y-92526428D01*
X150157857Y-92455000D01*
X150015000Y-92383571D01*
X149729285Y-92383571D01*
X149586428Y-92455000D01*
X148872142Y-93383571D02*
X148872142Y-92383571D01*
X148872142Y-91883571D02*
X148943571Y-91955000D01*
X148872142Y-92026428D01*
X148800714Y-91955000D01*
X148872142Y-91883571D01*
X148872142Y-92026428D01*
X148372142Y-92383571D02*
X147800714Y-92383571D01*
X148157857Y-91883571D02*
X148157857Y-93169285D01*
X148086428Y-93312142D01*
X147943571Y-93383571D01*
X147800714Y-93383571D01*
X147300714Y-93383571D02*
X147300714Y-91883571D01*
X146657857Y-93383571D02*
X146657857Y-92597857D01*
X146729285Y-92455000D01*
X146872142Y-92383571D01*
X147086428Y-92383571D01*
X147229285Y-92455000D01*
X147300714Y-92526428D01*
X145300714Y-92383571D02*
X145300714Y-93383571D01*
X145943571Y-92383571D02*
X145943571Y-93169285D01*
X145872142Y-93312142D01*
X145729285Y-93383571D01*
X145515000Y-93383571D01*
X145372142Y-93312142D01*
X145300714Y-93240714D01*
X144586428Y-93383571D02*
X144586428Y-91883571D01*
X144586428Y-92455000D02*
X144443571Y-92383571D01*
X144157857Y-92383571D01*
X144015000Y-92455000D01*
X143943571Y-92526428D01*
X143872142Y-92669285D01*
X143872142Y-93097857D01*
X143943571Y-93240714D01*
X144015000Y-93312142D01*
X144157857Y-93383571D01*
X144443571Y-93383571D01*
X144586428Y-93312142D01*
X143229285Y-93240714D02*
X143157857Y-93312142D01*
X143229285Y-93383571D01*
X143300714Y-93312142D01*
X143229285Y-93240714D01*
X143229285Y-93383571D01*
X141872142Y-93312142D02*
X142015000Y-93383571D01*
X142300714Y-93383571D01*
X142443571Y-93312142D01*
X142515000Y-93240714D01*
X142586428Y-93097857D01*
X142586428Y-92669285D01*
X142515000Y-92526428D01*
X142443571Y-92455000D01*
X142300714Y-92383571D01*
X142015000Y-92383571D01*
X141872142Y-92455000D01*
X141015000Y-93383571D02*
X141157857Y-93312142D01*
X141229285Y-93240714D01*
X141300714Y-93097857D01*
X141300714Y-92669285D01*
X141229285Y-92526428D01*
X141157857Y-92455000D01*
X141015000Y-92383571D01*
X140800714Y-92383571D01*
X140657857Y-92455000D01*
X140586428Y-92526428D01*
X140515000Y-92669285D01*
X140515000Y-93097857D01*
X140586428Y-93240714D01*
X140657857Y-93312142D01*
X140800714Y-93383571D01*
X141015000Y-93383571D01*
X139872142Y-93383571D02*
X139872142Y-92383571D01*
X139872142Y-92526428D02*
X139800714Y-92455000D01*
X139657857Y-92383571D01*
X139443571Y-92383571D01*
X139300714Y-92455000D01*
X139229285Y-92597857D01*
X139229285Y-93383571D01*
X139229285Y-92597857D02*
X139157857Y-92455000D01*
X139015000Y-92383571D01*
X138800714Y-92383571D01*
X138657857Y-92455000D01*
X138586428Y-92597857D01*
X138586428Y-93383571D01*
X136800714Y-91812142D02*
X138086428Y-93740714D01*
X135657857Y-93383571D02*
X135657857Y-92597857D01*
X135729285Y-92455000D01*
X135872142Y-92383571D01*
X136157857Y-92383571D01*
X136300714Y-92455000D01*
X135657857Y-93312142D02*
X135800714Y-93383571D01*
X136157857Y-93383571D01*
X136300714Y-93312142D01*
X136372142Y-93169285D01*
X136372142Y-93026428D01*
X136300714Y-92883571D01*
X136157857Y-92812142D01*
X135800714Y-92812142D01*
X135657857Y-92740714D01*
X134943571Y-92383571D02*
X134943571Y-93383571D01*
X134943571Y-92526428D02*
X134872142Y-92455000D01*
X134729285Y-92383571D01*
X134515000Y-92383571D01*
X134372142Y-92455000D01*
X134300714Y-92597857D01*
X134300714Y-93383571D01*
X132943571Y-93383571D02*
X132943571Y-91883571D01*
X132943571Y-93312142D02*
X133086428Y-93383571D01*
X133372142Y-93383571D01*
X133515000Y-93312142D01*
X133586428Y-93240714D01*
X133657857Y-93097857D01*
X133657857Y-92669285D01*
X133586428Y-92526428D01*
X133515000Y-92455000D01*
X133372142Y-92383571D01*
X133086428Y-92383571D01*
X132943571Y-92455000D01*
X132229285Y-93383571D02*
X132229285Y-92383571D01*
X132229285Y-92669285D02*
X132157857Y-92526428D01*
X132086428Y-92455000D01*
X131943571Y-92383571D01*
X131800714Y-92383571D01*
X130729285Y-93312142D02*
X130872142Y-93383571D01*
X131157857Y-93383571D01*
X131300714Y-93312142D01*
X131372142Y-93169285D01*
X131372142Y-92597857D01*
X131300714Y-92455000D01*
X131157857Y-92383571D01*
X130872142Y-92383571D01*
X130729285Y-92455000D01*
X130657857Y-92597857D01*
X130657857Y-92740714D01*
X131372142Y-92883571D01*
X130157857Y-92383571D02*
X129872142Y-93383571D01*
X129586428Y-92669285D01*
X129300714Y-93383571D01*
X129015000Y-92383571D01*
X128586428Y-92383571D02*
X128229285Y-93383571D01*
X127872142Y-92383571D01*
X127300714Y-93383571D02*
X127300714Y-91883571D01*
X126657857Y-93383571D02*
X126657857Y-92597857D01*
X126729285Y-92455000D01*
X126872142Y-92383571D01*
X127086428Y-92383571D01*
X127229285Y-92455000D01*
X127300714Y-92526428D01*
X125300714Y-92383571D02*
X125300714Y-93383571D01*
X125657857Y-91812142D02*
X126015000Y-92883571D01*
X125086428Y-92883571D01*
X155800714Y-94933571D02*
X155515000Y-95933571D01*
X155229285Y-95219285D01*
X154943571Y-95933571D01*
X154657857Y-94933571D01*
X154229285Y-94933571D02*
X153943571Y-95933571D01*
X153657857Y-95219285D01*
X153372142Y-95933571D01*
X153086428Y-94933571D01*
X152657857Y-94933571D02*
X152372142Y-95933571D01*
X152086428Y-95219285D01*
X151800714Y-95933571D01*
X151515000Y-94933571D01*
X150943571Y-95790714D02*
X150872142Y-95862142D01*
X150943571Y-95933571D01*
X151015000Y-95862142D01*
X150943571Y-95790714D01*
X150943571Y-95933571D01*
X150015000Y-95933571D02*
X150157857Y-95862142D01*
X150229285Y-95719285D01*
X150229285Y-94433571D01*
X149443571Y-95933571D02*
X149443571Y-94933571D01*
X149443571Y-94433571D02*
X149515000Y-94505000D01*
X149443571Y-94576428D01*
X149372142Y-94505000D01*
X149443571Y-94433571D01*
X149443571Y-94576428D01*
X148729285Y-94933571D02*
X148729285Y-95933571D01*
X148729285Y-95076428D02*
X148657857Y-95005000D01*
X148515000Y-94933571D01*
X148300714Y-94933571D01*
X148157857Y-95005000D01*
X148086428Y-95147857D01*
X148086428Y-95933571D01*
X147372142Y-95933571D02*
X147372142Y-94433571D01*
X147229285Y-95362142D02*
X146800714Y-95933571D01*
X146800714Y-94933571D02*
X147372142Y-95505000D01*
X145586428Y-95862142D02*
X145729285Y-95933571D01*
X146015000Y-95933571D01*
X146157857Y-95862142D01*
X146229285Y-95719285D01*
X146229285Y-95147857D01*
X146157857Y-95005000D01*
X146015000Y-94933571D01*
X145729285Y-94933571D01*
X145586428Y-95005000D01*
X145515000Y-95147857D01*
X145515000Y-95290714D01*
X146229285Y-95433571D01*
X144229285Y-95933571D02*
X144229285Y-94433571D01*
X144229285Y-95862142D02*
X144372142Y-95933571D01*
X144657857Y-95933571D01*
X144800714Y-95862142D01*
X144872142Y-95790714D01*
X144943571Y-95647857D01*
X144943571Y-95219285D01*
X144872142Y-95076428D01*
X144800714Y-95005000D01*
X144657857Y-94933571D01*
X144372142Y-94933571D01*
X144229285Y-95005000D01*
X143515000Y-95933571D02*
X143515000Y-94933571D01*
X143515000Y-94433571D02*
X143586428Y-94505000D01*
X143515000Y-94576428D01*
X143443571Y-94505000D01*
X143515000Y-94433571D01*
X143515000Y-94576428D01*
X142800714Y-94933571D02*
X142800714Y-95933571D01*
X142800714Y-95076428D02*
X142729285Y-95005000D01*
X142586428Y-94933571D01*
X142372142Y-94933571D01*
X142229285Y-95005000D01*
X142157857Y-95147857D01*
X142157857Y-95933571D01*
X141443571Y-95790714D02*
X141372142Y-95862142D01*
X141443571Y-95933571D01*
X141515000Y-95862142D01*
X141443571Y-95790714D01*
X141443571Y-95933571D01*
X140086428Y-95862142D02*
X140229285Y-95933571D01*
X140515000Y-95933571D01*
X140657857Y-95862142D01*
X140729285Y-95790714D01*
X140800714Y-95647857D01*
X140800714Y-95219285D01*
X140729285Y-95076428D01*
X140657857Y-95005000D01*
X140515000Y-94933571D01*
X140229285Y-94933571D01*
X140086428Y-95005000D01*
X139229285Y-95933571D02*
X139372142Y-95862142D01*
X139443571Y-95790714D01*
X139515000Y-95647857D01*
X139515000Y-95219285D01*
X139443571Y-95076428D01*
X139372142Y-95005000D01*
X139229285Y-94933571D01*
X139015000Y-94933571D01*
X138872142Y-95005000D01*
X138800714Y-95076428D01*
X138729285Y-95219285D01*
X138729285Y-95647857D01*
X138800714Y-95790714D01*
X138872142Y-95862142D01*
X139015000Y-95933571D01*
X139229285Y-95933571D01*
X138086428Y-95933571D02*
X138086428Y-94933571D01*
X138086428Y-95076428D02*
X138015000Y-95005000D01*
X137872142Y-94933571D01*
X137657857Y-94933571D01*
X137515000Y-95005000D01*
X137443571Y-95147857D01*
X137443571Y-95933571D01*
X137443571Y-95147857D02*
X137372142Y-95005000D01*
X137229285Y-94933571D01*
X137015000Y-94933571D01*
X136872142Y-95005000D01*
X136800714Y-95147857D01*
X136800714Y-95933571D01*
X135015000Y-94362142D02*
X136300714Y-96290714D01*
X134515000Y-95933571D02*
X134515000Y-94933571D01*
X134515000Y-94433571D02*
X134586428Y-94505000D01*
X134515000Y-94576428D01*
X134443571Y-94505000D01*
X134515000Y-94433571D01*
X134515000Y-94576428D01*
X133800714Y-94933571D02*
X133800714Y-95933571D01*
X133800714Y-95076428D02*
X133729285Y-95005000D01*
X133586428Y-94933571D01*
X133372142Y-94933571D01*
X133229285Y-95005000D01*
X133157857Y-95147857D01*
X133157857Y-95933571D01*
X131372142Y-94362142D02*
X132657857Y-96290714D01*
X130229285Y-95933571D02*
X130229285Y-95147857D01*
X130300714Y-95005000D01*
X130443571Y-94933571D01*
X130729285Y-94933571D01*
X130872142Y-95005000D01*
X130229285Y-95862142D02*
X130372142Y-95933571D01*
X130729285Y-95933571D01*
X130872142Y-95862142D01*
X130943571Y-95719285D01*
X130943571Y-95576428D01*
X130872142Y-95433571D01*
X130729285Y-95362142D01*
X130372142Y-95362142D01*
X130229285Y-95290714D01*
X129514999Y-94933571D02*
X129514999Y-95933571D01*
X129514999Y-95076428D02*
X129443571Y-95005000D01*
X129300714Y-94933571D01*
X129086428Y-94933571D01*
X128943571Y-95005000D01*
X128872142Y-95147857D01*
X128872142Y-95933571D01*
X127514999Y-95933571D02*
X127514999Y-94433571D01*
X127514999Y-95862142D02*
X127657857Y-95933571D01*
X127943571Y-95933571D01*
X128086428Y-95862142D01*
X128157857Y-95790714D01*
X128229285Y-95647857D01*
X128229285Y-95219285D01*
X128157857Y-95076428D01*
X128086428Y-95005000D01*
X127943571Y-94933571D01*
X127657857Y-94933571D01*
X127514999Y-95005000D01*
X126800714Y-95933571D02*
X126800714Y-94933571D01*
X126800714Y-95219285D02*
X126729285Y-95076428D01*
X126657857Y-95005000D01*
X126514999Y-94933571D01*
X126372142Y-94933571D01*
X125300714Y-95862142D02*
X125443571Y-95933571D01*
X125729285Y-95933571D01*
X125872142Y-95862142D01*
X125943571Y-95719285D01*
X125943571Y-95147857D01*
X125872142Y-95005000D01*
X125729285Y-94933571D01*
X125443571Y-94933571D01*
X125300714Y-95005000D01*
X125229285Y-95147857D01*
X125229285Y-95290714D01*
X125943571Y-95433571D01*
X124729285Y-94933571D02*
X124443571Y-95933571D01*
X124157857Y-95219285D01*
X123872142Y-95933571D01*
X123586428Y-94933571D01*
X123157857Y-94933571D02*
X122800714Y-95933571D01*
X122443571Y-94933571D01*
X121229285Y-95933571D02*
X121229285Y-95147857D01*
X121300714Y-95005000D01*
X121443571Y-94933571D01*
X121729285Y-94933571D01*
X121872142Y-95005000D01*
X121229285Y-95862142D02*
X121372142Y-95933571D01*
X121729285Y-95933571D01*
X121872142Y-95862142D01*
X121943571Y-95719285D01*
X121943571Y-95576428D01*
X121872142Y-95433571D01*
X121729285Y-95362142D01*
X121372142Y-95362142D01*
X121229285Y-95290714D01*
X120514999Y-94933571D02*
X120514999Y-95933571D01*
X120514999Y-95076428D02*
X120443571Y-95005000D01*
X120300714Y-94933571D01*
X120086428Y-94933571D01*
X119943571Y-95005000D01*
X119872142Y-95147857D01*
X119872142Y-95933571D01*
X119157857Y-95933571D02*
X119157857Y-94433571D01*
X118514999Y-95933571D02*
X118514999Y-95147857D01*
X118586428Y-95005000D01*
X118729285Y-94933571D01*
X118943571Y-94933571D01*
X119086428Y-95005000D01*
X119157857Y-95076428D01*
X117586428Y-95933571D02*
X117729285Y-95862142D01*
X117800714Y-95790714D01*
X117872142Y-95647857D01*
X117872142Y-95219285D01*
X117800714Y-95076428D01*
X117729285Y-95005000D01*
X117586428Y-94933571D01*
X117372142Y-94933571D01*
X117229285Y-95005000D01*
X117157857Y-95076428D01*
X117086428Y-95219285D01*
X117086428Y-95647857D01*
X117157857Y-95790714D01*
X117229285Y-95862142D01*
X117372142Y-95933571D01*
X117586428Y-95933571D01*
X116443571Y-95933571D02*
X116443571Y-94933571D01*
X116443571Y-95219285D02*
X116372142Y-95076428D01*
X116300714Y-95005000D01*
X116157857Y-94933571D01*
X116014999Y-94933571D01*
X115514999Y-94933571D02*
X115514999Y-95933571D01*
X115514999Y-95076428D02*
X115443571Y-95005000D01*
X115300714Y-94933571D01*
X115086428Y-94933571D01*
X114943571Y-95005000D01*
X114872142Y-95147857D01*
X114872142Y-95933571D01*
D11*
G04 #@! TO.C,REF\002A\002A*
X189760000Y-78740000D02*
G75*
G03X189760000Y-78740000I-1800000J0D01*
G01*
D12*
G04 #@! TO.C,BT1*
X102870000Y-90982800D02*
X156718000Y-90982800D01*
X102870000Y-61417200D02*
X156718000Y-61417200D01*
X102870000Y-90982800D02*
X102870000Y-61417200D01*
X156718000Y-90982800D02*
X156718000Y-61417200D01*
D11*
G04 #@! TO.C,C1*
X159006000Y-61663733D02*
X159006000Y-62006267D01*
X157986000Y-61663733D02*
X157986000Y-62006267D01*
G04 #@! TO.C,C2*
X168654000Y-61663733D02*
X168654000Y-62006267D01*
X169674000Y-61663733D02*
X169674000Y-62006267D01*
G04 #@! TO.C,D1*
X189645000Y-65709000D02*
X187160000Y-65709000D01*
X189645000Y-64339000D02*
X189645000Y-65709000D01*
X187160000Y-64339000D02*
X189645000Y-64339000D01*
D12*
G04 #@! TO.C,Conn1*
X195840000Y-82750000D02*
X195840000Y-69650000D01*
X181840000Y-69650000D02*
X195840000Y-69650000D01*
X181840000Y-82750000D02*
X195840000Y-82750000D01*
X181840000Y-82750000D02*
X181840000Y-69650000D01*
D11*
G04 #@! TO.C,R1*
X183978733Y-64514000D02*
X184321267Y-64514000D01*
X183978733Y-65534000D02*
X184321267Y-65534000D01*
G04 #@! TO.C,R2*
X172210000Y-78427733D02*
X172210000Y-78770267D01*
X173230000Y-78427733D02*
X173230000Y-78770267D01*
G04 #@! TO.C,R3*
X174750000Y-78770267D02*
X174750000Y-78427733D01*
X175770000Y-78770267D02*
X175770000Y-78427733D01*
G04 #@! TO.C,R4*
X173230000Y-73972267D02*
X173230000Y-73629733D01*
X172210000Y-73972267D02*
X172210000Y-73629733D01*
G04 #@! TO.C,R5*
X175770000Y-73629733D02*
X175770000Y-73972267D01*
X174750000Y-73629733D02*
X174750000Y-73972267D01*
D12*
G04 #@! TO.C,SW1*
X148050000Y-51040000D02*
X150350000Y-51040000D01*
X141750000Y-51040000D02*
X143950000Y-51040000D01*
X141750000Y-55640000D02*
X150350000Y-55640000D01*
D11*
G04 #@! TO.C,U1*
X167010000Y-62300000D02*
X167010000Y-61200000D01*
X167280000Y-62300000D02*
X167010000Y-62300000D01*
X167280000Y-63800000D02*
X167280000Y-62300000D01*
X160650000Y-62300000D02*
X160650000Y-59470000D01*
X160380000Y-62300000D02*
X160650000Y-62300000D01*
X160380000Y-63800000D02*
X160380000Y-62300000D01*
G04 #@! TO.C,REF\002A\002A*
X189760000Y-73660000D02*
G75*
G03X189760000Y-73660000I-1800000J0D01*
G01*
G04 #@! TO.C,BT1*
D12*
X104925714Y-91876571D02*
X104782857Y-91924190D01*
X104735238Y-91971809D01*
X104687619Y-92067047D01*
X104687619Y-92209904D01*
X104735238Y-92305142D01*
X104782857Y-92352761D01*
X104878095Y-92400380D01*
X105259047Y-92400380D01*
X105259047Y-91400380D01*
X104925714Y-91400380D01*
X104830476Y-91448000D01*
X104782857Y-91495619D01*
X104735238Y-91590857D01*
X104735238Y-91686095D01*
X104782857Y-91781333D01*
X104830476Y-91828952D01*
X104925714Y-91876571D01*
X105259047Y-91876571D01*
X104401904Y-91400380D02*
X103830476Y-91400380D01*
X104116190Y-92400380D02*
X104116190Y-91400380D01*
X102973333Y-92400380D02*
X103544761Y-92400380D01*
X103259047Y-92400380D02*
X103259047Y-91400380D01*
X103354285Y-91543238D01*
X103449523Y-91638476D01*
X103544761Y-91686095D01*
G04 #@! TO.C,C1*
X158662666Y-64873142D02*
X158710285Y-64920761D01*
X158853142Y-64968380D01*
X158948380Y-64968380D01*
X159091238Y-64920761D01*
X159186476Y-64825523D01*
X159234095Y-64730285D01*
X159281714Y-64539809D01*
X159281714Y-64396952D01*
X159234095Y-64206476D01*
X159186476Y-64111238D01*
X159091238Y-64016000D01*
X158948380Y-63968380D01*
X158853142Y-63968380D01*
X158710285Y-64016000D01*
X158662666Y-64063619D01*
X157710285Y-64968380D02*
X158281714Y-64968380D01*
X157996000Y-64968380D02*
X157996000Y-63968380D01*
X158091238Y-64111238D01*
X158186476Y-64206476D01*
X158281714Y-64254095D01*
G04 #@! TO.C,C2*
X169330666Y-64873142D02*
X169378285Y-64920761D01*
X169521142Y-64968380D01*
X169616380Y-64968380D01*
X169759238Y-64920761D01*
X169854476Y-64825523D01*
X169902095Y-64730285D01*
X169949714Y-64539809D01*
X169949714Y-64396952D01*
X169902095Y-64206476D01*
X169854476Y-64111238D01*
X169759238Y-64016000D01*
X169616380Y-63968380D01*
X169521142Y-63968380D01*
X169378285Y-64016000D01*
X169330666Y-64063619D01*
X168949714Y-64063619D02*
X168902095Y-64016000D01*
X168806857Y-63968380D01*
X168568761Y-63968380D01*
X168473523Y-64016000D01*
X168425904Y-64063619D01*
X168378285Y-64158857D01*
X168378285Y-64254095D01*
X168425904Y-64396952D01*
X168997333Y-64968380D01*
X168378285Y-64968380D01*
G04 #@! TO.C,D1*
X188698095Y-67000380D02*
X188698095Y-66000380D01*
X188460000Y-66000380D01*
X188317142Y-66048000D01*
X188221904Y-66143238D01*
X188174285Y-66238476D01*
X188126666Y-66428952D01*
X188126666Y-66571809D01*
X188174285Y-66762285D01*
X188221904Y-66857523D01*
X188317142Y-66952761D01*
X188460000Y-67000380D01*
X188698095Y-67000380D01*
X187174285Y-67000380D02*
X187745714Y-67000380D01*
X187460000Y-67000380D02*
X187460000Y-66000380D01*
X187555238Y-66143238D01*
X187650476Y-66238476D01*
X187745714Y-66286095D01*
G04 #@! TO.C,Conn1*
X180593809Y-70842142D02*
X180641428Y-70889761D01*
X180784285Y-70937380D01*
X180879523Y-70937380D01*
X181022380Y-70889761D01*
X181117619Y-70794523D01*
X181165238Y-70699285D01*
X181212857Y-70508809D01*
X181212857Y-70365952D01*
X181165238Y-70175476D01*
X181117619Y-70080238D01*
X181022380Y-69985000D01*
X180879523Y-69937380D01*
X180784285Y-69937380D01*
X180641428Y-69985000D01*
X180593809Y-70032619D01*
X180022380Y-70937380D02*
X180117619Y-70889761D01*
X180165238Y-70842142D01*
X180212857Y-70746904D01*
X180212857Y-70461190D01*
X180165238Y-70365952D01*
X180117619Y-70318333D01*
X180022380Y-70270714D01*
X179879523Y-70270714D01*
X179784285Y-70318333D01*
X179736666Y-70365952D01*
X179689047Y-70461190D01*
X179689047Y-70746904D01*
X179736666Y-70842142D01*
X179784285Y-70889761D01*
X179879523Y-70937380D01*
X180022380Y-70937380D01*
X179260476Y-70270714D02*
X179260476Y-70937380D01*
X179260476Y-70365952D02*
X179212857Y-70318333D01*
X179117619Y-70270714D01*
X178974761Y-70270714D01*
X178879523Y-70318333D01*
X178831904Y-70413571D01*
X178831904Y-70937380D01*
X178355714Y-70270714D02*
X178355714Y-70937380D01*
X178355714Y-70365952D02*
X178308095Y-70318333D01*
X178212857Y-70270714D01*
X178070000Y-70270714D01*
X177974761Y-70318333D01*
X177927142Y-70413571D01*
X177927142Y-70937380D01*
X176927142Y-70937380D02*
X177498571Y-70937380D01*
X177212857Y-70937380D02*
X177212857Y-69937380D01*
X177308095Y-70080238D01*
X177403333Y-70175476D01*
X177498571Y-70223095D01*
G04 #@! TO.C,R1*
X184316666Y-67000380D02*
X184650000Y-66524190D01*
X184888095Y-67000380D02*
X184888095Y-66000380D01*
X184507142Y-66000380D01*
X184411904Y-66048000D01*
X184364285Y-66095619D01*
X184316666Y-66190857D01*
X184316666Y-66333714D01*
X184364285Y-66428952D01*
X184411904Y-66476571D01*
X184507142Y-66524190D01*
X184888095Y-66524190D01*
X183364285Y-67000380D02*
X183935714Y-67000380D01*
X183650000Y-67000380D02*
X183650000Y-66000380D01*
X183745238Y-66143238D01*
X183840476Y-66238476D01*
X183935714Y-66286095D01*
G04 #@! TO.C,R2*
X173172380Y-81113333D02*
X172696190Y-80780000D01*
X173172380Y-80541904D02*
X172172380Y-80541904D01*
X172172380Y-80922857D01*
X172220000Y-81018095D01*
X172267619Y-81065714D01*
X172362857Y-81113333D01*
X172505714Y-81113333D01*
X172600952Y-81065714D01*
X172648571Y-81018095D01*
X172696190Y-80922857D01*
X172696190Y-80541904D01*
X172267619Y-81494285D02*
X172220000Y-81541904D01*
X172172380Y-81637142D01*
X172172380Y-81875238D01*
X172220000Y-81970476D01*
X172267619Y-82018095D01*
X172362857Y-82065714D01*
X172458095Y-82065714D01*
X172600952Y-82018095D01*
X173172380Y-81446666D01*
X173172380Y-82065714D01*
G04 #@! TO.C,R3*
X175712380Y-81113333D02*
X175236190Y-80780000D01*
X175712380Y-80541904D02*
X174712380Y-80541904D01*
X174712380Y-80922857D01*
X174760000Y-81018095D01*
X174807619Y-81065714D01*
X174902857Y-81113333D01*
X175045714Y-81113333D01*
X175140952Y-81065714D01*
X175188571Y-81018095D01*
X175236190Y-80922857D01*
X175236190Y-80541904D01*
X174712380Y-81446666D02*
X174712380Y-82065714D01*
X175093333Y-81732380D01*
X175093333Y-81875238D01*
X175140952Y-81970476D01*
X175188571Y-82018095D01*
X175283809Y-82065714D01*
X175521904Y-82065714D01*
X175617142Y-82018095D01*
X175664761Y-81970476D01*
X175712380Y-81875238D01*
X175712380Y-81589523D01*
X175664761Y-81494285D01*
X175617142Y-81446666D01*
G04 #@! TO.C,R4*
X173172380Y-70953333D02*
X172696190Y-70620000D01*
X173172380Y-70381904D02*
X172172380Y-70381904D01*
X172172380Y-70762857D01*
X172220000Y-70858095D01*
X172267619Y-70905714D01*
X172362857Y-70953333D01*
X172505714Y-70953333D01*
X172600952Y-70905714D01*
X172648571Y-70858095D01*
X172696190Y-70762857D01*
X172696190Y-70381904D01*
X172505714Y-71810476D02*
X173172380Y-71810476D01*
X172124761Y-71572380D02*
X172839047Y-71334285D01*
X172839047Y-71953333D01*
G04 #@! TO.C,R5*
X175712380Y-70953333D02*
X175236190Y-70620000D01*
X175712380Y-70381904D02*
X174712380Y-70381904D01*
X174712380Y-70762857D01*
X174760000Y-70858095D01*
X174807619Y-70905714D01*
X174902857Y-70953333D01*
X175045714Y-70953333D01*
X175140952Y-70905714D01*
X175188571Y-70858095D01*
X175236190Y-70762857D01*
X175236190Y-70381904D01*
X174712380Y-71858095D02*
X174712380Y-71381904D01*
X175188571Y-71334285D01*
X175140952Y-71381904D01*
X175093333Y-71477142D01*
X175093333Y-71715238D01*
X175140952Y-71810476D01*
X175188571Y-71858095D01*
X175283809Y-71905714D01*
X175521904Y-71905714D01*
X175617142Y-71858095D01*
X175664761Y-71810476D01*
X175712380Y-71715238D01*
X175712380Y-71477142D01*
X175664761Y-71381904D01*
X175617142Y-71334285D01*
G04 #@! TO.C,SW1*
X147383333Y-57344761D02*
X147240476Y-57392380D01*
X147002380Y-57392380D01*
X146907142Y-57344761D01*
X146859523Y-57297142D01*
X146811904Y-57201904D01*
X146811904Y-57106666D01*
X146859523Y-57011428D01*
X146907142Y-56963809D01*
X147002380Y-56916190D01*
X147192857Y-56868571D01*
X147288095Y-56820952D01*
X147335714Y-56773333D01*
X147383333Y-56678095D01*
X147383333Y-56582857D01*
X147335714Y-56487619D01*
X147288095Y-56440000D01*
X147192857Y-56392380D01*
X146954761Y-56392380D01*
X146811904Y-56440000D01*
X146478571Y-56392380D02*
X146240476Y-57392380D01*
X146050000Y-56678095D01*
X145859523Y-57392380D01*
X145621428Y-56392380D01*
X144716666Y-57392380D02*
X145288095Y-57392380D01*
X145002380Y-57392380D02*
X145002380Y-56392380D01*
X145097619Y-56535238D01*
X145192857Y-56630476D01*
X145288095Y-56678095D01*
G04 #@! TO.C,U1*
X169417904Y-69048380D02*
X169417904Y-69857904D01*
X169370285Y-69953142D01*
X169322666Y-70000761D01*
X169227428Y-70048380D01*
X169036952Y-70048380D01*
X168941714Y-70000761D01*
X168894095Y-69953142D01*
X168846476Y-69857904D01*
X168846476Y-69048380D01*
X167846476Y-70048380D02*
X168417904Y-70048380D01*
X168132190Y-70048380D02*
X168132190Y-69048380D01*
X168227428Y-69191238D01*
X168322666Y-69286476D01*
X168417904Y-69334095D01*
G04 #@! TD*
M02*
