G04 #@! TF.GenerationSoftware,KiCad,Pcbnew,(5.0.2)-1*
G04 #@! TF.CreationDate,2019-07-27T15:32:46-05:00*
G04 #@! TF.ProjectId,BusinessCards,42757369-6e65-4737-9343-617264732e6b,rev?*
G04 #@! TF.SameCoordinates,Original*
G04 #@! TF.FileFunction,Paste,Bot*
G04 #@! TF.FilePolarity,Positive*
%FSLAX46Y46*%
G04 Gerber Fmt 4.6, Leading zero omitted, Abs format (unit mm)*
G04 Created by KiCad (PCBNEW (5.0.2)-1) date 7/27/2019 3:32:46 PM*
%MOMM*%
%LPD*%
G01*
G04 APERTURE LIST*
%ADD10C,0.100000*%
%ADD11C,0.950000*%
%ADD12C,0.850000*%
%ADD13R,4.000000X1.120000*%
%ADD14R,2.750000X3.050000*%
%ADD15R,1.200000X2.200000*%
G04 APERTURE END LIST*
D10*
G04 #@! TO.C,C1*
G36*
X158756779Y-62186144D02*
X158779834Y-62189563D01*
X158802443Y-62195227D01*
X158824387Y-62203079D01*
X158845457Y-62213044D01*
X158865448Y-62225026D01*
X158884168Y-62238910D01*
X158901438Y-62254562D01*
X158917090Y-62271832D01*
X158930974Y-62290552D01*
X158942956Y-62310543D01*
X158952921Y-62331613D01*
X158960773Y-62353557D01*
X158966437Y-62376166D01*
X158969856Y-62399221D01*
X158971000Y-62422500D01*
X158971000Y-62997500D01*
X158969856Y-63020779D01*
X158966437Y-63043834D01*
X158960773Y-63066443D01*
X158952921Y-63088387D01*
X158942956Y-63109457D01*
X158930974Y-63129448D01*
X158917090Y-63148168D01*
X158901438Y-63165438D01*
X158884168Y-63181090D01*
X158865448Y-63194974D01*
X158845457Y-63206956D01*
X158824387Y-63216921D01*
X158802443Y-63224773D01*
X158779834Y-63230437D01*
X158756779Y-63233856D01*
X158733500Y-63235000D01*
X158258500Y-63235000D01*
X158235221Y-63233856D01*
X158212166Y-63230437D01*
X158189557Y-63224773D01*
X158167613Y-63216921D01*
X158146543Y-63206956D01*
X158126552Y-63194974D01*
X158107832Y-63181090D01*
X158090562Y-63165438D01*
X158074910Y-63148168D01*
X158061026Y-63129448D01*
X158049044Y-63109457D01*
X158039079Y-63088387D01*
X158031227Y-63066443D01*
X158025563Y-63043834D01*
X158022144Y-63020779D01*
X158021000Y-62997500D01*
X158021000Y-62422500D01*
X158022144Y-62399221D01*
X158025563Y-62376166D01*
X158031227Y-62353557D01*
X158039079Y-62331613D01*
X158049044Y-62310543D01*
X158061026Y-62290552D01*
X158074910Y-62271832D01*
X158090562Y-62254562D01*
X158107832Y-62238910D01*
X158126552Y-62225026D01*
X158146543Y-62213044D01*
X158167613Y-62203079D01*
X158189557Y-62195227D01*
X158212166Y-62189563D01*
X158235221Y-62186144D01*
X158258500Y-62185000D01*
X158733500Y-62185000D01*
X158756779Y-62186144D01*
X158756779Y-62186144D01*
G37*
D11*
X158496000Y-62710000D03*
D10*
G36*
X158756779Y-60436144D02*
X158779834Y-60439563D01*
X158802443Y-60445227D01*
X158824387Y-60453079D01*
X158845457Y-60463044D01*
X158865448Y-60475026D01*
X158884168Y-60488910D01*
X158901438Y-60504562D01*
X158917090Y-60521832D01*
X158930974Y-60540552D01*
X158942956Y-60560543D01*
X158952921Y-60581613D01*
X158960773Y-60603557D01*
X158966437Y-60626166D01*
X158969856Y-60649221D01*
X158971000Y-60672500D01*
X158971000Y-61247500D01*
X158969856Y-61270779D01*
X158966437Y-61293834D01*
X158960773Y-61316443D01*
X158952921Y-61338387D01*
X158942956Y-61359457D01*
X158930974Y-61379448D01*
X158917090Y-61398168D01*
X158901438Y-61415438D01*
X158884168Y-61431090D01*
X158865448Y-61444974D01*
X158845457Y-61456956D01*
X158824387Y-61466921D01*
X158802443Y-61474773D01*
X158779834Y-61480437D01*
X158756779Y-61483856D01*
X158733500Y-61485000D01*
X158258500Y-61485000D01*
X158235221Y-61483856D01*
X158212166Y-61480437D01*
X158189557Y-61474773D01*
X158167613Y-61466921D01*
X158146543Y-61456956D01*
X158126552Y-61444974D01*
X158107832Y-61431090D01*
X158090562Y-61415438D01*
X158074910Y-61398168D01*
X158061026Y-61379448D01*
X158049044Y-61359457D01*
X158039079Y-61338387D01*
X158031227Y-61316443D01*
X158025563Y-61293834D01*
X158022144Y-61270779D01*
X158021000Y-61247500D01*
X158021000Y-60672500D01*
X158022144Y-60649221D01*
X158025563Y-60626166D01*
X158031227Y-60603557D01*
X158039079Y-60581613D01*
X158049044Y-60560543D01*
X158061026Y-60540552D01*
X158074910Y-60521832D01*
X158090562Y-60504562D01*
X158107832Y-60488910D01*
X158126552Y-60475026D01*
X158146543Y-60463044D01*
X158167613Y-60453079D01*
X158189557Y-60445227D01*
X158212166Y-60439563D01*
X158235221Y-60436144D01*
X158258500Y-60435000D01*
X158733500Y-60435000D01*
X158756779Y-60436144D01*
X158756779Y-60436144D01*
G37*
D11*
X158496000Y-60960000D03*
G04 #@! TD*
D10*
G04 #@! TO.C,C2*
G36*
X169424779Y-60436144D02*
X169447834Y-60439563D01*
X169470443Y-60445227D01*
X169492387Y-60453079D01*
X169513457Y-60463044D01*
X169533448Y-60475026D01*
X169552168Y-60488910D01*
X169569438Y-60504562D01*
X169585090Y-60521832D01*
X169598974Y-60540552D01*
X169610956Y-60560543D01*
X169620921Y-60581613D01*
X169628773Y-60603557D01*
X169634437Y-60626166D01*
X169637856Y-60649221D01*
X169639000Y-60672500D01*
X169639000Y-61247500D01*
X169637856Y-61270779D01*
X169634437Y-61293834D01*
X169628773Y-61316443D01*
X169620921Y-61338387D01*
X169610956Y-61359457D01*
X169598974Y-61379448D01*
X169585090Y-61398168D01*
X169569438Y-61415438D01*
X169552168Y-61431090D01*
X169533448Y-61444974D01*
X169513457Y-61456956D01*
X169492387Y-61466921D01*
X169470443Y-61474773D01*
X169447834Y-61480437D01*
X169424779Y-61483856D01*
X169401500Y-61485000D01*
X168926500Y-61485000D01*
X168903221Y-61483856D01*
X168880166Y-61480437D01*
X168857557Y-61474773D01*
X168835613Y-61466921D01*
X168814543Y-61456956D01*
X168794552Y-61444974D01*
X168775832Y-61431090D01*
X168758562Y-61415438D01*
X168742910Y-61398168D01*
X168729026Y-61379448D01*
X168717044Y-61359457D01*
X168707079Y-61338387D01*
X168699227Y-61316443D01*
X168693563Y-61293834D01*
X168690144Y-61270779D01*
X168689000Y-61247500D01*
X168689000Y-60672500D01*
X168690144Y-60649221D01*
X168693563Y-60626166D01*
X168699227Y-60603557D01*
X168707079Y-60581613D01*
X168717044Y-60560543D01*
X168729026Y-60540552D01*
X168742910Y-60521832D01*
X168758562Y-60504562D01*
X168775832Y-60488910D01*
X168794552Y-60475026D01*
X168814543Y-60463044D01*
X168835613Y-60453079D01*
X168857557Y-60445227D01*
X168880166Y-60439563D01*
X168903221Y-60436144D01*
X168926500Y-60435000D01*
X169401500Y-60435000D01*
X169424779Y-60436144D01*
X169424779Y-60436144D01*
G37*
D11*
X169164000Y-60960000D03*
D10*
G36*
X169424779Y-62186144D02*
X169447834Y-62189563D01*
X169470443Y-62195227D01*
X169492387Y-62203079D01*
X169513457Y-62213044D01*
X169533448Y-62225026D01*
X169552168Y-62238910D01*
X169569438Y-62254562D01*
X169585090Y-62271832D01*
X169598974Y-62290552D01*
X169610956Y-62310543D01*
X169620921Y-62331613D01*
X169628773Y-62353557D01*
X169634437Y-62376166D01*
X169637856Y-62399221D01*
X169639000Y-62422500D01*
X169639000Y-62997500D01*
X169637856Y-63020779D01*
X169634437Y-63043834D01*
X169628773Y-63066443D01*
X169620921Y-63088387D01*
X169610956Y-63109457D01*
X169598974Y-63129448D01*
X169585090Y-63148168D01*
X169569438Y-63165438D01*
X169552168Y-63181090D01*
X169533448Y-63194974D01*
X169513457Y-63206956D01*
X169492387Y-63216921D01*
X169470443Y-63224773D01*
X169447834Y-63230437D01*
X169424779Y-63233856D01*
X169401500Y-63235000D01*
X168926500Y-63235000D01*
X168903221Y-63233856D01*
X168880166Y-63230437D01*
X168857557Y-63224773D01*
X168835613Y-63216921D01*
X168814543Y-63206956D01*
X168794552Y-63194974D01*
X168775832Y-63181090D01*
X168758562Y-63165438D01*
X168742910Y-63148168D01*
X168729026Y-63129448D01*
X168717044Y-63109457D01*
X168707079Y-63088387D01*
X168699227Y-63066443D01*
X168693563Y-63043834D01*
X168690144Y-63020779D01*
X168689000Y-62997500D01*
X168689000Y-62422500D01*
X168690144Y-62399221D01*
X168693563Y-62376166D01*
X168699227Y-62353557D01*
X168707079Y-62331613D01*
X168717044Y-62310543D01*
X168729026Y-62290552D01*
X168742910Y-62271832D01*
X168758562Y-62254562D01*
X168775832Y-62238910D01*
X168794552Y-62225026D01*
X168814543Y-62213044D01*
X168835613Y-62203079D01*
X168857557Y-62195227D01*
X168880166Y-62189563D01*
X168903221Y-62186144D01*
X168926500Y-62185000D01*
X169401500Y-62185000D01*
X169424779Y-62186144D01*
X169424779Y-62186144D01*
G37*
D11*
X169164000Y-62710000D03*
G04 #@! TD*
D10*
G04 #@! TO.C,D1*
G36*
X187568329Y-64600023D02*
X187588957Y-64603083D01*
X187609185Y-64608150D01*
X187628820Y-64615176D01*
X187647672Y-64624092D01*
X187665559Y-64634813D01*
X187682309Y-64647235D01*
X187697760Y-64661240D01*
X187711765Y-64676691D01*
X187724187Y-64693441D01*
X187734908Y-64711328D01*
X187743824Y-64730180D01*
X187750850Y-64749815D01*
X187755917Y-64770043D01*
X187758977Y-64790671D01*
X187760000Y-64811500D01*
X187760000Y-65236500D01*
X187758977Y-65257329D01*
X187755917Y-65277957D01*
X187750850Y-65298185D01*
X187743824Y-65317820D01*
X187734908Y-65336672D01*
X187724187Y-65354559D01*
X187711765Y-65371309D01*
X187697760Y-65386760D01*
X187682309Y-65400765D01*
X187665559Y-65413187D01*
X187647672Y-65423908D01*
X187628820Y-65432824D01*
X187609185Y-65439850D01*
X187588957Y-65444917D01*
X187568329Y-65447977D01*
X187547500Y-65449000D01*
X186747500Y-65449000D01*
X186726671Y-65447977D01*
X186706043Y-65444917D01*
X186685815Y-65439850D01*
X186666180Y-65432824D01*
X186647328Y-65423908D01*
X186629441Y-65413187D01*
X186612691Y-65400765D01*
X186597240Y-65386760D01*
X186583235Y-65371309D01*
X186570813Y-65354559D01*
X186560092Y-65336672D01*
X186551176Y-65317820D01*
X186544150Y-65298185D01*
X186539083Y-65277957D01*
X186536023Y-65257329D01*
X186535000Y-65236500D01*
X186535000Y-64811500D01*
X186536023Y-64790671D01*
X186539083Y-64770043D01*
X186544150Y-64749815D01*
X186551176Y-64730180D01*
X186560092Y-64711328D01*
X186570813Y-64693441D01*
X186583235Y-64676691D01*
X186597240Y-64661240D01*
X186612691Y-64647235D01*
X186629441Y-64634813D01*
X186647328Y-64624092D01*
X186666180Y-64615176D01*
X186685815Y-64608150D01*
X186706043Y-64603083D01*
X186726671Y-64600023D01*
X186747500Y-64599000D01*
X187547500Y-64599000D01*
X187568329Y-64600023D01*
X187568329Y-64600023D01*
G37*
D12*
X187147500Y-65024000D03*
D10*
G36*
X189193329Y-64600023D02*
X189213957Y-64603083D01*
X189234185Y-64608150D01*
X189253820Y-64615176D01*
X189272672Y-64624092D01*
X189290559Y-64634813D01*
X189307309Y-64647235D01*
X189322760Y-64661240D01*
X189336765Y-64676691D01*
X189349187Y-64693441D01*
X189359908Y-64711328D01*
X189368824Y-64730180D01*
X189375850Y-64749815D01*
X189380917Y-64770043D01*
X189383977Y-64790671D01*
X189385000Y-64811500D01*
X189385000Y-65236500D01*
X189383977Y-65257329D01*
X189380917Y-65277957D01*
X189375850Y-65298185D01*
X189368824Y-65317820D01*
X189359908Y-65336672D01*
X189349187Y-65354559D01*
X189336765Y-65371309D01*
X189322760Y-65386760D01*
X189307309Y-65400765D01*
X189290559Y-65413187D01*
X189272672Y-65423908D01*
X189253820Y-65432824D01*
X189234185Y-65439850D01*
X189213957Y-65444917D01*
X189193329Y-65447977D01*
X189172500Y-65449000D01*
X188372500Y-65449000D01*
X188351671Y-65447977D01*
X188331043Y-65444917D01*
X188310815Y-65439850D01*
X188291180Y-65432824D01*
X188272328Y-65423908D01*
X188254441Y-65413187D01*
X188237691Y-65400765D01*
X188222240Y-65386760D01*
X188208235Y-65371309D01*
X188195813Y-65354559D01*
X188185092Y-65336672D01*
X188176176Y-65317820D01*
X188169150Y-65298185D01*
X188164083Y-65277957D01*
X188161023Y-65257329D01*
X188160000Y-65236500D01*
X188160000Y-64811500D01*
X188161023Y-64790671D01*
X188164083Y-64770043D01*
X188169150Y-64749815D01*
X188176176Y-64730180D01*
X188185092Y-64711328D01*
X188195813Y-64693441D01*
X188208235Y-64676691D01*
X188222240Y-64661240D01*
X188237691Y-64647235D01*
X188254441Y-64634813D01*
X188272328Y-64624092D01*
X188291180Y-64615176D01*
X188310815Y-64608150D01*
X188331043Y-64603083D01*
X188351671Y-64600023D01*
X188372500Y-64599000D01*
X189172500Y-64599000D01*
X189193329Y-64600023D01*
X189193329Y-64600023D01*
G37*
D12*
X188772500Y-65024000D03*
G04 #@! TD*
D13*
G04 #@! TO.C,Conn1*
X181332000Y-77200000D03*
X181332000Y-75184000D03*
X181332000Y-72700000D03*
X181332000Y-79700000D03*
G04 #@! TD*
D10*
G04 #@! TO.C,R1*
G36*
X185335779Y-64550144D02*
X185358834Y-64553563D01*
X185381443Y-64559227D01*
X185403387Y-64567079D01*
X185424457Y-64577044D01*
X185444448Y-64589026D01*
X185463168Y-64602910D01*
X185480438Y-64618562D01*
X185496090Y-64635832D01*
X185509974Y-64654552D01*
X185521956Y-64674543D01*
X185531921Y-64695613D01*
X185539773Y-64717557D01*
X185545437Y-64740166D01*
X185548856Y-64763221D01*
X185550000Y-64786500D01*
X185550000Y-65261500D01*
X185548856Y-65284779D01*
X185545437Y-65307834D01*
X185539773Y-65330443D01*
X185531921Y-65352387D01*
X185521956Y-65373457D01*
X185509974Y-65393448D01*
X185496090Y-65412168D01*
X185480438Y-65429438D01*
X185463168Y-65445090D01*
X185444448Y-65458974D01*
X185424457Y-65470956D01*
X185403387Y-65480921D01*
X185381443Y-65488773D01*
X185358834Y-65494437D01*
X185335779Y-65497856D01*
X185312500Y-65499000D01*
X184737500Y-65499000D01*
X184714221Y-65497856D01*
X184691166Y-65494437D01*
X184668557Y-65488773D01*
X184646613Y-65480921D01*
X184625543Y-65470956D01*
X184605552Y-65458974D01*
X184586832Y-65445090D01*
X184569562Y-65429438D01*
X184553910Y-65412168D01*
X184540026Y-65393448D01*
X184528044Y-65373457D01*
X184518079Y-65352387D01*
X184510227Y-65330443D01*
X184504563Y-65307834D01*
X184501144Y-65284779D01*
X184500000Y-65261500D01*
X184500000Y-64786500D01*
X184501144Y-64763221D01*
X184504563Y-64740166D01*
X184510227Y-64717557D01*
X184518079Y-64695613D01*
X184528044Y-64674543D01*
X184540026Y-64654552D01*
X184553910Y-64635832D01*
X184569562Y-64618562D01*
X184586832Y-64602910D01*
X184605552Y-64589026D01*
X184625543Y-64577044D01*
X184646613Y-64567079D01*
X184668557Y-64559227D01*
X184691166Y-64553563D01*
X184714221Y-64550144D01*
X184737500Y-64549000D01*
X185312500Y-64549000D01*
X185335779Y-64550144D01*
X185335779Y-64550144D01*
G37*
D11*
X185025000Y-65024000D03*
D10*
G36*
X183585779Y-64550144D02*
X183608834Y-64553563D01*
X183631443Y-64559227D01*
X183653387Y-64567079D01*
X183674457Y-64577044D01*
X183694448Y-64589026D01*
X183713168Y-64602910D01*
X183730438Y-64618562D01*
X183746090Y-64635832D01*
X183759974Y-64654552D01*
X183771956Y-64674543D01*
X183781921Y-64695613D01*
X183789773Y-64717557D01*
X183795437Y-64740166D01*
X183798856Y-64763221D01*
X183800000Y-64786500D01*
X183800000Y-65261500D01*
X183798856Y-65284779D01*
X183795437Y-65307834D01*
X183789773Y-65330443D01*
X183781921Y-65352387D01*
X183771956Y-65373457D01*
X183759974Y-65393448D01*
X183746090Y-65412168D01*
X183730438Y-65429438D01*
X183713168Y-65445090D01*
X183694448Y-65458974D01*
X183674457Y-65470956D01*
X183653387Y-65480921D01*
X183631443Y-65488773D01*
X183608834Y-65494437D01*
X183585779Y-65497856D01*
X183562500Y-65499000D01*
X182987500Y-65499000D01*
X182964221Y-65497856D01*
X182941166Y-65494437D01*
X182918557Y-65488773D01*
X182896613Y-65480921D01*
X182875543Y-65470956D01*
X182855552Y-65458974D01*
X182836832Y-65445090D01*
X182819562Y-65429438D01*
X182803910Y-65412168D01*
X182790026Y-65393448D01*
X182778044Y-65373457D01*
X182768079Y-65352387D01*
X182760227Y-65330443D01*
X182754563Y-65307834D01*
X182751144Y-65284779D01*
X182750000Y-65261500D01*
X182750000Y-64786500D01*
X182751144Y-64763221D01*
X182754563Y-64740166D01*
X182760227Y-64717557D01*
X182768079Y-64695613D01*
X182778044Y-64674543D01*
X182790026Y-64654552D01*
X182803910Y-64635832D01*
X182819562Y-64618562D01*
X182836832Y-64602910D01*
X182855552Y-64589026D01*
X182875543Y-64577044D01*
X182896613Y-64567079D01*
X182918557Y-64559227D01*
X182941166Y-64553563D01*
X182964221Y-64550144D01*
X182987500Y-64549000D01*
X183562500Y-64549000D01*
X183585779Y-64550144D01*
X183585779Y-64550144D01*
G37*
D11*
X183275000Y-65024000D03*
G04 #@! TD*
D10*
G04 #@! TO.C,R2*
G36*
X172980779Y-77200144D02*
X173003834Y-77203563D01*
X173026443Y-77209227D01*
X173048387Y-77217079D01*
X173069457Y-77227044D01*
X173089448Y-77239026D01*
X173108168Y-77252910D01*
X173125438Y-77268562D01*
X173141090Y-77285832D01*
X173154974Y-77304552D01*
X173166956Y-77324543D01*
X173176921Y-77345613D01*
X173184773Y-77367557D01*
X173190437Y-77390166D01*
X173193856Y-77413221D01*
X173195000Y-77436500D01*
X173195000Y-78011500D01*
X173193856Y-78034779D01*
X173190437Y-78057834D01*
X173184773Y-78080443D01*
X173176921Y-78102387D01*
X173166956Y-78123457D01*
X173154974Y-78143448D01*
X173141090Y-78162168D01*
X173125438Y-78179438D01*
X173108168Y-78195090D01*
X173089448Y-78208974D01*
X173069457Y-78220956D01*
X173048387Y-78230921D01*
X173026443Y-78238773D01*
X173003834Y-78244437D01*
X172980779Y-78247856D01*
X172957500Y-78249000D01*
X172482500Y-78249000D01*
X172459221Y-78247856D01*
X172436166Y-78244437D01*
X172413557Y-78238773D01*
X172391613Y-78230921D01*
X172370543Y-78220956D01*
X172350552Y-78208974D01*
X172331832Y-78195090D01*
X172314562Y-78179438D01*
X172298910Y-78162168D01*
X172285026Y-78143448D01*
X172273044Y-78123457D01*
X172263079Y-78102387D01*
X172255227Y-78080443D01*
X172249563Y-78057834D01*
X172246144Y-78034779D01*
X172245000Y-78011500D01*
X172245000Y-77436500D01*
X172246144Y-77413221D01*
X172249563Y-77390166D01*
X172255227Y-77367557D01*
X172263079Y-77345613D01*
X172273044Y-77324543D01*
X172285026Y-77304552D01*
X172298910Y-77285832D01*
X172314562Y-77268562D01*
X172331832Y-77252910D01*
X172350552Y-77239026D01*
X172370543Y-77227044D01*
X172391613Y-77217079D01*
X172413557Y-77209227D01*
X172436166Y-77203563D01*
X172459221Y-77200144D01*
X172482500Y-77199000D01*
X172957500Y-77199000D01*
X172980779Y-77200144D01*
X172980779Y-77200144D01*
G37*
D11*
X172720000Y-77724000D03*
D10*
G36*
X172980779Y-78950144D02*
X173003834Y-78953563D01*
X173026443Y-78959227D01*
X173048387Y-78967079D01*
X173069457Y-78977044D01*
X173089448Y-78989026D01*
X173108168Y-79002910D01*
X173125438Y-79018562D01*
X173141090Y-79035832D01*
X173154974Y-79054552D01*
X173166956Y-79074543D01*
X173176921Y-79095613D01*
X173184773Y-79117557D01*
X173190437Y-79140166D01*
X173193856Y-79163221D01*
X173195000Y-79186500D01*
X173195000Y-79761500D01*
X173193856Y-79784779D01*
X173190437Y-79807834D01*
X173184773Y-79830443D01*
X173176921Y-79852387D01*
X173166956Y-79873457D01*
X173154974Y-79893448D01*
X173141090Y-79912168D01*
X173125438Y-79929438D01*
X173108168Y-79945090D01*
X173089448Y-79958974D01*
X173069457Y-79970956D01*
X173048387Y-79980921D01*
X173026443Y-79988773D01*
X173003834Y-79994437D01*
X172980779Y-79997856D01*
X172957500Y-79999000D01*
X172482500Y-79999000D01*
X172459221Y-79997856D01*
X172436166Y-79994437D01*
X172413557Y-79988773D01*
X172391613Y-79980921D01*
X172370543Y-79970956D01*
X172350552Y-79958974D01*
X172331832Y-79945090D01*
X172314562Y-79929438D01*
X172298910Y-79912168D01*
X172285026Y-79893448D01*
X172273044Y-79873457D01*
X172263079Y-79852387D01*
X172255227Y-79830443D01*
X172249563Y-79807834D01*
X172246144Y-79784779D01*
X172245000Y-79761500D01*
X172245000Y-79186500D01*
X172246144Y-79163221D01*
X172249563Y-79140166D01*
X172255227Y-79117557D01*
X172263079Y-79095613D01*
X172273044Y-79074543D01*
X172285026Y-79054552D01*
X172298910Y-79035832D01*
X172314562Y-79018562D01*
X172331832Y-79002910D01*
X172350552Y-78989026D01*
X172370543Y-78977044D01*
X172391613Y-78967079D01*
X172413557Y-78959227D01*
X172436166Y-78953563D01*
X172459221Y-78950144D01*
X172482500Y-78949000D01*
X172957500Y-78949000D01*
X172980779Y-78950144D01*
X172980779Y-78950144D01*
G37*
D11*
X172720000Y-79474000D03*
G04 #@! TD*
D10*
G04 #@! TO.C,R3*
G36*
X175520779Y-77200144D02*
X175543834Y-77203563D01*
X175566443Y-77209227D01*
X175588387Y-77217079D01*
X175609457Y-77227044D01*
X175629448Y-77239026D01*
X175648168Y-77252910D01*
X175665438Y-77268562D01*
X175681090Y-77285832D01*
X175694974Y-77304552D01*
X175706956Y-77324543D01*
X175716921Y-77345613D01*
X175724773Y-77367557D01*
X175730437Y-77390166D01*
X175733856Y-77413221D01*
X175735000Y-77436500D01*
X175735000Y-78011500D01*
X175733856Y-78034779D01*
X175730437Y-78057834D01*
X175724773Y-78080443D01*
X175716921Y-78102387D01*
X175706956Y-78123457D01*
X175694974Y-78143448D01*
X175681090Y-78162168D01*
X175665438Y-78179438D01*
X175648168Y-78195090D01*
X175629448Y-78208974D01*
X175609457Y-78220956D01*
X175588387Y-78230921D01*
X175566443Y-78238773D01*
X175543834Y-78244437D01*
X175520779Y-78247856D01*
X175497500Y-78249000D01*
X175022500Y-78249000D01*
X174999221Y-78247856D01*
X174976166Y-78244437D01*
X174953557Y-78238773D01*
X174931613Y-78230921D01*
X174910543Y-78220956D01*
X174890552Y-78208974D01*
X174871832Y-78195090D01*
X174854562Y-78179438D01*
X174838910Y-78162168D01*
X174825026Y-78143448D01*
X174813044Y-78123457D01*
X174803079Y-78102387D01*
X174795227Y-78080443D01*
X174789563Y-78057834D01*
X174786144Y-78034779D01*
X174785000Y-78011500D01*
X174785000Y-77436500D01*
X174786144Y-77413221D01*
X174789563Y-77390166D01*
X174795227Y-77367557D01*
X174803079Y-77345613D01*
X174813044Y-77324543D01*
X174825026Y-77304552D01*
X174838910Y-77285832D01*
X174854562Y-77268562D01*
X174871832Y-77252910D01*
X174890552Y-77239026D01*
X174910543Y-77227044D01*
X174931613Y-77217079D01*
X174953557Y-77209227D01*
X174976166Y-77203563D01*
X174999221Y-77200144D01*
X175022500Y-77199000D01*
X175497500Y-77199000D01*
X175520779Y-77200144D01*
X175520779Y-77200144D01*
G37*
D11*
X175260000Y-77724000D03*
D10*
G36*
X175520779Y-78950144D02*
X175543834Y-78953563D01*
X175566443Y-78959227D01*
X175588387Y-78967079D01*
X175609457Y-78977044D01*
X175629448Y-78989026D01*
X175648168Y-79002910D01*
X175665438Y-79018562D01*
X175681090Y-79035832D01*
X175694974Y-79054552D01*
X175706956Y-79074543D01*
X175716921Y-79095613D01*
X175724773Y-79117557D01*
X175730437Y-79140166D01*
X175733856Y-79163221D01*
X175735000Y-79186500D01*
X175735000Y-79761500D01*
X175733856Y-79784779D01*
X175730437Y-79807834D01*
X175724773Y-79830443D01*
X175716921Y-79852387D01*
X175706956Y-79873457D01*
X175694974Y-79893448D01*
X175681090Y-79912168D01*
X175665438Y-79929438D01*
X175648168Y-79945090D01*
X175629448Y-79958974D01*
X175609457Y-79970956D01*
X175588387Y-79980921D01*
X175566443Y-79988773D01*
X175543834Y-79994437D01*
X175520779Y-79997856D01*
X175497500Y-79999000D01*
X175022500Y-79999000D01*
X174999221Y-79997856D01*
X174976166Y-79994437D01*
X174953557Y-79988773D01*
X174931613Y-79980921D01*
X174910543Y-79970956D01*
X174890552Y-79958974D01*
X174871832Y-79945090D01*
X174854562Y-79929438D01*
X174838910Y-79912168D01*
X174825026Y-79893448D01*
X174813044Y-79873457D01*
X174803079Y-79852387D01*
X174795227Y-79830443D01*
X174789563Y-79807834D01*
X174786144Y-79784779D01*
X174785000Y-79761500D01*
X174785000Y-79186500D01*
X174786144Y-79163221D01*
X174789563Y-79140166D01*
X174795227Y-79117557D01*
X174803079Y-79095613D01*
X174813044Y-79074543D01*
X174825026Y-79054552D01*
X174838910Y-79035832D01*
X174854562Y-79018562D01*
X174871832Y-79002910D01*
X174890552Y-78989026D01*
X174910543Y-78977044D01*
X174931613Y-78967079D01*
X174953557Y-78959227D01*
X174976166Y-78953563D01*
X174999221Y-78950144D01*
X175022500Y-78949000D01*
X175497500Y-78949000D01*
X175520779Y-78950144D01*
X175520779Y-78950144D01*
G37*
D11*
X175260000Y-79474000D03*
G04 #@! TD*
D10*
G04 #@! TO.C,R4*
G36*
X172980779Y-74152144D02*
X173003834Y-74155563D01*
X173026443Y-74161227D01*
X173048387Y-74169079D01*
X173069457Y-74179044D01*
X173089448Y-74191026D01*
X173108168Y-74204910D01*
X173125438Y-74220562D01*
X173141090Y-74237832D01*
X173154974Y-74256552D01*
X173166956Y-74276543D01*
X173176921Y-74297613D01*
X173184773Y-74319557D01*
X173190437Y-74342166D01*
X173193856Y-74365221D01*
X173195000Y-74388500D01*
X173195000Y-74963500D01*
X173193856Y-74986779D01*
X173190437Y-75009834D01*
X173184773Y-75032443D01*
X173176921Y-75054387D01*
X173166956Y-75075457D01*
X173154974Y-75095448D01*
X173141090Y-75114168D01*
X173125438Y-75131438D01*
X173108168Y-75147090D01*
X173089448Y-75160974D01*
X173069457Y-75172956D01*
X173048387Y-75182921D01*
X173026443Y-75190773D01*
X173003834Y-75196437D01*
X172980779Y-75199856D01*
X172957500Y-75201000D01*
X172482500Y-75201000D01*
X172459221Y-75199856D01*
X172436166Y-75196437D01*
X172413557Y-75190773D01*
X172391613Y-75182921D01*
X172370543Y-75172956D01*
X172350552Y-75160974D01*
X172331832Y-75147090D01*
X172314562Y-75131438D01*
X172298910Y-75114168D01*
X172285026Y-75095448D01*
X172273044Y-75075457D01*
X172263079Y-75054387D01*
X172255227Y-75032443D01*
X172249563Y-75009834D01*
X172246144Y-74986779D01*
X172245000Y-74963500D01*
X172245000Y-74388500D01*
X172246144Y-74365221D01*
X172249563Y-74342166D01*
X172255227Y-74319557D01*
X172263079Y-74297613D01*
X172273044Y-74276543D01*
X172285026Y-74256552D01*
X172298910Y-74237832D01*
X172314562Y-74220562D01*
X172331832Y-74204910D01*
X172350552Y-74191026D01*
X172370543Y-74179044D01*
X172391613Y-74169079D01*
X172413557Y-74161227D01*
X172436166Y-74155563D01*
X172459221Y-74152144D01*
X172482500Y-74151000D01*
X172957500Y-74151000D01*
X172980779Y-74152144D01*
X172980779Y-74152144D01*
G37*
D11*
X172720000Y-74676000D03*
D10*
G36*
X172980779Y-72402144D02*
X173003834Y-72405563D01*
X173026443Y-72411227D01*
X173048387Y-72419079D01*
X173069457Y-72429044D01*
X173089448Y-72441026D01*
X173108168Y-72454910D01*
X173125438Y-72470562D01*
X173141090Y-72487832D01*
X173154974Y-72506552D01*
X173166956Y-72526543D01*
X173176921Y-72547613D01*
X173184773Y-72569557D01*
X173190437Y-72592166D01*
X173193856Y-72615221D01*
X173195000Y-72638500D01*
X173195000Y-73213500D01*
X173193856Y-73236779D01*
X173190437Y-73259834D01*
X173184773Y-73282443D01*
X173176921Y-73304387D01*
X173166956Y-73325457D01*
X173154974Y-73345448D01*
X173141090Y-73364168D01*
X173125438Y-73381438D01*
X173108168Y-73397090D01*
X173089448Y-73410974D01*
X173069457Y-73422956D01*
X173048387Y-73432921D01*
X173026443Y-73440773D01*
X173003834Y-73446437D01*
X172980779Y-73449856D01*
X172957500Y-73451000D01*
X172482500Y-73451000D01*
X172459221Y-73449856D01*
X172436166Y-73446437D01*
X172413557Y-73440773D01*
X172391613Y-73432921D01*
X172370543Y-73422956D01*
X172350552Y-73410974D01*
X172331832Y-73397090D01*
X172314562Y-73381438D01*
X172298910Y-73364168D01*
X172285026Y-73345448D01*
X172273044Y-73325457D01*
X172263079Y-73304387D01*
X172255227Y-73282443D01*
X172249563Y-73259834D01*
X172246144Y-73236779D01*
X172245000Y-73213500D01*
X172245000Y-72638500D01*
X172246144Y-72615221D01*
X172249563Y-72592166D01*
X172255227Y-72569557D01*
X172263079Y-72547613D01*
X172273044Y-72526543D01*
X172285026Y-72506552D01*
X172298910Y-72487832D01*
X172314562Y-72470562D01*
X172331832Y-72454910D01*
X172350552Y-72441026D01*
X172370543Y-72429044D01*
X172391613Y-72419079D01*
X172413557Y-72411227D01*
X172436166Y-72405563D01*
X172459221Y-72402144D01*
X172482500Y-72401000D01*
X172957500Y-72401000D01*
X172980779Y-72402144D01*
X172980779Y-72402144D01*
G37*
D11*
X172720000Y-72926000D03*
G04 #@! TD*
D10*
G04 #@! TO.C,R5*
G36*
X175520779Y-74152144D02*
X175543834Y-74155563D01*
X175566443Y-74161227D01*
X175588387Y-74169079D01*
X175609457Y-74179044D01*
X175629448Y-74191026D01*
X175648168Y-74204910D01*
X175665438Y-74220562D01*
X175681090Y-74237832D01*
X175694974Y-74256552D01*
X175706956Y-74276543D01*
X175716921Y-74297613D01*
X175724773Y-74319557D01*
X175730437Y-74342166D01*
X175733856Y-74365221D01*
X175735000Y-74388500D01*
X175735000Y-74963500D01*
X175733856Y-74986779D01*
X175730437Y-75009834D01*
X175724773Y-75032443D01*
X175716921Y-75054387D01*
X175706956Y-75075457D01*
X175694974Y-75095448D01*
X175681090Y-75114168D01*
X175665438Y-75131438D01*
X175648168Y-75147090D01*
X175629448Y-75160974D01*
X175609457Y-75172956D01*
X175588387Y-75182921D01*
X175566443Y-75190773D01*
X175543834Y-75196437D01*
X175520779Y-75199856D01*
X175497500Y-75201000D01*
X175022500Y-75201000D01*
X174999221Y-75199856D01*
X174976166Y-75196437D01*
X174953557Y-75190773D01*
X174931613Y-75182921D01*
X174910543Y-75172956D01*
X174890552Y-75160974D01*
X174871832Y-75147090D01*
X174854562Y-75131438D01*
X174838910Y-75114168D01*
X174825026Y-75095448D01*
X174813044Y-75075457D01*
X174803079Y-75054387D01*
X174795227Y-75032443D01*
X174789563Y-75009834D01*
X174786144Y-74986779D01*
X174785000Y-74963500D01*
X174785000Y-74388500D01*
X174786144Y-74365221D01*
X174789563Y-74342166D01*
X174795227Y-74319557D01*
X174803079Y-74297613D01*
X174813044Y-74276543D01*
X174825026Y-74256552D01*
X174838910Y-74237832D01*
X174854562Y-74220562D01*
X174871832Y-74204910D01*
X174890552Y-74191026D01*
X174910543Y-74179044D01*
X174931613Y-74169079D01*
X174953557Y-74161227D01*
X174976166Y-74155563D01*
X174999221Y-74152144D01*
X175022500Y-74151000D01*
X175497500Y-74151000D01*
X175520779Y-74152144D01*
X175520779Y-74152144D01*
G37*
D11*
X175260000Y-74676000D03*
D10*
G36*
X175520779Y-72402144D02*
X175543834Y-72405563D01*
X175566443Y-72411227D01*
X175588387Y-72419079D01*
X175609457Y-72429044D01*
X175629448Y-72441026D01*
X175648168Y-72454910D01*
X175665438Y-72470562D01*
X175681090Y-72487832D01*
X175694974Y-72506552D01*
X175706956Y-72526543D01*
X175716921Y-72547613D01*
X175724773Y-72569557D01*
X175730437Y-72592166D01*
X175733856Y-72615221D01*
X175735000Y-72638500D01*
X175735000Y-73213500D01*
X175733856Y-73236779D01*
X175730437Y-73259834D01*
X175724773Y-73282443D01*
X175716921Y-73304387D01*
X175706956Y-73325457D01*
X175694974Y-73345448D01*
X175681090Y-73364168D01*
X175665438Y-73381438D01*
X175648168Y-73397090D01*
X175629448Y-73410974D01*
X175609457Y-73422956D01*
X175588387Y-73432921D01*
X175566443Y-73440773D01*
X175543834Y-73446437D01*
X175520779Y-73449856D01*
X175497500Y-73451000D01*
X175022500Y-73451000D01*
X174999221Y-73449856D01*
X174976166Y-73446437D01*
X174953557Y-73440773D01*
X174931613Y-73432921D01*
X174910543Y-73422956D01*
X174890552Y-73410974D01*
X174871832Y-73397090D01*
X174854562Y-73381438D01*
X174838910Y-73364168D01*
X174825026Y-73345448D01*
X174813044Y-73325457D01*
X174803079Y-73304387D01*
X174795227Y-73282443D01*
X174789563Y-73259834D01*
X174786144Y-73236779D01*
X174785000Y-73213500D01*
X174785000Y-72638500D01*
X174786144Y-72615221D01*
X174789563Y-72592166D01*
X174795227Y-72569557D01*
X174803079Y-72547613D01*
X174813044Y-72526543D01*
X174825026Y-72506552D01*
X174838910Y-72487832D01*
X174854562Y-72470562D01*
X174871832Y-72454910D01*
X174890552Y-72441026D01*
X174910543Y-72429044D01*
X174931613Y-72419079D01*
X174953557Y-72411227D01*
X174976166Y-72405563D01*
X174999221Y-72402144D01*
X175022500Y-72401000D01*
X175497500Y-72401000D01*
X175520779Y-72402144D01*
X175520779Y-72402144D01*
G37*
D11*
X175260000Y-72926000D03*
G04 #@! TD*
D14*
G04 #@! TO.C,U1*
X165355000Y-65195000D03*
X162305000Y-68545000D03*
X162305000Y-65195000D03*
X165355000Y-68545000D03*
D15*
X166110000Y-60570000D03*
X161550000Y-60570000D03*
G04 #@! TD*
M02*
